# SSTK version 0.8.0
# 43
mtllib original-43.mtl
o #ID49
v -0.301382 -0.190479 0.309579
v -0.290238 -0.200385 0.309579
v -0.301382 -0.274282 0.309579
v -0.248984 -0.190479 0.309579
v -0.248984 -0.200385 0.309579
v -0.251798 -0.223348 0.309579
v -0.290238 -0.233253 0.309579
v -0.290238 -0.223348 0.309579
v -0.251798 -0.233253 0.309579
v -0.290238 -0.264376 0.309579
v -0.248984 -0.274282 0.309579
v -0.248984 -0.264376 0.309579
vn 0 0 -1
usemtl material_0_0
f 1//1 2//1 3//1
f 2//1 1//1 4//1
f 2//1 4//1 5//1
f 6//1 7//1 8//1
f 7//1 6//1 9//1
f 3//1 10//1 11//1
f 10//1 3//1 2//1
f 10//1 2//1 8//1
f 10//1 8//1 7//1
f 11//1 10//1 12//1
