# SSTK version 0.8.0
# 49
mtllib original-49.mtl
o #ID85
v 0.195411 -0.190479 0.309579
v 0.205429 -0.274282 0.309579
v 0.183986 -0.190479 0.309579
v 0.212295 -0.260155 0.309579
v 0.217698 -0.274282 0.309579
v 0.229067 -0.190479 0.309579
v 0.234357 -0.204719 0.309579
v 0.240380 -0.190479 0.309579
v 0.251411 -0.274282 0.309579
v 0.257320 -0.260831 0.309579
v 0.263961 -0.274282 0.309579
v 0.274092 -0.190479 0.309579
v 0.285010 -0.190479 0.309579
vn 0 0 -1
usemtl material_0_0
f 1//1 2//1 3//1
f 2//1 1//1 4//1
f 2//1 4//1 5//1
f 5//1 4//1 6//1
f 5//1 6//1 7//1
f 7//1 6//1 8//1
f 7//1 8//1 9//1
f 9//1 8//1 10//1
f 9//1 10//1 11//1
f 11//1 10//1 12//1
f 11//1 12//1 13//1
