# SSTK version 0.8.0
# 2
mtllib original-2.mtl
o #ID219
v 0.769434 -0.416603 0.289974
v 0.778093 -0.417743 0.232314
v 0.769434 -0.416603 0.232314
v 0.778093 -0.417743 0.289974
v 0.745778 -0.392947 0.232314
v 0.745778 -0.375629 0.232314
v 0.744638 -0.384288 0.232314
v 0.749121 -0.401015 0.232314
v 0.749121 -0.367561 0.232314
v 0.754437 -0.407944 0.232314
v 0.754437 -0.360632 0.232314
v 0.761366 -0.413261 0.232314
v 0.761366 -0.355315 0.232314
v 0.769434 -0.416603 0.232314
v 0.769434 -0.351973 0.232314
v 0.778093 -0.417743 0.232314
v 0.778093 -0.350833 0.232314
v 0.786752 -0.416603 0.232314
v 0.786752 -0.351973 0.232314
v 0.794821 -0.413261 0.232314
v 0.794821 -0.355315 0.232314
v 0.801749 -0.407944 0.232314
v 0.801749 -0.360632 0.232314
v 0.807066 -0.367561 0.232314
v 0.807066 -0.401015 0.232314
v 0.810408 -0.392947 0.232314
v 0.810408 -0.375629 0.232314
v 0.811548 -0.384288 0.232314
v 0.761366 -0.413261 0.289974
v 0.761366 -0.413261 0.232314
v 0.786752 -0.416603 0.232314
v 0.786752 -0.416603 0.289974
v 0.749121 -0.401015 0.232314
v 0.754437 -0.407944 0.289974
v 0.754437 -0.407944 0.232314
v 0.749121 -0.401015 0.289974
v 0.794821 -0.413261 0.232314
v 0.794821 -0.413261 0.289974
v 0.801749 -0.407944 0.232314
v 0.801749 -0.407944 0.289974
v 0.807066 -0.401015 0.289974
v 0.807066 -0.401015 0.232314
v 0.810408 -0.392947 0.289974
v 0.810408 -0.392947 0.232314
v 0.811548 -0.384288 0.289974
v 0.811548 -0.384288 0.232314
v 0.810408 -0.375629 0.289974
v 0.810408 -0.375629 0.232314
v 0.807066 -0.367561 0.289974
v 0.807066 -0.367561 0.232314
v 0.801749 -0.360632 0.289974
v 0.801749 -0.360632 0.232314
v 0.794821 -0.355315 0.232314
v 0.794821 -0.355315 0.289974
v 0.786752 -0.351973 0.232314
v 0.786752 -0.351973 0.289974
v 0.778093 -0.350833 0.232314
v 0.778093 -0.350833 0.289974
v 0.769434 -0.351973 0.232314
v 0.769434 -0.351973 0.289974
v 0.761366 -0.355315 0.232314
v 0.761366 -0.355315 0.289974
v 0.754437 -0.360632 0.232314
v 0.754437 -0.360632 0.289974
v 0.749121 -0.367561 0.289974
v 0.749121 -0.367561 0.232314
v 0.745778 -0.375629 0.289974
v 0.745778 -0.375629 0.232314
v 0.744638 -0.384288 0.289974
v 0.744638 -0.384288 0.232314
v 0.745778 -0.392947 0.289974
v 0.745778 -0.392947 0.232314
vn 0.25881900959356163 0.9659258358036645 0
vn 0 1 0
vn 0 0 1
vn 0.5000000016387101 0.866025402838329 0
vn -0.25881900959356163 0.9659258358036645 0
vn 0.866025402838329 0.5000000016387101 0
vn 0.7071067811865476 0.7071067811865476 0
vn -0.5000000016387101 0.866025402838329 0
vn -0.7071067811865476 0.7071067811865476 0
vn -0.866025402838329 0.5000000016387101 0
vn -0.9659258358036645 0.25881900959356163 0
vn -1 0 0
vn -0.9659258358036645 -0.25881900959356163 0
vn -0.866025402838329 -0.5000000016387101 0
vn -0.7071067811865476 -0.7071067811865476 0
vn -0.5000000016387101 -0.866025402838329 0
vn -0.25881900959356163 -0.9659258358036645 0
vn 0 -1 0
vn 0.25881900959356163 -0.9659258358036645 0
vn 0.5000000016387101 -0.866025402838329 0
vn 0.7071067811865476 -0.7071067811865476 0
vn 0.866025402838329 -0.5000000016387101 0
vn 0.9659258358036645 -0.25881900959356163 0
vn 1 0 0
vn 0.9659258358036645 0.25881900959356163 0
usemtl material_0_0
f 1//1 2//2 3//1
f 2//2 1//1 4//2
f 5//3 6//3 7//3
f 6//3 5//3 8//3
f 6//3 8//3 9//3
f 9//3 8//3 10//3
f 9//3 10//3 11//3
f 11//3 10//3 12//3
f 11//3 12//3 13//3
f 13//3 12//3 14//3
f 13//3 14//3 15//3
f 15//3 14//3 16//3
f 15//3 16//3 17//3
f 17//3 16//3 18//3
f 17//3 18//3 19//3
f 19//3 18//3 20//3
f 19//3 20//3 21//3
f 21//3 20//3 22//3
f 21//3 22//3 23//3
f 23//3 22//3 24//3
f 24//3 22//3 25//3
f 24//3 25//3 26//3
f 24//3 26//3 27//3
f 27//3 26//3 28//3
f 29//4 3//1 30//4
f 3//1 29//4 1//1
f 4//2 31//5 2//2
f 31//5 4//2 32//5
f 33//6 34//7 35//7
f 34//7 33//6 36//6
f 34//7 30//4 35//7
f 30//4 34//7 29//4
f 32//5 37//8 31//5
f 37//8 32//5 38//8
f 38//8 39//9 37//8
f 39//9 38//8 40//9
f 41//10 39//9 40//9
f 39//9 41//10 42//10
f 43//11 42//10 41//10
f 42//10 43//11 44//11
f 45//12 44//11 43//11
f 44//11 45//12 46//12
f 47//13 46//12 45//12
f 46//12 47//13 48//13
f 49//14 48//13 47//13
f 48//13 49//14 50//14
f 51//15 50//14 49//14
f 50//14 51//15 52//15
f 51//15 53//16 52//15
f 53//16 51//15 54//16
f 54//16 55//17 53//16
f 55//17 54//16 56//17
f 56//17 57//18 55//17
f 57//18 56//17 58//18
f 58//18 59//19 57//18
f 59//19 58//18 60//19
f 60//19 61//20 59//19
f 61//20 60//19 62//20
f 62//20 63//21 61//20
f 63//21 62//20 64//21
f 63//21 65//22 66//22
f 65//22 63//21 64//21
f 66//22 67//23 68//23
f 67//23 66//22 65//22
f 68//23 69//24 70//24
f 69//24 68//23 67//23
f 70//24 71//25 72//25
f 71//25 70//24 69//24
f 72//25 36//6 33//6
f 36//6 72//25 71//25
