# SSTK version 0.8.0
# 8
mtllib original-8.mtl
o #ID259
v -0.148083 0.042935 0.328414
v -0.151357 0.018062 0.366854
v -0.151357 0.018062 0.328414
v -0.148083 0.042935 0.366854
v -0.151357 0.067807 0.328414
v -0.151357 0.067807 0.366854
v -0.292232 -0.040290 0.366854
v -0.281313 0.032986 0.366854
v -0.282622 0.042935 0.366854
v -0.269055 -0.049890 0.366854
v -0.277472 0.023715 0.366854
v -0.271364 0.015754 0.366854
v -0.263402 0.009645 0.366854
v -0.244183 -0.053165 0.366854
v -0.254131 0.005805 0.366854
v -0.244183 0.004495 0.366854
v -0.219310 -0.049890 0.366854
v -0.234233 0.005805 0.366854
v -0.224963 0.009645 0.366854
v -0.217001 0.015754 0.366854
v -0.196133 -0.040290 0.366854
v -0.210893 0.023715 0.366854
v -0.207052 0.032986 0.366854
v -0.205743 0.042935 0.366854
v -0.196133 0.126160 0.366854
v -0.176230 0.110888 0.366854
v -0.176230 -0.025018 0.366854
v -0.160958 -0.005115 0.366854
v -0.160958 0.090985 0.366854
v -0.151357 0.018062 0.366854
v -0.151357 0.067807 0.366854
v -0.148083 0.042935 0.366854
v -0.337008 0.018062 0.366854
v -0.337008 0.067807 0.366854
v -0.340282 0.042935 0.366854
v -0.327407 -0.005115 0.366854
v -0.327407 0.090985 0.366854
v -0.312135 -0.025018 0.366854
v -0.312135 0.110888 0.366854
v -0.292232 0.126160 0.366854
v -0.281313 0.052884 0.366854
v -0.269055 0.135760 0.366854
v -0.277472 0.062155 0.366854
v -0.271364 0.070116 0.366854
v -0.263402 0.076225 0.366854
v -0.244183 0.139035 0.366854
v -0.254131 0.080065 0.366854
v -0.244183 0.081375 0.366854
v -0.234233 0.080065 0.366854
v -0.219310 0.135760 0.366854
v -0.224963 0.076225 0.366854
v -0.217001 0.070116 0.366854
v -0.210893 0.062155 0.366854
v -0.207052 0.052884 0.366854
v -0.160958 -0.005115 0.366854
v -0.160958 -0.005115 0.328414
v -0.160958 0.090985 0.328414
v -0.160958 0.090985 0.366854
v -0.196133 -0.040290 0.366854
v -0.219310 -0.049890 0.328414
v -0.196133 -0.040290 0.328414
v -0.219310 -0.049890 0.366854
v -0.176230 -0.025018 0.366854
v -0.176230 -0.025018 0.328414
v -0.176230 0.110888 0.328414
v -0.176230 0.110888 0.366854
v -0.196133 0.126160 0.366854
v -0.196133 0.126160 0.328414
v -0.219310 0.135760 0.366854
v -0.219310 0.135760 0.328414
v -0.244183 0.139035 0.366854
v -0.244183 0.139035 0.328414
v -0.269055 0.135760 0.366854
v -0.269055 0.135760 0.328414
v -0.292232 0.126160 0.366854
v -0.292232 0.126160 0.328414
v -0.312135 0.110888 0.366854
v -0.312135 0.110888 0.328414
v -0.327407 0.090985 0.328414
v -0.327407 0.090985 0.366854
v -0.337008 0.067807 0.328414
v -0.337008 0.067807 0.366854
v -0.340282 0.042935 0.328414
v -0.340282 0.042935 0.366854
v -0.337008 0.018062 0.328414
v -0.337008 0.018062 0.366854
v -0.327407 -0.005115 0.328414
v -0.327407 -0.005115 0.366854
v -0.312135 -0.025018 0.328414
v -0.312135 -0.025018 0.366854
v -0.292232 -0.040290 0.366854
v -0.292232 -0.040290 0.328414
v -0.269055 -0.049890 0.366854
v -0.269055 -0.049890 0.328414
v -0.244183 -0.053165 0.366854
v -0.244183 -0.053165 0.328414
vt 0.003435688 0
vt 0.002576766 0.001312336
vt 0.002576766 0
vt 0.003435688 0.001312336
vt 0.004294609 0
vt 0.004294609 0.001312336
vt 0.01973233 0.01425312
vt 0.02010513 0.01675475
vt 0.02006041 0.01709441
vt 0.02052361 0.01392536
vt 0.02023623 0.01643824
vt 0.02044479 0.01616645
vt 0.02071658 0.01595789
vt 0.02137275 0.01381357
vt 0.02103309 0.01582679
vt 0.02137275 0.01578207
vt 0.02222189 0.01392536
vt 0.02171241 0.01582679
vt 0.02202892 0.01595789
vt 0.02230071 0.01616645
vt 0.02301317 0.01425312
vt 0.02250927 0.01643824
vt 0.02264037 0.01675475
vt 0.02268509 0.01709441
vt 0.02301317 0.0199357
vt 0.02369266 0.01941431
vt 0.02369266 0.01477451
vt 0.02421404 0.01545399
vt 0.02421404 0.01873483
vt 0.0245418 0.01624527
vt 0.0245418 0.01794355
vt 0.02465359 0.01709441
vt 0.0182037 0.01624527
vt 0.0182037 0.01794355
vt 0.01809191 0.01709441
vt 0.01853146 0.01545399
vt 0.01853146 0.01873483
vt 0.01905285 0.01477451
vt 0.01905285 0.01941431
vt 0.01973233 0.0199357
vt 0.02010513 0.01743407
vt 0.02052361 0.02026346
vt 0.02023623 0.01775058
vt 0.02044479 0.01802237
vt 0.02071658 0.01823093
vt 0.02137275 0.02037525
vt 0.02103309 0.01836203
vt 0.02137275 0.01840675
vt 0.02171241 0.01836203
vt 0.02222189 0.02026346
vt 0.02202892 0.01823093
vt 0.02230071 0.01802237
vt 0.02250927 0.01775058
vt 0.02264037 0.01743407
vt 0.002576766 6.938894e-18
vt 0.001717844 0.001312336
vt 0.001717844 6.938894e-18
vt 0.005153531 0
vt 0.005153531 0.001312336
vt 0.02061413 0.001312336
vt 0.0197552 0
vt 0.02061413 0
vt 0.0197552 0.001312336
vt 0.0008589219 0.001312336
vt 3.469447e-18 0
vt 0.0008589219 0
vt 3.469447e-18 0.001312336
vt 0.0008589219 6.938894e-18
vt 0.006012453 0
vt 0.006012453 0.001312336
vt 0.006871375 0.001312336
vt 0.006871375 0
vt 0.007730297 0.001312336
vt 0.007730297 0
vt 0.008589219 0.001312336
vt 0.008589219 0
vt 0.009448141 0.001312336
vt 0.009448141 0
vt 0.01030706 0.001312336
vt 0.009448141 6.938894e-18
vt 0.01030706 6.938894e-18
vt 0.01116598 0.001312336
vt 0.01030706 0
vt 0.01116598 0
vt 0.01202491 0
vt 0.01202491 0.001312336
vt 0.01288383 0
vt 0.01288383 0.001312336
vt 0.01374275 6.938894e-18
vt 0.01374275 0.001312336
vt 0.01288383 6.938894e-18
vt 0.01460167 0
vt 0.01460167 0.001312336
vt 0.01374275 0
vt 0.01546059 0
vt 0.01546059 0.001312336
vt 0.01631952 6.938894e-18
vt 0.01631952 0.001312336
vt 0.01546059 6.938894e-18
vt 0.01717844 0.001312336
vt 0.01631952 -6.938894e-18
vt 0.01717844 -6.938894e-18
vt 0.01803736 0.001312336
vt 0.01717844 6.938894e-18
vt 0.01803736 6.938894e-18
vt 0.01889628 0.001312336
vt 0.01803736 0
vt 0.01889628 0
vn 1 0 0
vn 0.9659258358036645 -0.25881900959356163 0
vn 0.9659258358036645 0.25881900959356163 0
vn 0 0 1
vn 0.866025402838329 -0.5000000016387101 0
vn 0.866025402838329 0.5000000016387101 0
vn 0.5000000016387101 -0.866025402838329 0
vn 0.25881900959356163 -0.9659258358036645 0
vn 0.7071067811865476 -0.7071067811865476 0
vn 0.7071067811865476 0.7071067811865476 0
vn 0.5000000016387101 0.866025402838329 0
vn 0.25881900959356163 0.9659258358036645 0
vn 0 1 0
vn -0.25881900959356163 0.9659258358036645 0
vn -0.5000000016387101 0.866025402838329 0
vn -0.7071067811865476 0.7071067811865476 0
vn -0.866025402838329 0.5000000016387101 0
vn -0.9659258358036645 0.25881900959356163 0
vn -1 0 0
vn -0.9659258358036645 -0.25881900959356163 0
vn -0.866025402838329 -0.5000000016387101 0
vn -0.7071067811865476 -0.7071067811865476 0
vn -0.5000000016387101 -0.866025402838329 0
vn -0.25881900959356163 -0.9659258358036645 0
vn 0 -1 0
usemtl material_0_0
f 1/1/1 2/2/2 3/3/2
f 2/2/2 1/1/1 4/4/1
f 5/5/3 4/4/1 1/1/1
f 4/4/1 5/5/3 6/6/3
f 7/7/4 8/8/4 9/9/4
f 8/8/4 7/7/4 10/10/4
f 8/8/4 10/10/4 11/11/4
f 11/11/4 10/10/4 12/12/4
f 12/12/4 10/10/4 13/13/4
f 13/13/4 10/10/4 14/14/4
f 13/13/4 14/14/4 15/15/4
f 15/15/4 14/14/4 16/16/4
f 16/16/4 14/14/4 17/17/4
f 16/16/4 17/17/4 18/18/4
f 18/18/4 17/17/4 19/19/4
f 19/19/4 17/17/4 20/20/4
f 20/20/4 17/17/4 21/21/4
f 20/20/4 21/21/4 22/22/4
f 22/22/4 21/21/4 23/23/4
f 23/23/4 21/21/4 24/24/4
f 24/24/4 21/21/4 25/25/4
f 25/25/4 21/21/4 26/26/4
f 26/26/4 21/21/4 27/27/4
f 26/26/4 27/27/4 28/28/4
f 26/26/4 28/28/4 29/29/4
f 29/29/4 28/28/4 30/30/4
f 29/29/4 30/30/4 31/31/4
f 31/31/4 30/30/4 32/32/4
f 33/33/4 34/34/4 35/35/4
f 34/34/4 33/33/4 36/36/4
f 34/34/4 36/36/4 37/37/4
f 37/37/4 36/36/4 38/38/4
f 37/37/4 38/38/4 39/39/4
f 39/39/4 38/38/4 7/7/4
f 39/39/4 7/7/4 40/40/4
f 40/40/4 7/7/4 9/9/4
f 40/40/4 9/9/4 41/41/4
f 40/40/4 41/41/4 42/42/4
f 42/42/4 41/41/4 43/43/4
f 42/42/4 43/43/4 44/44/4
f 42/42/4 44/44/4 45/45/4
f 42/42/4 45/45/4 46/46/4
f 46/46/4 45/45/4 47/47/4
f 46/46/4 47/47/4 48/48/4
f 46/46/4 48/48/4 49/49/4
f 46/46/4 49/49/4 50/50/4
f 50/50/4 49/49/4 51/51/4
f 50/50/4 51/51/4 52/52/4
f 50/50/4 52/52/4 25/25/4
f 25/25/4 52/52/4 53/53/4
f 25/25/4 53/53/4 54/54/4
f 25/25/4 54/54/4 24/24/4
f 3/55/2 55/56/5 56/57/5
f 55/56/5 3/55/2 2/2/2
f 57/58/6 6/6/3 5/5/3
f 6/6/3 57/58/6 58/59/6
f 59/60/7 60/61/8 61/62/7
f 60/61/8 59/60/7 62/63/8
f 63/64/9 61/65/7 64/66/9
f 61/65/7 63/64/9 59/67/7
f 56/57/5 63/64/9 64/68/9
f 63/64/9 56/57/5 55/56/5
f 65/69/10 58/59/6 57/58/6
f 58/59/6 65/69/10 66/70/10
f 67/71/11 65/69/10 68/72/11
f 65/69/10 67/71/11 66/70/10
f 69/73/12 68/72/11 70/74/12
f 68/72/11 69/73/12 67/71/11
f 71/75/13 70/74/12 72/76/13
f 70/74/12 71/75/13 69/73/12
f 73/77/14 72/76/13 74/78/14
f 72/76/13 73/77/14 71/75/13
f 75/79/15 74/80/14 76/81/15
f 74/80/14 75/79/15 73/77/14
f 77/82/16 76/83/15 78/84/16
f 76/83/15 77/82/16 75/79/15
f 77/82/16 79/85/17 80/86/17
f 79/85/17 77/82/16 78/84/16
f 80/86/17 81/87/18 82/88/18
f 81/87/18 80/86/17 79/85/17
f 82/88/18 83/89/19 84/90/19
f 83/89/19 82/88/18 81/91/18
f 84/90/19 85/92/20 86/93/20
f 85/92/20 84/90/19 83/94/19
f 86/93/20 87/95/21 88/96/21
f 87/95/21 86/93/20 85/92/20
f 88/96/21 89/97/22 90/98/22
f 89/97/22 88/96/21 87/99/21
f 91/100/23 89/101/22 92/102/23
f 89/101/22 91/100/23 90/98/22
f 93/103/24 92/104/23 94/105/24
f 92/104/23 93/103/24 91/100/23
f 95/106/25 94/107/24 96/108/25
f 94/107/24 95/106/25 93/103/24
f 62/63/8 96/108/25 60/61/8
f 96/108/25 62/63/8 95/106/25
