# SSTK version 0.8.0
# 42
mtllib original-42.mtl
o #ID43
v -0.372127 -0.200441 0.309579
v -0.371042 -0.224765 0.309579
v -0.371508 -0.231959 0.309579
v -0.366415 -0.195559 0.309579
v -0.369644 -0.218324 0.309579
v -0.367313 -0.212637 0.309579
v -0.364051 -0.207701 0.309579
v -0.359520 -0.191943 0.309579
v -0.360032 -0.203713 0.309579
v -0.355433 -0.200863 0.309579
v -0.351683 -0.189706 0.309579
v -0.350253 -0.199154 0.309579
v -0.343142 -0.188960 0.309579
v -0.344493 -0.198584 0.309579
v -0.335038 -0.199710 0.309579
v -0.335038 -0.189579 0.309579
v -0.327609 -0.191267 0.309579
v -0.327271 -0.202524 0.309579
v -0.321333 -0.193603 0.309579
v -0.320996 -0.206097 0.309579
v -0.315734 -0.196164 0.309579
v -0.316690 -0.209615 0.309579
v -0.315734 -0.209615 0.309579
v -0.315396 -0.232127 0.309579
v -0.345788 -0.241920 0.309579
v -0.345788 -0.232127 0.309579
v -0.326427 -0.241920 0.309579
v -0.326427 -0.263589 0.309579
v -0.321108 -0.271130 0.309579
v -0.315396 -0.268710 0.309579
v -0.382391 -0.222693 0.309579
v -0.382398 -0.242371 0.309579
v -0.383102 -0.232296 0.309579
v -0.380288 -0.251207 0.309579
v -0.380260 -0.214146 0.309579
v -0.376855 -0.258762 0.309579
v -0.376806 -0.206709 0.309579
v -0.372183 -0.264996 0.309579
v -0.371016 -0.239866 0.309579
v -0.366372 -0.269808 0.309579
v -0.369538 -0.246704 0.309579
v -0.367132 -0.252529 0.309579
v -0.363854 -0.257398 0.309579
v -0.359520 -0.273213 0.309579
v -0.359879 -0.261218 0.309579
v -0.355158 -0.264011 0.309579
v -0.351767 -0.275239 0.309579
v -0.349748 -0.265720 0.309579
v -0.343255 -0.275914 0.309579
v -0.343705 -0.266290 0.309579
v -0.334306 -0.265615 0.309579
v -0.335207 -0.275295 0.309579
v -0.327778 -0.273438 0.309579
vn 0 0 -1
usemtl material_0_0
f 1//1 2//1 3//1
f 2//1 1//1 4//1
f 2//1 4//1 5//1
f 5//1 4//1 6//1
f 6//1 4//1 7//1
f 7//1 4//1 8//1
f 7//1 8//1 9//1
f 9//1 8//1 10//1
f 10//1 8//1 11//1
f 10//1 11//1 12//1
f 12//1 11//1 13//1
f 12//1 13//1 14//1
f 14//1 13//1 15//1
f 15//1 13//1 16//1
f 15//1 16//1 17//1
f 15//1 17//1 18//1
f 18//1 17//1 19//1
f 18//1 19//1 20//1
f 20//1 19//1 21//1
f 20//1 21//1 22//1
f 22//1 21//1 23//1
f 24//1 25//1 26//1
f 25//1 24//1 27//1
f 27//1 24//1 28//1
f 28//1 24//1 29//1
f 29//1 24//1 30//1
f 31//1 32//1 33//1
f 32//1 31//1 34//1
f 34//1 31//1 35//1
f 34//1 35//1 36//1
f 36//1 35//1 37//1
f 36//1 37//1 38//1
f 38//1 37//1 1//1
f 38//1 1//1 3//1
f 38//1 3//1 39//1
f 38//1 39//1 40//1
f 40//1 39//1 41//1
f 40//1 41//1 42//1
f 40//1 42//1 43//1
f 40//1 43//1 44//1
f 44//1 43//1 45//1
f 44//1 45//1 46//1
f 44//1 46//1 47//1
f 47//1 46//1 48//1
f 47//1 48//1 49//1
f 49//1 48//1 50//1
f 49//1 50//1 51//1
f 49//1 51//1 52//1
f 52//1 51//1 53//1
f 53//1 51//1 28//1
f 53//1 28//1 29//1
