# SSTK version 0.8.0
# 27
mtllib original-27.mtl
o #ID388
v 0.809303 0.361079 0.309194
v 0.820766 0.370834 0.289974
v 0.809303 0.361079 0.289974
v 0.820766 0.370834 0.309194
v 0.829315 0.383223 0.309194
v 0.829315 0.383223 0.289974
v 0.795705 0.354624 0.309194
v 0.795705 0.354624 0.289974
v 0.834365 0.397403 0.309194
v 0.834365 0.397403 0.289974
v 0.780900 0.351907 0.309194
v 0.780900 0.351907 0.289974
v 0.782017 0.352112 0.309194
v 0.835573 0.412406 0.309194
v 0.835573 0.412406 0.289974
v 0.765896 0.353116 0.309194
v 0.765896 0.353116 0.289974
v 0.832857 0.427212 0.309194
v 0.832857 0.427212 0.289974
v 0.751716 0.358166 0.309194
v 0.751716 0.358166 0.289974
v 0.826402 0.440810 0.309194
v 0.826402 0.440810 0.289974
v 0.739327 0.366715 0.309194
v 0.739327 0.366715 0.289974
v 0.816647 0.452273 0.309194
v 0.816647 0.452273 0.289974
v 0.729572 0.378178 0.289974
v 0.729572 0.378178 0.309194
v 0.804257 0.460822 0.289974
v 0.804257 0.460822 0.309194
v 0.723117 0.391776 0.289974
v 0.723117 0.391776 0.309194
v 0.790077 0.465872 0.289974
v 0.790077 0.465872 0.309194
v 0.720400 0.406581 0.289974
v 0.720400 0.406581 0.309194
v 0.775074 0.467080 0.289974
v 0.775074 0.467080 0.309194
v 0.721609 0.421584 0.289974
v 0.721506 0.420303 0.309194
v 0.721609 0.421584 0.309194
v 0.760269 0.464364 0.289974
v 0.760269 0.464364 0.309194
v 0.726659 0.435764 0.289974
v 0.726659 0.435764 0.309194
v 0.746671 0.457908 0.289974
v 0.746671 0.457908 0.309194
v 0.735208 0.448154 0.289974
v 0.735208 0.448154 0.309194
vn -0.5431114933130456 0.8396605896618428 0
vn -0.741925608735358 0.6704822078941906 0
vn -0.8901786786409418 0.4556115890679987 0
vn -0.3072853105124073 0.9516174325553801 0
vn -0.9777675317561837 0.2096918068104241 0
vn -0.050518102301068804 0.9987231454912311 0
vn -0.1804454004866468 0.9835850026526501 0
vn -0.9987231454912311 -0.050518102301068804 0
vn 0.2096918068104241 0.9777675317561837 0
vn -0.9516174325553801 -0.3072853105124073 0
vn 0.4556115890679987 0.8901786786409418 0
vn -0.8396605896618428 -0.5431114933130456 0
vn 0.6704822078941906 0.741925608735358 0
vn -0.6704822078941906 -0.741925608735358 0
vn 0.8396605896618428 0.5431114933130456 0
vn -0.4556115890679987 -0.8901786786409418 0
vn 0.9516174325553801 0.3072853105124073 0
vn -0.2096918068104241 -0.9777675317561837 0
vn 0.9987231454912311 0.050518102301068804 0
vn 0.050518102301068804 -0.9987231454912311 0
vn 0.9777675317561837 -0.2096918068104241 0
vn 0.9967728659889569 -0.08027361726097133 0
vn 0.3072853105124073 -0.9516174325553801 0
vn 0.8901786786409418 -0.4556115890679987 0
vn 0.5431114933130456 -0.8396605896618428 0
vn 0.741925608735358 -0.6704822078941906 0
usemtl material_0_0
f 1//1 2//2 3//1
f 2//2 1//1 4//2
f 5//3 2//2 4//2
f 2//2 5//3 6//3
f 7//4 3//1 8//4
f 3//1 7//4 1//1
f 9//5 6//3 5//3
f 6//3 9//5 10//5
f 11//6 8//4 12//6
f 8//4 11//6 7//4
f 7//4 11//6 13//7
f 14//8 10//5 9//5
f 10//5 14//8 15//8
f 16//9 12//6 17//9
f 12//6 16//9 11//6
f 18//10 15//8 14//8
f 15//8 18//10 19//10
f 20//11 17//9 21//11
f 17//9 20//11 16//9
f 22//12 19//10 18//10
f 19//10 22//12 23//12
f 24//13 21//11 25//13
f 21//11 24//13 20//11
f 26//14 23//12 22//12
f 23//12 26//14 27//14
f 28//15 24//13 25//13
f 24//13 28//15 29//15
f 26//14 30//16 27//14
f 30//16 26//14 31//16
f 32//17 29//15 28//15
f 29//15 32//17 33//17
f 31//16 34//18 30//16
f 34//18 31//16 35//18
f 36//19 33//17 32//17
f 33//17 36//19 37//19
f 35//18 38//20 34//18
f 38//20 35//18 39//20
f 40//21 37//19 36//19
f 37//19 40//21 41//22
f 41//22 40//21 42//21
f 39//20 43//23 38//20
f 43//23 39//20 44//23
f 45//24 42//21 40//21
f 42//21 45//24 46//24
f 44//23 47//25 43//23
f 47//25 44//23 48//25
f 49//26 46//24 45//24
f 46//24 49//26 50//26
f 48//25 49//26 47//25
f 49//26 48//25 50//26
