# SSTK version 0.8.0
# 32
mtllib original-32.mtl
o #ID422
v 0.751716 0.358166 0.289974
v 0.745765 0.407864 0.289974
v 0.739327 0.366715 0.289974
v 0.747284 0.399580 0.289974
v 0.750897 0.391971 0.289974
v 0.756354 0.385557 0.289974
v 0.765896 0.353116 0.289974
v 0.763287 0.380773 0.289974
v 0.771221 0.377948 0.289974
v 0.780900 0.351907 0.289974
v 0.779617 0.377272 0.289974
v 0.787901 0.378791 0.289974
v 0.795705 0.354624 0.289974
v 0.795510 0.382403 0.289974
v 0.801924 0.387862 0.289974
v 0.809303 0.361079 0.289974
v 0.806707 0.394794 0.289974
v 0.809533 0.402728 0.289974
v 0.820766 0.370834 0.289974
v 0.810209 0.411124 0.289974
v 0.816647 0.452273 0.289974
v 0.826402 0.440810 0.289974
v 0.829315 0.383223 0.289974
v 0.832857 0.427212 0.289974
v 0.834365 0.397403 0.289974
v 0.835573 0.412406 0.289974
v 0.723117 0.391776 0.289974
v 0.721609 0.421584 0.289974
v 0.720400 0.406581 0.289974
v 0.726659 0.435764 0.289974
v 0.729572 0.378178 0.289974
v 0.735208 0.448154 0.289974
v 0.746671 0.457908 0.289974
v 0.746440 0.416259 0.289974
v 0.749266 0.424193 0.289974
v 0.760269 0.464364 0.289974
v 0.754050 0.431126 0.289974
v 0.760464 0.436584 0.289974
v 0.775074 0.467080 0.289974
v 0.768073 0.440197 0.289974
v 0.776357 0.441716 0.289974
v 0.790077 0.465872 0.289974
v 0.784752 0.441040 0.289974
v 0.792686 0.438214 0.289974
v 0.804257 0.460822 0.289974
v 0.799619 0.433431 0.289974
v 0.805077 0.427016 0.289974
v 0.808690 0.419408 0.289974
vn 0 0 1
usemtl material_0_0
f 1//1 2//1 3//1
f 2//1 1//1 4//1
f 4//1 1//1 5//1
f 5//1 1//1 6//1
f 6//1 1//1 7//1
f 6//1 7//1 8//1
f 8//1 7//1 9//1
f 9//1 7//1 10//1
f 9//1 10//1 11//1
f 11//1 10//1 12//1
f 12//1 10//1 13//1
f 12//1 13//1 14//1
f 14//1 13//1 15//1
f 15//1 13//1 16//1
f 15//1 16//1 17//1
f 17//1 16//1 18//1
f 18//1 16//1 19//1
f 18//1 19//1 20//1
f 20//1 19//1 21//1
f 21//1 19//1 22//1
f 22//1 19//1 23//1
f 22//1 23//1 24//1
f 24//1 23//1 25//1
f 24//1 25//1 26//1
f 27//1 28//1 29//1
f 28//1 27//1 30//1
f 30//1 27//1 31//1
f 30//1 31//1 32//1
f 32//1 31//1 3//1
f 32//1 3//1 33//1
f 33//1 3//1 2//1
f 33//1 2//1 34//1
f 33//1 34//1 35//1
f 33//1 35//1 36//1
f 36//1 35//1 37//1
f 36//1 37//1 38//1
f 36//1 38//1 39//1
f 39//1 38//1 40//1
f 39//1 40//1 41//1
f 39//1 41//1 42//1
f 42//1 41//1 43//1
f 42//1 43//1 44//1
f 42//1 44//1 45//1
f 45//1 44//1 46//1
f 45//1 46//1 47//1
f 45//1 47//1 21//1
f 21//1 47//1 48//1
f 21//1 48//1 20//1
