# SSTK version 0.8.0
# 21
mtllib original-21.mtl
o #ID350
v -0.791884 -0.269569 0.309194
v -0.774769 0.290326 0.309194
v -0.791884 0.289217 0.309194
v -0.774875 -0.268106 0.309194
v -0.759389 -0.236288 0.309194
v -0.757820 -0.268890 0.309194
v -0.759389 0.260247 0.309194
v -0.754188 -0.236527 0.309194
v -0.741017 -0.271907 0.309194
v -0.733165 -0.240302 0.309194
v -0.724755 -0.277104 0.309194
v -0.712821 -0.246804 0.309194
v -0.709317 -0.284392 0.309194
v -0.693506 -0.255922 0.309194
v -0.694969 -0.293645 0.309194
v -0.681961 -0.304702 0.309194
v -0.675557 -0.267497 0.309194
v -0.670518 -0.317371 0.309194
v -0.659283 -0.281330 0.309194
v -0.660837 -0.331434 0.309194
v -0.653088 -0.346646 0.309194
v -0.644966 -0.297180 0.309194
v -0.647403 -0.362744 0.309194
v -0.643882 -0.379449 0.309194
v -0.632856 -0.314773 0.309194
v -0.618517 -0.346953 0.309194
v 0.673146 -0.379449 0.309194
v -0.623160 -0.333805 0.309194
v 0.640238 -0.346953 0.309194
v 0.640449 -0.343357 0.309194
v 0.644551 -0.323169 0.309194
v 0.651466 -0.303764 0.309194
v 0.661056 -0.285532 0.309194
v 0.671817 -0.363521 0.309194
v 0.673127 -0.268838 0.309194
v 0.672753 -0.347566 0.309194
v 0.675936 -0.331903 0.309194
v 0.687437 -0.254019 0.309194
v 0.681301 -0.316847 0.309194
v 0.688741 -0.302701 0.309194
v 0.703698 -0.241372 0.309194
v 0.698106 -0.289750 0.309194
v 0.709209 -0.278252 0.309194
v 0.721585 -0.231151 0.309194
v 0.721825 -0.268440 0.309194
v 0.740736 -0.223561 0.309194
v 0.735702 -0.260510 0.309194
v 0.750561 -0.254622 0.309194
v 0.749521 -0.221454 0.309194
v 0.749521 0.253631 0.309194
v -0.757946 0.293661 0.309194
v -0.749535 0.262201 0.309194
v -0.741703 0.299166 0.309194
v -0.729253 0.269075 0.309194
v -0.726318 0.306746 0.309194
v -0.710043 0.278540 0.309194
v -0.712056 0.316272 0.309194
v -0.699160 0.327579 0.309194
v -0.692235 0.290433 0.309194
v -0.687853 0.340475 0.309194
v -0.676133 0.304552 0.309194
v -0.678327 0.354737 0.309194
v -0.670747 0.370122 0.309194
v -0.662014 0.320654 0.309194
v -0.665242 0.386365 0.309194
v -0.661907 0.403188 0.309194
v -0.650120 0.338462 0.309194
v -0.660798 0.420303 0.309194
v -0.631828 0.387808 0.309194
v 0.643551 0.420303 0.309194
v -0.640656 0.357672 0.309194
v -0.633782 0.377954 0.309194
v 0.615344 0.387808 0.309194
v 0.618090 0.375768 0.309194
v 0.625609 0.355100 0.309194
v 0.635640 0.335529 0.309194
v 0.648028 0.317357 0.309194
v 0.645333 0.402457 0.309194
v 0.649321 0.384971 0.309194
v 0.662580 0.300867 0.309194
v 0.655453 0.368117 0.309194
v 0.663633 0.352156 0.309194
v 0.679070 0.286315 0.309194
v 0.673736 0.337337 0.309194
v 0.685602 0.323889 0.309194
v 0.697242 0.273927 0.309194
v 0.699050 0.312022 0.309194
v 0.716813 0.263896 0.309194
v 0.713869 0.301920 0.309194
v 0.729830 0.293739 0.309194
v 0.737481 0.256377 0.309194
v 0.746684 0.287607 0.309194
v 0.764170 0.283620 0.309194
v 0.766103 -0.250894 0.309194
v 0.782017 0.281838 0.309194
v 0.782017 -0.249400 0.309194
vn 0 0 1
usemtl material_0_0
f 1//1 2//1 3//1
f 2//1 1//1 4//1
f 2//1 4//1 5//1
f 5//1 4//1 6//1
f 2//1 5//1 7//1
f 5//1 6//1 8//1
f 8//1 6//1 9//1
f 8//1 9//1 10//1
f 10//1 9//1 11//1
f 10//1 11//1 12//1
f 12//1 11//1 13//1
f 12//1 13//1 14//1
f 14//1 13//1 15//1
f 14//1 15//1 16//1
f 14//1 16//1 17//1
f 17//1 16//1 18//1
f 17//1 18//1 19//1
f 19//1 18//1 20//1
f 19//1 20//1 21//1
f 19//1 21//1 22//1
f 22//1 21//1 23//1
f 22//1 23//1 24//1
f 22//1 24//1 25//1
f 25//1 24//1 26//1
f 26//1 24//1 27//1
f 25//1 26//1 28//1
f 26//1 27//1 29//1
f 29//1 27//1 30//1
f 30//1 27//1 31//1
f 31//1 27//1 32//1
f 32//1 27//1 33//1
f 33//1 27//1 34//1
f 34//1 35//1 33//1
f 35//1 34//1 36//1
f 35//1 36//1 37//1
f 35//1 37//1 38//1
f 38//1 37//1 39//1
f 38//1 39//1 40//1
f 38//1 40//1 41//1
f 41//1 40//1 42//1
f 41//1 42//1 43//1
f 41//1 43//1 44//1
f 44//1 43//1 45//1
f 44//1 45//1 46//1
f 46//1 45//1 47//1
f 46//1 47//1 48//1
f 46//1 48//1 49//1
f 49//1 48//1 50//1
f 7//1 51//1 2//1
f 51//1 7//1 52//1
f 51//1 52//1 53//1
f 53//1 52//1 54//1
f 53//1 54//1 55//1
f 55//1 54//1 56//1
f 55//1 56//1 57//1
f 57//1 56//1 58//1
f 58//1 56//1 59//1
f 58//1 59//1 60//1
f 60//1 59//1 61//1
f 60//1 61//1 62//1
f 62//1 61//1 63//1
f 63//1 61//1 64//1
f 63//1 64//1 65//1
f 65//1 64//1 66//1
f 66//1 64//1 67//1
f 66//1 67//1 68//1
f 68//1 67//1 69//1
f 68//1 69//1 70//1
f 69//1 67//1 71//1
f 69//1 71//1 72//1
f 70//1 69//1 73//1
f 70//1 73//1 74//1
f 70//1 74//1 75//1
f 70//1 75//1 76//1
f 70//1 76//1 77//1
f 70//1 77//1 78//1
f 78//1 77//1 79//1
f 79//1 77//1 80//1
f 79//1 80//1 81//1
f 81//1 80//1 82//1
f 82//1 80//1 83//1
f 82//1 83//1 84//1
f 84//1 83//1 85//1
f 85//1 83//1 86//1
f 85//1 86//1 87//1
f 87//1 86//1 88//1
f 87//1 88//1 89//1
f 89//1 88//1 90//1
f 90//1 88//1 91//1
f 90//1 91//1 92//1
f 92//1 91//1 50//1
f 92//1 50//1 93//1
f 93//1 50//1 48//1
f 93//1 48//1 94//1
f 93//1 94//1 95//1
f 95//1 94//1 96//1
