# SSTK version 0.8.0
# 30
mtllib original-30.mtl
o #ID408
v 0.720433 -0.384288 0.309194
v 0.721825 -0.268440 0.309194
v 0.709209 -0.278252 0.309194
v 0.721070 -0.379449 0.309194
v 0.722398 -0.369365 0.309194
v 0.735702 -0.260510 0.309194
v 0.728158 -0.355458 0.309194
v 0.737322 -0.343516 0.309194
v 0.750561 -0.254622 0.309194
v 0.749263 -0.334353 0.309194
v 0.763170 -0.328593 0.309194
v 0.766103 -0.250894 0.309194
v 0.778093 -0.326628 0.309194
v 0.782017 -0.249400 0.309194
v 0.782017 -0.327145 0.309194
v 0.793016 -0.328593 0.309194
v 0.782017 0.281838 0.309194
v 0.782017 0.352112 0.309194
v 0.795705 0.354624 0.309194
v 0.806923 -0.334353 0.309194
v 0.809303 0.361079 0.309194
v 0.818865 -0.343516 0.309194
v 0.820766 0.370834 0.309194
v 0.828028 -0.355458 0.309194
v 0.829315 0.383223 0.309194
v 0.833788 -0.369365 0.309194
v 0.834365 0.397403 0.309194
v 0.835753 -0.384288 0.309194
v 0.835573 0.412406 0.309194
v -0.869681 -0.403345 0.309194
v -0.870217 0.428996 0.309194
v -0.870217 -0.395174 0.309194
v -0.869621 0.438086 0.309194
v -0.868084 -0.411378 0.309194
v -0.867844 0.447020 0.309194
v -0.865451 -0.419133 0.309194
v -0.864916 0.455646 0.309194
v -0.861829 -0.426478 0.309194
v -0.860887 0.463816 0.309194
v -0.857279 -0.433287 0.309194
v -0.857423 -0.387057 0.309194
v -0.855458 -0.401980 0.309194
v -0.851879 -0.439444 0.309194
v -0.849698 -0.415887 0.309194
v -0.845722 -0.444844 0.309194
v -0.840535 -0.427828 0.309194
v -0.838913 -0.449394 0.309194
v -0.828593 -0.436992 0.309194
v -0.831568 -0.453016 0.309194
v -0.823813 -0.455648 0.309194
v -0.814686 -0.442752 0.309194
v -0.815781 -0.457246 0.309194
v -0.807609 -0.457782 0.309194
v -0.799763 -0.444717 0.309194
v 0.772572 -0.457782 0.309194
v -0.784839 -0.442752 0.309194
v -0.770933 -0.436992 0.309194
v -0.758991 -0.427828 0.309194
v -0.749828 -0.415887 0.309194
v -0.744068 -0.401980 0.309194
v -0.742103 -0.387057 0.309194
v -0.643882 -0.379449 0.309194
v -0.741017 -0.271907 0.309194
v -0.724755 -0.277104 0.309194
v -0.709317 -0.284392 0.309194
v -0.694969 -0.293645 0.309194
v -0.681961 -0.304702 0.309194
v -0.670518 -0.317371 0.309194
v -0.660837 -0.331434 0.309194
v -0.653088 -0.346646 0.309194
v -0.647403 -0.362744 0.309194
v 0.673146 -0.379449 0.309194
v 0.737322 -0.425060 0.309194
v 0.728158 -0.413118 0.309194
v 0.675936 -0.331903 0.309194
v 0.681301 -0.316847 0.309194
v 0.722398 -0.399212 0.309194
v 0.688741 -0.302701 0.309194
v 0.698106 -0.289750 0.309194
v 0.749263 -0.434223 0.309194
v 0.763170 -0.439983 0.309194
v 0.778093 -0.441948 0.309194
v 0.784029 -0.457031 0.309194
v 0.793016 -0.439983 0.309194
v 0.795290 -0.454791 0.309194
v 0.806923 -0.434223 0.309194
v 0.806162 -0.451100 0.309194
v 0.816460 -0.446022 0.309194
v 0.818865 -0.425060 0.309194
v 0.826007 -0.439643 0.309194
v 0.828028 -0.413118 0.309194
v 0.834640 -0.432072 0.309194
v 0.833788 -0.399212 0.309194
v 0.842210 -0.423440 0.309194
v 0.839113 0.477400 0.309194
v 0.845366 0.470269 0.309194
v 0.848589 -0.413893 0.309194
v 0.850636 0.462384 0.309194
v 0.853667 -0.403595 0.309194
v 0.854830 0.453878 0.309194
v 0.857358 -0.392722 0.309194
v 0.857879 0.444897 0.309194
v 0.859598 -0.381461 0.309194
v 0.859729 0.435595 0.309194
v 0.860349 -0.370004 0.309194
v 0.860349 0.426131 0.309194
v -0.857423 0.409494 0.309194
v -0.855826 0.471390 0.309194
v -0.855458 0.424417 0.309194
v -0.849820 0.478239 0.309194
v -0.849698 0.438324 0.309194
v -0.842971 0.484245 0.309194
v -0.840535 0.450265 0.309194
v -0.835397 0.489306 0.309194
v -0.828593 0.459429 0.309194
v -0.827227 0.493335 0.309194
v -0.814686 0.465189 0.309194
v -0.818601 0.496263 0.309194
v -0.809667 0.498040 0.309194
v -0.799763 0.467154 0.309194
v -0.800577 0.498636 0.309194
v 0.787845 0.498636 0.309194
v -0.784839 0.465189 0.309194
v -0.770933 0.459429 0.309194
v -0.758991 0.450265 0.309194
v -0.749828 0.438324 0.309194
v -0.744068 0.424417 0.309194
v -0.743526 0.420303 0.309194
v -0.660798 0.420303 0.309194
v -0.742103 0.409494 0.309194
v -0.741703 0.299166 0.309194
v -0.726318 0.306746 0.309194
v -0.712056 0.316272 0.309194
v -0.699160 0.327579 0.309194
v -0.687853 0.340475 0.309194
v -0.678327 0.354737 0.309194
v -0.670747 0.370122 0.309194
v -0.665242 0.386365 0.309194
v -0.661907 0.403188 0.309194
v 0.643551 0.420303 0.309194
v 0.645333 0.402457 0.309194
v 0.649321 0.384971 0.309194
v 0.735208 0.448154 0.309194
v 0.655453 0.368117 0.309194
v 0.663633 0.352156 0.309194
v 0.726659 0.435764 0.309194
v 0.673736 0.337337 0.309194
v 0.685602 0.323889 0.309194
v 0.721609 0.421584 0.309194
v 0.699050 0.312022 0.309194
v 0.721506 0.420303 0.309194
v 0.720400 0.406581 0.309194
v 0.713869 0.301920 0.309194
v 0.746671 0.457908 0.309194
v 0.760269 0.464364 0.309194
v 0.775074 0.467080 0.309194
v 0.790077 0.465872 0.309194
v 0.797309 0.498016 0.309194
v 0.804257 0.460822 0.309194
v 0.806610 0.496165 0.309194
v 0.816647 0.452273 0.309194
v 0.815591 0.493117 0.309194
v 0.824097 0.488922 0.309194
v 0.826402 0.440810 0.309194
v 0.831983 0.483653 0.309194
v 0.832857 0.427212 0.309194
v 0.729830 0.293739 0.309194
v 0.723117 0.391776 0.309194
v 0.729572 0.378178 0.309194
v 0.739327 0.366715 0.309194
v 0.746684 0.287607 0.309194
v 0.751716 0.358166 0.309194
v 0.764170 0.283620 0.309194
v 0.765896 0.353116 0.309194
v 0.780900 0.351907 0.309194
v -0.791884 0.289217 0.309194
v -0.784839 0.353799 0.309194
v -0.791884 0.352871 0.309194
v -0.774769 0.290326 0.309194
v -0.770933 0.359559 0.309194
v -0.757946 0.293661 0.309194
v -0.758991 0.368722 0.309194
v -0.749828 0.380664 0.309194
v -0.744068 0.394571 0.309194
v 0.672753 -0.347566 0.309194
v 0.671817 -0.363521 0.309194
v -0.855458 -0.372133 0.309194
v -0.855458 0.394571 0.309194
v -0.849698 -0.358227 0.309194
v -0.849698 0.380664 0.309194
v -0.840535 -0.346285 0.309194
v -0.840535 0.368722 0.309194
v -0.828593 -0.337122 0.309194
v -0.828593 0.359559 0.309194
v -0.814686 -0.331361 0.309194
v -0.814686 0.353799 0.309194
v -0.799763 -0.329397 0.309194
v -0.799763 0.351834 0.309194
v -0.791884 -0.330434 0.309194
v -0.791884 -0.269569 0.309194
v -0.774875 -0.268106 0.309194
v -0.784839 -0.331361 0.309194
v -0.770933 -0.337122 0.309194
v -0.757820 -0.268890 0.309194
v -0.758991 -0.346285 0.309194
v -0.749828 -0.358227 0.309194
v -0.744068 -0.372133 0.309194
v -0.743104 -0.379449 0.309194
vn 0 0 1
usemtl material_0_0
f 1//1 2//1 3//1
f 2//1 1//1 4//1
f 2//1 4//1 5//1
f 2//1 5//1 6//1
f 6//1 5//1 7//1
f 6//1 7//1 8//1
f 6//1 8//1 9//1
f 9//1 8//1 10//1
f 9//1 10//1 11//1
f 9//1 11//1 12//1
f 12//1 11//1 13//1
f 12//1 13//1 14//1
f 14//1 13//1 15//1
f 14//1 15//1 16//1
f 14//1 16//1 17//1
f 17//1 16//1 18//1
f 18//1 16//1 19//1
f 19//1 16//1 20//1
f 19//1 20//1 21//1
f 21//1 20//1 22//1
f 21//1 22//1 23//1
f 23//1 22//1 24//1
f 23//1 24//1 25//1
f 25//1 24//1 26//1
f 25//1 26//1 27//1
f 27//1 26//1 28//1
f 27//1 28//1 29//1
f 30//1 31//1 32//1
f 31//1 30//1 33//1
f 33//1 30//1 34//1
f 33//1 34//1 35//1
f 35//1 34//1 36//1
f 35//1 36//1 37//1
f 37//1 36//1 38//1
f 37//1 38//1 39//1
f 39//1 38//1 40//1
f 39//1 40//1 41//1
f 41//1 40//1 42//1
f 42//1 40//1 43//1
f 42//1 43//1 44//1
f 44//1 43//1 45//1
f 44//1 45//1 46//1
f 46//1 45//1 47//1
f 46//1 47//1 48//1
f 48//1 47//1 49//1
f 48//1 49//1 50//1
f 48//1 50//1 51//1
f 51//1 50//1 52//1
f 51//1 52//1 53//1
f 51//1 53//1 54//1
f 54//1 53//1 55//1
f 54//1 55//1 56//1
f 56//1 55//1 57//1
f 57//1 55//1 58//1
f 58//1 55//1 59//1
f 59//1 55//1 60//1
f 60//1 55//1 61//1
f 61//1 55//1 62//1
f 61//1 62//1 63//1
f 63//1 62//1 64//1
f 64//1 62//1 65//1
f 65//1 62//1 66//1
f 66//1 62//1 67//1
f 67//1 62//1 68//1
f 68//1 62//1 69//1
f 69//1 62//1 70//1
f 70//1 62//1 71//1
f 62//1 55//1 72//1
f 72//1 55//1 73//1
f 72//1 73//1 74//1
f 72//1 74//1 75//1
f 75//1 74//1 76//1
f 76//1 74//1 77//1
f 76//1 77//1 78//1
f 78//1 77//1 79//1
f 79//1 77//1 1//1
f 79//1 1//1 3//1
f 73//1 55//1 80//1
f 80//1 55//1 81//1
f 81//1 55//1 82//1
f 82//1 55//1 83//1
f 82//1 83//1 84//1
f 84//1 83//1 85//1
f 84//1 85//1 86//1
f 86//1 85//1 87//1
f 86//1 87//1 88//1
f 86//1 88//1 89//1
f 89//1 88//1 90//1
f 89//1 90//1 91//1
f 91//1 90//1 92//1
f 91//1 92//1 93//1
f 93//1 92//1 28//1
f 28//1 92//1 94//1
f 28//1 94//1 95//1
f 95//1 94//1 96//1
f 96//1 94//1 97//1
f 96//1 97//1 98//1
f 98//1 97//1 99//1
f 98//1 99//1 100//1
f 100//1 99//1 101//1
f 100//1 101//1 102//1
f 102//1 101//1 103//1
f 102//1 103//1 104//1
f 104//1 103//1 105//1
f 104//1 105//1 106//1
f 39//1 107//1 108//1
f 107//1 39//1 41//1
f 108//1 107//1 109//1
f 108//1 109//1 110//1
f 110//1 109//1 111//1
f 110//1 111//1 112//1
f 112//1 111//1 113//1
f 112//1 113//1 114//1
f 114//1 113//1 115//1
f 114//1 115//1 116//1
f 116//1 115//1 117//1
f 116//1 117//1 118//1
f 118//1 117//1 119//1
f 119//1 117//1 120//1
f 119//1 120//1 121//1
f 121//1 120//1 122//1
f 122//1 120//1 123//1
f 122//1 123//1 124//1
f 122//1 124//1 125//1
f 122//1 125//1 126//1
f 122//1 126//1 127//1
f 122//1 127//1 128//1
f 122//1 128//1 129//1
f 129//1 128//1 130//1
f 129//1 130//1 131//1
f 129//1 131//1 132//1
f 129//1 132//1 133//1
f 129//1 133//1 134//1
f 129//1 134//1 135//1
f 129//1 135//1 136//1
f 129//1 136//1 137//1
f 129//1 137//1 138//1
f 129//1 138//1 139//1
f 122//1 129//1 140//1
f 122//1 140//1 141//1
f 122//1 141//1 142//1
f 122//1 142//1 143//1
f 143//1 142//1 144//1
f 143//1 144//1 145//1
f 143//1 145//1 146//1
f 146//1 145//1 147//1
f 146//1 147//1 148//1
f 146//1 148//1 149//1
f 149//1 148//1 150//1
f 149//1 150//1 151//1
f 151//1 150//1 152//1
f 152//1 150//1 153//1
f 122//1 143//1 154//1
f 122//1 154//1 155//1
f 122//1 155//1 156//1
f 122//1 156//1 157//1
f 122//1 157//1 158//1
f 158//1 157//1 159//1
f 158//1 159//1 160//1
f 160//1 159//1 161//1
f 160//1 161//1 162//1
f 162//1 161//1 163//1
f 163//1 161//1 164//1
f 163//1 164//1 165//1
f 165//1 164//1 166//1
f 165//1 166//1 95//1
f 95//1 166//1 29//1
f 95//1 29//1 28//1
f 167//1 152//1 153//1
f 152//1 167//1 168//1
f 168//1 167//1 169//1
f 169//1 167//1 170//1
f 170//1 167//1 171//1
f 170//1 171//1 172//1
f 172//1 171//1 173//1
f 172//1 173//1 174//1
f 174//1 173//1 17//1
f 174//1 17//1 175//1
f 175//1 17//1 18//1
f 176//1 177//1 178//1
f 177//1 176//1 179//1
f 177//1 179//1 180//1
f 180//1 179//1 181//1
f 180//1 181//1 182//1
f 182//1 181//1 183//1
f 183//1 181//1 131//1
f 183//1 131//1 184//1
f 184//1 131//1 130//1
f 72//1 185//1 186//1
f 185//1 72//1 75//1
f 187//1 107//1 41//1
f 107//1 187//1 188//1
f 188//1 187//1 189//1
f 188//1 189//1 190//1
f 190//1 189//1 191//1
f 190//1 191//1 192//1
f 192//1 191//1 193//1
f 192//1 193//1 194//1
f 194//1 193//1 195//1
f 194//1 195//1 196//1
f 196//1 195//1 197//1
f 196//1 197//1 198//1
f 198//1 197//1 199//1
f 198//1 199//1 200//1
f 198//1 200//1 176//1
f 198//1 176//1 178//1
f 200//1 199//1 201//1
f 201//1 199//1 202//1
f 201//1 202//1 203//1
f 201//1 203//1 204//1
f 204//1 203//1 205//1
f 204//1 205//1 206//1
f 204//1 206//1 63//1
f 63//1 206//1 207//1
f 63//1 207//1 208//1
f 63//1 208//1 61//1
