# SSTK version 0.8.0
# 18
mtllib original-18.mtl
o #ID328
v -0.378722 0.042935 0.328414
v -0.337008 0.018062 0.328414
v -0.340282 0.042935 0.328414
v -0.311452 -0.073580 0.328414
v -0.327407 -0.005115 0.328414
v -0.312135 -0.025018 0.328414
v -0.292232 -0.040290 0.328414
v -0.269055 -0.049890 0.328414
v -0.176913 -0.073580 0.328414
v -0.244183 -0.053165 0.328414
v -0.219310 -0.049890 0.328414
v -0.196133 -0.040290 0.328414
v -0.176230 -0.025018 0.328414
v -0.109642 0.042935 0.328414
v -0.160958 -0.005115 0.328414
v -0.151357 0.018062 0.328414
v -0.148083 0.042935 0.328414
v -0.337008 0.067807 0.328414
v -0.311452 0.159450 0.328414
v -0.327407 0.090985 0.328414
v -0.312135 0.110888 0.328414
v -0.292232 0.126160 0.328414
v -0.269055 0.135760 0.328414
v -0.176913 0.159450 0.328414
v -0.244183 0.139035 0.328414
v -0.219310 0.135760 0.328414
v -0.196133 0.126160 0.328414
v -0.176230 0.110888 0.328414
v -0.160958 0.090985 0.328414
v -0.151357 0.067807 0.328414
vt 0.01677958 0.01709441
vt 0.0182037 0.01624527
vt 0.01809191 0.01709441
vt 0.01907616 0.0131166
vt 0.01853146 0.01545399
vt 0.01905285 0.01477451
vt 0.01973233 0.01425312
vt 0.02052361 0.01392536
vt 0.02366934 0.0131166
vt 0.02137275 0.01381357
vt 0.02222189 0.01392536
vt 0.02301317 0.01425312
vt 0.02369266 0.01477451
vt 0.02596593 0.01709441
vt 0.02421404 0.01545399
vt 0.0245418 0.01624527
vt 0.02465359 0.01709441
vt 0.0182037 0.01794355
vt 0.01907616 0.02107222
vt 0.01853146 0.01873483
vt 0.01905285 0.01941431
vt 0.01973233 0.0199357
vt 0.02052361 0.02026346
vt 0.02366934 0.02107222
vt 0.02137275 0.02037525
vt 0.02222189 0.02026346
vt 0.02301317 0.0199357
vt 0.02369266 0.01941431
vt 0.02421404 0.01873483
vt 0.0245418 0.01794355
vn 0 0 1
usemtl material_0_0
f 1/1/1 2/2/1 3/3/1
f 2/2/1 1/1/1 4/4/1
f 2/2/1 4/4/1 5/5/1
f 5/5/1 4/4/1 6/6/1
f 6/6/1 4/4/1 7/7/1
f 7/7/1 4/4/1 8/8/1
f 8/8/1 4/4/1 9/9/1
f 8/8/1 9/9/1 10/10/1
f 10/10/1 9/9/1 11/11/1
f 11/11/1 9/9/1 12/12/1
f 12/12/1 9/9/1 13/13/1
f 13/13/1 9/9/1 14/14/1
f 13/13/1 14/14/1 15/15/1
f 15/15/1 14/14/1 16/16/1
f 16/16/1 14/14/1 17/17/1
f 1/1/1 18/18/1 19/19/1
f 18/18/1 1/1/1 3/3/1
f 19/19/1 18/18/1 20/20/1
f 19/19/1 20/20/1 21/21/1
f 19/19/1 21/21/1 22/22/1
f 19/19/1 22/22/1 23/23/1
f 19/19/1 23/23/1 24/24/1
f 24/24/1 23/23/1 25/25/1
f 24/24/1 25/25/1 26/26/1
f 24/24/1 26/26/1 27/27/1
f 24/24/1 27/27/1 28/28/1
f 24/24/1 28/28/1 14/14/1
f 14/14/1 28/28/1 29/29/1
f 14/14/1 29/29/1 30/30/1
f 14/14/1 30/30/1 17/17/1
