# SSTK version 0.8.0
# 68
mtllib original-68.mtl
o #ID185
v -0.515263 0.064248 0.309579
v -0.522317 0.032956 0.309579
v -0.522317 0.064248 0.309579
v -0.522317 0.026990 0.309579
v -0.522317 0.022338 0.309579
v -0.515263 0.022338 0.309579
v -0.541152 0.064248 0.309579
v -0.548206 0.037046 0.309579
v -0.548206 0.064248 0.309579
v -0.547957 0.033125 0.309579
v -0.547212 0.029842 0.309579
v -0.546016 0.027131 0.309579
v -0.544416 0.024927 0.309579
v -0.542461 0.023238 0.309579
v -0.541152 0.040385 0.309579
v -0.540908 0.034851 0.309579
v -0.540195 0.022075 0.309579
v -0.539801 0.031005 0.309579
v -0.535036 0.021175 0.309579
v -0.537456 0.028641 0.309579
v -0.533198 0.027891 0.309579
v -0.531603 0.021545 0.309579
v -0.530524 0.028257 0.309579
v -0.528508 0.022657 0.309579
v -0.527682 0.029354 0.309579
vn 0 0 -1
usemtl material_0_0
f 1//1 2//1 3//1
f 2//1 1//1 4//1
f 4//1 1//1 5//1
f 5//1 1//1 6//1
f 7//1 8//1 9//1
f 8//1 7//1 10//1
f 10//1 7//1 11//1
f 11//1 7//1 12//1
f 12//1 7//1 13//1
f 13//1 7//1 14//1
f 14//1 7//1 15//1
f 14//1 15//1 16//1
f 14//1 16//1 17//1
f 17//1 16//1 18//1
f 17//1 18//1 19//1
f 19//1 18//1 20//1
f 19//1 20//1 21//1
f 19//1 21//1 22//1
f 22//1 21//1 23//1
f 22//1 23//1 24//1
f 24//1 23//1 25//1
f 24//1 25//1 4//1
f 4//1 25//1 2//1
