# SSTK version 0.8.0
# 48
mtllib original-48.mtl
o #ID79
v 0.123755 -0.208048 0.309579
v 0.124694 -0.221575 0.309579
v 0.123259 -0.212936 0.309579
v 0.125242 -0.203572 0.309579
v 0.128718 -0.228075 0.309579
v 0.127722 -0.199507 0.309579
v 0.131194 -0.195854 0.309579
v 0.134796 -0.232634 0.309579
v 0.134852 -0.211754 0.309579
v 0.135436 -0.192838 0.309579
v 0.136048 -0.206414 0.309579
v 0.140227 -0.190683 0.309579
v 0.139636 -0.202214 0.309579
v 0.145166 -0.199491 0.309579
v 0.145567 -0.189391 0.309579
v 0.152187 -0.198584 0.309579
v 0.151455 -0.188960 0.309579
v 0.164766 -0.190367 0.309579
v 0.158899 -0.199266 0.309579
v 0.165300 -0.201314 0.309579
v 0.176388 -0.194363 0.309579
v 0.170985 -0.204275 0.309579
v 0.175544 -0.207701 0.309579
v 0.176388 -0.207701 0.309579
v 0.135556 -0.216552 0.309579
v 0.142563 -0.235504 0.309579
v 0.137666 -0.220252 0.309579
v 0.141114 -0.222982 0.309579
v 0.145827 -0.224867 0.309579
v 0.150611 -0.237474 0.309579
v 0.154494 -0.227034 0.309579
v 0.157703 -0.239331 0.309579
v 0.162993 -0.229257 0.309579
v 0.162374 -0.241259 0.309579
v 0.165582 -0.244003 0.309579
v 0.170492 -0.232578 0.309579
v 0.167439 -0.247619 0.309579
v 0.168058 -0.252163 0.309579
v 0.123427 -0.255315 0.309579
v 0.122639 -0.269273 0.309579
v 0.122639 -0.255315 0.309579
v 0.134655 -0.273916 0.309579
v 0.129309 -0.259909 0.309579
v 0.135922 -0.263335 0.309579
v 0.141726 -0.275330 0.309579
v 0.142774 -0.265467 0.309579
v 0.150161 -0.275801 0.309579
v 0.149373 -0.266177 0.309579
v 0.157477 -0.265214 0.309579
v 0.157175 -0.275309 0.309579
v 0.162908 -0.273832 0.309579
v 0.163331 -0.262322 0.309579
v 0.167742 -0.271440 0.309579
v 0.166876 -0.257855 0.309579
v 0.172054 -0.268204 0.309579
v 0.175656 -0.237249 0.309579
v 0.175255 -0.264517 0.309579
v 0.177654 -0.260099 0.309579
v 0.178653 -0.243215 0.309579
v 0.179153 -0.255287 0.309579
v 0.179652 -0.250419 0.309579
vn 0 0 -1
usemtl material_0_0
f 1//1 2//1 3//1
f 2//1 1//1 4//1
f 2//1 4//1 5//1
f 5//1 4//1 6//1
f 5//1 6//1 7//1
f 5//1 7//1 8//1
f 8//1 7//1 9//1
f 9//1 7//1 10//1
f 9//1 10//1 11//1
f 11//1 10//1 12//1
f 11//1 12//1 13//1
f 13//1 12//1 14//1
f 14//1 12//1 15//1
f 14//1 15//1 16//1
f 16//1 15//1 17//1
f 16//1 17//1 18//1
f 16//1 18//1 19//1
f 19//1 18//1 20//1
f 20//1 18//1 21//1
f 20//1 21//1 22//1
f 22//1 21//1 23//1
f 23//1 21//1 24//1
f 8//1 25//1 26//1
f 25//1 8//1 9//1
f 26//1 25//1 27//1
f 26//1 27//1 28//1
f 26//1 28//1 29//1
f 26//1 29//1 30//1
f 30//1 29//1 31//1
f 30//1 31//1 32//1
f 32//1 31//1 33//1
f 32//1 33//1 34//1
f 34//1 33//1 35//1
f 35//1 33//1 36//1
f 35//1 36//1 37//1
f 37//1 36//1 38//1
f 39//1 40//1 41//1
f 40//1 39//1 42//1
f 42//1 39//1 43//1
f 42//1 43//1 44//1
f 42//1 44//1 45//1
f 45//1 44//1 46//1
f 45//1 46//1 47//1
f 47//1 46//1 48//1
f 47//1 48//1 49//1
f 47//1 49//1 50//1
f 50//1 49//1 51//1
f 51//1 49//1 52//1
f 51//1 52//1 53//1
f 53//1 52//1 54//1
f 53//1 54//1 38//1
f 53//1 38//1 55//1
f 55//1 38//1 36//1
f 55//1 36//1 56//1
f 55//1 56//1 57//1
f 57//1 56//1 58//1
f 58//1 56//1 59//1
f 58//1 59//1 60//1
f 60//1 59//1 61//1
