# SSTK version 0.8.0
# 12
mtllib original-12.mtl
o #ID290
v -0.766563 0.409494 0.289974
v -0.767695 0.400901 0.193874
v -0.767695 0.400901 0.289974
v -0.766563 0.409494 0.193874
v -0.831831 0.400901 0.193874
v -0.831831 0.418087 0.193874
v -0.832962 0.409494 0.193874
v -0.828514 0.392894 0.193874
v -0.828514 0.426094 0.193874
v -0.823238 0.386018 0.193874
v -0.823238 0.432969 0.193874
v -0.816363 0.380742 0.193874
v -0.816363 0.438245 0.193874
v -0.808355 0.377425 0.193874
v -0.808355 0.441562 0.193874
v -0.799763 0.442693 0.193874
v -0.799763 0.376294 0.193874
v -0.791170 0.441562 0.193874
v -0.791170 0.377425 0.193874
v -0.783163 0.438245 0.193874
v -0.783163 0.380742 0.193874
v -0.776287 0.432969 0.193874
v -0.776287 0.386018 0.193874
v -0.771011 0.426094 0.193874
v -0.771011 0.392894 0.193874
v -0.767695 0.418087 0.193874
v -0.767695 0.400901 0.193874
v -0.766563 0.409494 0.193874
v -0.771011 0.392894 0.193874
v -0.771011 0.392894 0.289974
v -0.767695 0.418087 0.289974
v -0.767695 0.418087 0.193874
v -0.771011 0.426094 0.289974
v -0.771011 0.426094 0.193874
v -0.776287 0.432969 0.289974
v -0.776287 0.432969 0.193874
v -0.783163 0.438245 0.193874
v -0.783163 0.438245 0.289974
v -0.791170 0.441562 0.193874
v -0.791170 0.441562 0.289974
v -0.799763 0.442693 0.193874
v -0.799763 0.442693 0.289974
v -0.808355 0.441562 0.193874
v -0.808355 0.441562 0.289974
v -0.816363 0.438245 0.193874
v -0.816363 0.438245 0.289974
v -0.823238 0.432969 0.193874
v -0.823238 0.432969 0.289974
v -0.828514 0.426094 0.289974
v -0.828514 0.426094 0.193874
v -0.831831 0.418087 0.289974
v -0.831831 0.418087 0.193874
v -0.832962 0.409494 0.289974
v -0.832962 0.409494 0.193874
v -0.831831 0.400901 0.289974
v -0.831831 0.400901 0.193874
v -0.828514 0.392894 0.289974
v -0.828514 0.392894 0.193874
v -0.823238 0.386018 0.289974
v -0.823238 0.386018 0.193874
v -0.816363 0.380742 0.193874
v -0.816363 0.380742 0.289974
v -0.808355 0.377425 0.193874
v -0.808355 0.377425 0.289974
v -0.799763 0.376294 0.193874
v -0.799763 0.376294 0.289974
v -0.791170 0.377425 0.193874
v -0.791170 0.377425 0.289974
v -0.783163 0.380742 0.193874
v -0.783163 0.380742 0.289974
v -0.776287 0.386018 0.193874
v -0.776287 0.386018 0.289974
vn -1 0 0
vn -0.9659258358036645 0.25881900959356163 0
vn 0 0 1
vn -0.866025402838329 0.5000000016387101 0
vn -0.9659258358036645 -0.25881900959356163 0
vn -0.866025402838329 -0.5000000016387101 0
vn -0.7071067811865476 -0.7071067811865476 0
vn -0.5000000016387101 -0.866025402838329 0
vn -0.25881900959356163 -0.9659258358036645 0
vn 0 -1 0
vn 0.25881900959356163 -0.9659258358036645 0
vn 0.5000000016387101 -0.866025402838329 0
vn 0.7071067811865476 -0.7071067811865476 0
vn 0.866025402838329 -0.5000000016387101 0
vn 0.9659258358036645 -0.25881900959356163 0
vn 1 0 0
vn 0.9659258358036645 0.25881900959356163 0
vn 0.866025402838329 0.5000000016387101 0
vn 0.7071067811865476 0.7071067811865476 0
vn 0.5000000016387101 0.866025402838329 0
vn 0.25881900959356163 0.9659258358036645 0
vn 0 1 0
vn -0.25881900959356163 0.9659258358036645 0
vn -0.5000000016387101 0.866025402838329 0
vn -0.7071067811865476 0.7071067811865476 0
usemtl material_0_0
f 1//1 2//2 3//2
f 2//2 1//1 4//1
f 5//3 6//3 7//3
f 6//3 5//3 8//3
f 6//3 8//3 9//3
f 9//3 8//3 10//3
f 9//3 10//3 11//3
f 11//3 10//3 12//3
f 11//3 12//3 13//3
f 13//3 12//3 14//3
f 13//3 14//3 15//3
f 15//3 14//3 16//3
f 16//3 14//3 17//3
f 16//3 17//3 18//3
f 18//3 17//3 19//3
f 18//3 19//3 20//3
f 20//3 19//3 21//3
f 20//3 21//3 22//3
f 22//3 21//3 23//3
f 22//3 23//3 24//3
f 24//3 23//3 25//3
f 24//3 25//3 26//3
f 26//3 25//3 27//3
f 26//3 27//3 28//3
f 3//2 29//4 30//4
f 29//4 3//2 2//2
f 31//5 4//1 1//1
f 4//1 31//5 32//5
f 33//6 32//5 31//5
f 32//5 33//6 34//6
f 35//7 34//6 33//6
f 34//6 35//7 36//7
f 35//7 37//8 36//7
f 37//8 35//7 38//8
f 38//8 39//9 37//8
f 39//9 38//8 40//9
f 40//9 41//10 39//9
f 41//10 40//9 42//10
f 42//10 43//11 41//10
f 43//11 42//10 44//11
f 44//11 45//12 43//11
f 45//12 44//11 46//12
f 46//12 47//13 45//12
f 47//13 46//12 48//13
f 47//13 49//14 50//14
f 49//14 47//13 48//13
f 50//14 51//15 52//15
f 51//15 50//14 49//14
f 52//15 53//16 54//16
f 53//16 52//15 51//15
f 54//16 55//17 56//17
f 55//17 54//16 53//16
f 56//17 57//18 58//18
f 57//18 56//17 55//17
f 58//18 59//19 60//19
f 59//19 58//18 57//18
f 59//19 61//20 60//19
f 61//20 59//19 62//20
f 62//20 63//21 61//20
f 63//21 62//20 64//21
f 64//21 65//22 63//21
f 65//22 64//21 66//22
f 66//22 67//23 65//22
f 67//23 66//22 68//23
f 68//23 69//24 67//23
f 69//24 68//23 70//24
f 70//24 71//25 69//24
f 71//25 70//24 72//25
f 30//4 71//25 72//25
f 71//25 30//4 29//4
