# SSTK version 0.8.0
# 1
mtllib original-1.mtl
o #ID213
v -0.840535 -0.427828 0.309194
v -0.828593 -0.436992 0.289974
v -0.840535 -0.427828 0.289974
v -0.828593 -0.436992 0.309194
v -0.814686 -0.442752 0.289974
v -0.814686 -0.442752 0.309194
v -0.849698 -0.415887 0.289974
v -0.849698 -0.415887 0.309194
v -0.799763 -0.444717 0.289974
v -0.799763 -0.444717 0.309194
v -0.855458 -0.401980 0.289974
v -0.855458 -0.401980 0.309194
v -0.784839 -0.442752 0.289974
v -0.784839 -0.442752 0.309194
v -0.857423 -0.387057 0.289974
v -0.857423 -0.387057 0.309194
v -0.770933 -0.436992 0.289974
v -0.770933 -0.436992 0.309194
v -0.855458 -0.372133 0.289974
v -0.855458 -0.372133 0.309194
v -0.758991 -0.427828 0.289974
v -0.758991 -0.427828 0.309194
v -0.849698 -0.358227 0.289974
v -0.849698 -0.358227 0.309194
v -0.749828 -0.415887 0.309194
v -0.749828 -0.415887 0.289974
v -0.840535 -0.346285 0.289974
v -0.840535 -0.346285 0.309194
v -0.744068 -0.401980 0.309194
v -0.744068 -0.401980 0.289974
v -0.828593 -0.337122 0.309194
v -0.828593 -0.337122 0.289974
v -0.742103 -0.387057 0.309194
v -0.742103 -0.387057 0.289974
v -0.814686 -0.331361 0.309194
v -0.814686 -0.331361 0.289974
v -0.743104 -0.379449 0.309194
v -0.744068 -0.372133 0.289974
v -0.744068 -0.372133 0.309194
v -0.799763 -0.329397 0.309194
v -0.799763 -0.329397 0.289974
v -0.749828 -0.358227 0.309194
v -0.749828 -0.358227 0.289974
v -0.784839 -0.331361 0.309194
v -0.784839 -0.331361 0.289974
v -0.791884 -0.330434 0.309194
v -0.758991 -0.346285 0.309194
v -0.758991 -0.346285 0.289974
v -0.770933 -0.337122 0.309194
v -0.770933 -0.337122 0.289974
vn 0.7071067811865476 0.7071067811865476 0
vn 0.5000000016387101 0.866025402838329 0
vn 0.25881900959356163 0.9659258358036645 0
vn 0.866025402838329 0.5000000016387101 0
vn 0 1 0
vn 0.9659258358036645 0.25881900959356163 0
vn -0.25881900959356163 0.9659258358036645 0
vn 1 0 0
vn -0.5000000016387101 0.866025402838329 0
vn 0.9659258358036645 -0.25881900959356163 0
vn -0.7071067811865476 0.7071067811865476 0
vn 0.866025402838329 -0.5000000016387101 0
vn -0.866025402838329 0.5000000016387101 0
vn 0.7071067811865476 -0.7071067811865476 0
vn -0.9659258358036645 0.25881900959356163 0
vn 0.5000000016387101 -0.866025402838329 0
vn -1 0 0
vn 0.25881900959356163 -0.9659258358036645 0
vn -0.9914448610250887 -0.1305261948688555 0
vn -0.9659258358036645 -0.25881900959356163 0
vn 0 -1 0
vn -0.866025402838329 -0.5000000016387101 0
vn -0.25881900959356163 -0.9659258358036645 0
vn -0.1305261948688555 -0.9914448610250887 0
vn -0.7071067811865476 -0.7071067811865476 0
vn -0.5000000016387101 -0.866025402838329 0
usemtl material_0_0
f 1//1 2//2 3//1
f 2//2 1//1 4//2
f 4//2 5//3 2//2
f 5//3 4//2 6//3
f 7//4 1//1 3//1
f 1//1 7//4 8//4
f 6//3 9//5 5//3
f 9//5 6//3 10//5
f 11//6 8//4 7//4
f 8//4 11//6 12//6
f 10//5 13//7 9//5
f 13//7 10//5 14//7
f 15//8 12//6 11//6
f 12//6 15//8 16//8
f 14//7 17//9 13//7
f 17//9 14//7 18//9
f 19//10 16//8 15//8
f 16//8 19//10 20//10
f 18//9 21//11 17//9
f 21//11 18//9 22//11
f 23//12 20//10 19//10
f 20//10 23//12 24//12
f 25//13 21//11 22//11
f 21//11 25//13 26//13
f 27//14 24//12 23//12
f 24//12 27//14 28//14
f 29//15 26//13 25//13
f 26//13 29//15 30//15
f 31//16 27//14 32//16
f 27//14 31//16 28//14
f 33//17 30//15 29//15
f 30//15 33//17 34//17
f 35//18 32//16 36//18
f 32//16 35//18 31//16
f 37//19 34//17 33//17
f 34//17 37//19 38//20
f 38//20 37//19 39//20
f 40//21 36//18 41//21
f 36//18 40//21 35//18
f 42//22 38//20 39//20
f 38//20 42//22 43//22
f 44//23 41//21 45//23
f 41//21 44//23 40//21
f 40//21 44//23 46//24
f 47//25 43//22 42//22
f 43//22 47//25 48//25
f 49//26 45//23 50//26
f 45//23 49//26 44//23
f 47//25 50//26 48//25
f 50//26 47//25 49//26
