# SSTK version 0.8.0
# 17
mtllib original-17.mtl
o #ID322
v 0.211798 0.284558 0.309194
v 0.219478 0.266016 0.289974
v 0.219478 0.266016 0.309194
v 0.211798 0.284558 0.289974
v 0.199580 0.300480 0.309194
v 0.199580 0.300480 0.289974
v 0.070957 0.226220 0.289974
v 0.070957 0.266016 0.289974
v 0.068337 0.246118 0.289974
v 0.078638 0.207678 0.289974
v 0.078638 0.284558 0.289974
v 0.090855 0.191756 0.289974
v 0.087557 0.246118 0.289974
v 0.089522 0.231194 0.289974
v 0.095282 0.217288 0.289974
v 0.106777 0.179538 0.289974
v 0.104446 0.205346 0.289974
v 0.116388 0.196183 0.289974
v 0.125320 0.171858 0.289974
v 0.130294 0.190422 0.289974
v 0.145218 0.169238 0.289974
v 0.145218 0.188458 0.289974
v 0.165116 0.171858 0.289974
v 0.160141 0.190422 0.289974
v 0.174048 0.196183 0.289974
v 0.183658 0.179538 0.289974
v 0.185989 0.205346 0.289974
v 0.199580 0.191756 0.289974
v 0.195152 0.217288 0.289974
v 0.200913 0.231194 0.289974
v 0.211798 0.207678 0.289974
v 0.202877 0.246118 0.289974
v 0.090855 0.300480 0.289974
v 0.089522 0.261041 0.289974
v 0.095282 0.274948 0.289974
v 0.106777 0.312698 0.289974
v 0.104446 0.286890 0.289974
v 0.116388 0.296053 0.289974
v 0.125320 0.320378 0.289974
v 0.130294 0.301813 0.289974
v 0.145218 0.322997 0.289974
v 0.145218 0.303777 0.289974
v 0.160141 0.301813 0.289974
v 0.165116 0.320378 0.289974
v 0.174048 0.296053 0.289974
v 0.183658 0.312698 0.289974
v 0.185989 0.286890 0.289974
v 0.199580 0.300480 0.289974
v 0.195152 0.274948 0.289974
v 0.200913 0.261041 0.289974
v 0.211798 0.284558 0.289974
v 0.219478 0.226220 0.289974
v 0.219478 0.266016 0.289974
v 0.222097 0.246118 0.289974
v 0.222097 0.246118 0.289974
v 0.222097 0.246118 0.309194
v 0.183658 0.312698 0.289974
v 0.183658 0.312698 0.309194
v 0.165116 0.320378 0.289974
v 0.165116 0.320378 0.309194
v 0.145218 0.322997 0.289974
v 0.145218 0.322997 0.309194
v 0.125320 0.320378 0.289974
v 0.125320 0.320378 0.309194
v 0.106777 0.312698 0.289974
v 0.106777 0.312698 0.309194
v 0.090855 0.300480 0.289974
v 0.090855 0.300480 0.309194
v 0.078638 0.284558 0.309194
v 0.078638 0.284558 0.289974
v 0.070957 0.266016 0.309194
v 0.070957 0.266016 0.289974
v 0.068337 0.246118 0.309194
v 0.068337 0.246118 0.289974
v 0.070957 0.226220 0.309194
v 0.070957 0.226220 0.289974
v 0.078638 0.207678 0.309194
v 0.078638 0.207678 0.289974
v 0.090855 0.191756 0.309194
v 0.090855 0.191756 0.289974
v 0.106777 0.179538 0.289974
v 0.106777 0.179538 0.309194
v 0.125320 0.171858 0.289974
v 0.125320 0.171858 0.309194
v 0.145218 0.169238 0.289974
v 0.145218 0.169238 0.309194
v 0.165116 0.171858 0.289974
v 0.165116 0.171858 0.309194
v 0.183658 0.179538 0.289974
v 0.183658 0.179538 0.309194
v 0.199580 0.191756 0.289974
v 0.199580 0.191756 0.309194
v 0.211798 0.207678 0.309194
v 0.211798 0.207678 0.289974
v 0.219478 0.226220 0.309194
v 0.219478 0.226220 0.289974
vn -0.866025402838329 -0.5000000016387101 0
vn -0.9659258358036645 -0.25881900959356163 0
vn -0.7071067811865476 -0.7071067811865476 0
vn 0 0 1
vn -1 0 0
vn -0.5000000016387101 -0.866025402838329 0
vn -0.25881900959356163 -0.9659258358036645 0
vn 0 -1 0
vn 0.25881900959356163 -0.9659258358036645 0
vn 0.5000000016387101 -0.866025402838329 0
vn 0.7071067811865476 -0.7071067811865476 0
vn 0.866025402838329 -0.5000000016387101 0
vn 0.9659258358036645 -0.25881900959356163 0
vn 1 0 0
vn 0.9659258358036645 0.25881900959356163 0
vn 0.866025402838329 0.5000000016387101 0
vn 0.7071067811865476 0.7071067811865476 0
vn 0.5000000016387101 0.866025402838329 0
vn 0.25881900959356163 0.9659258358036645 0
vn 0 1 0
vn -0.25881900959356163 0.9659258358036645 0
vn -0.5000000016387101 0.866025402838329 0
vn -0.7071067811865476 0.7071067811865476 0
vn -0.866025402838329 0.5000000016387101 0
vn -0.9659258358036645 0.25881900959356163 0
usemtl material_0_0
f 1//1 2//2 3//2
f 2//2 1//1 4//1
f 5//3 4//1 1//1
f 4//1 5//3 6//3
f 7//4 8//4 9//4
f 8//4 7//4 10//4
f 8//4 10//4 11//4
f 11//4 10//4 12//4
f 11//4 12//4 13//4
f 13//4 12//4 14//4
f 14//4 12//4 15//4
f 15//4 12//4 16//4
f 15//4 16//4 17//4
f 17//4 16//4 18//4
f 18//4 16//4 19//4
f 18//4 19//4 20//4
f 20//4 19//4 21//4
f 20//4 21//4 22//4
f 22//4 21//4 23//4
f 22//4 23//4 24//4
f 24//4 23//4 25//4
f 25//4 23//4 26//4
f 25//4 26//4 27//4
f 27//4 26//4 28//4
f 27//4 28//4 29//4
f 29//4 28//4 30//4
f 30//4 28//4 31//4
f 30//4 31//4 32//4
f 13//4 33//4 11//4
f 33//4 13//4 34//4
f 33//4 34//4 35//4
f 33//4 35//4 36//4
f 36//4 35//4 37//4
f 36//4 37//4 38//4
f 36//4 38//4 39//4
f 39//4 38//4 40//4
f 39//4 40//4 41//4
f 41//4 40//4 42//4
f 41//4 42//4 43//4
f 41//4 43//4 44//4
f 44//4 43//4 45//4
f 44//4 45//4 46//4
f 46//4 45//4 47//4
f 46//4 47//4 48//4
f 48//4 47//4 49//4
f 48//4 49//4 50//4
f 48//4 50//4 51//4
f 51//4 50//4 32//4
f 51//4 32//4 31//4
f 51//4 31//4 52//4
f 51//4 52//4 53//4
f 53//4 52//4 54//4
f 3//2 55//5 56//5
f 55//5 3//2 2//2
f 5//3 57//6 6//3
f 57//6 5//3 58//6
f 58//6 59//7 57//6
f 59//7 58//6 60//7
f 60//7 61//8 59//7
f 61//8 60//7 62//8
f 62//8 63//9 61//8
f 63//9 62//8 64//9
f 64//9 65//10 63//9
f 65//10 64//9 66//10
f 66//10 67//11 65//10
f 67//11 66//10 68//11
f 67//11 69//12 70//12
f 69//12 67//11 68//11
f 70//12 71//13 72//13
f 71//13 70//12 69//12
f 72//13 73//14 74//14
f 73//14 72//13 71//13
f 74//14 75//15 76//15
f 75//15 74//14 73//14
f 76//15 77//16 78//16
f 77//16 76//15 75//15
f 78//16 79//17 80//17
f 79//17 78//16 77//16
f 79//17 81//18 80//17
f 81//18 79//17 82//18
f 82//18 83//19 81//18
f 83//19 82//18 84//19
f 84//19 85//20 83//19
f 85//20 84//19 86//20
f 86//20 87//21 85//20
f 87//21 86//20 88//21
f 88//21 89//22 87//21
f 89//22 88//21 90//22
f 90//22 91//23 89//22
f 91//23 90//22 92//23
f 93//24 91//23 92//23
f 91//23 93//24 94//24
f 95//25 94//24 93//24
f 94//24 95//25 96//25
f 56//5 96//25 95//25
f 96//25 56//5 55//5
