# SSTK version 0.8.0
# 3
mtllib original-3.mtl
o #ID225
v 0.720433 -0.384288 0.289974
v 0.722398 -0.399212 0.309194
v 0.722398 -0.399212 0.289974
v 0.720433 -0.384288 0.309194
v 0.728158 -0.413118 0.309194
v 0.728158 -0.413118 0.289974
v 0.722398 -0.369365 0.289974
v 0.721070 -0.379449 0.309194
v 0.722398 -0.369365 0.309194
v 0.737322 -0.425060 0.309194
v 0.737322 -0.425060 0.289974
v 0.728158 -0.355458 0.289974
v 0.728158 -0.355458 0.309194
v 0.749263 -0.434223 0.289974
v 0.749263 -0.434223 0.309194
v 0.737322 -0.343516 0.289974
v 0.737322 -0.343516 0.309194
v 0.763170 -0.439983 0.289974
v 0.763170 -0.439983 0.309194
v 0.749263 -0.334353 0.309194
v 0.749263 -0.334353 0.289974
v 0.778093 -0.441948 0.289974
v 0.778093 -0.441948 0.309194
v 0.763170 -0.328593 0.309194
v 0.763170 -0.328593 0.289974
v 0.793016 -0.439983 0.289974
v 0.793016 -0.439983 0.309194
v 0.778093 -0.326628 0.309194
v 0.778093 -0.326628 0.289974
v 0.806923 -0.434223 0.289974
v 0.806923 -0.434223 0.309194
v 0.793016 -0.328593 0.309194
v 0.793016 -0.328593 0.289974
v 0.782017 -0.327145 0.309194
v 0.818865 -0.425060 0.289974
v 0.818865 -0.425060 0.309194
v 0.806923 -0.334353 0.309194
v 0.806923 -0.334353 0.289974
v 0.828028 -0.413118 0.309194
v 0.828028 -0.413118 0.289974
v 0.818865 -0.343516 0.309194
v 0.818865 -0.343516 0.289974
v 0.833788 -0.399212 0.309194
v 0.833788 -0.399212 0.289974
v 0.828028 -0.355458 0.289974
v 0.828028 -0.355458 0.309194
v 0.835753 -0.384288 0.309194
v 0.835753 -0.384288 0.289974
v 0.833788 -0.369365 0.289974
v 0.833788 -0.369365 0.309194
vn 1 0 0
vn 0.9659258358036645 0.25881900959356163 0
vn 0.866025402838329 0.5000000016387101 0
vn 0.9659258358036645 -0.25881900959356163 0
vn 0.9914448610250887 -0.1305261948688555 0
vn 0.7071067811865476 0.7071067811865476 0
vn 0.866025402838329 -0.5000000016387101 0
vn 0.5000000016387101 0.866025402838329 0
vn 0.7071067811865476 -0.7071067811865476 0
vn 0.25881900959356163 0.9659258358036645 0
vn 0.5000000016387101 -0.866025402838329 0
vn 0 1 0
vn 0.25881900959356163 -0.9659258358036645 0
vn -0.25881900959356163 0.9659258358036645 0
vn 0 -1 0
vn -0.5000000016387101 0.866025402838329 0
vn -0.25881900959356163 -0.9659258358036645 0
vn -0.1305261948688555 -0.9914448610250887 0
vn -0.7071067811865476 0.7071067811865476 0
vn -0.5000000016387101 -0.866025402838329 0
vn -0.866025402838329 0.5000000016387101 0
vn -0.7071067811865476 -0.7071067811865476 0
vn -0.9659258358036645 0.25881900959356163 0
vn -0.866025402838329 -0.5000000016387101 0
vn -1 0 0
vn -0.9659258358036645 -0.25881900959356163 0
usemtl material_0_0
f 1//1 2//2 3//2
f 2//2 1//1 4//1
f 3//2 5//3 6//3
f 5//3 3//2 2//2
f 7//4 4//1 1//1
f 4//1 7//4 8//5
f 8//5 7//4 9//4
f 6//3 10//6 11//6
f 10//6 6//3 5//3
f 12//7 9//4 7//4
f 9//4 12//7 13//7
f 10//6 14//8 11//6
f 14//8 10//6 15//8
f 16//9 13//7 12//7
f 13//7 16//9 17//9
f 15//8 18//10 14//8
f 18//10 15//8 19//10
f 20//11 16//9 21//11
f 16//9 20//11 17//9
f 19//10 22//12 18//10
f 22//12 19//10 23//12
f 24//13 21//11 25//13
f 21//11 24//13 20//11
f 23//12 26//14 22//12
f 26//14 23//12 27//14
f 28//15 25//13 29//15
f 25//13 28//15 24//13
f 27//14 30//16 26//14
f 30//16 27//14 31//16
f 32//17 29//15 33//17
f 29//15 32//17 28//15
f 28//15 32//17 34//18
f 31//16 35//19 30//16
f 35//19 31//16 36//19
f 37//20 33//17 38//20
f 33//17 37//20 32//17
f 39//21 35//19 36//19
f 35//19 39//21 40//21
f 41//22 38//20 42//22
f 38//20 41//22 37//20
f 43//23 40//21 39//21
f 40//21 43//23 44//23
f 41//22 45//24 46//24
f 45//24 41//22 42//22
f 47//25 44//23 43//23
f 44//23 47//25 48//25
f 46//24 49//26 50//26
f 49//26 46//24 45//24
f 50//26 48//25 47//25
f 48//25 50//26 49//26
