# SSTK version 0.8.0
# 4
mtllib original-4.mtl
o #ID231
v 0.722398 -0.399212 0.289974
v 0.722398 -0.369365 0.289974
v 0.720433 -0.384288 0.289974
v 0.728158 -0.355458 0.289974
v 0.728158 -0.413118 0.289974
v 0.737322 -0.425060 0.289974
v 0.737322 -0.343516 0.289974
v 0.749263 -0.434223 0.289974
v 0.744638 -0.384288 0.289974
v 0.745778 -0.392947 0.289974
v 0.749121 -0.401015 0.289974
v 0.754437 -0.407944 0.289974
v 0.763170 -0.439983 0.289974
v 0.761366 -0.413261 0.289974
v 0.769434 -0.416603 0.289974
v 0.778093 -0.441948 0.289974
v 0.778093 -0.417743 0.289974
v 0.793016 -0.439983 0.289974
v 0.786752 -0.416603 0.289974
v 0.794821 -0.413261 0.289974
v 0.806923 -0.434223 0.289974
v 0.801749 -0.407944 0.289974
v 0.807066 -0.401015 0.289974
v 0.818865 -0.425060 0.289974
v 0.810408 -0.392947 0.289974
v 0.811548 -0.384288 0.289974
v 0.749263 -0.334353 0.289974
v 0.745778 -0.375629 0.289974
v 0.749121 -0.367561 0.289974
v 0.754437 -0.360632 0.289974
v 0.763170 -0.328593 0.289974
v 0.761366 -0.355315 0.289974
v 0.769434 -0.351973 0.289974
v 0.778093 -0.326628 0.289974
v 0.778093 -0.350833 0.289974
v 0.786752 -0.351973 0.289974
v 0.793016 -0.328593 0.289974
v 0.794821 -0.355315 0.289974
v 0.806923 -0.334353 0.289974
v 0.801749 -0.360632 0.289974
v 0.807066 -0.367561 0.289974
v 0.818865 -0.343516 0.289974
v 0.810408 -0.375629 0.289974
v 0.828028 -0.413118 0.289974
v 0.828028 -0.355458 0.289974
v 0.833788 -0.399212 0.289974
v 0.833788 -0.369365 0.289974
v 0.835753 -0.384288 0.289974
vn 0 0 1
usemtl material_0_0
f 1//1 2//1 3//1
f 2//1 1//1 4//1
f 4//1 1//1 5//1
f 4//1 5//1 6//1
f 4//1 6//1 7//1
f 7//1 6//1 8//1
f 7//1 8//1 9//1
f 9//1 8//1 10//1
f 10//1 8//1 11//1
f 11//1 8//1 12//1
f 12//1 8//1 13//1
f 12//1 13//1 14//1
f 14//1 13//1 15//1
f 15//1 13//1 16//1
f 15//1 16//1 17//1
f 17//1 16//1 18//1
f 17//1 18//1 19//1
f 19//1 18//1 20//1
f 20//1 18//1 21//1
f 20//1 21//1 22//1
f 22//1 21//1 23//1
f 23//1 21//1 24//1
f 23//1 24//1 25//1
f 25//1 24//1 26//1
f 9//1 27//1 7//1
f 27//1 9//1 28//1
f 27//1 28//1 29//1
f 27//1 29//1 30//1
f 27//1 30//1 31//1
f 31//1 30//1 32//1
f 31//1 32//1 33//1
f 31//1 33//1 34//1
f 34//1 33//1 35//1
f 34//1 35//1 36//1
f 34//1 36//1 37//1
f 37//1 36//1 38//1
f 37//1 38//1 39//1
f 39//1 38//1 40//1
f 39//1 40//1 41//1
f 39//1 41//1 42//1
f 42//1 41//1 43//1
f 42//1 43//1 26//1
f 42//1 26//1 24//1
f 42//1 24//1 44//1
f 42//1 44//1 45//1
f 45//1 44//1 46//1
f 45//1 46//1 47//1
f 47//1 46//1 48//1
