# SSTK version 0.8.0
# 19
mtllib original-19.mtl
o #ID336
v -0.205743 0.042935 0.366854
v -0.207052 0.032986 0.693594
v -0.207052 0.032986 0.366854
v -0.205743 0.042935 0.693594
v -0.281313 0.032986 0.693594
v -0.281313 0.052884 0.693594
v -0.282622 0.042935 0.693594
v -0.277472 0.023715 0.693594
v -0.277472 0.062155 0.693594
v -0.271364 0.015754 0.693594
v -0.271364 0.070116 0.693594
v -0.263402 0.009645 0.693594
v -0.263402 0.076225 0.693594
v -0.254131 0.080065 0.693594
v -0.254131 0.005805 0.693594
v -0.244183 0.081375 0.693594
v -0.244183 0.004495 0.693594
v -0.234233 0.005805 0.693594
v -0.234233 0.080065 0.693594
v -0.224963 0.009645 0.693594
v -0.224963 0.076225 0.693594
v -0.217001 0.070116 0.693594
v -0.217001 0.015754 0.693594
v -0.210893 0.023715 0.693594
v -0.210893 0.062155 0.693594
v -0.207052 0.032986 0.693594
v -0.207052 0.052884 0.693594
v -0.205743 0.042935 0.693594
v -0.210893 0.023715 0.693594
v -0.210893 0.023715 0.366854
v -0.207052 0.052884 0.366854
v -0.207052 0.052884 0.693594
v -0.210893 0.062155 0.366854
v -0.210893 0.062155 0.693594
v -0.217001 0.070116 0.366854
v -0.217001 0.070116 0.693594
v -0.224963 0.076225 0.693594
v -0.224963 0.076225 0.366854
v -0.234233 0.080065 0.693594
v -0.234233 0.080065 0.366854
v -0.244183 0.081375 0.693594
v -0.244183 0.081375 0.366854
v -0.254131 0.080065 0.693594
v -0.254131 0.080065 0.366854
v -0.263402 0.076225 0.693594
v -0.263402 0.076225 0.366854
v -0.271364 0.070116 0.693594
v -0.271364 0.070116 0.366854
v -0.277472 0.062155 0.366854
v -0.277472 0.062155 0.693594
v -0.281313 0.052884 0.366854
v -0.281313 0.052884 0.693594
v -0.282622 0.042935 0.366854
v -0.282622 0.042935 0.693594
v -0.281313 0.032986 0.366854
v -0.281313 0.032986 0.693594
v -0.277472 0.023715 0.366854
v -0.277472 0.023715 0.693594
v -0.271364 0.015754 0.366854
v -0.271364 0.015754 0.693594
v -0.263402 0.009645 0.693594
v -0.263402 0.009645 0.366854
v -0.254131 0.005805 0.693594
v -0.254131 0.005805 0.366854
v -0.244183 0.004495 0.693594
v -0.244183 0.004495 0.366854
v -0.234233 0.005805 0.693594
v -0.234233 0.005805 0.366854
v -0.224963 0.009645 0.693594
v -0.224963 0.009645 0.366854
v -0.217001 0.015754 0.693594
v -0.217001 0.015754 0.366854
vt 0.00824565 0
vt 0.007902081 0.01115486
vt 0.007902081 0
vt 0.00824565 0.01115486
vt 0.02010513 0.01675475
vt 0.02010513 0.01743407
vt 0.02006041 0.01709441
vt 0.02023623 0.01643824
vt 0.02023623 0.01775058
vt 0.02044479 0.01616645
vt 0.02044479 0.01802237
vt 0.02071658 0.01595789
vt 0.02071658 0.01823093
vt 0.02103309 0.01836203
vt 0.02103309 0.01582679
vt 0.02137275 0.01840675
vt 0.02137275 0.01578207
vt 0.02171241 0.01582679
vt 0.02171241 0.01836203
vt 0.02202892 0.01595789
vt 0.02202892 0.01823093
vt 0.02230071 0.01802237
vt 0.02230071 0.01616645
vt 0.02250927 0.01643824
vt 0.02250927 0.01775058
vt 0.02264037 0.01675475
vt 0.02264037 0.01743407
vt 0.02268509 0.01709441
vt 0.007902081 -1.387779e-17
vt 0.007558513 0.01115486
vt 0.007558513 -1.387779e-17
vt 0.0003435688 0
vt -6.938894e-18 0.01115486
vt -6.938894e-18 0
vt 0.0003435688 0.01115486
vt 0.0006871375 0
vt 0.0006871375 0.01115486
vt 0.001030706 6.938894e-18
vt 0.0006871375 6.938894e-18
vt 0.001030706 0.01115486
vt 0.001374275 0.01115486
vt 0.001030706 0
vt 0.001374275 0
vt 0.001717844 0.01115486
vt 0.001374275 6.938894e-18
vt 0.001717844 6.938894e-18
vt 0.002061413 0.01115486
vt 0.001717844 0
vt 0.002061413 0
vt 0.002404981 0.01115486
vt 0.002404981 0
vt 0.00274855 0.01115486
vt 0.00274855 0
vt 0.003092119 0.01115486
vt 0.003092119 0
vt 0.003435688 0
vt 0.003435688 0.01115486
vt 0.003779256 -6.938894e-18
vt 0.003779256 0.01115486
vt 0.003435688 -6.938894e-18
vt 0.004122825 0
vt 0.004122825 0.01115486
vt 0.003779256 0
vt 0.004466394 0
vt 0.004466394 0.01115486
vt 0.004809963 6.938894e-18
vt 0.004809963 0.01115486
vt 0.004466394 6.938894e-18
vt 0.005153531 0
vt 0.005153531 0.01115486
vt 0.004809963 0
vt 0.0054971 0.01115486
vt 0.005153531 6.938894e-18
vt 0.0054971 6.938894e-18
vt 0.005840669 0.01115486
vt 0.005840669 6.938894e-18
vt 0.006184238 0.01115486
vt 0.005840669 0
vt 0.006184238 0
vt 0.006527806 0.01115486
vt 0.006527806 0
vt 0.006871375 0.01115486
vt 0.006871375 0
vt 0.007214944 0.01115486
vt 0.006871375 6.938894e-18
vt 0.007214944 6.938894e-18
vt 0.007558513 0
vt 0.007214944 0
vn 1 0 0
vn 0.9659258358036645 -0.25881900959356163 0
vn 0 0 1
vn 0.866025402838329 -0.5000000016387101 0
vn 0.9659258358036645 0.25881900959356163 0
vn 0.866025402838329 0.5000000016387101 0
vn 0.7071067811865476 0.7071067811865476 0
vn 0.5000000016387101 0.866025402838329 0
vn 0.25881900959356163 0.9659258358036645 0
vn 0 1 0
vn -0.25881900959356163 0.9659258358036645 0
vn -0.5000000016387101 0.866025402838329 0
vn -0.7071067811865476 0.7071067811865476 0
vn -0.866025402838329 0.5000000016387101 0
vn -0.9659258358036645 0.25881900959356163 0
vn -1 0 0
vn -0.9659258358036645 -0.25881900959356163 0
vn -0.866025402838329 -0.5000000016387101 0
vn -0.7071067811865476 -0.7071067811865476 0
vn -0.5000000016387101 -0.866025402838329 0
vn -0.25881900959356163 -0.9659258358036645 0
vn 0 -1 0
vn 0.25881900959356163 -0.9659258358036645 0
vn 0.5000000016387101 -0.866025402838329 0
vn 0.7071067811865476 -0.7071067811865476 0
usemtl material_0_0
f 1/1/1 2/2/2 3/3/2
f 2/2/2 1/1/1 4/4/1
f 5/5/3 6/6/3 7/7/3
f 6/6/3 5/5/3 8/8/3
f 6/6/3 8/8/3 9/9/3
f 9/9/3 8/8/3 10/10/3
f 9/9/3 10/10/3 11/11/3
f 11/11/3 10/10/3 12/12/3
f 11/11/3 12/12/3 13/13/3
f 13/13/3 12/12/3 14/14/3
f 14/14/3 12/12/3 15/15/3
f 14/14/3 15/15/3 16/16/3
f 16/16/3 15/15/3 17/17/3
f 16/16/3 17/17/3 18/18/3
f 16/16/3 18/18/3 19/19/3
f 19/19/3 18/18/3 20/20/3
f 19/19/3 20/20/3 21/21/3
f 21/21/3 20/20/3 22/22/3
f 22/22/3 20/20/3 23/23/3
f 22/22/3 23/23/3 24/24/3
f 22/22/3 24/24/3 25/25/3
f 25/25/3 24/24/3 26/26/3
f 25/25/3 26/26/3 27/27/3
f 27/27/3 26/26/3 28/28/3
f 3/29/2 29/30/4 30/31/4
f 29/30/4 3/29/2 2/2/2
f 31/32/5 4/33/1 1/34/1
f 4/33/1 31/32/5 32/35/5
f 33/36/6 32/35/5 31/32/5
f 32/35/5 33/36/6 34/37/6
f 35/38/7 34/37/6 33/39/6
f 34/37/6 35/38/7 36/40/7
f 37/41/8 35/42/7 38/43/8
f 35/42/7 37/41/8 36/40/7
f 39/44/9 38/45/8 40/46/9
f 38/45/8 39/44/9 37/41/8
f 41/47/10 40/48/9 42/49/10
f 40/48/9 41/47/10 39/44/9
f 43/50/11 42/49/10 44/51/11
f 42/49/10 43/50/11 41/47/10
f 45/52/12 44/51/11 46/53/12
f 44/51/11 45/52/12 43/50/11
f 47/54/13 46/53/12 48/55/13
f 46/53/12 47/54/13 45/52/12
f 47/54/13 49/56/14 50/57/14
f 49/56/14 47/54/13 48/55/13
f 50/57/14 51/58/15 52/59/15
f 51/58/15 50/57/14 49/60/14
f 52/59/15 53/61/16 54/62/16
f 53/61/16 52/59/15 51/63/15
f 54/62/16 55/64/17 56/65/17
f 55/64/17 54/62/16 53/61/16
f 56/65/17 57/66/18 58/67/18
f 57/66/18 56/65/17 55/68/17
f 58/67/18 59/69/19 60/70/19
f 59/69/19 58/67/18 57/71/18
f 61/72/20 59/73/19 62/74/20
f 59/73/19 61/72/20 60/70/19
f 63/75/21 62/74/20 64/76/21
f 62/74/20 63/75/21 61/72/20
f 65/77/22 64/78/21 66/79/22
f 64/78/21 65/77/22 63/75/21
f 67/80/23 66/79/22 68/81/23
f 66/79/22 67/80/23 65/77/22
f 69/82/24 68/81/23 70/83/24
f 68/81/23 69/82/24 67/80/23
f 71/84/25 70/85/24 72/86/25
f 70/85/24 71/84/25 69/82/24
f 30/87/4 71/84/25 72/88/25
f 71/84/25 30/87/4 29/30/4
