# SSTK version 0.8.0
# 61
mtllib original-61.mtl
o #ID133
v -0.017465 0.078178 0.309579
v -0.028796 0.022310 0.309579
v -0.036300 0.022310 0.309579
v -0.023731 0.037919 0.309579
v -0.021667 0.044260 0.309579
v -0.013075 0.070599 0.309579
v -0.008310 0.078178 0.309579
v -0.004445 0.044260 0.309579
v 0.010526 0.022310 0.309579
v -0.002381 0.037919 0.309579
v 0.002684 0.022310 0.309579
vn 0 0 -1
usemtl material_0_0
f 1//1 2//1 3//1
f 2//1 1//1 4//1
f 4//1 1//1 5//1
f 5//1 1//1 6//1
f 6//1 1//1 7//1
f 6//1 7//1 8//1
f 8//1 7//1 9//1
f 8//1 9//1 10//1
f 10//1 9//1 11//1
f 5//1 10//1 4//1
f 10//1 5//1 8//1
