# SSTK version 0.8.0
# 50
mtllib original-50.mtl
o #ID91
v 0.324238 -0.190479 0.309579
v 0.291707 -0.199034 0.309579
v 0.291707 -0.190479 0.309579
v 0.302401 -0.199034 0.309579
v 0.313545 -0.199034 0.309579
v 0.302401 -0.265727 0.309579
v 0.324238 -0.199034 0.309579
v 0.291707 -0.274282 0.309579
v 0.291707 -0.265727 0.309579
v 0.324238 -0.274282 0.309579
v 0.313545 -0.265727 0.309579
v 0.324238 -0.265727 0.309579
vn 0 0 -1
usemtl material_0_0
f 1//1 2//1 3//1
f 2//1 1//1 4//1
f 4//1 1//1 5//1
f 4//1 5//1 6//1
f 5//1 1//1 7//1
f 6//1 8//1 9//1
f 8//1 6//1 10//1
f 10//1 6//1 11//1
f 11//1 6//1 5//1
f 10//1 11//1 12//1
