# SSTK version 0.8.0
# 23
mtllib original-23.mtl
o #ID362
v -0.472090 0.252296 0.289974
v -0.474055 0.237373 0.366854
v -0.474055 0.237373 0.289974
v -0.472090 0.252296 0.366854
v -0.479815 0.223466 0.366854
v -0.479815 0.223466 0.289974
v -0.474055 0.267220 0.289974
v -0.474055 0.267220 0.366854
v -0.585445 0.237373 0.366854
v -0.585445 0.267220 0.366854
v -0.587410 0.252296 0.366854
v -0.579685 0.223466 0.366854
v -0.579685 0.281127 0.366854
v -0.570522 0.293068 0.366854
v -0.570522 0.211525 0.366854
v -0.558580 0.202361 0.366854
v -0.558580 0.302231 0.366854
v -0.544674 0.196601 0.366854
v -0.544674 0.307992 0.366854
v -0.529750 0.309956 0.366854
v -0.529750 0.194636 0.366854
v -0.514827 0.196601 0.366854
v -0.514827 0.307992 0.366854
v -0.500920 0.302231 0.366854
v -0.500920 0.202361 0.366854
v -0.488979 0.293068 0.366854
v -0.488979 0.211525 0.366854
v -0.479815 0.223466 0.366854
v -0.479815 0.281127 0.366854
v -0.474055 0.237373 0.366854
v -0.474055 0.267220 0.366854
v -0.472090 0.252296 0.366854
v -0.488979 0.211525 0.366854
v -0.488979 0.211525 0.289974
v -0.479815 0.281127 0.289974
v -0.479815 0.281127 0.366854
v -0.488979 0.293068 0.289974
v -0.488979 0.293068 0.366854
v -0.500920 0.302231 0.366854
v -0.500920 0.302231 0.289974
v -0.514827 0.307992 0.366854
v -0.514827 0.307992 0.289974
v -0.529750 0.309956 0.366854
v -0.529750 0.309956 0.289974
v -0.544674 0.307992 0.366854
v -0.544674 0.307992 0.289974
v -0.558580 0.302231 0.366854
v -0.558580 0.302231 0.289974
v -0.570522 0.293068 0.366854
v -0.570522 0.293068 0.289974
v -0.579685 0.281127 0.289974
v -0.579685 0.281127 0.366854
v -0.585445 0.267220 0.289974
v -0.585445 0.267220 0.366854
v -0.587410 0.252296 0.289974
v -0.587410 0.252296 0.366854
v -0.585445 0.237373 0.289974
v -0.585445 0.237373 0.366854
v -0.579685 0.223466 0.289974
v -0.579685 0.223466 0.366854
v -0.570522 0.211525 0.289974
v -0.570522 0.211525 0.366854
v -0.558580 0.202361 0.366854
v -0.558580 0.202361 0.289974
v -0.544674 0.196601 0.366854
v -0.544674 0.196601 0.289974
v -0.529750 0.194636 0.366854
v -0.529750 0.194636 0.289974
v -0.514827 0.196601 0.366854
v -0.514827 0.196601 0.289974
v -0.500920 0.202361 0.366854
v -0.500920 0.202361 0.289974
vn 1 0 0
vn 0.9659258358036645 -0.25881900959356163 0
vn 0.866025402838329 -0.5000000016387101 0
vn 0.9659258358036645 0.25881900959356163 0
vn 0 0 1
vn 0.7071067811865476 -0.7071067811865476 0
vn 0.866025402838329 0.5000000016387101 0
vn 0.7071067811865476 0.7071067811865476 0
vn 0.5000000016387101 0.866025402838329 0
vn 0.25881900959356163 0.9659258358036645 0
vn 0 1 0
vn -0.25881900959356163 0.9659258358036645 0
vn -0.5000000016387101 0.866025402838329 0
vn -0.7071067811865476 0.7071067811865476 0
vn -0.866025402838329 0.5000000016387101 0
vn -0.9659258358036645 0.25881900959356163 0
vn -1 0 0
vn -0.9659258358036645 -0.25881900959356163 0
vn -0.866025402838329 -0.5000000016387101 0
vn -0.7071067811865476 -0.7071067811865476 0
vn -0.5000000016387101 -0.866025402838329 0
vn -0.25881900959356163 -0.9659258358036645 0
vn 0 -1 0
vn 0.25881900959356163 -0.9659258358036645 0
vn 0.5000000016387101 -0.866025402838329 0
usemtl material_0_0
f 1//1 2//2 3//2
f 2//2 1//1 4//1
f 3//2 5//3 6//3
f 5//3 3//2 2//2
f 7//4 4//1 1//1
f 4//1 7//4 8//4
f 9//5 10//5 11//5
f 10//5 9//5 12//5
f 10//5 12//5 13//5
f 13//5 12//5 14//5
f 14//5 12//5 15//5
f 14//5 15//5 16//5
f 14//5 16//5 17//5
f 17//5 16//5 18//5
f 17//5 18//5 19//5
f 19//5 18//5 20//5
f 20//5 18//5 21//5
f 20//5 21//5 22//5
f 20//5 22//5 23//5
f 23//5 22//5 24//5
f 24//5 22//5 25//5
f 24//5 25//5 26//5
f 26//5 25//5 27//5
f 26//5 27//5 28//5
f 26//5 28//5 29//5
f 29//5 28//5 30//5
f 29//5 30//5 31//5
f 31//5 30//5 32//5
f 6//3 33//6 34//6
f 33//6 6//3 5//3
f 35//7 8//4 7//4
f 8//4 35//7 36//7
f 37//8 36//7 35//7
f 36//7 37//8 38//8
f 39//9 37//8 40//9
f 37//8 39//9 38//8
f 41//10 40//9 42//10
f 40//9 41//10 39//9
f 43//11 42//10 44//11
f 42//10 43//11 41//10
f 45//12 44//11 46//12
f 44//11 45//12 43//11
f 47//13 46//12 48//13
f 46//12 47//13 45//12
f 49//14 48//13 50//14
f 48//13 49//14 47//13
f 49//14 51//15 52//15
f 51//15 49//14 50//14
f 52//15 53//16 54//16
f 53//16 52//15 51//15
f 54//16 55//17 56//17
f 55//17 54//16 53//16
f 56//17 57//18 58//18
f 57//18 56//17 55//17
f 58//18 59//19 60//19
f 59//19 58//18 57//18
f 60//19 61//20 62//20
f 61//20 60//19 59//19
f 63//21 61//20 64//21
f 61//20 63//21 62//20
f 65//22 64//21 66//22
f 64//21 65//22 63//21
f 67//23 66//22 68//23
f 66//22 67//23 65//22
f 69//24 68//23 70//24
f 68//23 69//24 67//23
f 71//25 70//24 72//25
f 70//24 71//25 69//24
f 33//6 72//25 34//6
f 72//25 33//6 71//25
