# SSTK version 0.8.0
# 6
mtllib original-6.mtl
o #ID245
v 0.860349 0.426131 0.251535
v 0.860349 -0.370004 0.309194
v 0.860349 -0.370004 0.251535
v 0.860349 0.426131 0.309194
v 0.860349 -0.370004 0.251535
v 0.859598 -0.381461 0.309194
v 0.859598 -0.381461 0.251535
v 0.860349 -0.370004 0.309194
v 0.859729 0.435595 0.251535
v 0.860349 0.426131 0.309194
v 0.860349 0.426131 0.251535
v 0.859729 0.435595 0.309194
v 0.857358 -0.392722 0.309194
v 0.857358 -0.392722 0.251535
v 0.857879 0.444897 0.251535
v 0.857879 0.444897 0.309194
v 0.853667 -0.403595 0.309194
v 0.853667 -0.403595 0.251535
v 0.854830 0.453878 0.251535
v 0.854830 0.453878 0.309194
v 0.848589 -0.413893 0.309194
v 0.848589 -0.413893 0.251535
v 0.850636 0.462384 0.251535
v 0.850636 0.462384 0.309194
v 0.842210 -0.423440 0.309194
v 0.842210 -0.423440 0.251535
v 0.845366 0.470269 0.251535
v 0.845366 0.470269 0.309194
v 0.834640 -0.432072 0.309194
v 0.834640 -0.432072 0.251535
v 0.839113 0.477400 0.251535
v 0.839113 0.477400 0.309194
v 0.826007 -0.439643 0.251535
v 0.826007 -0.439643 0.309194
v 0.831983 0.483653 0.309194
v 0.831983 0.483653 0.251535
v 0.816460 -0.446022 0.251535
v 0.816460 -0.446022 0.309194
v 0.824097 0.488922 0.309194
v 0.824097 0.488922 0.251535
v 0.806162 -0.451100 0.251535
v 0.806162 -0.451100 0.309194
v 0.815591 0.493117 0.309194
v 0.815591 0.493117 0.251535
v 0.795290 -0.454791 0.251535
v 0.795290 -0.454791 0.309194
v 0.806610 0.496165 0.309194
v 0.806610 0.496165 0.251535
v 0.784029 -0.457031 0.251535
v 0.784029 -0.457031 0.309194
v 0.797309 0.498016 0.309194
v 0.797309 0.498016 0.251535
v 0.772572 -0.457782 0.251535
v 0.772572 -0.457782 0.309194
v 0.787845 0.498636 0.309194
v 0.787845 0.498636 0.251535
v -0.800577 0.498636 0.309194
v 0.787845 0.498636 0.251535
v -0.800577 0.498636 0.251535
v 0.787845 0.498636 0.309194
v -0.809667 0.498040 0.309194
v -0.800577 0.498636 0.251535
v -0.809667 0.498040 0.251535
v -0.800577 0.498636 0.309194
v -0.818601 0.496263 0.309194
v -0.818601 0.496263 0.251535
v -0.827227 0.493335 0.309194
v -0.827227 0.493335 0.251535
v -0.835397 0.489306 0.309194
v -0.835397 0.489306 0.251535
v -0.842971 0.484245 0.309194
v -0.842971 0.484245 0.251535
v -0.849820 0.478239 0.309194
v -0.849820 0.478239 0.251535
v -0.855826 0.471390 0.251535
v -0.855826 0.471390 0.309194
v -0.860887 0.463816 0.251535
v -0.860887 0.463816 0.309194
v -0.864916 0.455646 0.251535
v -0.864916 0.455646 0.309194
v -0.867844 0.447020 0.251535
v -0.867844 0.447020 0.309194
v -0.869621 0.438086 0.251535
v -0.869621 0.438086 0.309194
v -0.870217 0.428996 0.251535
v -0.870217 0.428996 0.309194
v -0.870217 0.428996 0.309194
v -0.870217 -0.395174 0.251535
v -0.870217 -0.395174 0.309194
v -0.870217 0.428996 0.251535
v -0.870217 -0.395174 0.309194
v -0.869681 -0.403345 0.251535
v -0.869681 -0.403345 0.309194
v -0.870217 -0.395174 0.251535
v -0.868084 -0.411378 0.251535
v -0.868084 -0.411378 0.309194
v -0.865451 -0.419133 0.251535
v -0.865451 -0.419133 0.309194
v -0.861829 -0.426478 0.251535
v -0.861829 -0.426478 0.309194
v -0.857279 -0.433287 0.251535
v -0.857279 -0.433287 0.309194
v -0.851879 -0.439444 0.251535
v -0.851879 -0.439444 0.309194
v -0.845722 -0.444844 0.309194
v -0.845722 -0.444844 0.251535
v -0.838913 -0.449394 0.309194
v -0.838913 -0.449394 0.251535
v -0.831568 -0.453016 0.309194
v -0.831568 -0.453016 0.251535
v -0.823813 -0.455648 0.309194
v -0.823813 -0.455648 0.251535
v -0.815781 -0.457246 0.309194
v -0.815781 -0.457246 0.251535
v -0.807609 -0.457782 0.309194
v -0.807609 -0.457782 0.251535
vn 1 0 0
vn 0.9978589230889555 -0.06540313151333016 0
vn 0.9914448610250887 -0.1305261948688555 0
vn 0.9914448610250887 0.1305261948688555 0
vn 0.9978589230889555 0.06540313151333016 0
vn 0.9659258358036645 -0.25881900959356163 0
vn 0.9659258358036645 0.25881900959356163 0
vn 0.9238795391929066 -0.38268341623423263 0
vn 0.9238795391929066 0.38268341623423263 0
vn 0.866025402838329 -0.5000000016387101 0
vn 0.866025402838329 0.5000000016387101 0
vn 0.7933533393698233 -0.608761430209528 0
vn 0.7933533393698233 0.608761430209528 0
vn 0.7071067811865476 -0.7071067811865476 0
vn 0.7071067811865476 0.7071067811865476 0
vn 0.608761430209528 -0.7933533393698233 0
vn 0.608761430209528 0.7933533393698233 0
vn 0.5000000016387101 -0.866025402838329 0
vn 0.5000000016387101 0.866025402838329 0
vn 0.38268341623423263 -0.9238795391929066 0
vn 0.38268341623423263 0.9238795391929066 0
vn 0.25881900959356163 -0.9659258358036645 0
vn 0.25881900959356163 0.9659258358036645 0
vn 0.1305261948688555 -0.9914448610250887 0
vn 0.1305261948688555 0.9914448610250887 0
vn 0.06540313151333016 -0.9978589230889555 0
vn 0.06540313151333016 0.9978589230889555 0
vn 0 1 0
vn -0.1305261948688555 0.9914448610250887 0
vn -0.06540313151333016 0.9978589230889555 0
vn -0.25881900959356163 0.9659258358036645 0
vn -0.38268341623423263 0.9238795391929066 0
vn -0.5000000016387101 0.866025402838329 0
vn -0.608761430209528 0.7933533393698233 0
vn -0.7071067811865476 0.7071067811865476 0
vn -0.7933533393698233 0.608761430209528 0
vn -0.866025402838329 0.5000000016387101 0
vn -0.9238795391929066 0.38268341623423263 0
vn -0.9659258358036645 0.25881900959356163 0
vn -0.9914448610250887 0.1305261948688555 0
vn -0.9978589230889555 0.06540313151333016 0
vn -1 0 0
vn -0.9978589230889555 -0.06540313151333016 0
vn -0.9914448610250887 -0.1305261948688555 0
vn -0.9659258358036645 -0.25881900959356163 0
vn -0.9238795391929066 -0.38268341623423263 0
vn -0.866025402838329 -0.5000000016387101 0
vn -0.7933533393698233 -0.608761430209528 0
vn -0.7071067811865476 -0.7071067811865476 0
vn -0.608761430209528 -0.7933533393698233 0
vn -0.5000000016387101 -0.866025402838329 0
vn -0.38268341623423263 -0.9238795391929066 0
vn -0.25881900959356163 -0.9659258358036645 0
vn -0.1305261948688555 -0.9914448610250887 0
vn -0.06540313151333016 -0.9978589230889555 0
usemtl material_0_0
f 1//1 2//1 3//1
f 2//1 1//1 4//1
f 5//2 6//3 7//3
f 6//3 5//2 8//2
f 9//4 10//5 11//5
f 10//5 9//4 12//4
f 7//3 13//6 14//6
f 13//6 7//3 6//3
f 15//7 12//4 9//4
f 12//4 15//7 16//7
f 14//6 17//8 18//8
f 17//8 14//6 13//6
f 19//9 16//7 15//7
f 16//7 19//9 20//9
f 18//8 21//10 22//10
f 21//10 18//8 17//8
f 23//11 20//9 19//9
f 20//9 23//11 24//11
f 22//10 25//12 26//12
f 25//12 22//10 21//10
f 27//13 24//11 23//11
f 24//11 27//13 28//13
f 26//12 29//14 30//14
f 29//14 26//12 25//12
f 31//15 28//13 27//13
f 28//13 31//15 32//15
f 29//14 33//16 30//14
f 33//16 29//14 34//16
f 35//17 31//15 36//17
f 31//15 35//17 32//15
f 34//16 37//18 33//16
f 37//18 34//16 38//18
f 39//19 36//17 40//19
f 36//17 39//19 35//17
f 38//18 41//20 37//18
f 41//20 38//18 42//20
f 43//21 40//19 44//21
f 40//19 43//21 39//19
f 42//20 45//22 41//20
f 45//22 42//20 46//22
f 47//23 44//21 48//23
f 44//21 47//23 43//21
f 46//22 49//24 45//22
f 49//24 46//22 50//24
f 51//25 48//23 52//25
f 48//23 51//25 47//23
f 50//24 53//26 49//24
f 53//26 50//24 54//26
f 55//27 52//25 56//27
f 52//25 55//27 51//25
f 57//28 58//28 59//28
f 58//28 57//28 60//28
f 61//29 62//30 63//29
f 62//30 61//29 64//30
f 65//31 63//29 66//31
f 63//29 65//31 61//29
f 67//32 66//31 68//32
f 66//31 67//32 65//31
f 69//33 68//32 70//33
f 68//32 69//33 67//32
f 71//34 70//33 72//34
f 70//33 71//34 69//33
f 73//35 72//34 74//35
f 72//34 73//35 71//34
f 73//35 75//36 76//36
f 75//36 73//35 74//35
f 76//36 77//37 78//37
f 77//37 76//36 75//36
f 78//37 79//38 80//38
f 79//38 78//37 77//37
f 80//38 81//39 82//39
f 81//39 80//38 79//38
f 82//39 83//40 84//40
f 83//40 82//39 81//39
f 84//40 85//41 86//41
f 85//41 84//40 83//40
f 87//42 88//42 89//42
f 88//42 87//42 90//42
f 91//43 92//44 93//44
f 92//44 91//43 94//43
f 93//44 95//45 96//45
f 95//45 93//44 92//44
f 96//45 97//46 98//46
f 97//46 96//45 95//45
f 98//46 99//47 100//47
f 99//47 98//46 97//46
f 100//47 101//48 102//48
f 101//48 100//47 99//47
f 102//48 103//49 104//49
f 103//49 102//48 101//48
f 105//50 103//49 106//50
f 103//49 105//50 104//49
f 107//51 106//50 108//51
f 106//50 107//51 105//50
f 109//52 108//51 110//52
f 108//51 109//52 107//51
f 111//53 110//52 112//53
f 110//52 111//53 109//52
f 113//54 112//53 114//54
f 112//53 113//54 111//53
f 115//55 114//54 116//55
f 114//54 115//55 113//54
