# SSTK version 0.8.0
# 15
mtllib original-15.mtl
o #ID308
v -0.604215 0.233177 0.289974
v -0.596729 0.214556 0.309194
v -0.596729 0.214556 0.289974
v -0.604215 0.233177 0.309194
v -0.584679 0.198507 0.309194
v -0.584679 0.198507 0.289974
v -0.604215 0.233177 0.289974
v -0.603798 0.272971 0.289974
v -0.606626 0.253102 0.289974
v -0.596729 0.214556 0.289974
v -0.595924 0.291432 0.289974
v -0.584679 0.198507 0.289974
v -0.587410 0.252296 0.289974
v -0.585445 0.237373 0.289974
v -0.579685 0.223466 0.289974
v -0.568886 0.186123 0.289974
v -0.570522 0.211525 0.289974
v -0.558580 0.202361 0.289974
v -0.550425 0.178248 0.289974
v -0.544674 0.196601 0.289974
v -0.530556 0.175421 0.289974
v -0.529750 0.194636 0.289974
v -0.510631 0.177832 0.289974
v -0.514827 0.196601 0.289974
v -0.500920 0.202361 0.289974
v -0.492010 0.185317 0.289974
v -0.488979 0.211525 0.289974
v -0.475960 0.197368 0.289974
v -0.479815 0.223466 0.289974
v -0.474055 0.237373 0.289974
v -0.463577 0.213161 0.289974
v -0.472090 0.252296 0.289974
v -0.583540 0.307225 0.289974
v -0.585445 0.267220 0.289974
v -0.579685 0.281127 0.289974
v -0.567491 0.319275 0.289974
v -0.570522 0.293068 0.289974
v -0.558580 0.302231 0.289974
v -0.548869 0.326761 0.289974
v -0.544674 0.307992 0.289974
v -0.528945 0.329172 0.289974
v -0.529750 0.309956 0.289974
v -0.514827 0.307992 0.289974
v -0.509076 0.326344 0.289974
v -0.500920 0.302231 0.289974
v -0.490615 0.318470 0.289974
v -0.488979 0.293068 0.289974
v -0.474821 0.306086 0.289974
v -0.479815 0.281127 0.289974
v -0.474055 0.267220 0.289974
v -0.462771 0.290037 0.289974
v -0.455703 0.231621 0.289974
v -0.455286 0.271416 0.289974
v -0.452875 0.251491 0.289974
v -0.606626 0.253102 0.289974
v -0.606626 0.253102 0.309194
v -0.568886 0.186123 0.289974
v -0.568886 0.186123 0.309194
v -0.509076 0.326344 0.309194
v -0.528945 0.329172 0.289974
v -0.509076 0.326344 0.289974
v -0.528945 0.329172 0.309194
v -0.548869 0.326761 0.289974
v -0.548869 0.326761 0.309194
v -0.567491 0.319275 0.289974
v -0.567491 0.319275 0.309194
v -0.583540 0.307225 0.289974
v -0.583540 0.307225 0.309194
v -0.595924 0.291432 0.309194
v -0.595924 0.291432 0.289974
v -0.603798 0.272971 0.309194
v -0.603798 0.272971 0.289974
v -0.550425 0.178248 0.289974
v -0.550425 0.178248 0.309194
v -0.530556 0.175421 0.289974
v -0.530556 0.175421 0.309194
v -0.510631 0.177832 0.289974
v -0.510631 0.177832 0.309194
v -0.492010 0.185317 0.289974
v -0.492010 0.185317 0.309194
v -0.475960 0.197368 0.289974
v -0.475960 0.197368 0.309194
v -0.463577 0.213161 0.309194
v -0.463577 0.213161 0.289974
v -0.455703 0.231621 0.309194
v -0.455703 0.231621 0.289974
v -0.452875 0.251491 0.309194
v -0.452875 0.251491 0.289974
v -0.455286 0.271416 0.309194
v -0.455286 0.271416 0.289974
v -0.462771 0.290037 0.309194
v -0.462771 0.290037 0.289974
v -0.474821 0.306086 0.309194
v -0.474821 0.306086 0.289974
v -0.490615 0.318470 0.289974
v -0.490615 0.318470 0.309194
vn 0.9685840048063269 0.24868660123403763 0
vn 0.8712154813207527 0.49090078947486876 0
vn 0.7144750355044767 0.6996609347683183 0
vn 0 0 1
vn 0.9999451340026171 -0.01047516035620241 0
vn 0.5090443093138363 0.8607403157487161 0
vn -0.2689230873524803 -0.9631616547022676 0
vn -0.01047516035620241 -0.9999451340026171 0
vn 0.24868660123403763 -0.9685840048063269 0
vn 0.49090078947486876 -0.8712154813207527 0
vn 0.6996609347683183 -0.7144750355044767 0
vn 0.8607403157487161 -0.5090443093138363 0
vn 0.9631616547022676 -0.2689230873524803 0
vn 0.2689230873524803 0.9631616547022676 0
vn 0.01047516035620241 0.9999451340026171 0
vn -0.24868660123403763 0.9685840048063269 0
vn -0.49090078947486876 0.8712154813207527 0
vn -0.6996609347683183 0.7144750355044767 0
vn -0.8607403157487161 0.5090443093138363 0
vn -0.9631616547022676 0.2689230873524803 0
vn -0.9999451340026171 0.01047516035620241 0
vn -0.9685840048063269 -0.24868660123403763 0
vn -0.8712154813207527 -0.49090078947486876 0
vn -0.7144750355044767 -0.6996609347683183 0
vn -0.5090443093138363 -0.8607403157487161 0
usemtl material_0_0
f 1//1 2//2 3//2
f 2//2 1//1 4//1
f 3//2 5//3 6//3
f 5//3 3//2 2//2
f 7//4 8//4 9//4
f 8//4 7//4 10//4
f 8//4 10//4 11//4
f 11//4 10//4 12//4
f 11//4 12//4 13//4
f 13//4 12//4 14//4
f 14//4 12//4 15//4
f 15//4 12//4 16//4
f 15//4 16//4 17//4
f 17//4 16//4 18//4
f 18//4 16//4 19//4
f 18//4 19//4 20//4
f 20//4 19//4 21//4
f 20//4 21//4 22//4
f 22//4 21//4 23//4
f 22//4 23//4 24//4
f 24//4 23//4 25//4
f 25//4 23//4 26//4
f 25//4 26//4 27//4
f 27//4 26//4 28//4
f 27//4 28//4 29//4
f 29//4 28//4 30//4
f 30//4 28//4 31//4
f 30//4 31//4 32//4
f 13//4 33//4 11//4
f 33//4 13//4 34//4
f 33//4 34//4 35//4
f 33//4 35//4 36//4
f 36//4 35//4 37//4
f 36//4 37//4 38//4
f 36//4 38//4 39//4
f 39//4 38//4 40//4
f 39//4 40//4 41//4
f 41//4 40//4 42//4
f 41//4 42//4 43//4
f 41//4 43//4 44//4
f 44//4 43//4 45//4
f 44//4 45//4 46//4
f 46//4 45//4 47//4
f 46//4 47//4 48//4
f 48//4 47//4 49//4
f 48//4 49//4 50//4
f 48//4 50//4 51//4
f 51//4 50//4 32//4
f 51//4 32//4 31//4
f 51//4 31//4 52//4
f 51//4 52//4 53//4
f 53//4 52//4 54//4
f 55//5 4//1 1//1
f 4//1 55//5 56//5
f 5//3 57//6 6//3
f 57//6 5//3 58//6
f 59//7 60//8 61//7
f 60//8 59//7 62//8
f 62//8 63//9 60//8
f 63//9 62//8 64//9
f 64//9 65//10 63//9
f 65//10 64//9 66//10
f 66//10 67//11 65//10
f 67//11 66//10 68//11
f 67//11 69//12 70//12
f 69//12 67//11 68//11
f 70//12 71//13 72//13
f 71//13 70//12 69//12
f 72//13 56//5 55//5
f 56//5 72//13 71//13
f 58//6 73//14 57//6
f 73//14 58//6 74//14
f 74//14 75//15 73//14
f 75//15 74//14 76//15
f 76//15 77//16 75//15
f 77//16 76//15 78//16
f 78//16 79//17 77//16
f 79//17 78//16 80//17
f 80//17 81//18 79//17
f 81//18 80//17 82//18
f 83//19 81//18 82//18
f 81//18 83//19 84//19
f 85//20 84//19 83//19
f 84//19 85//20 86//20
f 87//21 86//20 85//20
f 86//20 87//21 88//21
f 89//22 88//21 87//21
f 88//21 89//22 90//22
f 91//23 90//22 89//22
f 90//22 91//23 92//23
f 93//24 92//23 91//23
f 92//23 93//24 94//24
f 93//24 95//25 94//24
f 95//25 93//24 96//25
f 96//25 61//7 95//25
f 61//7 96//25 59//7
