# SSTK version 0.8.0
# 29
mtllib original-29.mtl
o #ID402
v 0.787845 0.498636 0.251535
v -0.659195 0.287614 0.251535
v -0.800577 0.498636 0.251535
v 0.649328 0.287614 0.251535
v 0.649328 -0.246760 0.251535
v 0.772572 -0.457782 0.251535
v 0.784029 -0.457031 0.251535
v 0.795290 -0.454791 0.251535
v 0.797309 0.498016 0.251535
v 0.806162 -0.451100 0.251535
v 0.806610 0.496165 0.251535
v 0.816460 -0.446022 0.251535
v 0.815591 0.493117 0.251535
v 0.824097 0.488922 0.251535
v 0.826007 -0.439643 0.251535
v 0.831983 0.483653 0.251535
v 0.834640 -0.432072 0.251535
v 0.839113 0.477400 0.251535
v 0.842210 -0.423440 0.251535
v 0.845366 0.470269 0.251535
v 0.848589 -0.413893 0.251535
v 0.850636 0.462384 0.251535
v 0.853667 -0.403595 0.251535
v 0.854830 0.453878 0.251535
v 0.857358 -0.392722 0.251535
v 0.857879 0.444897 0.251535
v 0.859598 -0.381461 0.251535
v 0.859729 0.435595 0.251535
v 0.860349 -0.370004 0.251535
v 0.860349 0.426131 0.251535
v -0.869621 0.438086 0.251535
v -0.870217 -0.395174 0.251535
v -0.870217 0.428996 0.251535
v -0.869681 -0.403345 0.251535
v -0.868084 -0.411378 0.251535
v -0.867844 0.447020 0.251535
v -0.865451 -0.419133 0.251535
v -0.864916 0.455646 0.251535
v -0.861829 -0.426478 0.251535
v -0.860887 0.463816 0.251535
v -0.857279 -0.433287 0.251535
v -0.855826 0.471390 0.251535
v -0.851879 -0.439444 0.251535
v -0.849820 0.478239 0.251535
v -0.845722 -0.444844 0.251535
v -0.842971 0.484245 0.251535
v -0.838913 -0.449394 0.251535
v -0.835397 0.489306 0.251535
v -0.831568 -0.453016 0.251535
v -0.827227 0.493335 0.251535
v -0.823813 -0.455648 0.251535
v -0.818601 0.496263 0.251535
v -0.815781 -0.457246 0.251535
v -0.809667 0.498040 0.251535
v -0.807609 -0.457782 0.251535
v -0.659195 -0.246760 0.251535
vn 0 0 -1
usemtl material_0_0
f 1//1 2//1 3//1
f 2//1 1//1 4//1
f 4//1 1//1 5//1
f 5//1 1//1 6//1
f 6//1 1//1 7//1
f 7//1 1//1 8//1
f 8//1 1//1 9//1
f 8//1 9//1 10//1
f 10//1 9//1 11//1
f 10//1 11//1 12//1
f 12//1 11//1 13//1
f 12//1 13//1 14//1
f 12//1 14//1 15//1
f 15//1 14//1 16//1
f 15//1 16//1 17//1
f 17//1 16//1 18//1
f 17//1 18//1 19//1
f 19//1 18//1 20//1
f 19//1 20//1 21//1
f 21//1 20//1 22//1
f 21//1 22//1 23//1
f 23//1 22//1 24//1
f 23//1 24//1 25//1
f 25//1 24//1 26//1
f 25//1 26//1 27//1
f 27//1 26//1 28//1
f 27//1 28//1 29//1
f 29//1 28//1 30//1
f 31//1 32//1 33//1
f 32//1 31//1 34//1
f 34//1 31//1 35//1
f 35//1 31//1 36//1
f 35//1 36//1 37//1
f 37//1 36//1 38//1
f 37//1 38//1 39//1
f 39//1 38//1 40//1
f 39//1 40//1 41//1
f 41//1 40//1 42//1
f 41//1 42//1 43//1
f 43//1 42//1 44//1
f 43//1 44//1 45//1
f 45//1 44//1 46//1
f 45//1 46//1 47//1
f 47//1 46//1 48//1
f 47//1 48//1 49//1
f 49//1 48//1 50//1
f 49//1 50//1 51//1
f 51//1 50//1 52//1
f 51//1 52//1 53//1
f 53//1 52//1 54//1
f 53//1 54//1 55//1
f 55//1 54//1 3//1
f 55//1 3//1 56//1
f 55//1 56//1 6//1
f 56//1 3//1 2//1
f 6//1 56//1 5//1
