# SSTK version 0.8.0
# 11
mtllib original-11.mtl
o #ID284
v -0.828593 0.459429 0.309194
v -0.840535 0.450265 0.289974
v -0.828593 0.459429 0.289974
v -0.840535 0.450265 0.309194
v -0.849698 0.438324 0.309194
v -0.849698 0.438324 0.289974
v -0.814686 0.465189 0.309194
v -0.814686 0.465189 0.289974
v -0.855458 0.424417 0.309194
v -0.855458 0.424417 0.289974
v -0.799763 0.467154 0.309194
v -0.799763 0.467154 0.289974
v -0.857423 0.409494 0.309194
v -0.857423 0.409494 0.289974
v -0.784839 0.465189 0.309194
v -0.784839 0.465189 0.289974
v -0.855458 0.394571 0.309194
v -0.855458 0.394571 0.289974
v -0.770933 0.459429 0.309194
v -0.770933 0.459429 0.289974
v -0.849698 0.380664 0.309194
v -0.849698 0.380664 0.289974
v -0.758991 0.450265 0.309194
v -0.758991 0.450265 0.289974
v -0.840535 0.368722 0.309194
v -0.840535 0.368722 0.289974
v -0.749828 0.438324 0.289974
v -0.749828 0.438324 0.309194
v -0.828593 0.359559 0.289974
v -0.828593 0.359559 0.309194
v -0.744068 0.424417 0.289974
v -0.744068 0.424417 0.309194
v -0.814686 0.353799 0.289974
v -0.814686 0.353799 0.309194
v -0.743526 0.420303 0.309194
v -0.742103 0.409494 0.289974
v -0.742103 0.409494 0.309194
v -0.799763 0.351834 0.289974
v -0.799763 0.351834 0.309194
v -0.744068 0.394571 0.289974
v -0.744068 0.394571 0.309194
v -0.784839 0.353799 0.289974
v -0.784839 0.353799 0.309194
v -0.791884 0.352871 0.309194
v -0.749828 0.380664 0.289974
v -0.749828 0.380664 0.309194
v -0.770933 0.359559 0.289974
v -0.770933 0.359559 0.309194
v -0.758991 0.368722 0.289974
v -0.758991 0.368722 0.309194
vn 0.5000000016387101 -0.866025402838329 0
vn 0.7071067811865476 -0.7071067811865476 0
vn 0.866025402838329 -0.5000000016387101 0
vn 0.25881900959356163 -0.9659258358036645 0
vn 0.9659258358036645 -0.25881900959356163 0
vn 0 -1 0
vn 1 0 0
vn -0.25881900959356163 -0.9659258358036645 0
vn 0.9659258358036645 0.25881900959356163 0
vn -0.5000000016387101 -0.866025402838329 0
vn 0.866025402838329 0.5000000016387101 0
vn -0.7071067811865476 -0.7071067811865476 0
vn 0.7071067811865476 0.7071067811865476 0
vn -0.866025402838329 -0.5000000016387101 0
vn 0.5000000016387101 0.866025402838329 0
vn -0.9659258358036645 -0.25881900959356163 0
vn 0.25881900959356163 0.9659258358036645 0
vn -0.9914448610250887 -0.1305261948688555 0
vn -1 0 0
vn 0 1 0
vn -0.9659258358036645 0.25881900959356163 0
vn -0.25881900959356163 0.9659258358036645 0
vn -0.1305261948688555 0.9914448610250887 0
vn -0.866025402838329 0.5000000016387101 0
vn -0.5000000016387101 0.866025402838329 0
vn -0.7071067811865476 0.7071067811865476 0
usemtl material_0_0
f 1//1 2//2 3//1
f 2//2 1//1 4//2
f 2//2 5//3 6//3
f 5//3 2//2 4//2
f 7//4 3//1 8//4
f 3//1 7//4 1//1
f 6//3 9//5 10//5
f 9//5 6//3 5//3
f 11//6 8//4 12//6
f 8//4 11//6 7//4
f 10//5 13//7 14//7
f 13//7 10//5 9//5
f 15//8 12//6 16//8
f 12//6 15//8 11//6
f 14//7 17//9 18//9
f 17//9 14//7 13//7
f 19//10 16//8 20//10
f 16//8 19//10 15//8
f 18//9 21//11 22//11
f 21//11 18//9 17//9
f 23//12 20//10 24//12
f 20//10 23//12 19//10
f 22//11 25//13 26//13
f 25//13 22//11 21//11
f 23//12 27//14 28//14
f 27//14 23//12 24//12
f 25//13 29//15 26//13
f 29//15 25//13 30//15
f 28//14 31//16 32//16
f 31//16 28//14 27//14
f 30//15 33//17 29//15
f 33//17 30//15 34//17
f 35//18 36//19 37//19
f 36//19 35//18 31//16
f 31//16 35//18 32//16
f 34//17 38//20 33//17
f 38//20 34//17 39//20
f 37//19 40//21 41//21
f 40//21 37//19 36//19
f 39//20 42//22 38//20
f 42//22 39//20 43//22
f 43//22 39//20 44//23
f 41//21 45//24 46//24
f 45//24 41//21 40//21
f 43//22 47//25 42//22
f 47//25 43//22 48//25
f 46//24 49//26 50//26
f 49//26 46//24 45//24
f 48//25 49//26 47//25
f 49//26 48//25 50//26
