# SSTK version 0.8.0
# 31
mtllib original-31.mtl
o #ID414
v 0.315674 -0.058726 0.328414
v 0.302733 0.047188 0.328414
v 0.292921 -0.019720 0.328414
v 0.307834 0.008442 0.328414
v 0.322789 -0.027664 0.328414
v 0.347746 -0.090514 0.328414
v 0.346580 -0.058668 0.328414
v 0.377585 -0.082459 0.328414
v 0.386953 -0.112918 0.328414
v 0.413690 -0.097415 0.328414
v 0.430623 -0.124411 0.328414
v 0.452437 -0.102516 0.328414
v 0.475780 -0.124209 0.328414
v 0.491183 -0.097415 0.328414
v 0.519345 -0.112328 0.328414
v 0.527289 -0.082459 0.328414
v 0.558351 -0.089575 0.328414
v 0.558293 -0.058668 0.328414
v 0.582084 -0.027664 0.328414
v 0.590139 -0.057502 0.328414
v 0.597039 0.008442 0.328414
v 0.612543 -0.018295 0.328414
v 0.602141 0.047188 0.328414
v 0.611953 0.114097 0.328414
v 0.623834 0.070531 0.328414
v 0.624036 0.025375 0.328414
v 0.281039 0.023845 0.328414
v 0.292330 0.112671 0.328414
v 0.280838 0.069001 0.328414
v 0.314734 0.151878 0.328414
v 0.307834 0.085934 0.328414
v 0.322789 0.122040 0.328414
v 0.346523 0.183951 0.328414
v 0.346580 0.153045 0.328414
v 0.385528 0.206704 0.328414
v 0.377585 0.176835 0.328414
v 0.413690 0.191791 0.328414
v 0.429094 0.218585 0.328414
v 0.452437 0.196892 0.328414
v 0.474250 0.218787 0.328414
v 0.491183 0.191791 0.328414
v 0.517920 0.207294 0.328414
v 0.527289 0.176835 0.328414
v 0.557127 0.184890 0.328414
v 0.558293 0.153045 0.328414
v 0.589200 0.153102 0.328414
v 0.582084 0.122040 0.328414
v 0.597039 0.085934 0.328414
vn 0 0 1
usemtl material_0_0
f 1//1 2//1 3//1
f 2//1 1//1 4//1
f 4//1 1//1 5//1
f 5//1 1//1 6//1
f 5//1 6//1 7//1
f 7//1 6//1 8//1
f 8//1 6//1 9//1
f 8//1 9//1 10//1
f 10//1 9//1 11//1
f 10//1 11//1 12//1
f 12//1 11//1 13//1
f 12//1 13//1 14//1
f 14//1 13//1 15//1
f 14//1 15//1 16//1
f 16//1 15//1 17//1
f 16//1 17//1 18//1
f 18//1 17//1 19//1
f 19//1 17//1 20//1
f 19//1 20//1 21//1
f 21//1 20//1 22//1
f 21//1 22//1 23//1
f 23//1 22//1 24//1
f 24//1 22//1 25//1
f 25//1 22//1 26//1
f 27//1 28//1 29//1
f 28//1 27//1 3//1
f 28//1 3//1 30//1
f 30//1 3//1 2//1
f 30//1 2//1 31//1
f 30//1 31//1 32//1
f 30//1 32//1 33//1
f 33//1 32//1 34//1
f 33//1 34//1 35//1
f 35//1 34//1 36//1
f 35//1 36//1 37//1
f 35//1 37//1 38//1
f 38//1 37//1 39//1
f 38//1 39//1 40//1
f 40//1 39//1 41//1
f 40//1 41//1 42//1
f 42//1 41//1 43//1
f 42//1 43//1 44//1
f 44//1 43//1 45//1
f 44//1 45//1 46//1
f 46//1 45//1 47//1
f 46//1 47//1 48//1
f 46//1 48//1 24//1
f 24//1 48//1 23//1
