# SSTK version 0.8.0
# 45
mtllib original-45.mtl
o #ID61
v -0.077552 -0.190479 0.309579
v -0.088696 -0.243046 0.309579
v -0.088696 -0.190479 0.309579
v -0.085544 -0.268316 0.309579
v -0.081766 -0.263504 0.309579
v -0.079325 -0.257735 0.309579
v -0.077995 -0.250869 0.309579
v -0.077552 -0.242765 0.309579
v -0.127023 -0.190479 0.309579
v -0.138167 -0.242765 0.309579
v -0.138167 -0.190479 0.309579
v -0.137717 -0.251003 0.309579
v -0.136366 -0.257820 0.309579
v -0.133918 -0.263497 0.309579
v -0.130175 -0.268316 0.309579
v -0.127023 -0.242765 0.309579
v -0.125884 -0.271672 0.309579
v -0.126292 -0.252529 0.309579
v -0.123421 -0.259649 0.309579
v -0.120776 -0.274085 0.309579
v -0.120769 -0.262618 0.309579
v -0.114796 -0.275541 0.309579
v -0.117315 -0.264770 0.309579
v -0.113030 -0.266079 0.309579
v -0.107888 -0.276027 0.309579
v -0.107888 -0.266515 0.309579
v -0.102949 -0.266079 0.309579
v -0.100775 -0.275548 0.309579
v -0.098601 -0.264770 0.309579
v -0.094859 -0.274113 0.309579
v -0.094999 -0.262618 0.309579
v -0.092298 -0.259649 0.309579
v -0.089871 -0.271707 0.309579
v -0.089456 -0.252557 0.309579
vn 0 0 -1
usemtl material_0_0
f 1//1 2//1 3//1
f 2//1 1//1 4//1
f 4//1 1//1 5//1
f 5//1 1//1 6//1
f 6//1 1//1 7//1
f 7//1 1//1 8//1
f 9//1 10//1 11//1
f 10//1 9//1 12//1
f 12//1 9//1 13//1
f 13//1 9//1 14//1
f 14//1 9//1 15//1
f 15//1 9//1 16//1
f 15//1 16//1 17//1
f 17//1 16//1 18//1
f 17//1 18//1 19//1
f 17//1 19//1 20//1
f 20//1 19//1 21//1
f 20//1 21//1 22//1
f 22//1 21//1 23//1
f 22//1 23//1 24//1
f 22//1 24//1 25//1
f 25//1 24//1 26//1
f 25//1 26//1 27//1
f 25//1 27//1 28//1
f 28//1 27//1 29//1
f 28//1 29//1 30//1
f 30//1 29//1 31//1
f 30//1 31//1 32//1
f 30//1 32//1 33//1
f 33//1 32//1 34//1
f 33//1 34//1 4//1
f 4//1 34//1 2//1
