# SSTK version 0.8.0
# 22
mtllib original-22.mtl
o #ID356
v -0.759389 -0.236288 0.309194
v -0.749535 0.262201 0.309194
v -0.759389 0.260247 0.309194
v -0.754188 -0.236527 0.309194
v -0.733165 -0.240302 0.309194
v -0.729253 0.269075 0.309194
v -0.712821 -0.246804 0.309194
v -0.710043 0.278540 0.309194
v -0.693506 -0.255922 0.309194
v -0.692235 0.290433 0.309194
v -0.675557 -0.267497 0.309194
v -0.676133 0.304552 0.309194
v -0.662014 0.320654 0.309194
v -0.659283 -0.281330 0.309194
v -0.650120 0.338462 0.309194
v -0.644966 -0.297180 0.309194
v -0.640656 0.357672 0.309194
v -0.632856 -0.314773 0.309194
v -0.633782 0.377954 0.309194
v -0.631828 0.387808 0.309194
v -0.623160 -0.333805 0.309194
v 0.615344 0.387808 0.309194
v -0.618517 -0.346953 0.309194
v 0.640238 -0.346953 0.309194
v 0.618090 0.375768 0.309194
v 0.625609 0.355100 0.309194
v 0.635640 0.335529 0.309194
v 0.648028 0.317357 0.309194
v 0.640449 -0.343357 0.309194
v 0.644551 -0.323169 0.309194
v 0.651466 -0.303764 0.309194
v 0.662580 0.300867 0.309194
v 0.661056 -0.285532 0.309194
v 0.673127 -0.268838 0.309194
v 0.679070 0.286315 0.309194
v 0.687437 -0.254019 0.309194
v 0.697242 0.273927 0.309194
v 0.703698 -0.241372 0.309194
v 0.716813 0.263896 0.309194
v 0.721585 -0.231151 0.309194
v 0.737481 0.256377 0.309194
v 0.740736 -0.223561 0.309194
v 0.749521 0.253631 0.309194
v 0.749521 -0.221454 0.309194
vn 0 0 1
usemtl material_0_0
f 1//1 2//1 3//1
f 2//1 1//1 4//1
f 2//1 4//1 5//1
f 2//1 5//1 6//1
f 6//1 5//1 7//1
f 6//1 7//1 8//1
f 8//1 7//1 9//1
f 8//1 9//1 10//1
f 10//1 9//1 11//1
f 10//1 11//1 12//1
f 12//1 11//1 13//1
f 13//1 11//1 14//1
f 13//1 14//1 15//1
f 15//1 14//1 16//1
f 15//1 16//1 17//1
f 17//1 16//1 18//1
f 17//1 18//1 19//1
f 19//1 18//1 20//1
f 20//1 18//1 21//1
f 20//1 21//1 22//1
f 22//1 21//1 23//1
f 22//1 23//1 24//1
f 22//1 24//1 25//1
f 25//1 24//1 26//1
f 26//1 24//1 27//1
f 27//1 24//1 28//1
f 28//1 24//1 29//1
f 28//1 29//1 30//1
f 28//1 30//1 31//1
f 28//1 31//1 32//1
f 32//1 31//1 33//1
f 32//1 33//1 34//1
f 32//1 34//1 35//1
f 35//1 34//1 36//1
f 35//1 36//1 37//1
f 37//1 36//1 38//1
f 37//1 38//1 39//1
f 39//1 38//1 40//1
f 39//1 40//1 41//1
f 41//1 40//1 42//1
f 41//1 42//1 43//1
f 43//1 42//1 44//1
