# SSTK version 0.8.0
# 47
mtllib original-47.mtl
o #ID73
v 0.027243 -0.190479 0.309579
v 0.038387 -0.200047 0.309579
v 0.027243 -0.274282 0.309579
v 0.048292 -0.190479 0.309579
v 0.047617 -0.200047 0.309579
v 0.056368 -0.200779 0.309579
v 0.060955 -0.191718 0.309579
v 0.062531 -0.203255 0.309579
v 0.065880 -0.193336 0.309579
v 0.065184 -0.205577 0.309579
v 0.067062 -0.208489 0.309579
v 0.070186 -0.195714 0.309579
v 0.068553 -0.216031 0.309579
v 0.045985 -0.233534 0.309579
v 0.038387 -0.243046 0.309579
v 0.038387 -0.233534 0.309579
v 0.047842 -0.243046 0.309579
v 0.056903 -0.232437 0.309579
v 0.056017 -0.242497 0.309579
v 0.062644 -0.240851 0.309579
v 0.060716 -0.230910 0.309579
v 0.063826 -0.228525 0.309579
v 0.068117 -0.238135 0.309579
v 0.067428 -0.223010 0.309579
v 0.072831 -0.234379 0.309579
v 0.074350 -0.199351 0.309579
v 0.075891 -0.230587 0.309579
v 0.077502 -0.203846 0.309579
v 0.078206 -0.226077 0.309579
v 0.079486 -0.209284 0.309579
v 0.079662 -0.221061 0.309579
v 0.080147 -0.215750 0.309579
v 0.038387 -0.274282 0.309579
vn 0 0 -1
usemtl material_0_0
f 1//1 2//1 3//1
f 2//1 1//1 4//1
f 2//1 4//1 5//1
f 5//1 4//1 6//1
f 6//1 4//1 7//1
f 6//1 7//1 8//1
f 8//1 7//1 9//1
f 8//1 9//1 10//1
f 10//1 9//1 11//1
f 11//1 9//1 12//1
f 11//1 12//1 13//1
f 14//1 15//1 16//1
f 15//1 14//1 17//1
f 17//1 14//1 18//1
f 17//1 18//1 19//1
f 19//1 18//1 20//1
f 20//1 18//1 21//1
f 20//1 21//1 22//1
f 20//1 22//1 23//1
f 23//1 22//1 24//1
f 23//1 24//1 13//1
f 23//1 13//1 25//1
f 25//1 13//1 12//1
f 25//1 12//1 26//1
f 25//1 26//1 27//1
f 27//1 26//1 28//1
f 27//1 28//1 29//1
f 29//1 28//1 30//1
f 29//1 30//1 31//1
f 31//1 30//1 32//1
f 2//1 33//1 3//1
f 33//1 2//1 16//1
f 33//1 16//1 15//1
