# SSTK version 0.8.0
# 7
mtllib original-7.mtl
o #ID54
v 0.071519 0.339579 0.076858
v 0.095208 0.352702 0.080221
v 0.094074 0.353834 0.076858
v 0.075124 0.337816 0.084209
v 0.118449 0.362397 0.076858
v 0.118595 0.362059 0.077713
v 0.051885 0.319734 0.076858
v 0.059714 0.318417 0.089407
v 0.050026 0.247341 0.108452
v 0.050026 0.295827 0.095460
v 0.046722 0.271584 0.101956
v 0.059714 0.318417 0.089407
v 0.059714 0.224750 0.114505
v 0.075124 0.337816 0.084209
v 0.075124 0.205351 0.119703
v 0.095208 0.352702 0.080221
v 0.095208 0.190466 0.123692
v 0.118595 0.362059 0.077713
v 0.118595 0.181109 0.126199
v 0.143693 0.365251 0.076858
v 0.143693 0.177917 0.127054
v 0.168791 0.362059 0.077713
v 0.168791 0.181109 0.126199
v 0.192179 0.352702 0.080221
v 0.192179 0.190466 0.123692
v 0.212262 0.337816 0.084209
v 0.212262 0.205351 0.119703
v 0.227673 0.318417 0.089407
v 0.227673 0.224750 0.114505
v 0.237360 0.295827 0.095460
v 0.237360 0.247341 0.108452
v 0.240664 0.271584 0.101956
v 0.143693 0.365251 0.076858
v 0.050026 0.295827 0.095460
v 0.036474 0.294602 0.076858
v 0.260602 0.264859 0.076858
v 0.237360 0.247341 0.108452
v 0.258411 0.234542 0.082477
v 0.240664 0.271584 0.101956
v 0.250913 0.294602 0.076858
v 0.237360 0.295827 0.095460
v 0.235501 0.319734 0.076858
v 0.227673 0.318417 0.089407
v 0.212262 0.337816 0.084209
v 0.215867 0.339579 0.076858
v 0.192179 0.352702 0.080221
v 0.193313 0.353834 0.076858
v 0.168791 0.362059 0.077713
v 0.168938 0.362397 0.076858
v 0.143693 0.365251 0.076858
v 0.046722 0.271584 0.101956
v 0.026785 0.264859 0.076858
v 0.050026 0.247341 0.108452
v 0.028975 0.234542 0.082477
v 0.059714 0.224750 0.114505
v 0.040840 0.206874 0.089891
v 0.059714 0.183115 0.096257
v 0.075124 0.205351 0.119703
v 0.084311 0.164884 0.101142
v 0.095208 0.190466 0.123692
v 0.112955 0.153424 0.104213
v 0.118595 0.181109 0.126199
v 0.143693 0.149515 0.105260
v 0.143693 0.177917 0.127054
v 0.168791 0.181109 0.126199
v 0.174432 0.153424 0.104213
v 0.192179 0.190466 0.123692
v 0.203076 0.164884 0.101142
v 0.212262 0.205351 0.119703
v 0.227673 0.183115 0.096257
v 0.227673 0.224750 0.114505
v 0.246547 0.206874 0.089891
v 0.260808 0.232371 0.076858
v 0.026579 0.232371 0.076858
v 0.035716 0.200319 0.076858
v 0.053331 0.171309 0.076858
v 0.078550 0.148048 0.076858
v 0.109554 0.132955 0.076858
v 0.143693 0.127721 0.076858
v 0.177833 0.132955 0.076858
v 0.208836 0.148048 0.076858
v 0.234056 0.171309 0.076858
v 0.251671 0.200319 0.076858
vt 0.5582562 0.9046809
vt 0.5757979 0.9199901
vt 0.5749583 0.9213106
vt 0.5609258 0.9026247
vt 0.5930081 0.9313003
vt 0.5931167 0.9309064
vt 0.543717 0.8815298
vt 0.5495141 0.8799937
vt 0.5423404 0.7970759
vt 0.5423404 0.8536393
vt 0.5398936 0.8253576
vt 0.5495141 0.7707215
vt 0.5609258 0.7480905
vt 0.5757979 0.7307251
vt 0.5931167 0.7198088
vt 0.6117021 0.9346298
vt 0.6117021 0.7160854
vt 0.6302875 0.9309064
vt 0.6302875 0.7198088
vt 0.6476064 0.9199901
vt 0.6476064 0.7307251
vt 0.6624784 0.9026247
vt 0.6624784 0.7480905
vt 0.6738901 0.8799937
vt 0.6738901 0.7707215
vt 0.6810638 0.8536393
vt 0.6810638 0.7970759
vt 0.6835106 0.8253576
vt 0.5323044 0.8522104
vt 0.6982748 0.8175122
vt 0.6966525 0.782144
vt 0.6910998 0.8522104
vt 0.6796872 0.8815298
vt 0.665148 0.9046809
vt 0.6484459 0.9213106
vt 0.6303962 0.9313003
vt 0.5251295 0.8175122
vt 0.5267517 0.782144
vt 0.5355377 0.7498666
vt 0.5495141 0.7221494
vt 0.5677286 0.7008812
vt 0.5889397 0.6875115
vt 0.6117021 0.6829513
vt 0.6344645 0.6875115
vt 0.6556757 0.7008812
vt 0.6738901 0.7221494
vt 0.6878666 0.7498666
vt 0.6984271 0.7796119
vt 0.5249772 0.7796119
vt 0.531743 0.7422193
vt 0.5447872 0.708376
vt 0.5634629 0.6812399
vt 0.5864215 0.6636326
vt 0.6117021 0.6575266
vt 0.6369827 0.6636326
vt 0.6599414 0.6812399
vt 0.678617 0.708376
vt 0.6916613 0.7422193
vn -0.5708357682257807 0.6897930616043051 0.44534487521093363
vn -0.39667668080146196 0.8212120602546059 0.4101930801472891
vn -0.4050418964493805 0.8164980928425328 0.41142669639341095
vn -0.5609855047555695 0.6994295059291828 0.4428246037538995
vn -0.2101073028369476 0.896521012105163 0.3900064052660127
vn -0.20533499329808666 0.8977677706978257 0.3896800872812611
vn -0.6958169152871361 0.5258102115520794 0.48924681074877946
vn -0.6870641223185535 0.5407193175646969 0.4853509157661127
vn 0 0.25881900959356163 0.9659258358036645
vn -0.10388190015179173 0.9188810013426644 0.3806130005561498
vn -0.7663204808521611 0.35589739110728985 0.534873786635256
vn -0.7714921263103931 0.33659181147887657 0.5399128184127847
vn 0.8037470258180066 0.13359920429148106 0.5797775186236456
vn 0.7663204804716376 -0.04077927896081006 0.6411629836610617
vn 0.8428612803696436 -0.083521828054765 0.5316097876187341
vn 0.7933533129505964 0.1575591025719743 0.5880184095987361
vn 0.7714921263103931 0.33659181147887657 0.5399128184127847
vn 0.7663204808521611 0.35589739110728985 0.534873786635256
vn 0.6958169152871361 0.5258102115520794 0.48924681074877946
vn 0.6870641223185535 0.5407193175646969 0.4853509157661127
vn 0.5609855047555695 0.6994295059291828 0.4428246037538995
vn 0.5708357682257807 0.6897930616043051 0.44534487521093363
vn 0.39667668080146196 0.8212120602546059 0.4101930801472891
vn 0.4050418964493805 0.8164980928425328 0.41142669639341095
vn 0.20533499329808666 0.8977677706978257 0.3896800872812611
vn 0.2101073028369476 0.896521012105163 0.3900064052660127
vn 0.10388190015179173 0.9188810013426644 0.3806130005561498
vn -0.7933533129505964 0.1575591025719743 0.5880184095987361
vn -0.8037470258180066 0.13359920429148106 0.5797775186236456
vn -0.7663204804716376 -0.04077927896081006 0.6411629836610617
vn -0.8428612803696436 -0.083521828054765 0.5316097876187341
vn -0.6870641029512633 -0.22560120096906322 0.6906859029668206
vn -0.7523071207418485 -0.2913369080324456 0.590894916291555
vn -0.614256196058192 -0.46511809701524176 0.6374593959092923
vn -0.5609855092656238 -0.38431140634755245 0.7332121121102373
vn -0.43434469307562046 -0.5984650904591918 0.6731895892679242
vn -0.39667667739169504 -0.5060939711555342 0.7658436563512858
vn -0.22483339974188452 -0.6822904992167101 0.6956504992013723
vn -0.20533500053695306 -0.5826497015236348 0.7863567020563307
vn 0 -0.7108817006790874 0.703311600671856
vn 0 -0.608761430209528 0.7933533393698233
vn 0.20533500053695306 -0.5826497015236348 0.7863567020563307
vn 0.22483339974188452 -0.6822904992167101 0.6956504992013723
vn 0.39667667739169504 -0.5060939711555342 0.7658436563512858
vn 0.43434469307562046 -0.5984650904591918 0.6731895892679242
vn 0.5609855092656238 -0.38431140634755245 0.7332121121102373
vn 0.614256196058192 -0.46511809701524176 0.6374593959092923
vn 0.6870641029512633 -0.22560120096906322 0.6906859029668206
vn 0.7523071207418485 -0.2913369080324456 0.590894916291555
vn 0.8891115336703209 -0.1435165054349163 0.4346075164584239
vn -0.8891115336703209 -0.1435165054349163 0.4346075164584239
vn -0.7895517231826404 -0.3644434107007056 0.4937500144973771
vn -0.6407503051649313 -0.5439002043842462 0.541859404367796
vn -0.45079288191108174 -0.6799342727163493 0.5783382767930811
vn -0.23255859285824668 -0.7646241765187896 0.6010543815419328
vn 0 -0.7933533393698233 0.608761430209528
vn 0.23255859285824668 -0.7646241765187896 0.6010543815419328
vn 0.45079288191108174 -0.6799342727163493 0.5783382767930811
vn 0.6407503051649313 -0.5439002043842462 0.541859404367796
vn 0.7895517231826404 -0.3644434107007056 0.4937500144973771
usemtl material_0_0
f 1/1/1 2/2/2 3/3/3
f 2/2/2 1/1/1 4/4/4
f 2/2/2 5/5/5 3/3/3
f 5/5/5 2/2/2 6/6/6
f 4/4/4 7/7/7 8/8/8
f 7/7/7 4/4/4 1/1/1
f 9/9/9 10/10/9 11/11/9
f 10/10/9 9/9/9 12/8/9
f 12/8/9 9/9/9 13/12/9
f 12/8/9 13/12/9 14/4/9
f 14/4/9 13/12/9 15/13/9
f 14/4/9 15/13/9 16/2/9
f 16/2/9 15/13/9 17/14/9
f 16/2/9 17/14/9 18/6/9
f 18/6/9 17/14/9 19/15/9
f 18/6/9 19/15/9 20/16/9
f 20/16/9 19/15/9 21/17/9
f 20/16/9 21/17/9 22/18/9
f 22/18/9 21/17/9 23/19/9
f 22/18/9 23/19/9 24/20/9
f 24/20/9 23/19/9 25/21/9
f 24/20/9 25/21/9 26/22/9
f 26/22/9 25/21/9 27/23/9
f 26/22/9 27/23/9 28/24/9
f 28/24/9 27/23/9 29/25/9
f 28/24/9 29/25/9 30/26/9
f 30/26/9 29/25/9 31/27/9
f 30/26/9 31/27/9 32/28/9
f 6/6/6 33/16/10 5/5/5
f 34/10/11 7/7/7 35/29/12
f 7/7/7 34/10/11 8/8/8
f 36/30/13 37/27/14 38/31/15
f 37/27/14 36/30/13 39/28/16
f 40/32/17 39/28/16 36/30/13
f 39/28/16 40/32/17 41/26/18
f 42/33/19 41/26/18 40/32/17
f 41/26/18 42/33/19 43/24/20
f 42/33/19 44/22/21 43/24/20
f 44/22/21 42/33/19 45/34/22
f 46/20/23 45/34/22 47/35/24
f 45/34/22 46/20/23 44/22/21
f 48/18/25 47/35/24 49/36/26
f 47/35/24 48/18/25 46/20/23
f 48/18/25 49/36/26 50/16/27
f 51/11/28 35/29/12 52/37/29
f 35/29/12 51/11/28 34/10/11
f 53/9/30 52/37/29 54/38/31
f 52/37/29 53/9/30 51/11/28
f 55/12/32 54/38/31 56/39/33
f 54/38/31 55/12/32 53/9/30
f 57/40/34 55/12/32 56/39/33
f 55/12/32 57/40/34 58/13/35
f 59/41/36 58/13/35 57/40/34
f 58/13/35 59/41/36 60/14/37
f 61/42/38 60/14/37 59/41/36
f 60/14/37 61/42/38 62/15/39
f 63/43/40 62/15/39 61/42/38
f 62/15/39 63/43/40 64/17/41
f 63/43/40 65/19/42 64/17/41
f 65/19/42 63/43/40 66/44/43
f 66/44/43 67/21/44 65/19/42
f 67/21/44 66/44/43 68/45/45
f 68/45/45 69/23/46 67/21/44
f 69/23/46 68/45/45 70/46/47
f 70/46/47 71/25/48 69/23/46
f 71/25/48 70/46/47 72/47/49
f 38/31/15 71/25/48 72/47/49
f 71/25/48 38/31/15 37/27/14
f 36/30/13 38/31/15 73/48/50
f 52/37/29 74/49/51 54/38/31
f 56/39/33 74/49/51 75/50/52
f 74/49/51 56/39/33 54/38/31
f 57/40/34 75/50/52 76/51/53
f 75/50/52 57/40/34 56/39/33
f 77/52/54 57/40/34 76/51/53
f 57/40/34 77/52/54 59/41/36
f 78/53/55 59/41/36 77/52/54
f 59/41/36 78/53/55 61/42/38
f 63/43/40 78/53/55 79/54/56
f 78/53/55 63/43/40 61/42/38
f 66/44/43 79/54/56 80/55/57
f 79/54/56 66/44/43 63/43/40
f 68/45/45 80/55/57 81/56/58
f 80/55/57 68/45/45 66/44/43
f 70/46/47 81/56/58 82/57/59
f 81/56/58 70/46/47 68/45/45
f 83/58/60 70/46/47 82/57/59
f 70/46/47 83/58/60 72/47/49
f 73/48/50 72/47/49 83/58/60
f 72/47/49 73/48/50 38/31/15
