# SSTK version 0.8.0
# 6
mtllib original-6.mtl
o #ID46
v -0.319700 -0.048238 -0.066803
v -0.273729 -0.127863 0.076858
v -0.273729 -0.127863 -0.066803
v -0.319700 -0.048238 0.076858
v -0.273729 -0.127863 0.076858
v -0.253449 -0.116155 -0.066803
v -0.273729 -0.127863 -0.066803
v -0.253449 -0.116155 0.076858
v -0.273729 -0.127863 -0.066803
v -0.299421 -0.036530 -0.066803
v -0.319700 -0.048238 -0.066803
v -0.253449 -0.116155 -0.066803
v -0.299421 -0.036530 0.076858
v -0.319700 -0.048238 -0.066803
v -0.299421 -0.036530 -0.066803
v -0.319700 -0.048238 0.076858
v -0.299421 -0.036530 0.076858
v -0.253449 -0.116155 -0.066803
v -0.253449 -0.116155 0.076858
v -0.299421 -0.036530 -0.066803
vt 0.2685524 0.4522519
vt 0.3025949 0.3593611
vt 0.3176122 0.3730202
vt 0.2835696 0.465911
vn 0.866025402838329 0.5000000016387101 0
vn -0.5000000016387101 0.866025402838329 0
vn 0 0 1
vn 0.5000000016387101 -0.866025402838329 0
vn -0.866025402838329 -0.5000000016387101 0
usemtl material_0_0
f 1/1/1 2/2/1 3/2/1
f 2/2/1 1/1/1 4/1/1
f 5/2/2 6/3/2 7/2/2
f 6/3/2 5/2/2 8/3/2
f 9/2/3 10/4/3 11/1/3
f 10/4/3 9/2/3 12/3/3
f 13/4/4 14/1/4 15/4/4
f 14/1/4 13/4/4 16/1/4
f 17/4/5 18/3/5 19/3/5
f 18/3/5 17/4/5 20/4/5
