# SSTK version 0.8.0
# 14
mtllib original-14.mtl
o #ID110
v -0.395035 0.138740 0.062492
v -0.324513 0.201867 0.062492
v -0.330387 0.246486 0.062492
v -0.307291 0.160289 0.062492
v -0.290756 0.138740 0.062492
v 0.380734 0.138740 0.062492
v 0.292990 0.160289 0.062492
v 0.276455 0.138740 0.062492
v 0.310212 0.201867 0.062492
v 0.316086 0.246486 0.062492
v -0.833200 -0.529283 0.062492
v -0.677991 -0.198474 0.062492
v -0.833200 0.519441 0.062492
v -0.665029 -0.246851 0.062492
v -0.643863 -0.292242 0.062492
v -0.615136 -0.333268 0.062492
v -0.579722 -0.368683 0.062492
v -0.538696 -0.397409 0.062492
v -0.493304 -0.418575 0.062492
v -0.444928 -0.431538 0.062492
v -0.395035 -0.435903 0.062492
v 0.818899 -0.529283 0.062492
v -0.682357 -0.148581 0.062492
v 0.380734 -0.435903 0.062492
v 0.430627 -0.431538 0.062492
v 0.479003 -0.418575 0.062492
v 0.524395 -0.397409 0.062492
v 0.565420 -0.368683 0.062492
v 0.600835 -0.333268 0.062492
v 0.629562 -0.292242 0.062492
v 0.650728 -0.246851 0.062492
v 0.663690 -0.198474 0.062492
v 0.668055 -0.148581 0.062492
v -0.157994 0.418879 0.062492
v 0.818899 0.519441 0.062492
v -0.202613 0.413005 0.062492
v -0.244191 0.395783 0.062492
v -0.279895 0.368386 0.062492
v -0.579722 0.071520 0.062492
v -0.615136 0.036105 0.062492
v -0.643863 -0.004921 0.062492
v -0.665029 -0.050312 0.062492
v -0.677991 -0.098689 0.062492
v -0.538696 0.100246 0.062492
v -0.493304 0.121413 0.062492
v -0.307291 0.332682 0.062492
v -0.444928 0.134375 0.062492
v -0.324513 0.291105 0.062492
v 0.143693 0.418879 0.062492
v 0.188312 0.413005 0.062492
v 0.229890 0.395783 0.062492
v 0.265594 0.368386 0.062492
v 0.292990 0.332682 0.062492
v 0.310212 0.291105 0.062492
v 0.430627 0.134375 0.062492
v 0.479003 0.121413 0.062492
v 0.524395 0.100246 0.062492
v 0.565420 0.071520 0.062492
v 0.600835 0.036105 0.062492
v 0.629562 -0.004921 0.062492
v 0.650728 -0.050312 0.062492
v 0.663690 -0.098689 0.062492
vt 0.6369863 0.2652174
vt 0.6971804 0.3079034
vt 0.739726 0.3043478
vt 0.6575342 0.3183278
vt 0.6369863 0.3283364
vt 0.6369863 0.7347826
vt 0.6575342 0.6816722
vt 0.6369863 0.6716636
vt 0.6971804 0.6920966
vt 0.739726 0.6956522
vt -5.551115e-17 0
vt 0.3154389 0.09394644
vt 1 0
vt 0.2693095 0.1017926
vt 0.2260274 0.1146042
vt 0.1869075 0.1319922
vt 0.1531385 0.1534282
vt 0.1257465 0.1782608
vt 0.1055637 0.2057356
vt 0.09320335 0.2350177
vt 0.08904109 0.2652174
vt 0 1
vt 0.3630137 0.09130431
vt 0.08904109 0.7347826
vt 0.09320335 0.7649823
vt 0.1055637 0.7942644
vt 0.1257465 0.8217392
vt 0.1531385 0.8465718
vt 0.1869075 0.8680078
vt 0.2260274 0.8853958
vt 0.2693095 0.8982075
vt 0.3154389 0.9060536
vt 0.3630137 0.9086957
vt 0.9041096 0.4086956
vt 1 1
vt 0.8985083 0.3816884
vt 0.8820864 0.3565217
vt 0.8559628 0.3349106
vt 0.5728889 0.1534282
vt 0.5391199 0.1319922
vt 0.5 0.1146042
vt 0.4567178 0.1017926
vt 0.4105885 0.09394644
vt 0.6002809 0.1782608
vt 0.6204637 0.2057356
vt 0.8219178 0.3183278
vt 0.632824 0.2350177
vt 0.7822716 0.3079034
vt 0.9041096 0.5913044
vt 0.8985083 0.6183116
vt 0.8820864 0.6434783
vt 0.8559628 0.6650894
vt 0.8219178 0.6816722
vt 0.7822716 0.6920966
vt 0.632824 0.7649823
vt 0.6204637 0.7942644
vt 0.6002809 0.8217392
vt 0.5728889 0.8465718
vt 0.5391199 0.8680078
vt 0.5 0.8853958
vt 0.4567178 0.8982075
vt 0.4105885 0.9060536
vn 0 0 1
usemtl material_0_0
f 1/1/1 2/2/1 3/3/1
f 2/2/1 1/1/1 4/4/1
f 4/4/1 1/1/1 5/5/1
f 6/6/1 7/7/1 8/8/1
f 7/7/1 6/6/1 9/9/1
f 9/9/1 6/6/1 10/10/1
f 11/11/1 12/12/1 13/13/1
f 12/12/1 11/11/1 14/14/1
f 14/14/1 11/11/1 15/15/1
f 15/15/1 11/11/1 16/16/1
f 16/16/1 11/11/1 17/17/1
f 17/17/1 11/11/1 18/18/1
f 18/18/1 11/11/1 19/19/1
f 19/19/1 11/11/1 20/20/1
f 20/20/1 11/11/1 21/21/1
f 21/21/1 11/11/1 22/22/1
f 13/13/1 12/12/1 23/23/1
f 21/21/1 22/22/1 24/24/1
f 24/24/1 22/22/1 25/25/1
f 25/25/1 22/22/1 26/26/1
f 26/26/1 22/22/1 27/27/1
f 27/27/1 22/22/1 28/28/1
f 28/28/1 22/22/1 29/29/1
f 29/29/1 22/22/1 30/30/1
f 30/30/1 22/22/1 31/31/1
f 31/31/1 22/22/1 32/32/1
f 32/32/1 22/22/1 33/33/1
f 13/13/1 34/34/1 35/35/1
f 34/34/1 13/13/1 36/36/1
f 36/36/1 13/13/1 37/37/1
f 37/37/1 13/13/1 38/38/1
f 38/38/1 13/13/1 39/39/1
f 39/39/1 13/13/1 40/40/1
f 40/40/1 13/13/1 41/41/1
f 41/41/1 13/13/1 42/42/1
f 42/42/1 13/13/1 43/43/1
f 43/43/1 13/13/1 23/23/1
f 38/38/1 39/39/1 44/44/1
f 38/38/1 44/44/1 45/45/1
f 38/38/1 45/45/1 46/46/1
f 46/46/1 45/45/1 47/47/1
f 46/46/1 47/47/1 1/1/1
f 46/46/1 1/1/1 48/48/1
f 48/48/1 1/1/1 3/3/1
f 35/35/1 34/34/1 49/49/1
f 35/35/1 49/49/1 50/50/1
f 35/35/1 50/50/1 51/51/1
f 35/35/1 51/51/1 52/52/1
f 35/35/1 52/52/1 53/53/1
f 35/35/1 53/53/1 54/54/1
f 35/35/1 54/54/1 10/10/1
f 35/35/1 10/10/1 6/6/1
f 35/35/1 6/6/1 55/55/1
f 35/35/1 55/55/1 56/56/1
f 35/35/1 56/56/1 57/57/1
f 35/35/1 57/57/1 58/58/1
f 35/35/1 58/58/1 59/59/1
f 35/35/1 59/59/1 60/60/1
f 35/35/1 60/60/1 61/61/1
f 35/35/1 61/61/1 62/62/1
f 35/35/1 62/62/1 33/33/1
f 35/35/1 33/33/1 22/22/1
