# SSTK version 0.8.0
# 8
mtllib original-8.mtl
o #ID62
v 0.276455 0.138740 0.062492
v 0.265594 0.124586 0.062492
v 0.261574 0.121501 0.076858
v 0.229890 0.097189 0.076858
v 0.239107 0.104262 0.076858
v 0.229890 0.097189 0.062492
v 0.188312 0.079967 0.062492
v 0.188312 0.079967 0.076858
v 0.143693 0.074093 0.076858
v 0.143693 0.074093 0.062492
v -0.157994 0.074093 0.076858
v -0.157994 0.074093 0.062492
v -0.202613 0.079967 0.076858
v -0.202613 0.079967 0.062492
v -0.244191 0.097189 0.076858
v -0.244191 0.097189 0.062492
v -0.275875 0.121501 0.076858
v -0.279895 0.124586 0.062492
v -0.253408 0.104262 0.076858
v -0.290756 0.138740 0.062492
vn -0.7900680963943962 0.6062404972333232 -0.09091128958511159
vn -0.7253333675303479 0.6861455692845954 -0.0556395875092859
vn -0.6611638605355394 0.7498574552414737 -0.02400304856727293
vn -0.5000000016387101 0.866025402838329 0
vn -0.608761430209528 0.7933533393698233 0
vn -0.25881900959356163 0.9659258358036645 0
vn -0.06540313151333016 0.9978589230889555 0
vn 0.06540313151333016 0.9978589230889555 0
vn 0.25881900959356163 0.9659258358036645 0
vn 0.5000000016387101 0.866025402838329 0
vn 0.6611638605355394 0.7498574552414737 -0.02400304856727293
vn 0.7253333675303479 0.6861455692845954 -0.0556395875092859
vn 0.608761430209528 0.7933533393698233 0
vn 0.7900680963943962 0.6062404972333232 -0.09091128958511159
usemtl material_0_0
f 1//1 2//2 3//3
f 4//4 5//5 6//4
f 6//4 3//3 2//2
f 3//3 6//4 5//5
f 7//6 4//4 6//4
f 4//4 7//6 8//6
f 9//7 7//6 10//7
f 7//6 9//7 8//6
f 11//8 10//7 12//8
f 10//7 11//8 9//7
f 13//9 12//8 14//9
f 12//8 13//9 11//8
f 15//10 14//9 16//10
f 14//9 15//10 13//9
f 17//11 16//10 18//12
f 16//10 17//11 19//13
f 16//10 19//13 15//10
f 20//14 17//11 18//12
