# SSTK version 0.8.0
# 3
mtllib original-3.mtl
o #ID17
v -0.383326 -0.247083 0.076858
v -0.383326 -0.339026 -0.066803
v -0.383326 -0.339026 0.076858
v -0.383326 -0.247083 -0.066803
v -0.383326 -0.247083 0.076858
v -0.406743 -0.247083 -0.066803
v -0.383326 -0.247083 -0.066803
v -0.406743 -0.247083 0.076858
v -0.383326 -0.339026 -0.066803
v -0.406743 -0.247083 -0.066803
v -0.406743 -0.339026 -0.066803
v -0.383326 -0.247083 -0.066803
v -0.406743 -0.339026 0.076858
v -0.383326 -0.339026 -0.066803
v -0.406743 -0.339026 -0.066803
v -0.383326 -0.339026 0.076858
v -0.406743 -0.247083 -0.066803
v -0.406743 -0.339026 0.076858
v -0.406743 -0.339026 -0.066803
v -0.406743 -0.247083 0.076858
vt 0.2214362 0.2202784
vt 0.2214362 0.1130174
vt 0.2040957 0.2202784
vt 0.2040957 0.1130174
vn -1 0 0
vn 0 -1 0
vn 0 0 1
vn 0 1 0
vn 1 0 0
usemtl material_0_0
f 1/1/1 2/2/1 3/2/1
f 2/2/1 1/1/1 4/1/1
f 5/1/2 6/3/2 7/1/2
f 6/3/2 5/1/2 8/3/2
f 9/2/3 10/3/3 11/4/3
f 10/3/3 9/2/3 12/1/3
f 13/4/4 14/2/4 15/4/4
f 14/2/4 13/4/4 16/2/4
f 17/3/5 18/4/5 19/4/5
f 18/4/5 17/3/5 20/3/5
