# SSTK version 0.8.0
# 5
mtllib original-5.mtl
o #ID38
v -0.470800 -0.048238 -0.066803
v -0.491080 -0.036530 0.076858
v -0.491080 -0.036530 -0.066803
v -0.470800 -0.048238 0.076858
v -0.491080 -0.036530 -0.066803
v -0.537051 -0.116155 0.076858
v -0.537051 -0.116155 -0.066803
v -0.491080 -0.036530 0.076858
v -0.516772 -0.127863 -0.066803
v -0.491080 -0.036530 -0.066803
v -0.537051 -0.116155 -0.066803
v -0.470800 -0.048238 -0.066803
v -0.470800 -0.048238 0.076858
v -0.516772 -0.127863 -0.066803
v -0.516772 -0.127863 0.076858
v -0.470800 -0.048238 -0.066803
v -0.537051 -0.116155 0.076858
v -0.516772 -0.127863 -0.066803
v -0.537051 -0.116155 -0.066803
v -0.516772 -0.127863 0.076858
vt 0.1566604 0.4522519
vt 0.1416432 0.465911
vt 0.1076006 0.3730202
vt 0.1226179 0.3593611
vn -0.5000000016387101 -0.866025402838329 0
vn 0.866025402838329 -0.5000000016387101 0
vn 0 0 1
vn -0.866025402838329 0.5000000016387101 0
vn 0.5000000016387101 0.866025402838329 0
usemtl material_0_0
f 1/1/1 2/2/1 3/2/1
f 2/2/1 1/1/1 4/1/1
f 5/2/2 6/3/2 7/3/2
f 6/3/2 5/2/2 8/2/2
f 9/4/3 10/2/3 11/3/3
f 10/2/3 9/4/3 12/1/3
f 13/1/4 14/4/4 15/4/4
f 14/4/4 13/1/4 16/1/4
f 17/3/5 18/4/5 19/3/5
f 18/4/5 17/3/5 20/4/5
