# SSTK version 0.8.0
# 10
mtllib original-10.mtl
o #ID78
v -0.303698 0.207445 0.076858
v -0.303698 0.285527 0.076858
v -0.308838 0.246486 0.076858
v -0.288629 0.171064 0.076858
v -0.288629 0.321908 0.076858
v -0.264657 0.139823 0.076858
v -0.275109 0.232371 0.076858
v -0.265972 0.200319 0.076858
v -0.248357 0.171309 0.076858
v -0.233416 0.115851 0.076858
v -0.223137 0.148048 0.076858
v -0.197036 0.100782 0.076858
v -0.192134 0.132955 0.076858
v -0.157994 0.095642 0.076858
v -0.157994 0.127721 0.076858
v 0.143693 0.095642 0.076858
v -0.123855 0.132955 0.076858
v -0.092851 0.148048 0.076858
v -0.067632 0.171309 0.076858
v -0.050017 0.200319 0.076858
v -0.040880 0.232371 0.076858
v 0.078550 0.148048 0.076858
v 0.053331 0.171309 0.076858
v 0.035716 0.200319 0.076858
v 0.026579 0.232371 0.076858
v 0.109554 0.132955 0.076858
v 0.143693 0.127721 0.076858
v 0.177833 0.132955 0.076858
v 0.182735 0.100782 0.076858
v 0.208836 0.148048 0.076858
v 0.219115 0.115851 0.076858
v 0.234056 0.171309 0.076858
v 0.250356 0.139823 0.076858
v 0.251671 0.200319 0.076858
v 0.274328 0.171064 0.076858
v 0.260808 0.232371 0.076858
v 0.274328 0.321908 0.076858
v 0.289397 0.285527 0.076858
v 0.289397 0.207445 0.076858
v 0.294537 0.246486 0.076858
v -0.274903 0.264859 0.076858
v -0.264657 0.353149 0.076858
v -0.265214 0.294602 0.076858
v -0.249802 0.319734 0.076858
v -0.233416 0.377120 0.076858
v -0.230168 0.339579 0.076858
v -0.197036 0.392190 0.076858
v -0.207614 0.353834 0.076858
v -0.183239 0.362397 0.076858
v -0.157994 0.397330 0.076858
v -0.157994 0.365251 0.076858
v -0.132750 0.362397 0.076858
v 0.143693 0.397330 0.076858
v -0.108375 0.353834 0.076858
v -0.085820 0.339579 0.076858
v -0.066186 0.319734 0.076858
v -0.050775 0.294602 0.076858
v -0.041086 0.264859 0.076858
v 0.071519 0.339579 0.076858
v 0.051885 0.319734 0.076858
v 0.036474 0.294602 0.076858
v 0.026785 0.264859 0.076858
v 0.094074 0.353834 0.076858
v 0.118449 0.362397 0.076858
v 0.143693 0.365251 0.076858
v 0.182735 0.392190 0.076858
v 0.168938 0.362397 0.076858
v 0.193313 0.353834 0.076858
v 0.219115 0.377120 0.076858
v 0.215867 0.339579 0.076858
v 0.235501 0.319734 0.076858
v 0.250356 0.353149 0.076858
v 0.250913 0.294602 0.076858
v 0.260602 0.264859 0.076858
v 0.143693 0.074093 0.062492
v -0.157994 0.095642 0.076858
v -0.157994 0.074093 0.062492
v 0.143693 0.095642 0.076858
v 0.182735 0.100782 0.076858
v 0.188312 0.079967 0.062492
v 0.219115 0.115851 0.076858
v 0.229890 0.097189 0.062492
v 0.250356 0.139823 0.076858
v 0.265594 0.124586 0.062492
v 0.274328 0.171064 0.076858
v 0.276455 0.138740 0.062492
v 0.292990 0.160289 0.062492
v 0.289397 0.207445 0.076858
v 0.310212 0.201867 0.062492
v 0.294537 0.246486 0.076858
v 0.316086 0.246486 0.062492
v 0.310212 0.291105 0.062492
v 0.289397 0.285527 0.076858
v 0.292990 0.332682 0.062492
v 0.274328 0.321908 0.076858
v 0.265594 0.368386 0.062492
v 0.250356 0.353149 0.076858
v 0.229890 0.395783 0.062492
v 0.219115 0.377120 0.076858
v 0.188312 0.413005 0.062492
v 0.182735 0.392190 0.076858
v 0.143693 0.397330 0.076858
v 0.143693 0.418879 0.062492
v -0.157994 0.418879 0.062492
v -0.157994 0.397330 0.076858
v -0.197036 0.392190 0.076858
v -0.202613 0.413005 0.062492
v -0.233416 0.377120 0.076858
v -0.244191 0.395783 0.062492
v -0.264657 0.353149 0.076858
v -0.279895 0.368386 0.062492
v -0.288629 0.321908 0.076858
v -0.307291 0.332682 0.062492
v -0.303698 0.285527 0.076858
v -0.324513 0.291105 0.062492
v -0.308838 0.246486 0.076858
v -0.330387 0.246486 0.062492
v -0.324513 0.201867 0.062492
v -0.303698 0.207445 0.076858
v -0.307291 0.160289 0.062492
v -0.288629 0.171064 0.076858
v -0.290756 0.138740 0.062492
v -0.279895 0.124586 0.062492
v -0.264657 0.139823 0.076858
v -0.244191 0.097189 0.062492
v -0.233416 0.115851 0.076858
v -0.202613 0.079967 0.062492
v -0.197036 0.100782 0.076858
vt 0.2804019 0.7505325
vt 0.2804019 0.8416239
vt 0.2765957 0.7960782
vt 0.291561 0.7080906
vt 0.291561 0.8840658
vt 0.3093125 0.671645
vt 0.3015729 0.7796119
vt 0.3083387 0.7422193
vt 0.321383 0.708376
vt 0.3324468 0.6436792
vt 0.3400586 0.6812399
vt 0.3593872 0.6260992
vt 0.3630173 0.6636326
vt 0.3882979 0.620103
vt 0.3882979 0.6575266
vt 0.6117021 0.620103
vt 0.4135785 0.6636326
vt 0.4365371 0.6812399
vt 0.4552128 0.708376
vt 0.468257 0.7422193
vt 0.4750228 0.7796119
vt 0.5634629 0.6812399
vt 0.5447872 0.708376
vt 0.531743 0.7422193
vt 0.5249772 0.7796119
vt 0.5864215 0.6636326
vt 0.6117021 0.6575266
vt 0.6369827 0.6636326
vt 0.6406128 0.6260992
vt 0.6599414 0.6812399
vt 0.6675532 0.6436792
vt 0.678617 0.708376
vt 0.6906875 0.671645
vt 0.6916613 0.7422193
vt 0.708439 0.7080906
vt 0.6984271 0.7796119
vt 0.708439 0.8840658
vt 0.7195981 0.8416239
vt 0.7195981 0.7505325
vt 0.7234043 0.7960782
vt 0.3017252 0.8175122
vt 0.3093125 0.9205114
vt 0.3089002 0.8522104
vt 0.3203128 0.8815298
vt 0.3324468 0.9484772
vt 0.334852 0.9046809
vt 0.3593872 0.9660572
vt 0.3515541 0.9213106
vt 0.3696038 0.9313003
vt 0.3882979 0.9720534
vt 0.3882979 0.9346298
vt 0.4069919 0.9313003
vt 0.6117021 0.9720534
vt 0.4250417 0.9213106
vt 0.4417438 0.9046809
vt 0.456283 0.8815298
vt 0.4676956 0.8522104
vt 0.4748705 0.8175122
vt 0.5582562 0.9046809
vt 0.543717 0.8815298
vt 0.5323044 0.8522104
vt 0.5251295 0.8175122
vt 0.5749583 0.9213106
vt 0.5930081 0.9313003
vt 0.6117021 0.9346298
vt 0.6406128 0.9660572
vt 0.6303962 0.9313003
vt 0.6484459 0.9213106
vt 0.6675532 0.9484772
vt 0.665148 0.9046809
vt 0.6796872 0.8815298
vt 0.6906875 0.9205114
vt 0.6910998 0.8522104
vt 0.6982748 0.8175122
vt 0.6117021 0.5949637
vt 0.3882979 0.5949637
vt 0.6447429 0.6018165
vt 0.6755319 0.6219079
vt 0.7019711 0.6538688
vt 0.710014 0.6703816
vt 0.7222586 0.6955209
vt 0.7350118 0.7440259
vt 0.7393617 0.7960782
vt 0.7350118 0.8481305
vt 0.7222586 0.8966354
vt 0.7019711 0.9382876
vt 0.6755319 0.9702484
vt 0.6447429 0.9903399
vt 0.6117021 0.9971927
vt 0.3882979 0.9971927
vt 0.3552571 0.9903399
vt 0.3244681 0.9702484
vt 0.2980289 0.9382876
vt 0.2777414 0.8966354
vt 0.2649882 0.8481305
vt 0.2606383 0.7960782
vt 0.2649882 0.7440259
vt 0.2777414 0.6955209
vt 0.289986 0.6703816
vt 0.2980289 0.6538688
vt 0.3244681 0.6219079
vt 0.3552571 0.6018165
vn 0 0 1
vn 0.035133491074936754 -0.5543577169610097 0.8315366254415161
vn -0.037661019968132564 -0.554306699530965 0.8314599992964475
vn -0.035133491074936754 -0.5543577169610097 0.8315366254415161
vn 0.037661019968132564 -0.554306699530965 0.8314599992964475
vn 0.14356700230139846 -0.5357992085889338 0.832050313337879
vn 0.2773500934073398 -0.48038448858117677 0.8320502802220194
vn 0.3922322890063822 -0.3922322890063822 0.8320502766790165
vn 0.48038448858117677 -0.2773500934073398 0.8320502802220194
vn 0.4426917765900212 -0.3396892820368949 0.8298404561172161
vn 0.5357992085889338 -0.14356700230139846 0.832050313337879
vn 0.554700196225229 0 0.8320502943378437
vn 0.5357992085889338 0.14356700230139846 0.832050313337879
vn 0.48038448858117677 0.2773500934073398 0.8320502802220194
vn 0.3922322890063822 0.3922322890063822 0.8320502766790165
vn 0.2773500934073398 0.48038448858117677 0.8320502802220194
vn 0.14356700230139846 0.5357992085889338 0.832050313337879
vn 0.037661019968132564 0.554306699530965 0.8314599992964475
vn 0.035133491074936754 0.5543577169610097 0.8315366254415161
vn -0.035133491074936754 0.5543577169610097 0.8315366254415161
vn -0.037661019968132564 0.554306699530965 0.8314599992964475
vn -0.14356700230139846 0.5357992085889338 0.832050313337879
vn -0.2773500934073398 0.48038448858117677 0.8320502802220194
vn -0.3922322890063822 0.3922322890063822 0.8320502766790165
vn -0.48038448858117677 0.2773500934073398 0.8320502802220194
vn -0.5357992085889338 0.14356700230139846 0.832050313337879
vn -0.554700196225229 0 0.8320502943378437
vn -0.5357992085889338 -0.14356700230139846 0.832050313337879
vn -0.48038448858117677 -0.2773500934073398 0.8320502802220194
vn -0.4426917765900212 -0.3396892820368949 0.8298404561172161
vn -0.3922322890063822 -0.3922322890063822 0.8320502766790165
vn -0.2773500934073398 -0.48038448858117677 0.8320502802220194
vn -0.14356700230139846 -0.5357992085889338 0.832050313337879
usemtl material_0_0
f 1/1/1 2/2/1 3/3/1
f 2/2/1 1/1/1 4/4/1
f 2/2/1 4/4/1 5/5/1
f 5/5/1 4/4/1 6/6/1
f 5/5/1 6/6/1 7/7/1
f 7/7/1 6/6/1 8/8/1
f 8/8/1 6/6/1 9/9/1
f 9/9/1 6/6/1 10/10/1
f 9/9/1 10/10/1 11/11/1
f 11/11/1 10/10/1 12/12/1
f 11/11/1 12/12/1 13/13/1
f 13/13/1 12/12/1 14/14/1
f 13/13/1 14/14/1 15/15/1
f 15/15/1 14/14/1 16/16/1
f 15/15/1 16/16/1 17/17/1
f 17/17/1 16/16/1 18/18/1
f 18/18/1 16/16/1 19/19/1
f 19/19/1 16/16/1 20/20/1
f 20/20/1 16/16/1 21/21/1
f 21/21/1 16/16/1 22/22/1
f 21/21/1 22/22/1 23/23/1
f 21/21/1 23/23/1 24/24/1
f 21/21/1 24/24/1 25/25/1
f 22/22/1 16/16/1 26/26/1
f 26/26/1 16/16/1 27/27/1
f 27/27/1 16/16/1 28/28/1
f 28/28/1 16/16/1 29/29/1
f 28/28/1 29/29/1 30/30/1
f 30/30/1 29/29/1 31/31/1
f 30/30/1 31/31/1 32/32/1
f 32/32/1 31/31/1 33/33/1
f 32/32/1 33/33/1 34/34/1
f 34/34/1 33/33/1 35/35/1
f 34/34/1 35/35/1 36/36/1
f 36/36/1 35/35/1 37/37/1
f 37/37/1 35/35/1 38/38/1
f 38/38/1 35/35/1 39/39/1
f 38/38/1 39/39/1 40/40/1
f 5/5/1 41/41/1 42/42/1
f 41/41/1 5/5/1 7/7/1
f 42/42/1 41/41/1 43/43/1
f 42/42/1 43/43/1 44/44/1
f 42/42/1 44/44/1 45/45/1
f 45/45/1 44/44/1 46/46/1
f 45/45/1 46/46/1 47/47/1
f 47/47/1 46/46/1 48/48/1
f 47/47/1 48/48/1 49/49/1
f 47/47/1 49/49/1 50/50/1
f 50/50/1 49/49/1 51/51/1
f 50/50/1 51/51/1 52/52/1
f 50/50/1 52/52/1 53/53/1
f 53/53/1 52/52/1 54/54/1
f 53/53/1 54/54/1 55/55/1
f 53/53/1 55/55/1 56/56/1
f 53/53/1 56/56/1 57/57/1
f 53/53/1 57/57/1 58/58/1
f 53/53/1 58/58/1 59/59/1
f 59/59/1 58/58/1 21/21/1
f 59/59/1 21/21/1 60/60/1
f 60/60/1 21/21/1 61/61/1
f 61/61/1 21/21/1 62/62/1
f 62/62/1 21/21/1 25/25/1
f 53/53/1 59/59/1 63/63/1
f 53/53/1 63/63/1 64/64/1
f 53/53/1 64/64/1 65/65/1
f 53/53/1 65/65/1 66/66/1
f 66/66/1 65/65/1 67/67/1
f 66/66/1 67/67/1 68/68/1
f 66/66/1 68/68/1 69/69/1
f 69/69/1 68/68/1 70/70/1
f 69/69/1 70/70/1 71/71/1
f 69/69/1 71/71/1 72/72/1
f 72/72/1 71/71/1 73/73/1
f 72/72/1 73/73/1 37/37/1
f 37/37/1 73/73/1 74/74/1
f 37/37/1 74/74/1 36/36/1
f 75/75/2 76/14/3 77/76/4
f 76/14/3 75/75/2 78/16/5
f 75/75/2 79/29/6 78/16/5
f 79/29/6 75/75/2 80/77/6
f 80/77/6 81/31/7 79/29/6
f 81/31/7 80/77/6 82/78/7
f 82/78/7 83/33/8 81/31/7
f 83/33/8 82/78/7 84/79/8
f 84/79/8 85/35/9 83/33/8
f 85/35/9 84/79/8 86/80/10
f 85/35/9 86/80/10 87/81/9
f 87/81/9 88/39/11 85/35/9
f 88/39/11 87/81/9 89/82/11
f 89/82/11 90/40/12 88/39/11
f 90/40/12 89/82/11 91/83/12
f 90/40/12 92/84/13 93/38/13
f 92/84/13 90/40/12 91/83/12
f 93/38/13 94/85/14 95/37/14
f 94/85/14 93/38/13 92/84/13
f 95/37/14 96/86/15 97/72/15
f 96/86/15 95/37/14 94/85/14
f 97/72/15 98/87/16 99/69/16
f 98/87/16 97/72/15 96/86/15
f 99/69/16 100/88/17 101/66/17
f 100/88/17 99/69/16 98/87/16
f 102/53/18 100/88/17 103/89/19
f 100/88/17 102/53/18 101/66/17
f 102/53/18 104/90/20 105/50/21
f 104/90/20 102/53/18 103/89/19
f 106/47/22 104/90/20 107/91/22
f 104/90/20 106/47/22 105/50/21
f 108/45/23 107/91/22 109/92/23
f 107/91/22 108/45/23 106/47/22
f 110/42/24 109/92/23 111/93/24
f 109/92/23 110/42/24 108/45/23
f 112/5/25 111/93/24 113/94/25
f 111/93/24 112/5/25 110/42/24
f 114/2/26 113/94/25 115/95/26
f 113/94/25 114/2/26 112/5/25
f 116/3/27 115/95/26 117/96/27
f 115/95/26 116/3/27 114/2/26
f 118/97/28 116/3/27 117/96/27
f 116/3/27 118/97/28 119/1/28
f 120/98/29 119/1/28 118/97/28
f 119/1/28 120/98/29 121/4/29
f 122/99/30 121/4/29 120/98/29
f 121/4/29 122/99/30 123/100/31
f 121/4/29 123/100/31 124/6/31
f 125/101/32 124/6/31 123/100/31
f 124/6/31 125/101/32 126/10/32
f 127/102/33 126/10/32 125/101/32
f 126/10/32 127/102/33 128/12/33
f 77/76/4 128/12/33 127/102/33
f 128/12/33 77/76/4 76/14/3
