# SSTK version 0.8.0
# 9
mtllib original-9.mtl
o #ID70
v 0.239148 -0.116155 0.076858
v 0.259428 -0.127863 -0.066803
v 0.239148 -0.116155 -0.066803
v 0.259428 -0.127863 0.076858
v 0.305399 -0.048238 0.076858
v 0.259428 -0.127863 -0.066803
v 0.259428 -0.127863 0.076858
v 0.305399 -0.048238 -0.066803
v 0.259428 -0.127863 -0.066803
v 0.285120 -0.036530 -0.066803
v 0.239148 -0.116155 -0.066803
v 0.305399 -0.048238 -0.066803
v 0.285120 -0.036530 -0.066803
v 0.239148 -0.116155 0.076858
v 0.239148 -0.116155 -0.066803
v 0.285120 -0.036530 0.076858
v 0.305399 -0.048238 -0.066803
v 0.285120 -0.036530 0.076858
v 0.285120 -0.036530 -0.066803
v 0.305399 -0.048238 0.076858
vt 0.6823878 0.3730202
vt 0.6974051 0.3593611
vt 0.7314476 0.4522519
vt 0.7164304 0.465911
vn 0.5000000016387101 0.866025402838329 0
vn -0.866025402838329 0.5000000016387101 0
vn 0 0 1
vn 0.866025402838329 -0.5000000016387101 0
vn -0.5000000016387101 -0.866025402838329 0
usemtl material_0_0
f 1/1/1 2/2/1 3/1/1
f 2/2/1 1/1/1 4/2/1
f 5/3/2 6/2/2 7/2/2
f 6/2/2 5/3/2 8/3/2
f 9/2/3 10/4/3 11/1/3
f 10/4/3 9/2/3 12/3/3
f 13/4/4 14/1/4 15/1/4
f 14/1/4 13/4/4 16/4/4
f 17/3/5 18/4/5 19/4/5
f 18/4/5 17/3/5 20/3/5
