# SSTK version 0.8.0
# 9
mtllib original-9.mtl
o #ID97
v 0.231368 -0.384546 0.059375
v 0.365600 -0.384546 -0.034588
v 0.231368 -0.384546 -0.034588
v 0.365600 -0.384546 0.059375
v 0.388477 -0.379996 -0.034588
v 0.388477 -0.379996 0.059375
v 0.425380 -0.190534 -0.034588
v 0.420830 -0.347643 -0.034588
v 0.425380 -0.324766 -0.034588
v 0.420830 -0.167657 -0.034588
v 0.407871 -0.367037 -0.034588
v 0.407871 -0.148263 -0.034588
v 0.388477 -0.379996 -0.034588
v 0.388477 -0.135304 -0.034588
v 0.365600 -0.130753 -0.034588
v 0.365600 -0.384546 -0.034588
v 0.231368 -0.130753 -0.034588
v 0.231368 -0.384546 -0.034588
v 0.208491 -0.135304 -0.034588
v 0.208491 -0.379996 -0.034588
v 0.189096 -0.367037 -0.034588
v 0.189096 -0.148263 -0.034588
v 0.176138 -0.347643 -0.034588
v 0.176138 -0.167657 -0.034588
v 0.171587 -0.190534 -0.034588
v 0.171587 -0.324766 -0.034588
v 0.208491 -0.379996 0.059375
v 0.208491 -0.379996 -0.034588
v 0.407871 -0.367037 -0.034588
v 0.407871 -0.367037 0.059375
v 0.420830 -0.167657 -0.034588
v 0.407871 -0.148263 0.059375
v 0.407871 -0.148263 -0.034588
v 0.420830 -0.167657 0.059375
v 0.388477 -0.135304 -0.034588
v 0.388477 -0.135304 0.059375
v 0.365600 -0.130753 -0.034588
v 0.365600 -0.130753 0.059375
v 0.231368 -0.130753 -0.034588
v 0.231368 -0.130753 0.059375
v 0.208491 -0.135304 -0.034588
v 0.208491 -0.135304 0.059375
v 0.189096 -0.148263 -0.034588
v 0.189096 -0.148263 0.059375
v 0.176138 -0.167657 0.059375
v 0.176138 -0.167657 -0.034588
v 0.171587 -0.190534 0.059375
v 0.171587 -0.190534 -0.034588
v 0.171587 -0.324766 0.059375
v 0.171587 -0.324766 -0.034588
v 0.176138 -0.347643 0.059375
v 0.176138 -0.347643 -0.034588
v 0.189096 -0.367037 0.059375
v 0.189096 -0.367037 -0.034588
v 0.420830 -0.347643 0.059375
v 0.420830 -0.347643 -0.034588
v 0.425380 -0.324766 0.059375
v 0.425380 -0.324766 -0.034588
v 0.425380 -0.190534 0.059375
v 0.425380 -0.190534 -0.034588
vt -0.9506786 -0.939173
vt -0.9706786 -0.939173
vt -0.9740872 -0.939851
vt -0.9795857 -0.96808
vt -0.9789077 -0.9446714
vt -0.9795857 -0.94808
vt -0.9789077 -0.9714886
vt -0.9769769 -0.9417818
vt -0.9769769 -0.9743782
vt -0.9740872 -0.976309
vt -0.9706786 -0.976987
vt -0.9506786 -0.976987
vt -0.94727 -0.976309
vt -0.94727 -0.939851
vt -0.9443804 -0.9417818
vt -0.9443804 -0.9743782
vt -0.9424496 -0.9446714
vt -0.9424496 -0.9714886
vt -0.9417716 -0.96808
vt -0.9417716 -0.94808
vn 0.09801723174024876 0.9951847176690256 0
vn -0.09801714260491001 0.9951847264480945 0
vn -0.38268341623423263 0.9238795391929066 0
vn 0 0 1
vn 0.3826835869449008 0.9238794684822172 0
vn -0.7071067811865476 0.7071067811865476 0
vn -0.9238795391929066 -0.38268341623423263 0
vn -0.7071067811865476 -0.7071067811865476 0
vn -0.38268341623423263 -0.9238795391929066 0
vn -0.09801714260491001 -0.9951847264480945 0
vn 0.09801723174024876 -0.9951847176690256 0
vn 0.3826835869449008 -0.9238794684822172 0
vn 0.7071068811865378 -0.7071066811865431 0
vn 0.9238795538375647 -0.3826833808788962 0
vn 0.995184727423546 -0.0980171327009833 0
vn 0.995184727423546 0.0980171327009833 0
vn 0.9238795538375647 0.3826833808788962 0
vn 0.7071068811865378 0.7071066811865431 0
vn -0.9238795391929066 0.38268341623423263 0
vn -0.9951847264480945 0.09801714260491001 0
vn -0.9951847264480945 -0.09801714260491001 0
usemtl material_0_0
f 1/1/1 2/2/2 3/1/1
f 2/2/2 1/1/1 4/2/2
f 4/2/2 5/3/3 2/2/2
f 5/3/3 4/2/2 6/3/3
f 7/4/4 8/5/4 9/6/4
f 8/5/4 7/4/4 10/7/4
f 8/5/4 10/7/4 11/8/4
f 11/8/4 10/7/4 12/9/4
f 11/8/4 12/9/4 13/3/4
f 13/3/4 12/9/4 14/10/4
f 13/3/4 14/10/4 15/11/4
f 13/3/4 15/11/4 16/2/4
f 16/2/4 15/11/4 17/12/4
f 16/2/4 17/12/4 18/1/4
f 18/1/4 17/12/4 19/13/4
f 18/1/4 19/13/4 20/14/4
f 20/14/4 19/13/4 21/15/4
f 21/15/4 19/13/4 22/16/4
f 21/15/4 22/16/4 23/17/4
f 23/17/4 22/16/4 24/18/4
f 23/17/4 24/18/4 25/19/4
f 23/17/4 25/19/4 26/20/4
f 27/14/5 3/1/1 28/14/5
f 3/1/1 27/14/5 1/1/1
f 6/3/3 29/8/6 5/3/3
f 29/8/6 6/3/3 30/8/6
f 31/7/7 32/9/8 33/9/8
f 32/9/8 31/7/7 34/7/7
f 32/9/8 35/10/9 33/9/8
f 35/10/9 32/9/8 36/10/9
f 36/10/9 37/11/10 35/10/9
f 37/11/10 36/10/9 38/11/10
f 38/11/10 39/12/11 37/11/10
f 39/12/11 38/11/10 40/12/11
f 40/12/11 41/13/12 39/12/11
f 41/13/12 40/12/11 42/13/12
f 42/13/12 43/16/13 41/13/12
f 43/16/13 42/13/12 44/16/13
f 45/18/14 43/16/13 44/16/13
f 43/16/13 45/18/14 46/18/14
f 47/19/15 46/18/14 45/18/14
f 46/18/14 47/19/15 48/19/15
f 49/20/16 48/19/15 47/19/15
f 48/19/15 49/20/16 50/20/16
f 51/17/17 50/20/16 49/20/16
f 50/20/16 51/17/17 52/17/17
f 53/15/18 52/17/17 51/17/17
f 52/17/17 53/15/18 54/15/18
f 53/15/18 28/14/5 54/15/18
f 28/14/5 53/15/18 27/14/5
f 29/8/6 55/5/19 56/5/19
f 55/5/19 29/8/6 30/8/6
f 56/5/19 57/6/20 58/6/20
f 57/6/20 56/5/19 55/5/19
f 58/6/20 59/4/21 60/4/21
f 59/4/21 58/6/20 57/6/20
f 60/4/21 34/7/7 31/7/7
f 34/7/7 60/4/21 59/4/21
