# SSTK version 0.8.0
# 3
mtllib original-3.mtl
o #ID49
v -0.237017 0.153002 0.045951
v -0.211610 0.138318 0.045951
v -0.210054 0.170173 0.059375
v -0.224243 0.173975 0.059375
v -0.211610 0.138318 0.045951
v -0.237017 0.153002 -0.034588
v -0.211610 0.138318 -0.034588
v -0.237017 0.153002 0.045951
v -0.199667 0.159786 0.059375
v -0.238432 0.170173 0.059375
v -0.285341 0.069303 0.045951
v -0.237017 0.153002 -0.034588
v -0.237017 0.153002 0.045951
v -0.285341 0.069303 -0.034588
v -0.237017 0.153002 -0.034588
v -0.259766 0.054537 -0.034588
v -0.211610 0.138318 -0.034588
v -0.285341 0.069303 -0.034588
v -0.259766 0.054537 -0.034588
v -0.211610 0.138318 0.045951
v -0.211610 0.138318 -0.034588
v -0.259766 0.054537 0.045951
v -0.195865 0.145597 0.059375
v -0.248818 0.159786 0.059375
v -0.285341 0.069303 0.045951
v -0.297117 0.076131 0.059375
v -0.285341 0.069303 0.045951
v -0.259766 0.054537 -0.034588
v -0.285341 0.069303 -0.034588
v -0.259766 0.054537 0.045951
v -0.247965 0.047754 0.059375
v -0.199667 0.131408 0.059375
v -0.259766 0.054537 0.045951
v -0.300918 0.061942 0.059375
v -0.286730 0.037367 0.059375
v -0.258352 0.037367 0.059375
v -0.297117 0.047754 0.059375
v -0.272541 0.033565 0.059375
vt -0.8808912 -1.019265
vt -0.8846768 -1.017078
vt -0.8849086 -1.021824
vt -0.8827946 -1.02239
vt -0.8864562 -1.020276
vt -0.8806805 -1.021824
vt -0.8736912 -1.006795
vt -0.8775018 -1.004595
vt -0.8870227 -1.018162
vt -0.8791329 -1.020276
vt -0.8719367 -1.007812
vt -0.87926 -1.003584
vt -0.8864562 -1.016048
vt -0.8713702 -1.005698
vt -0.8734843 -1.002036
vt -0.8777124 -1.002036
vt -0.8719367 -1.003584
vt -0.8755984 -1.00147
vn 0.2729773109986355 -0.4583568184678337 0.8458087340788102
vn -0.5306058201420648 0.005774451219201083 0.8475990321752872
vn -0.23224188725569542 -0.40182247794993786 0.8857778513928221
vn -0.03418289159957389 -0.5239069245160018 0.8510893398263641
vn -0.5003914047350912 -0.865799308192864 0
vn -0.43566557241435394 -0.29035598161512444 0.8519911460532856
vn 0.29524630975740357 -0.5732219189440388 0.7643600252608381
vn 0.8660253595370575 -0.5000000766387045 0
vn 0 0 1
vn -0.8669862884640149 0.4983319933692718 0
vn -0.6403493901555894 -0.030233739535201642 0.7674884882010168
vn 0.5623678785376072 -0.4251022837762565 0.7092463729320879
vn 0.5335083996466887 -0.007272586995183793 0.8457634994399006
vn 0.6493332205687049 -0.27447330869439646 0.709246622466561
vn 0.5000000766387045 0.8660253595370575 0
vn -0.5614460051113792 0.4241600038615336 0.7105397064687216
vn -0.6461322016201474 0.27289760068427843 0.712769301787237
vn -0.27241890322564283 0.4575531054177697 0.8464237100222874
vn 0.6440464961880551 0.030920439816989904 0.7643611954759434
vn 0.23217970671761262 0.4021462116352222 0.8856472256242678
vn -0.2952488063244583 0.573230512279042 0.7643526163730258
vn 0.4366239061934861 0.2915559041357044 0.8510903120726693
vn 0.03418431902241938 0.5239088850175991 0.8510880756611443
usemtl material_0_0
f 1/1/1 2/2/2 3/3/3
f 1/1/1 3/3/3 4/4/4
f 5/2/5 6/1/5 7/2/5
f 6/1/5 5/2/5 8/1/5
f 2/2/2 9/5/6 3/3/3
f 10/6/7 1/1/1 4/4/4
f 11/7/8 12/1/8 13/1/8
f 12/1/8 11/7/8 14/7/8
f 15/1/9 16/8/9 17/2/9
f 16/8/9 15/1/9 18/7/9
f 19/8/10 20/2/10 21/2/10
f 20/2/10 19/8/10 22/8/10
f 2/2/2 23/9/11 9/5/6
f 24/10/12 1/1/1 10/6/7
f 24/10/12 25/7/13 1/1/1
f 25/7/13 24/10/12 26/11/14
f 27/7/15 28/8/15 29/7/15
f 28/8/15 27/7/15 30/8/15
f 2/2/2 31/12/16 32/13/17
f 31/12/16 2/2/2 33/8/18
f 2/2/2 32/13/17 23/9/11
f 34/14/19 25/7/13 26/11/14
f 35/15/20 33/8/18 25/7/13
f 33/8/18 36/16/21 31/12/16
f 34/14/19 37/17/22 25/7/13
f 35/15/20 38/18/23 33/8/18
f 37/17/22 35/15/20 25/7/13
f 38/18/23 36/16/21 33/8/18
