# SSTK version 0.8.0
# 11
mtllib original-11.mtl
o #ID113
v 0.260899 0.354045 0.059375
v 0.285060 0.341629 0.040582
v 0.265934 0.372838 0.059375
v 0.279691 0.386595 0.059375
v 0.285060 0.249009 0.040582
v 0.260899 0.236592 0.059375
v 0.298484 0.391630 0.059375
v 0.265934 0.217800 0.059375
v 0.285060 0.249009 0.040582
v 0.285060 0.341629 -0.039957
v 0.285060 0.341629 0.040582
v 0.285060 0.249009 -0.039957
v 0.311907 0.341629 0.040582
v 0.279691 0.204043 0.059375
v 0.285060 0.249009 0.040582
v 0.311907 0.249009 -0.039957
v 0.285060 0.249009 -0.039957
v 0.311907 0.249009 0.040582
v 0.285060 0.341629 -0.039957
v 0.311907 0.249009 -0.039957
v 0.311907 0.341629 -0.039957
v 0.285060 0.249009 -0.039957
v 0.311907 0.341629 0.040582
v 0.285060 0.341629 -0.039957
v 0.311907 0.341629 -0.039957
v 0.285060 0.341629 0.040582
v 0.317276 0.386595 0.059375
v 0.298484 0.199007 0.059375
v 0.311907 0.249009 0.040582
v 0.311907 0.249009 -0.039957
v 0.311907 0.341629 0.040582
v 0.311907 0.341629 -0.039957
v 0.311907 0.249009 0.040582
v 0.331033 0.372838 0.059375
v 0.317276 0.204043 0.059375
v 0.336069 0.354045 0.059375
v 0.336069 0.236592 0.059375
v 0.331033 0.217800 0.059375
vt -0.9550786 -1.04922
vt -0.9586786 -1.04737
vt -0.9558289 -1.05202
vt -0.9578786 -1.05407
vt -0.9586786 -1.03357
vt -0.9550786 -1.03172
vt -0.9606786 -1.05482
vt -0.9558289 -1.02892
vt -0.9626786 -1.04737
vt -0.9578786 -1.02687
vt -0.9626786 -1.03357
vt -0.9634786 -1.05407
vt -0.9606786 -1.02612
vt -0.9655284 -1.05202
vt -0.9634786 -1.02687
vt -0.9662786 -1.04922
vt -0.9662786 -1.03172
vt -0.9655284 -1.02892
vn 0.5824794792982714 -0.08932760682523429 0.8079221712858802
vn 0.3836370040571052 -0.18814830198973886 0.904114409561349
vn 0.411469180232912 -0.2716944869477252 0.8699857582056547
vn 0.18438830514150298 -0.36016931004299907 0.9144829254995385
vn 0.3836370040571052 0.18814830198973886 0.904114409561349
vn 0.5824794792982714 0.08932760682523429 0.8079221712858802
vn 8.229074469263766e-9 -0.37099052115577036 0.9286366529555949
vn 0.411469180232912 0.2716944869477252 0.8699857582056547
vn 1 0 0
vn -0.38363708933936613 -0.18814829477167316 0.9041143748761717
vn 0.18438830514150298 0.36016931004299907 0.9144829254995385
vn 0 1 0
vn 0 0 1
vn 0 -1 0
vn -0.18438829850040134 -0.36016939707080353 0.9144828925626661
vn 8.229076469263881e-9 0.37099052115577036 0.9286366529555949
vn -0.38363708933936613 0.18814829477167316 0.9041143748761717
vn -1 0 0
vn -0.4114692160301456 -0.2716945105847592 0.8699857338931746
vn -0.18438829850040134 0.36016939707080353 0.9144828925626661
vn -0.5824797034801379 -0.08932765053370535 0.8079220048270866
vn -0.5824797034801379 0.08932765053370535 0.8079220048270866
vn -0.4114692160301456 0.2716945105847592 0.8699857338931746
usemtl material_0_0
f 1/1/1 2/2/2 3/3/3
f 3/3/3 2/2/2 4/4/4
f 1/1/1 5/5/5 2/2/2
f 5/5/5 1/1/1 6/6/6
f 4/4/4 2/2/2 7/7/7
f 6/6/6 8/8/8 5/5/5
f 9/5/9 10/2/9 11/2/9
f 10/2/9 9/5/9 12/5/9
f 2/2/2 13/9/10 7/7/7
f 8/8/8 14/10/11 5/5/5
f 15/5/12 16/11/12 17/5/12
f 16/11/12 15/5/12 18/11/12
f 19/2/13 20/11/13 21/9/13
f 20/11/13 19/2/13 22/5/13
f 23/9/14 24/2/14 25/9/14
f 24/2/14 23/9/14 26/2/14
f 7/7/7 13/9/10 27/12/15
f 14/10/11 28/13/16 5/5/5
f 5/5/5 28/13/16 29/11/17
f 30/11/18 31/9/18 32/9/18
f 31/9/18 30/11/18 33/11/18
f 13/9/10 34/14/19 27/12/15
f 28/13/16 35/15/20 29/11/17
f 36/16/21 29/11/17 37/17/22
f 29/11/17 36/16/21 13/9/10
f 13/9/10 36/16/21 34/14/19
f 29/11/17 35/15/20 38/18/23
f 29/11/17 38/18/23 37/17/22
