# SSTK version 0.8.0
# 20
mtllib original-20.mtl
o #ID1258
v 0.159519 -0.310958 0.041584
v 0.173694 -0.282607 0.041584
v 0.159519 0.312746 0.041584
v 0.471371 -0.310958 0.041584
v 0.457196 -0.282607 0.041584
v 0.457196 0.284396 0.041584
v 0.173694 0.284396 0.041584
v 0.471371 0.312746 0.041584
v 0.471371 -0.310958 0.041584
v 0.457196 0.284396 0.041584
v 0.471371 0.312746 0.041584
v 0.173694 0.284396 0.041584
v 0.173694 -0.282607 0.041584
v 0.159519 0.312746 0.041584
v 0.457196 -0.282607 0.041584
v 0.159519 -0.310958 0.041584
v 0.471371 -0.310958 0.041584
v 0.159519 -0.310958 0.027409
v 0.471371 -0.310958 0.027409
v 0.159519 -0.310958 0.041584
v 0.159519 -0.310958 0.041584
v 0.471371 -0.310958 0.041584
v 0.159519 -0.310958 0.027409
v 0.471371 -0.310958 0.027409
v 0.471371 0.312746 0.027409
v 0.471371 -0.310958 0.041584
v 0.471371 -0.310958 0.027409
v 0.471371 0.312746 0.041584
v 0.471371 0.312746 0.041584
v 0.471371 0.312746 0.027409
v 0.471371 -0.310958 0.041584
v 0.471371 -0.310958 0.027409
v 0.159519 0.312746 0.041584
v 0.471371 0.312746 0.027409
v 0.159519 0.312746 0.027409
v 0.471371 0.312746 0.041584
v 0.471371 0.312746 0.041584
v 0.159519 0.312746 0.041584
v 0.471371 0.312746 0.027409
v 0.159519 0.312746 0.027409
v 0.159519 0.312746 0.041584
v 0.159519 -0.310958 0.027409
v 0.159519 -0.310958 0.041584
v 0.159519 0.312746 0.027409
v 0.159519 0.312746 0.027409
v 0.159519 0.312746 0.041584
v 0.159519 -0.310958 0.027409
v 0.159519 -0.310958 0.041584
v 0.159519 0.312746 0.027409
v 0.166607 0.248958 0.027409
v 0.159519 -0.310958 0.027409
v 0.202045 0.284396 0.027409
v 0.471371 0.312746 0.027409
v 0.428846 0.284396 0.027409
v 0.464284 0.248958 0.027409
v 0.464284 -0.247170 0.027409
v 0.202045 -0.282607 0.027409
v 0.471371 -0.310958 0.027409
v 0.166607 -0.247170 0.027409
v 0.428846 -0.282607 0.027409
v 0.471371 0.312746 0.027409
v 0.464284 -0.247170 0.027409
v 0.471371 -0.310958 0.027409
v 0.428846 -0.282607 0.027409
v 0.202045 -0.282607 0.027409
v 0.166607 0.248958 0.027409
v 0.159519 -0.310958 0.027409
v 0.166607 -0.247170 0.027409
v 0.464284 0.248958 0.027409
v 0.428846 0.284396 0.027409
v 0.202045 0.284396 0.027409
v 0.159519 0.312746 0.027409
vn 0 0 1
vn 0 0 -1
vn 0 -1 0
vn 0 1 0
vn 1 0 0
vn -1 0 0
usemtl material_0_0
f 1//1 2//1 3//1
f 2//1 1//1 4//1
f 2//1 4//1 5//1
f 5//1 4//1 6//1
f 3//1 7//1 8//1
f 7//1 3//1 2//1
f 8//1 7//1 6//1
f 8//1 6//1 4//1
f 9//2 10//2 11//2
f 10//2 12//2 11//2
f 13//2 14//2 12//2
f 11//2 12//2 14//2
f 10//2 9//2 15//2
f 15//2 9//2 13//2
f 9//2 16//2 13//2
f 14//2 13//2 16//2
f 17//3 18//3 19//3
f 18//3 17//3 20//3
f 21//4 22//4 23//4
f 24//4 23//4 22//4
f 25//5 26//5 27//5
f 26//5 25//5 28//5
f 29//6 30//6 31//6
f 32//6 31//6 30//6
f 33//4 34//4 35//4
f 34//4 33//4 36//4
f 37//3 38//3 39//3
f 40//3 39//3 38//3
f 41//6 42//6 43//6
f 42//6 41//6 44//6
f 45//5 46//5 47//5
f 48//5 47//5 46//5
f 49//2 50//2 51//2
f 50//2 49//2 52//2
f 52//2 49//2 53//2
f 52//2 53//2 54//2
f 54//2 53//2 55//2
f 55//2 53//2 56//2
f 51//2 57//2 58//2
f 57//2 51//2 59//2
f 59//2 51//2 50//2
f 58//2 57//2 60//2
f 58//2 60//2 56//2
f 58//2 56//2 53//2
f 61//1 62//1 63//1
f 62//1 64//1 63//1
f 64//1 65//1 63//1
f 66//1 67//1 68//1
f 68//1 67//1 65//1
f 63//1 65//1 67//1
f 62//1 61//1 69//1
f 69//1 61//1 70//1
f 70//1 61//1 71//1
f 61//1 72//1 71//1
f 71//1 72//1 66//1
f 67//1 66//1 72//1
