# SSTK version 0.8.0
# 32
mtllib original-32.mtl
o #ID1326
v 0.011497 -0.233469 0.140809
v 0.011072 -0.219637 0.140809
v 0.009846 -0.231117 0.140809
v 0.011973 -0.224545 0.140809
v 0.014767 -0.247291 0.140809
v 0.013232 -0.226870 0.140809
v 0.015619 -0.228009 0.140809
v 0.016839 -0.249762 0.140809
v 0.023772 -0.229079 0.140809
v 0.019760 -0.249593 0.140809
v 0.025619 -0.245097 0.140809
v 0.028603 -0.231853 0.140809
v 0.030293 -0.239006 0.140809
v 0.031027 -0.235126 0.140809
v -0.022927 -0.239239 0.140809
v -0.020626 -0.234246 0.140809
v -0.023097 -0.236318 0.140809
v -0.018432 -0.245097 0.140809
v -0.006803 -0.230976 0.140809
v -0.012340 -0.249772 0.140809
v -0.008461 -0.250505 0.140809
v -0.005188 -0.248082 0.140809
v -0.004452 -0.229324 0.140809
v -0.002414 -0.243251 0.140809
v -0.003885 -0.226507 0.140809
v -0.002659 -0.215027 0.140809
v 0.000158 -0.215593 0.140809
v -0.001344 -0.235097 0.140809
v -0.000205 -0.232711 0.140809
v 0.002120 -0.231452 0.140809
v 0.005067 -0.214692 0.140809
v 0.007029 -0.230551 0.140809
v 0.007392 -0.213433 0.140809
v 0.008530 -0.211047 0.140809
v 0.009600 -0.202893 0.140809
v 0.012374 -0.198062 0.140809
v 0.011638 -0.216820 0.140809
v 0.013990 -0.215168 0.140809
v 0.015647 -0.195639 0.140809
v 0.027812 -0.211898 0.140809
v 0.019527 -0.196372 0.140809
v 0.025619 -0.201047 0.140809
v 0.030114 -0.206905 0.140809
v 0.030284 -0.209826 0.140809
v -0.021417 -0.214291 0.140809
v -0.023106 -0.207138 0.140809
v -0.023840 -0.211018 0.140809
v -0.018432 -0.201047 0.140809
v -0.016585 -0.217065 0.140809
v -0.012574 -0.196552 0.140809
v -0.008432 -0.218135 0.140809
v -0.009653 -0.196382 0.140809
v -0.007580 -0.198853 0.140809
v -0.006046 -0.219274 0.140809
v -0.004311 -0.212676 0.140809
v -0.004787 -0.221599 0.140809
v -0.002659 -0.215027 0.140809
v -0.003885 -0.226507 0.140809
v -0.004311 -0.212676 0.140809
v -0.004787 -0.221599 0.140809
v -0.006046 -0.219274 0.140809
v -0.007580 -0.198853 0.140809
v -0.008432 -0.218135 0.140809
v -0.009653 -0.196382 0.140809
v -0.012574 -0.196552 0.140809
v -0.016585 -0.217065 0.140809
v -0.018432 -0.201047 0.140809
v -0.021417 -0.214291 0.140809
v -0.023106 -0.207138 0.140809
v -0.023840 -0.211018 0.140809
v 0.030284 -0.209826 0.140809
v 0.027812 -0.211898 0.140809
v 0.030114 -0.206905 0.140809
v 0.025619 -0.201047 0.140809
v 0.019527 -0.196372 0.140809
v 0.015647 -0.195639 0.140809
v 0.013990 -0.215168 0.140809
v 0.012374 -0.198062 0.140809
v 0.011638 -0.216820 0.140809
v 0.011072 -0.219637 0.140809
v 0.009846 -0.231117 0.140809
v 0.009600 -0.202893 0.140809
v 0.008530 -0.211047 0.140809
v 0.007392 -0.213433 0.140809
v 0.007029 -0.230551 0.140809
v 0.005067 -0.214692 0.140809
v 0.002120 -0.231452 0.140809
v 0.000158 -0.215593 0.140809
v -0.000205 -0.232711 0.140809
v -0.001344 -0.235097 0.140809
v -0.002414 -0.243251 0.140809
v -0.004452 -0.229324 0.140809
v -0.005188 -0.248082 0.140809
v -0.006803 -0.230976 0.140809
v -0.008461 -0.250505 0.140809
v -0.012340 -0.249772 0.140809
v -0.018432 -0.245097 0.140809
v -0.020626 -0.234246 0.140809
v -0.022927 -0.239239 0.140809
v -0.023097 -0.236318 0.140809
v 0.031027 -0.235126 0.140809
v 0.030293 -0.239006 0.140809
v 0.028603 -0.231853 0.140809
v 0.025619 -0.245097 0.140809
v 0.023772 -0.229079 0.140809
v 0.019760 -0.249593 0.140809
v 0.016839 -0.249762 0.140809
v 0.015619 -0.228009 0.140809
v 0.014767 -0.247291 0.140809
v 0.013232 -0.226870 0.140809
v 0.011973 -0.224545 0.140809
v 0.011497 -0.233469 0.140809
vn 0 0 1
vn 0 0 -1
usemtl material_0_0
f 1//1 2//1 3//1
f 2//1 1//1 4//1
f 4//1 1//1 5//1
f 4//1 5//1 6//1
f 6//1 5//1 7//1
f 7//1 5//1 8//1
f 7//1 8//1 9//1
f 9//1 8//1 10//1
f 9//1 10//1 11//1
f 9//1 11//1 12//1
f 12//1 11//1 13//1
f 12//1 13//1 14//1
f 15//1 16//1 17//1
f 16//1 15//1 18//1
f 16//1 18//1 19//1
f 19//1 18//1 20//1
f 19//1 20//1 21//1
f 19//1 21//1 22//1
f 19//1 22//1 23//1
f 23//1 22//1 24//1
f 23//1 24//1 25//1
f 25//1 24//1 26//1
f 26//1 24//1 27//1
f 27//1 24//1 28//1
f 27//1 28//1 29//1
f 27//1 29//1 30//1
f 27//1 30//1 31//1
f 31//1 30//1 32//1
f 31//1 32//1 33//1
f 33//1 32//1 3//1
f 33//1 3//1 34//1
f 34//1 3//1 35//1
f 35//1 3//1 36//1
f 36//1 3//1 2//1
f 36//1 2//1 37//1
f 36//1 37//1 38//1
f 36//1 38//1 39//1
f 39//1 38//1 40//1
f 39//1 40//1 41//1
f 41//1 40//1 42//1
f 42//1 40//1 43//1
f 43//1 40//1 44//1
f 45//1 46//1 47//1
f 46//1 45//1 48//1
f 48//1 45//1 49//1
f 48//1 49//1 50//1
f 50//1 49//1 51//1
f 50//1 51//1 52//1
f 52//1 51//1 53//1
f 53//1 51//1 54//1
f 53//1 54//1 55//1
f 55//1 54//1 56//1
f 55//1 56//1 25//1
f 55//1 25//1 26//1
f 57//2 58//2 59//2
f 58//2 60//2 59//2
f 60//2 61//2 59//2
f 59//2 61//2 62//2
f 61//2 63//2 62//2
f 62//2 63//2 64//2
f 64//2 63//2 65//2
f 63//2 66//2 65//2
f 65//2 66//2 67//2
f 66//2 68//2 67//2
f 67//2 68//2 69//2
f 70//2 69//2 68//2
f 71//2 72//2 73//2
f 73//2 72//2 74//2
f 74//2 72//2 75//2
f 75//2 72//2 76//2
f 72//2 77//2 76//2
f 76//2 77//2 78//2
f 77//2 79//2 78//2
f 79//2 80//2 78//2
f 80//2 81//2 78//2
f 78//2 81//2 82//2
f 82//2 81//2 83//2
f 83//2 81//2 84//2
f 81//2 85//2 84//2
f 84//2 85//2 86//2
f 85//2 87//2 86//2
f 86//2 87//2 88//2
f 87//2 89//2 88//2
f 89//2 90//2 88//2
f 90//2 91//2 88//2
f 88//2 91//2 57//2
f 57//2 91//2 58//2
f 58//2 91//2 92//2
f 91//2 93//2 92//2
f 92//2 93//2 94//2
f 93//2 95//2 94//2
f 95//2 96//2 94//2
f 96//2 97//2 94//2
f 94//2 97//2 98//2
f 97//2 99//2 98//2
f 100//2 98//2 99//2
f 101//2 102//2 103//2
f 102//2 104//2 103//2
f 103//2 104//2 105//2
f 104//2 106//2 105//2
f 106//2 107//2 105//2
f 105//2 107//2 108//2
f 107//2 109//2 108//2
f 108//2 109//2 110//2
f 110//2 109//2 111//2
f 109//2 112//2 111//2
f 111//2 112//2 80//2
f 81//2 80//2 112//2
