# SSTK version 0.8.0
# 6
mtllib original-6.mtl
o #ID35
v -0.577585 0.022157 0.027409
v -0.614743 0.022157 0.069934
v -0.614743 0.022157 0.027409
v -0.577585 0.022157 0.069934
v -0.577585 0.022157 0.069934
v -0.577585 0.022157 0.027409
v -0.614743 0.022157 0.069934
v -0.614743 0.022157 0.027409
v -0.614743 0.022157 0.027409
v -0.616567 0.026561 0.069934
v -0.616567 0.026561 0.027409
v -0.614743 0.022157 0.069934
v -0.614743 0.022157 0.069934
v -0.614743 0.022157 0.027409
v -0.616567 0.026561 0.069934
v -0.616567 0.026561 0.027409
v -0.562550 0.015929 0.027409
v -0.562550 0.015929 0.069934
v -0.562550 0.015929 0.069934
v -0.562550 0.015929 0.027409
v -0.616567 0.026561 0.069934
v -0.621505 0.038482 0.027409
v -0.616567 0.026561 0.027409
v -0.621505 0.038482 0.069934
v -0.621505 0.038482 0.069934
v -0.616567 0.026561 0.069934
v -0.621505 0.038482 0.027409
v -0.616567 0.026561 0.027409
v -0.556323 0.000894 0.069934
v -0.556323 0.000894 0.027409
v -0.556323 0.000894 0.069934
v -0.556323 0.000894 0.027409
v -0.659092 0.054051 0.069934
v -0.659092 0.054051 0.027409
v -0.659092 0.054051 0.069934
v -0.659092 0.054051 0.027409
v -0.562550 -0.014141 0.069934
v -0.562550 -0.014141 0.027409
v -0.562550 -0.014141 0.069934
v -0.562550 -0.014141 0.027409
v -0.696680 0.038482 0.069934
v -0.696680 0.038482 0.027409
v -0.696680 0.038482 0.069934
v -0.696680 0.038482 0.027409
v -0.577585 -0.020368 0.027409
v -0.577585 -0.020368 0.069934
v -0.577585 -0.020368 0.027409
v -0.577585 -0.020368 0.069934
v -0.712249 0.000894 0.027409
v -0.712249 0.000894 0.069934
v -0.712249 0.000894 0.069934
v -0.712249 0.000894 0.027409
v -0.614743 -0.020368 0.027409
v -0.614743 -0.020368 0.069934
v -0.614743 -0.020368 0.027409
v -0.614743 -0.020368 0.069934
v -0.696680 -0.036693 0.027409
v -0.696680 -0.036693 0.069934
v -0.696680 -0.036693 0.069934
v -0.696680 -0.036693 0.027409
v -0.616567 -0.024772 0.069934
v -0.614743 -0.020368 0.027409
v -0.616567 -0.024772 0.027409
v -0.614743 -0.020368 0.069934
v -0.614743 -0.020368 0.069934
v -0.616567 -0.024772 0.069934
v -0.614743 -0.020368 0.027409
v -0.616567 -0.024772 0.027409
v -0.659092 -0.052262 0.069934
v -0.659092 -0.052262 0.027409
v -0.659092 -0.052262 0.027409
v -0.659092 -0.052262 0.069934
v -0.621505 -0.036693 0.069934
v -0.616567 -0.024772 0.027409
v -0.621505 -0.036693 0.027409
v -0.616567 -0.024772 0.069934
v -0.616567 -0.024772 0.069934
v -0.621505 -0.036693 0.069934
v -0.616567 -0.024772 0.027409
v -0.621505 -0.036693 0.027409
vn -0.19509029708825956 -0.9807852853616915 0
vn 0 -1 0
vn 0.19509029708825956 0.9807852853616915 0
vn 0 1 0
vn -0.9238795391929064 -0.38268341623423285 0
vn 0.9238795391929064 0.38268341623423285 0
vn -0.7071067811865475 -0.7071067811865477 0
vn 0.7071067811865475 0.7071067811865477 0
vn -1 0 0
vn 1 0 0
vn -0.7071067811865477 0.7071067811865475 0
vn 0.7071067811865477 -0.7071067811865475 0
vn -0.19509029708826 0.9807852853616915 0
vn 0.19509029708826 -0.9807852853616915 0
vn -0.9238795391929067 0.3826834162342324 0
vn 0.9238795391929067 -0.3826834162342324 0
usemtl material_0_0
f 1//1 2//2 3//2
f 2//2 1//1 4//1
f 5//3 6//3 7//4
f 8//4 7//4 6//3
f 9//5 10//5 11//5
f 10//5 9//5 12//5
f 13//6 14//6 15//6
f 16//6 15//6 14//6
f 17//7 4//1 1//1
f 4//1 17//7 18//7
f 19//8 20//8 5//3
f 6//3 5//3 20//8
f 21//5 22//7 23//5
f 22//7 21//5 24//7
f 25//8 26//6 27//8
f 28//6 27//8 26//6
f 29//9 17//7 30//9
f 17//7 29//9 18//7
f 19//8 31//10 20//8
f 32//10 20//8 31//10
f 22//7 33//2 34//2
f 33//2 22//7 24//7
f 25//8 27//8 35//4
f 36//4 35//4 27//8
f 37//11 30//9 38//11
f 30//9 37//11 29//9
f 31//10 39//12 32//10
f 40//12 32//10 39//12
f 34//2 41//12 42//12
f 41//12 34//2 33//2
f 35//4 36//4 43//11
f 44//11 43//11 36//4
f 37//11 45//13 46//13
f 45//13 37//11 38//11
f 40//12 39//12 47//14
f 48//14 47//14 39//12
f 41//12 49//10 42//12
f 49//10 41//12 50//10
f 51//9 43//11 52//9
f 44//11 52//9 43//11
f 46//13 53//4 54//4
f 53//4 46//13 45//13
f 47//14 48//14 55//2
f 56//2 55//2 48//14
f 50//10 57//8 49//10
f 57//8 50//10 58//8
f 59//7 51//9 60//7
f 52//9 60//7 51//9
f 61//15 62//15 63//15
f 62//15 61//15 64//15
f 65//16 66//16 67//16
f 68//16 67//16 66//16
f 69//4 57//8 58//8
f 57//8 69//4 70//4
f 71//2 72//2 60//7
f 59//7 60//7 72//2
f 73//11 74//15 75//11
f 74//15 73//11 76//15
f 77//16 78//12 79//16
f 80//12 79//16 78//12
f 73//11 70//4 69//4
f 70//4 73//11 75//11
f 80//12 78//12 71//2
f 72//2 71//2 78//12
