# SSTK version 0.8.0
# 10
mtllib original-10.mtl
o #ID59
v 0.492634 0.319834 0.027409
v -0.485447 0.319834 0.069934
v -0.485447 0.319834 0.027409
v 0.492634 0.319834 0.069934
v 0.492634 0.319834 0.069934
v 0.492634 0.319834 0.027409
v -0.485447 0.319834 0.069934
v -0.485447 0.319834 0.027409
v -0.485447 0.319834 0.069934
v -0.485447 -0.318045 0.027409
v -0.485447 0.319834 0.027409
v -0.485447 -0.318045 0.069934
v -0.485447 -0.318045 0.069934
v -0.485447 0.319834 0.069934
v -0.485447 -0.318045 0.027409
v -0.485447 0.319834 0.027409
v -0.485447 0.319834 0.027409
v -0.471272 0.291484 0.027409
v 0.492634 0.319834 0.027409
v -0.485447 -0.318045 0.027409
v -0.471272 -0.289695 0.027409
v 0.478459 -0.289695 0.027409
v 0.478459 0.291484 0.027409
v 0.492634 -0.318045 0.027409
v -0.485447 -0.318045 0.027409
v 0.478459 -0.289695 0.027409
v 0.492634 -0.318045 0.027409
v 0.478459 0.291484 0.027409
v -0.471272 0.291484 0.027409
v 0.492634 0.319834 0.027409
v -0.471272 -0.289695 0.027409
v -0.485447 0.319834 0.027409
v 0.492634 -0.318045 0.069934
v 0.492634 0.319834 0.027409
v 0.492634 -0.318045 0.027409
v 0.492634 0.319834 0.069934
v 0.492634 0.319834 0.069934
v 0.492634 -0.318045 0.069934
v 0.492634 0.319834 0.027409
v 0.492634 -0.318045 0.027409
v 0.492634 -0.318045 0.069934
v -0.485447 -0.318045 0.027409
v -0.485447 -0.318045 0.069934
v 0.492634 -0.318045 0.027409
v 0.492634 -0.318045 0.027409
v 0.492634 -0.318045 0.069934
v -0.485447 -0.318045 0.027409
v -0.485447 -0.318045 0.069934
vn 0 -1 0
vn 0 1 0
vn 1 0 0
vn -1 0 0
vn 0 0 1
vn 0 0 -1
usemtl material_0_0
f 1//1 2//1 3//1
f 2//1 1//1 4//1
f 5//2 6//2 7//2
f 8//2 7//2 6//2
f 9//3 10//3 11//3
f 10//3 9//3 12//3
f 13//4 14//4 15//4
f 16//4 15//4 14//4
f 17//5 18//5 19//5
f 18//5 17//5 20//5
f 18//5 20//5 21//5
f 21//5 20//5 22//5
f 19//5 23//5 24//5
f 23//5 19//5 18//5
f 24//5 23//5 22//5
f 24//5 22//5 20//5
f 25//6 26//6 27//6
f 26//6 28//6 27//6
f 29//6 30//6 28//6
f 27//6 28//6 30//6
f 26//6 25//6 31//6
f 31//6 25//6 29//6
f 25//6 32//6 29//6
f 30//6 29//6 32//6
f 33//4 34//4 35//4
f 34//4 33//4 36//4
f 37//3 38//3 39//3
f 40//3 39//3 38//3
f 41//2 42//2 43//2
f 42//2 41//2 44//2
f 45//1 46//1 47//1
f 48//1 47//1 46//1
