# SSTK version 0.8.0
# 40
mtllib original-40.mtl
o #ID1370
v -0.152333 -0.310958 0.041584
v -0.464185 -0.310958 0.027409
v -0.152333 -0.310958 0.027409
v -0.464185 -0.310958 0.041584
v -0.464185 -0.310958 0.041584
v -0.152333 -0.310958 0.041584
v -0.464185 -0.310958 0.027409
v -0.152333 -0.310958 0.027409
v -0.464185 -0.310958 0.041584
v -0.450010 -0.282607 0.041584
v -0.464185 0.312746 0.041584
v -0.152333 -0.310958 0.041584
v -0.166508 -0.282607 0.041584
v -0.166508 0.284396 0.041584
v -0.450010 0.284396 0.041584
v -0.152333 0.312746 0.041584
v -0.152333 -0.310958 0.041584
v -0.166508 0.284396 0.041584
v -0.152333 0.312746 0.041584
v -0.450010 0.284396 0.041584
v -0.450010 -0.282607 0.041584
v -0.464185 0.312746 0.041584
v -0.166508 -0.282607 0.041584
v -0.464185 -0.310958 0.041584
v -0.464185 0.312746 0.041584
v -0.464185 -0.310958 0.027409
v -0.464185 -0.310958 0.041584
v -0.464185 0.312746 0.027409
v -0.464185 0.312746 0.027409
v -0.464185 0.312746 0.041584
v -0.464185 -0.310958 0.027409
v -0.464185 -0.310958 0.041584
v -0.464185 0.312746 0.027409
v -0.457097 0.248958 0.027409
v -0.464185 -0.310958 0.027409
v -0.421659 0.284396 0.027409
v -0.152333 0.312746 0.027409
v -0.194858 0.284396 0.027409
v -0.159420 0.248958 0.027409
v -0.159420 -0.247170 0.027409
v -0.421659 -0.282607 0.027409
v -0.152333 -0.310958 0.027409
v -0.457097 -0.247170 0.027409
v -0.194858 -0.282607 0.027409
v -0.152333 0.312746 0.027409
v -0.159420 -0.247170 0.027409
v -0.152333 -0.310958 0.027409
v -0.194858 -0.282607 0.027409
v -0.421659 -0.282607 0.027409
v -0.457097 0.248958 0.027409
v -0.464185 -0.310958 0.027409
v -0.457097 -0.247170 0.027409
v -0.159420 0.248958 0.027409
v -0.194858 0.284396 0.027409
v -0.421659 0.284396 0.027409
v -0.464185 0.312746 0.027409
v -0.152333 0.312746 0.027409
v -0.152333 -0.310958 0.041584
v -0.152333 -0.310958 0.027409
v -0.152333 0.312746 0.041584
v -0.152333 0.312746 0.041584
v -0.152333 0.312746 0.027409
v -0.152333 -0.310958 0.041584
v -0.152333 -0.310958 0.027409
v -0.464185 0.312746 0.041584
v -0.152333 0.312746 0.027409
v -0.464185 0.312746 0.027409
v -0.152333 0.312746 0.041584
v -0.152333 0.312746 0.041584
v -0.464185 0.312746 0.041584
v -0.152333 0.312746 0.027409
v -0.464185 0.312746 0.027409
vn 0 -1 0
vn 0 1 0
vn 0 0 1
vn 0 0 -1
vn -1 0 0
vn 1 0 0
usemtl material_0_0
f 1//1 2//1 3//1
f 2//1 1//1 4//1
f 5//2 6//2 7//2
f 8//2 7//2 6//2
f 9//3 10//3 11//3
f 10//3 9//3 12//3
f 10//3 12//3 13//3
f 13//3 12//3 14//3
f 11//3 15//3 16//3
f 15//3 11//3 10//3
f 16//3 15//3 14//3
f 16//3 14//3 12//3
f 17//4 18//4 19//4
f 18//4 20//4 19//4
f 21//4 22//4 20//4
f 19//4 20//4 22//4
f 18//4 17//4 23//4
f 23//4 17//4 21//4
f 17//4 24//4 21//4
f 22//4 21//4 24//4
f 25//5 26//5 27//5
f 26//5 25//5 28//5
f 29//6 30//6 31//6
f 32//6 31//6 30//6
f 33//4 34//4 35//4
f 34//4 33//4 36//4
f 36//4 33//4 37//4
f 36//4 37//4 38//4
f 38//4 37//4 39//4
f 39//4 37//4 40//4
f 35//4 41//4 42//4
f 41//4 35//4 43//4
f 43//4 35//4 34//4
f 42//4 41//4 44//4
f 42//4 44//4 40//4
f 42//4 40//4 37//4
f 45//3 46//3 47//3
f 46//3 48//3 47//3
f 48//3 49//3 47//3
f 50//3 51//3 52//3
f 52//3 51//3 49//3
f 47//3 49//3 51//3
f 46//3 45//3 53//3
f 53//3 45//3 54//3
f 54//3 45//3 55//3
f 45//3 56//3 55//3
f 55//3 56//3 50//3
f 51//3 50//3 56//3
f 57//6 58//6 59//6
f 58//6 57//6 60//6
f 61//5 62//5 63//5
f 64//5 63//5 62//5
f 65//2 66//2 67//2
f 66//2 65//2 68//2
f 69//1 70//1 71//1
f 72//1 71//1 70//1
