# SSTK version 0.8.0
# 35
mtllib original-35.mtl
o #ID1340
v -0.452845 -0.293996 0.171674
v -0.163673 -0.299701 0.090419
v -0.452845 -0.299701 0.090419
v -0.163673 -0.293996 0.171674
v -0.163673 -0.293996 0.171674
v -0.452845 -0.293996 0.171674
v -0.163673 -0.299701 0.090419
v -0.452845 -0.299701 0.090419
v -0.163673 -0.293996 0.171674
v -0.163673 -0.003848 0.048671
v -0.163673 -0.299701 0.090419
v -0.163673 0.300640 0.129927
v -0.163673 0.294935 0.048671
v -0.163673 0.294935 0.048671
v -0.163673 0.300640 0.129927
v -0.163673 -0.003848 0.048671
v -0.163673 -0.293996 0.171674
v -0.163673 -0.299701 0.090419
v -0.152333 -0.003848 0.048671
v -0.163673 -0.299701 0.090419
v -0.163673 -0.003848 0.048671
v -0.452845 -0.003848 0.048671
v -0.464185 -0.310958 0.092007
v -0.464185 -0.003848 0.048671
v -0.452845 -0.299701 0.090419
v -0.152333 -0.310958 0.092007
v -0.152333 -0.003848 0.048671
v -0.163673 -0.299701 0.090419
v -0.152333 -0.310958 0.092007
v -0.452845 -0.299701 0.090419
v -0.464185 -0.310958 0.092007
v -0.452845 -0.003848 0.048671
v -0.464185 -0.003848 0.048671
v -0.163673 -0.003848 0.048671
v -0.452845 -0.003848 0.048671
v -0.452845 -0.293996 0.171674
v -0.452845 -0.299701 0.090419
v -0.452845 0.300640 0.129927
v -0.452845 0.294935 0.048671
v -0.452845 0.294935 0.048671
v -0.452845 -0.003848 0.048671
v -0.452845 0.300640 0.129927
v -0.452845 -0.293996 0.171674
v -0.452845 -0.299701 0.090419
v -0.163673 0.300640 0.129927
v -0.452845 -0.293996 0.171674
v -0.452845 0.300640 0.129927
v -0.163673 -0.293996 0.171674
v -0.163673 -0.293996 0.171674
v -0.163673 0.300640 0.129927
v -0.452845 -0.293996 0.171674
v -0.452845 0.300640 0.129927
v -0.163673 0.294935 0.048671
v -0.452845 0.300640 0.129927
v -0.452845 0.294935 0.048671
v -0.163673 0.300640 0.129927
v -0.163673 0.300640 0.129927
v -0.163673 0.294935 0.048671
v -0.452845 0.300640 0.129927
v -0.452845 0.294935 0.048671
v -0.464185 0.306303 0.048671
v -0.452845 0.294935 0.048671
v -0.464185 -0.003848 0.048671
v -0.152333 0.306303 0.048671
v -0.163673 0.294935 0.048671
v -0.163673 -0.003848 0.048671
v -0.152333 -0.003848 0.048671
v -0.452845 -0.003848 0.048671
v -0.452845 0.294935 0.048671
v -0.464185 -0.003848 0.048671
v -0.452845 -0.003848 0.048671
v -0.152333 -0.003848 0.048671
v -0.152333 0.306303 0.048671
v -0.163673 -0.003848 0.048671
v -0.163673 0.294935 0.048671
v -0.464185 0.306303 0.048671
v -0.152333 -0.003848 0.048671
v -0.152333 -0.304514 0.183781
v -0.152333 -0.310958 0.092007
v -0.152333 0.312746 0.140445
v -0.152333 0.306303 0.048671
v -0.152333 0.306303 0.048671
v -0.152333 -0.003848 0.048671
v -0.152333 0.312746 0.140445
v -0.152333 -0.304514 0.183781
v -0.152333 -0.310958 0.092007
v -0.152333 -0.304514 0.183781
v -0.464185 -0.310958 0.092007
v -0.152333 -0.310958 0.092007
v -0.464185 -0.304514 0.183781
v -0.464185 -0.304514 0.183781
v -0.152333 -0.304514 0.183781
v -0.464185 -0.310958 0.092007
v -0.152333 -0.310958 0.092007
v -0.464185 -0.304514 0.183781
v -0.464185 -0.003848 0.048671
v -0.464185 -0.310958 0.092007
v -0.464185 0.312746 0.140445
v -0.464185 0.306303 0.048671
v -0.464185 0.306303 0.048671
v -0.464185 0.312746 0.140445
v -0.464185 -0.003848 0.048671
v -0.464185 -0.304514 0.183781
v -0.464185 -0.310958 0.092007
v -0.464185 0.312746 0.140445
v -0.152333 0.306303 0.048671
v -0.464185 0.306303 0.048671
v -0.152333 0.312746 0.140445
v -0.152333 0.312746 0.140445
v -0.464185 0.312746 0.140445
v -0.152333 0.306303 0.048671
v -0.464185 0.306303 0.048671
v -0.295040 -0.217687 0.177685
v -0.281426 -0.209720 0.177125
v -0.295879 -0.213131 0.177365
v -0.286039 -0.218865 0.177768
v -0.279707 -0.222492 0.178022
v -0.276546 -0.205638 0.176839
v -0.275648 -0.227960 0.178406
v -0.464185 -0.304514 0.183781
v -0.363542 -0.151853 0.173063
v -0.464185 0.312746 0.140445
v -0.338295 -0.234645 0.178875
v -0.332664 -0.241967 0.179389
v -0.325324 -0.247585 0.179784
v -0.152333 -0.304514 0.183781
v -0.359289 -0.156094 0.173360
v -0.338665 -0.228302 0.178430
v -0.339563 -0.205980 0.176863
v -0.318623 -0.248849 0.179873
v -0.313141 -0.244800 0.179588
v -0.296245 -0.247953 0.179810
v -0.309506 -0.238483 0.179145
v -0.300338 -0.243085 0.179468
v -0.308324 -0.229504 0.178514
v -0.303757 -0.228668 0.178456
v -0.289887 -0.247585 0.179784
v -0.282547 -0.241967 0.179389
v -0.276915 -0.234645 0.178875
v -0.257228 -0.156094 0.173360
v -0.252976 -0.151853 0.173063
v -0.152333 0.312746 0.140445
v -0.359289 -0.147612 0.172765
v -0.257228 -0.147612 0.172765
v -0.325324 -0.186355 0.175485
v -0.332664 -0.191973 0.175879
v -0.338295 -0.199295 0.176393
v -0.318966 -0.185987 0.175459
v -0.314873 -0.190855 0.175801
v -0.296588 -0.185091 0.175396
v -0.302069 -0.189140 0.175681
v -0.311454 -0.205272 0.176813
v -0.305705 -0.195456 0.176124
v -0.306887 -0.204436 0.176754
v -0.289887 -0.186355 0.175485
v -0.282547 -0.191973 0.175879
v -0.276915 -0.199295 0.176393
v -0.335504 -0.211447 0.177247
v -0.333784 -0.224220 0.178143
v -0.329172 -0.215074 0.177501
v -0.319332 -0.220809 0.177904
v -0.320170 -0.216253 0.177584
v -0.320170 -0.216253 0.177584
v -0.319332 -0.220809 0.177904
v -0.329172 -0.215074 0.177501
v -0.333784 -0.224220 0.178143
v -0.335504 -0.211447 0.177247
v -0.338665 -0.228302 0.178430
v -0.339563 -0.205980 0.176863
v -0.275648 -0.227960 0.178406
v -0.276546 -0.205638 0.176839
v -0.257228 -0.156094 0.173360
v -0.276915 -0.199295 0.176393
v -0.282547 -0.191973 0.175879
v -0.289887 -0.186355 0.175485
v -0.296588 -0.185091 0.175396
v -0.306887 -0.204436 0.176754
v -0.311454 -0.205272 0.176813
v -0.305705 -0.195456 0.176124
v -0.302069 -0.189140 0.175681
v -0.314873 -0.190855 0.175801
v -0.318966 -0.185987 0.175459
v -0.325324 -0.186355 0.175485
v -0.359289 -0.156094 0.173360
v -0.338295 -0.199295 0.176393
v -0.332664 -0.191973 0.175879
v -0.152333 -0.304514 0.183781
v -0.252976 -0.151853 0.173063
v -0.152333 0.312746 0.140445
v -0.257228 -0.147612 0.172765
v -0.359289 -0.147612 0.172765
v -0.363542 -0.151853 0.173063
v -0.464185 0.312746 0.140445
v -0.276915 -0.234645 0.178875
v -0.282547 -0.241967 0.179389
v -0.289887 -0.247585 0.179784
v -0.296245 -0.247953 0.179810
v -0.303757 -0.228668 0.178456
v -0.300338 -0.243085 0.179468
v -0.308324 -0.229504 0.178514
v -0.309506 -0.238483 0.179145
v -0.313141 -0.244800 0.179588
v -0.318623 -0.248849 0.179873
v -0.325324 -0.247585 0.179784
v -0.338295 -0.234645 0.178875
v -0.464185 -0.304514 0.183781
v -0.332664 -0.241967 0.179389
v -0.279707 -0.222492 0.178022
v -0.281426 -0.209720 0.177125
v -0.286039 -0.218865 0.177768
v -0.295040 -0.217687 0.177685
v -0.295879 -0.213131 0.177365
vn 0 0.9975445539157703 -0.07003472676455913
vn 0 -0.9975445539157703 0.07003472676455913
vn -1 0 0
vn 1 0 0
vn 0 -0.13972549681675003 -0.990190277441317
vn 0 0.13972549681675003 0.990190277441317
vn 0 -0.07003472676455913 -0.9975445539157703
vn 0 0.07003472676455913 0.9975445539157703
vn 0 0 -1
vn 0 0 1
usemtl material_0_0
f 1//1 2//1 3//1
f 2//1 1//1 4//1
f 5//2 6//2 7//2
f 8//2 7//2 6//2
f 9//3 10//3 11//3
f 10//3 9//3 12//3
f 10//3 12//3 13//3
f 14//4 15//4 16//4
f 15//4 17//4 16//4
f 18//4 16//4 17//4
f 19//5 20//5 21//5
f 22//5 23//5 24//5
f 23//5 22//5 25//5
f 23//5 25//5 26//5
f 26//5 25//5 20//5
f 26//5 20//5 19//5
f 27//6 28//6 29//6
f 28//6 30//6 29//6
f 29//6 30//6 31//6
f 30//6 32//6 31//6
f 33//6 31//6 32//6
f 34//6 28//6 27//6
f 35//4 36//4 37//4
f 36//4 35//4 38//4
f 38//4 35//4 39//4
f 40//3 41//3 42//3
f 42//3 41//3 43//3
f 44//3 43//3 41//3
f 45//7 46//7 47//7
f 46//7 45//7 48//7
f 49//8 50//8 51//8
f 52//8 51//8 50//8
f 53//2 54//2 55//2
f 54//2 53//2 56//2
f 57//1 58//1 59//1
f 60//1 59//1 58//1
f 61//9 62//9 63//9
f 62//9 61//9 64//9
f 62//9 64//9 65//9
f 65//9 64//9 66//9
f 66//9 64//9 67//9
f 68//9 63//9 62//9
f 69//10 70//10 71//10
f 72//10 73//10 74//10
f 74//10 73//10 75//10
f 75//10 73//10 69//10
f 73//10 76//10 69//10
f 70//10 69//10 76//10
f 77//4 78//4 79//4
f 78//4 77//4 80//4
f 80//4 77//4 81//4
f 82//3 83//3 84//3
f 84//3 83//3 85//3
f 86//3 85//3 83//3
f 87//2 88//2 89//2
f 88//2 87//2 90//2
f 91//1 92//1 93//1
f 94//1 93//1 92//1
f 95//3 96//3 97//3
f 96//3 95//3 98//3
f 96//3 98//3 99//3
f 100//4 101//4 102//4
f 101//4 103//4 102//4
f 104//4 102//4 103//4
f 105//1 106//1 107//1
f 106//1 105//1 108//1
f 109//2 110//2 111//2
f 112//2 111//2 110//2
f 113//8 114//8 115//8
f 114//8 113//8 116//8
f 114//8 116//8 117//8
f 114//8 117//8 118//8
f 118//8 117//8 119//8
f 120//8 121//8 122//8
f 121//8 120//8 123//8
f 123//8 120//8 124//8
f 124//8 120//8 125//8
f 125//8 120//8 126//8
f 121//8 123//8 127//8
f 127//8 123//8 128//8
f 127//8 128//8 129//8
f 125//8 126//8 130//8
f 130//8 126//8 131//8
f 131//8 126//8 132//8
f 131//8 132//8 133//8
f 133//8 132//8 134//8
f 133//8 134//8 135//8
f 135//8 134//8 136//8
f 132//8 126//8 137//8
f 137//8 126//8 138//8
f 138//8 126//8 139//8
f 139//8 126//8 119//8
f 119//8 126//8 140//8
f 140//8 126//8 141//8
f 121//8 142//8 122//8
f 142//8 121//8 143//8
f 142//8 143//8 144//8
f 142//8 144//8 141//8
f 142//8 141//8 126//8
f 127//8 145//8 140//8
f 145//8 127//8 146//8
f 146//8 127//8 147//8
f 147//8 127//8 129//8
f 140//8 145//8 148//8
f 140//8 148//8 149//8
f 140//8 149//8 150//8
f 150//8 149//8 151//8
f 151//8 149//8 152//8
f 151//8 152//8 153//8
f 153//8 152//8 154//8
f 140//8 150//8 155//8
f 140//8 155//8 156//8
f 140//8 156//8 157//8
f 140//8 157//8 118//8
f 140//8 118//8 119//8
f 128//8 158//8 129//8
f 158//8 128//8 159//8
f 158//8 159//8 160//8
f 160//8 159//8 161//8
f 160//8 161//8 162//8
f 163//7 164//7 165//7
f 164//7 166//7 165//7
f 165//7 166//7 167//7
f 166//7 168//7 167//7
f 169//7 167//7 168//7
f 170//7 171//7 172//7
f 171//7 173//7 172//7
f 173//7 174//7 172//7
f 174//7 175//7 172//7
f 175//7 176//7 172//7
f 177//7 178//7 179//7
f 179//7 178//7 180//7
f 178//7 181//7 180//7
f 180//7 181//7 176//7
f 176//7 181//7 172//7
f 181//7 182//7 172//7
f 182//7 183//7 172//7
f 169//7 184//7 185//7
f 185//7 184//7 186//7
f 186//7 184//7 183//7
f 172//7 183//7 184//7
f 187//7 188//7 189//7
f 188//7 190//7 189//7
f 190//7 191//7 189//7
f 191//7 192//7 189//7
f 193//7 189//7 192//7
f 188//7 187//7 172//7
f 172//7 187//7 170//7
f 170//7 187//7 194//7
f 194//7 187//7 195//7
f 195//7 187//7 196//7
f 196//7 187//7 197//7
f 198//7 199//7 200//7
f 200//7 199//7 201//7
f 199//7 197//7 201//7
f 201//7 197//7 202//7
f 197//7 187//7 202//7
f 202//7 187//7 203//7
f 203//7 187//7 204//7
f 169//7 168//7 184//7
f 168//7 205//7 184//7
f 184//7 205//7 192//7
f 187//7 206//7 204//7
f 204//7 206//7 207//7
f 207//7 206//7 205//7
f 205//7 206//7 192//7
f 193//7 192//7 206//7
f 170//7 208//7 171//7
f 171//7 208//7 209//7
f 208//7 210//7 209//7
f 210//7 211//7 209//7
f 212//7 209//7 211//7
