# SSTK version 0.8.0
# 27
mtllib original-27.mtl
o #ID1300
v 0.287380 -0.261687 0.180774
v 0.295864 -0.249224 0.179899
v 0.285912 -0.259151 0.180596
v 0.289922 -0.263151 0.180877
v 0.299873 -0.253224 0.180180
v 0.298406 -0.250688 0.180002
v 0.298406 -0.250688 0.180002
v 0.299873 -0.253224 0.180180
v 0.295864 -0.249224 0.179899
v 0.289922 -0.263151 0.180877
v 0.287380 -0.261687 0.180774
v 0.285912 -0.259151 0.180596
vn 0 0.07003472676455913 0.9975445539157703
vn 0 -0.07003472676455913 -0.9975445539157703
usemtl material_0_0
f 7//2 8//2 9//2
f 8//2 10//2 9//2
f 10//2 11//2 9//2
f 12//2 9//2 11//2
usemtl material_1_0
f 1//1 2//1 3//1
f 2//1 1//1 4//1
f 2//1 4//1 5//1
f 2//1 5//1 6//1
