# SSTK version 0.8.0
# 26
mtllib original-26.mtl
o #ID1294
v 0.312610 -0.272525 0.181535
v 0.315445 -0.257729 0.180496
v 0.312610 -0.258487 0.180549
v 0.315445 -0.273283 0.181588
v 0.318280 -0.258487 0.180549
v 0.318280 -0.272525 0.181535
v 0.318280 -0.272525 0.181535
v 0.315445 -0.273283 0.181588
v 0.318280 -0.258487 0.180549
v 0.315445 -0.257729 0.180496
v 0.312610 -0.272525 0.181535
v 0.312610 -0.258487 0.180549
vn 0 0.07003472676455913 0.9975445539157703
vn 0 -0.07003472676455913 -0.9975445539157703
usemtl material_0_0
f 7//2 8//2 9//2
f 9//2 8//2 10//2
f 8//2 11//2 10//2
f 12//2 10//2 11//2
usemtl material_1_0
f 1//1 2//1 3//1
f 2//1 1//1 4//1
f 2//1 4//1 5//1
f 5//1 4//1 6//1
