# SSTK version 0.8.0
# 3
mtllib original-3.mtl
o #ID13
v -0.820389 0.511249 0.069934
v -0.820389 -0.509461 0.027409
v -0.820389 0.511249 0.027409
v -0.820389 -0.509461 0.069934
v -0.820389 -0.509461 0.069934
v -0.820389 0.511249 0.069934
v -0.820389 -0.509461 0.027409
v -0.820389 0.511249 0.027409
v -0.813796 0.535855 0.069934
v -0.813796 0.535855 0.027409
v -0.813796 0.535855 0.069934
v -0.813796 0.535855 0.027409
v 0.804337 0.552501 0.069934
v -0.772545 0.559094 0.069934
v 0.779731 0.559094 0.069934
v -0.797150 0.552501 0.069934
v 0.820983 0.535855 0.069934
v -0.813796 0.535855 0.069934
v 0.827576 0.511249 0.069934
v -0.820389 0.511249 0.069934
v 0.471371 0.312746 0.069934
v 0.827576 -0.509461 0.069934
v -0.464185 0.312746 0.069934
v 0.471371 -0.310958 0.069934
v -0.464185 -0.310958 0.069934
v -0.820389 -0.509461 0.069934
v 0.820983 -0.534066 0.069934
v -0.813796 -0.534066 0.069934
v 0.804337 -0.550712 0.069934
v -0.797150 -0.550712 0.069934
v 0.779731 -0.557305 0.069934
v -0.772545 -0.557305 0.069934
v -0.772545 -0.557305 0.069934
v 0.779731 -0.557305 0.069934
v -0.797150 -0.550712 0.069934
v 0.804337 -0.550712 0.069934
v -0.813796 -0.534066 0.069934
v 0.820983 -0.534066 0.069934
v -0.820389 -0.509461 0.069934
v 0.827576 -0.509461 0.069934
v -0.464185 -0.310958 0.069934
v -0.464185 0.312746 0.069934
v -0.820389 0.511249 0.069934
v 0.471371 -0.310958 0.069934
v 0.471371 0.312746 0.069934
v 0.827576 0.511249 0.069934
v -0.813796 0.535855 0.069934
v 0.820983 0.535855 0.069934
v -0.797150 0.552501 0.069934
v 0.804337 0.552501 0.069934
v -0.772545 0.559094 0.069934
v 0.779731 0.559094 0.069934
v -0.813796 -0.534066 0.027409
v -0.813796 -0.534066 0.069934
v -0.813796 -0.534066 0.069934
v -0.813796 -0.534066 0.027409
v -0.797150 0.552501 0.027409
v -0.797150 0.552501 0.069934
v -0.797150 0.552501 0.069934
v -0.797150 0.552501 0.027409
v -0.772545 0.559094 0.027409
v -0.772545 0.559094 0.069934
v -0.772545 0.559094 0.069934
v -0.772545 0.559094 0.027409
v 0.779731 0.559094 0.027409
v 0.779731 0.559094 0.069934
v 0.779731 0.559094 0.069934
v 0.779731 0.559094 0.027409
v 0.804337 0.552501 0.027409
v 0.804337 0.552501 0.069934
v 0.804337 0.552501 0.069934
v 0.804337 0.552501 0.027409
v 0.820983 0.535855 0.027409
v 0.820983 0.535855 0.069934
v 0.820983 0.535855 0.069934
v 0.820983 0.535855 0.027409
v 0.827576 0.511249 0.027409
v 0.827576 0.511249 0.069934
v 0.827576 0.511249 0.069934
v 0.827576 0.511249 0.027409
v 0.827576 -0.509461 0.027409
v 0.827576 -0.509461 0.069934
v 0.827576 -0.509461 0.069934
v 0.827576 -0.509461 0.027409
v 0.820983 -0.534066 0.027409
v 0.820983 -0.534066 0.069934
v 0.820983 -0.534066 0.069934
v 0.820983 -0.534066 0.027409
v 0.804337 -0.550712 0.027409
v 0.804337 -0.550712 0.069934
v 0.804337 -0.550712 0.069934
v 0.804337 -0.550712 0.027409
v 0.779731 -0.557305 0.027409
v 0.779731 -0.557305 0.069934
v 0.779731 -0.557305 0.027409
v 0.779731 -0.557305 0.069934
v -0.772545 -0.557305 0.027409
v -0.772545 -0.557305 0.069934
v -0.772545 -0.557305 0.027409
v -0.772545 -0.557305 0.069934
v -0.797150 -0.550712 0.027409
v -0.797150 -0.550712 0.069934
v -0.797150 -0.550712 0.027409
v -0.797150 -0.550712 0.069934
vn 0.9914448610250887 -0.13052619486885528 0
vn 0.9914448610250887 0.13052619486885572 0
vn -0.9914448610250887 -0.13052619486885572 0
vn -0.9914448610250887 0.13052619486885528 0
vn 0.8660254028383291 -0.5000000016387098 0
vn -0.8660254028383291 0.5000000016387098 0
vn 0 0 -1
vn 0 0 1
vn 0.8660254028383289 0.5000000016387103 0
vn -0.8660254028383289 -0.5000000016387103 0
vn 0.5000000016387103 -0.8660254028383289 0
vn -0.5000000016387103 0.8660254028383289 0
vn 0.13052619486885572 -0.9914448610250887 0
vn -0.13052619486885572 0.9914448610250887 0
vn -0.13052619486885528 -0.9914448610250887 0
vn 0.13052619486885528 0.9914448610250887 0
vn -0.5000000016387098 -0.8660254028383291 0
vn 0.5000000016387098 0.8660254028383291 0
usemtl material_0_0
f 1//1 2//2 3//1
f 2//2 1//1 4//2
f 5//3 6//4 7//3
f 8//4 7//3 6//4
f 9//5 3//1 10//5
f 3//1 9//5 1//1
f 6//4 11//6 8//4
f 12//6 8//4 11//6
f 13//7 14//7 15//7
f 14//7 13//7 16//7
f 16//7 13//7 17//7
f 16//7 17//7 18//7
f 18//7 17//7 19//7
f 18//7 19//7 20//7
f 20//7 19//7 21//7
f 21//7 19//7 22//7
f 20//7 21//7 23//7
f 21//7 22//7 24//7
f 24//7 22//7 25//7
f 23//7 26//7 20//7
f 26//7 23//7 25//7
f 26//7 25//7 22//7
f 26//7 22//7 27//7
f 26//7 27//7 28//7
f 28//7 27//7 29//7
f 28//7 29//7 30//7
f 30//7 29//7 31//7
f 30//7 31//7 32//7
f 33//8 34//8 35//8
f 34//8 36//8 35//8
f 35//8 36//8 37//8
f 36//8 38//8 37//8
f 37//8 38//8 39//8
f 38//8 40//8 39//8
f 40//8 41//8 39//8
f 41//8 42//8 39//8
f 43//8 39//8 42//8
f 41//8 40//8 44//8
f 44//8 40//8 45//8
f 42//8 45//8 43//8
f 40//8 46//8 45//8
f 45//8 46//8 43//8
f 43//8 46//8 47//8
f 46//8 48//8 47//8
f 47//8 48//8 49//8
f 48//8 50//8 49//8
f 49//8 50//8 51//8
f 52//8 51//8 50//8
f 4//2 53//9 2//2
f 53//9 4//2 54//9
f 55//10 5//3 56//10
f 7//3 56//10 5//3
f 57//11 9//5 10//5
f 9//5 57//11 58//11
f 59//12 60//12 11//6
f 12//6 11//6 60//12
f 61//13 58//11 57//11
f 58//11 61//13 62//13
f 63//14 64//14 59//12
f 60//12 59//12 64//14
f 65//15 62//13 61//13
f 62//13 65//15 66//15
f 67//16 68//16 63//14
f 64//14 63//14 68//16
f 69//17 66//15 65//15
f 66//15 69//17 70//17
f 71//18 72//18 67//16
f 68//16 67//16 72//18
f 73//10 70//17 69//17
f 70//17 73//10 74//10
f 75//9 76//9 71//18
f 72//18 71//18 76//9
f 77//3 74//10 73//10
f 74//10 77//3 78//3
f 79//2 80//2 75//9
f 76//9 75//9 80//2
f 81//4 78//3 77//3
f 78//3 81//4 82//4
f 83//1 84//1 79//2
f 80//2 79//2 84//1
f 85//6 82//4 81//4
f 82//4 85//6 86//6
f 87//5 88//5 83//1
f 84//1 83//1 88//5
f 89//12 86//6 85//6
f 86//6 89//12 90//12
f 91//11 92//11 87//5
f 88//5 87//5 92//11
f 90//12 93//14 94//14
f 93//14 90//12 89//12
f 92//11 91//11 95//13
f 96//13 95//13 91//11
f 94//14 97//16 98//16
f 97//16 94//14 93//14
f 95//13 96//13 99//15
f 100//15 99//15 96//13
f 98//16 101//18 102//18
f 101//18 98//16 97//16
f 99//15 100//15 103//17
f 104//17 103//17 100//15
f 102//18 53//9 54//9
f 53//9 102//18 101//18
f 103//17 104//17 56//10
f 55//10 56//10 104//17
