# SSTK version 0.8.0
# 28
mtllib original-28.mtl
o #ID1306
v 0.295864 -0.218157 0.177718
v 0.287380 -0.205694 0.176843
v 0.285912 -0.208230 0.177021
v 0.289922 -0.204230 0.176740
v 0.299873 -0.214157 0.177437
v 0.298406 -0.216693 0.177615
v 0.298406 -0.216693 0.177615
v 0.295864 -0.218157 0.177718
v 0.299873 -0.214157 0.177437
v 0.289922 -0.204230 0.176740
v 0.287380 -0.205694 0.176843
v 0.285912 -0.208230 0.177021
vn 0 0.07003472676455913 0.9975445539157703
vn 0 -0.07003472676455913 -0.9975445539157703
usemtl material_0_0
f 7//2 8//2 9//2
f 9//2 8//2 10//2
f 10//2 8//2 11//2
f 12//2 11//2 8//2
usemtl material_1_0
f 1//1 2//1 3//1
f 2//1 1//1 4//1
f 4//1 1//1 5//1
f 5//1 1//1 6//1
