# SSTK version 0.8.0
# 31
mtllib original-31.mtl
o #ID1320
v -0.152333 0.220608 0.027409
v -0.081457 0.281359 -0.326969
v -0.152333 0.210483 -0.326969
v -0.081457 0.291484 0.027409
v -0.081457 0.291484 0.027409
v -0.152333 0.220608 0.027409
v -0.081457 0.281359 -0.326969
v -0.152333 0.210483 -0.326969
v -0.081457 0.291484 0.027409
v 0.088644 0.281359 -0.326969
v -0.081457 0.281359 -0.326969
v 0.088644 0.291484 0.027409
v 0.088644 0.291484 0.027409
v -0.081457 0.291484 0.027409
v 0.088644 0.281359 -0.326969
v -0.081457 0.281359 -0.326969
v -0.081457 0.281359 -0.326969
v -0.152333 -0.069981 -0.326969
v -0.152333 0.210483 -0.326969
v -0.081457 0.000894 -0.326969
v 0.088644 0.281359 -0.326969
v 0.088644 0.000894 -0.326969
v 0.159519 0.210483 -0.326969
v 0.159519 -0.069981 -0.326969
v 0.159519 -0.069981 -0.326969
v 0.159519 0.210483 -0.326969
v 0.088644 0.000894 -0.326969
v 0.088644 0.281359 -0.326969
v -0.081457 0.000894 -0.326969
v -0.081457 0.281359 -0.326969
v -0.152333 -0.069981 -0.326969
v -0.152333 0.210483 -0.326969
v -0.152333 0.220608 0.027409
v -0.152333 -0.204644 -0.468720
v -0.152333 -0.218820 0.027409
v -0.152333 -0.069981 -0.326969
v -0.152333 0.210483 -0.326969
v -0.152333 -0.069981 -0.468720
v -0.152333 -0.069981 -0.326969
v -0.152333 -0.204644 -0.468720
v -0.152333 -0.069981 -0.468720
v -0.152333 0.210483 -0.326969
v -0.152333 0.220608 0.027409
v -0.152333 -0.218820 0.027409
v -0.152333 0.312746 0.027409
v -0.081457 0.291484 0.027409
v -0.152333 0.220608 0.027409
v 0.159519 0.312746 0.027409
v 0.088644 0.291484 0.027409
v 0.159519 0.220608 0.027409
v 0.159519 0.220608 0.027409
v 0.159519 0.312746 0.027409
v 0.088644 0.291484 0.027409
v -0.081457 0.291484 0.027409
v -0.152333 0.312746 0.027409
v -0.152333 0.220608 0.027409
v 0.088644 0.291484 0.027409
v 0.159519 0.210483 -0.326969
v 0.088644 0.281359 -0.326969
v 0.159519 0.220608 0.027409
v 0.159519 0.220608 0.027409
v 0.088644 0.291484 0.027409
v 0.159519 0.210483 -0.326969
v 0.088644 0.281359 -0.326969
v 0.088644 0.000894 -0.397844
v 0.159519 -0.069981 -0.326969
v 0.159519 -0.069981 -0.468720
v 0.088644 0.000894 -0.326969
v 0.088644 0.000894 -0.326969
v 0.088644 0.000894 -0.397844
v 0.159519 -0.069981 -0.326969
v 0.159519 -0.069981 -0.468720
v -0.081457 0.000894 -0.326969
v 0.088644 0.000894 -0.397844
v -0.081457 0.000894 -0.397844
v 0.088644 0.000894 -0.326969
v 0.088644 0.000894 -0.326969
v -0.081457 0.000894 -0.326969
v 0.088644 0.000894 -0.397844
v -0.081457 0.000894 -0.397844
v -0.081457 0.000894 -0.326969
v -0.152333 -0.069981 -0.468720
v -0.152333 -0.069981 -0.326969
v -0.081457 0.000894 -0.397844
v -0.081457 0.000894 -0.397844
v -0.081457 0.000894 -0.326969
v -0.152333 -0.069981 -0.468720
v -0.152333 -0.069981 -0.326969
v 0.159519 -0.204644 -0.468720
v 0.159519 0.220608 0.027409
v 0.159519 -0.218820 0.027409
v 0.159519 -0.069981 -0.326969
v 0.159519 -0.069981 -0.468720
v 0.159519 0.210483 -0.326969
v 0.159519 0.210483 -0.326969
v 0.159519 -0.069981 -0.326969
v 0.159519 0.220608 0.027409
v 0.159519 -0.069981 -0.468720
v 0.159519 -0.204644 -0.468720
v 0.159519 -0.218820 0.027409
v -0.081457 -0.289695 0.027409
v -0.152333 -0.204644 -0.468720
v -0.081457 -0.275520 -0.468720
v -0.152333 -0.218820 0.027409
v -0.152333 -0.218820 0.027409
v -0.081457 -0.289695 0.027409
v -0.152333 -0.204644 -0.468720
v -0.081457 -0.275520 -0.468720
v -0.152333 0.312746 0.140809
v -0.152333 -0.310958 0.027409
v -0.152333 -0.310958 0.140809
v -0.152333 -0.218820 0.027409
v -0.152333 0.220608 0.027409
v -0.152333 0.312746 0.027409
v -0.152333 0.312746 0.027409
v -0.152333 0.312746 0.140809
v -0.152333 0.220608 0.027409
v -0.152333 -0.218820 0.027409
v -0.152333 -0.310958 0.027409
v -0.152333 -0.310958 0.140809
v 0.159519 -0.069981 -0.468720
v -0.152333 -0.204644 -0.468720
v -0.152333 -0.069981 -0.468720
v -0.081457 -0.275520 -0.468720
v 0.088644 -0.275520 -0.468720
v 0.159519 -0.204644 -0.468720
v 0.159519 -0.204644 -0.468720
v 0.159519 -0.069981 -0.468720
v 0.088644 -0.275520 -0.468720
v -0.081457 -0.275520 -0.468720
v -0.152333 -0.204644 -0.468720
v -0.152333 -0.069981 -0.468720
v -0.152333 0.312746 0.140809
v 0.159519 0.312746 0.027409
v -0.152333 0.312746 0.027409
v 0.159519 0.312746 0.140809
v 0.159519 0.312746 0.140809
v -0.152333 0.312746 0.140809
v 0.159519 0.312746 0.027409
v -0.152333 0.312746 0.027409
v 0.159519 -0.218820 0.027409
v 0.159519 -0.310958 0.140809
v 0.159519 -0.310958 0.027409
v 0.159519 0.312746 0.140809
v 0.159519 0.220608 0.027409
v 0.159519 0.312746 0.027409
v 0.159519 0.312746 0.027409
v 0.159519 0.220608 0.027409
v 0.159519 0.312746 0.140809
v 0.159519 -0.218820 0.027409
v 0.159519 -0.310958 0.140809
v 0.159519 -0.310958 0.027409
v -0.081457 0.000894 -0.397844
v 0.159519 -0.069981 -0.468720
v -0.152333 -0.069981 -0.468720
v 0.088644 0.000894 -0.397844
v 0.088644 0.000894 -0.397844
v -0.081457 0.000894 -0.397844
v 0.159519 -0.069981 -0.468720
v -0.152333 -0.069981 -0.468720
v 0.159519 -0.218820 0.027409
v 0.088644 -0.275520 -0.468720
v 0.159519 -0.204644 -0.468720
v 0.088644 -0.289695 0.027409
v 0.088644 -0.289695 0.027409
v 0.159519 -0.218820 0.027409
v 0.088644 -0.275520 -0.468720
v 0.159519 -0.204644 -0.468720
v 0.088644 -0.289695 0.027409
v -0.081457 -0.275520 -0.468720
v 0.088644 -0.275520 -0.468720
v -0.081457 -0.289695 0.027409
v -0.081457 -0.289695 0.027409
v 0.088644 -0.289695 0.027409
v -0.081457 -0.275520 -0.468720
v 0.088644 -0.275520 -0.468720
v -0.081457 -0.289695 0.027409
v -0.152333 -0.310958 0.027409
v -0.152333 -0.218820 0.027409
v 0.159519 -0.310958 0.027409
v 0.088644 -0.289695 0.027409
v 0.159519 -0.218820 0.027409
v 0.159519 -0.218820 0.027409
v 0.088644 -0.289695 0.027409
v 0.159519 -0.310958 0.027409
v -0.081457 -0.289695 0.027409
v -0.152333 -0.310958 0.027409
v -0.152333 -0.218820 0.027409
v 0.159519 -0.310958 0.140809
v -0.152333 -0.310958 0.027409
v 0.159519 -0.310958 0.027409
v -0.152333 -0.310958 0.140809
v -0.152333 -0.310958 0.140809
v 0.159519 -0.310958 0.140809
v -0.152333 -0.310958 0.027409
v 0.159519 -0.310958 0.027409
v 0.016158 -0.223791 0.140809
v 0.029772 -0.215805 0.140809
v 0.015320 -0.219223 0.140809
v 0.025160 -0.224972 0.140809
v 0.031492 -0.228608 0.140809
v 0.034653 -0.211712 0.140809
v 0.035550 -0.234089 0.140809
v -0.152333 -0.310958 0.140809
v -0.123983 0.000894 0.140809
v -0.152333 0.312746 0.140809
v -0.119636 -0.032125 0.140809
v -0.106891 -0.062894 0.140809
v -0.027097 -0.240791 0.140809
v -0.021465 -0.248130 0.140809
v -0.014126 -0.253762 0.140809
v 0.159519 -0.310958 0.140809
v -0.086616 -0.089315 0.140809
v -0.060195 -0.109590 0.140809
v -0.027466 -0.234432 0.140809
v -0.028364 -0.212055 0.140809
v -0.029426 -0.122334 0.140809
v -0.007424 -0.255029 0.140809
v -0.001943 -0.250970 0.140809
v 0.014953 -0.254132 0.140809
v 0.001693 -0.244639 0.140809
v 0.010861 -0.249251 0.140809
v 0.002874 -0.235637 0.140809
v 0.007442 -0.234798 0.140809
v 0.021312 -0.253762 0.140809
v 0.028652 -0.248130 0.140809
v 0.034283 -0.240791 0.140809
v 0.036612 -0.122334 0.140809
v 0.067381 -0.109590 0.140809
v 0.093803 -0.089315 0.140809
v 0.114077 -0.062894 0.140809
v 0.126822 -0.032125 0.140809
v 0.131169 0.000894 0.140809
v -0.086616 0.091104 0.140809
v 0.159519 0.312746 0.140809
v -0.106891 0.064682 0.140809
v -0.119636 0.033913 0.140809
v -0.060195 0.111378 0.140809
v -0.029426 0.124123 0.140809
v 0.003593 0.128470 0.140809
v 0.036612 0.124123 0.140809
v 0.067381 0.111378 0.140809
v 0.093803 0.091104 0.140809
v 0.114077 0.064682 0.140809
v 0.126822 0.033913 0.140809
v -0.027097 -0.205353 0.140809
v 0.003593 -0.126681 0.140809
v -0.021465 -0.198014 0.140809
v -0.014126 -0.192382 0.140809
v -0.007767 -0.192012 0.140809
v -0.003674 -0.196893 0.140809
v -0.000255 -0.211346 0.140809
v 0.004312 -0.210507 0.140809
v 0.005493 -0.201506 0.140809
v 0.009129 -0.195174 0.140809
v 0.014611 -0.191115 0.140809
v 0.021312 -0.192382 0.140809
v 0.028652 -0.198014 0.140809
v 0.034283 -0.205353 0.140809
v -0.024305 -0.217536 0.140809
v -0.022586 -0.230339 0.140809
v -0.017973 -0.221172 0.140809
v -0.008133 -0.226921 0.140809
v -0.008972 -0.222353 0.140809
v -0.008972 -0.222353 0.140809
v -0.008133 -0.226921 0.140809
v -0.017973 -0.221172 0.140809
v -0.022586 -0.230339 0.140809
v -0.024305 -0.217536 0.140809
v -0.027466 -0.234432 0.140809
v -0.028364 -0.212055 0.140809
v 0.035550 -0.234089 0.140809
v 0.034653 -0.211712 0.140809
v 0.036612 -0.122334 0.140809
v 0.034283 -0.205353 0.140809
v 0.028652 -0.198014 0.140809
v 0.021312 -0.192382 0.140809
v 0.014611 -0.191115 0.140809
v 0.009129 -0.195174 0.140809
v 0.005493 -0.201506 0.140809
v 0.003593 -0.126681 0.140809
v 0.004312 -0.210507 0.140809
v -0.000255 -0.211346 0.140809
v -0.003674 -0.196893 0.140809
v -0.007767 -0.192012 0.140809
v -0.014126 -0.192382 0.140809
v -0.021465 -0.198014 0.140809
v -0.027097 -0.205353 0.140809
v -0.029426 -0.122334 0.140809
v 0.159519 -0.310958 0.140809
v 0.131169 0.000894 0.140809
v 0.159519 0.312746 0.140809
v 0.126822 0.033913 0.140809
v 0.114077 0.064682 0.140809
v 0.093803 0.091104 0.140809
v 0.067381 0.111378 0.140809
v 0.036612 0.124123 0.140809
v 0.003593 0.128470 0.140809
v -0.029426 0.124123 0.140809
v -0.060195 0.111378 0.140809
v -0.086616 0.091104 0.140809
v -0.123983 0.000894 0.140809
v -0.152333 0.312746 0.140809
v -0.119636 0.033913 0.140809
v -0.106891 0.064682 0.140809
v 0.126822 -0.032125 0.140809
v 0.114077 -0.062894 0.140809
v 0.093803 -0.089315 0.140809
v 0.067381 -0.109590 0.140809
v 0.034283 -0.240791 0.140809
v 0.028652 -0.248130 0.140809
v 0.021312 -0.253762 0.140809
v 0.014953 -0.254132 0.140809
v 0.007442 -0.234798 0.140809
v 0.010861 -0.249251 0.140809
v 0.002874 -0.235637 0.140809
v 0.001693 -0.244639 0.140809
v -0.001943 -0.250970 0.140809
v -0.007424 -0.255029 0.140809
v -0.014126 -0.253762 0.140809
v -0.060195 -0.109590 0.140809
v -0.027097 -0.240791 0.140809
v -0.086616 -0.089315 0.140809
v -0.106891 -0.062894 0.140809
v -0.152333 -0.310958 0.140809
v -0.021465 -0.248130 0.140809
v -0.119636 -0.032125 0.140809
v 0.031492 -0.228608 0.140809
v 0.029772 -0.215805 0.140809
v 0.025160 -0.224972 0.140809
v 0.016158 -0.223791 0.140809
v 0.015320 -0.219223 0.140809
vn -0.7069625178210716 0.7069625178199882 -0.020198930509158032
vn 0.7069625178210716 -0.7069625178199882 0.020198930509158032
vn 0 0.9995920865830439 -0.028559769616658456
vn 0 -0.9995920865830439 0.028559769616658456
vn 0 0 -1
vn 0 0 1
vn -1 0 0
vn 1 0 0
vn 0.7069625178199882 0.7069625178210716 -0.020198930509158032
vn -0.7069625178199882 -0.7069625178210716 0.020198930509158032
vn 0.7071067811860058 0.7071067811870894 0
vn -0.7071067811860058 -0.7071067811870894 0
vn 0 1 0
vn 0 -1 0
vn -0.7071067811870894 0.7071067811860058 0
vn 0.7071067811870894 -0.7071067811860058 0
vn -0.7069625178199882 -0.7069625178210716 -0.020198930509158032
vn 0.7069625178199882 0.7069625178210716 0.020198930509158032
vn 0 0.7071067811865476 -0.7071067811865476
vn 0 -0.7071067811865476 0.7071067811865476
vn 0.7069625178210716 -0.7069625178199882 -0.020198930509158032
vn -0.7069625178210716 0.7069625178199882 0.020198930509158032
vn 0 -0.9995920865830439 -0.028559769616658456
vn 0 0.9995920865830439 0.028559769616658456
usemtl material_0_0
f 1//1 2//1 3//1
f 2//1 1//1 4//1
f 5//2 6//2 7//2
f 8//2 7//2 6//2
f 9//3 10//3 11//3
f 10//3 9//3 12//3
f 13//4 14//4 15//4
f 16//4 15//4 14//4
f 17//5 18//5 19//5
f 18//5 17//5 20//5
f 20//5 17//5 21//5
f 20//5 21//5 22//5
f 22//5 21//5 23//5
f 22//5 23//5 24//5
f 25//6 26//6 27//6
f 26//6 28//6 27//6
f 27//6 28//6 29//6
f 28//6 30//6 29//6
f 29//6 30//6 31//6
f 32//6 31//6 30//6
f 33//7 34//7 35//7
f 34//7 33//7 36//7
f 36//7 33//7 37//7
f 38//7 34//7 36//7
f 39//8 40//8 41//8
f 42//8 43//8 39//8
f 39//8 43//8 40//8
f 44//8 40//8 43//8
f 45//5 46//5 47//5
f 46//5 45//5 48//5
f 46//5 48//5 49//5
f 49//5 48//5 50//5
f 51//6 52//6 53//6
f 53//6 52//6 54//6
f 52//6 55//6 54//6
f 56//6 54//6 55//6
f 57//9 58//9 59//9
f 58//9 57//9 60//9
f 61//10 62//10 63//10
f 64//10 63//10 62//10
f 65//11 66//11 67//11
f 66//11 65//11 68//11
f 69//12 70//12 71//12
f 72//12 71//12 70//12
f 73//13 74//13 75//13
f 74//13 73//13 76//13
f 77//14 78//14 79//14
f 80//14 79//14 78//14
f 81//15 82//15 83//15
f 82//15 81//15 84//15
f 85//16 86//16 87//16
f 88//16 87//16 86//16
f 89//8 90//8 91//8
f 90//8 89//8 92//8
f 92//8 89//8 93//8
f 90//8 92//8 94//8
f 95//7 96//7 97//7
f 98//7 99//7 96//7
f 96//7 99//7 97//7
f 100//7 97//7 99//7
f 101//17 102//17 103//17
f 102//17 101//17 104//17
f 105//18 106//18 107//18
f 108//18 107//18 106//18
f 109//7 110//7 111//7
f 110//7 109//7 112//7
f 112//7 109//7 113//7
f 113//7 109//7 114//7
f 115//8 116//8 117//8
f 117//8 116//8 118//8
f 118//8 116//8 119//8
f 120//8 119//8 116//8
f 121//5 122//5 123//5
f 122//5 121//5 124//5
f 124//5 121//5 125//5
f 125//5 121//5 126//5
f 127//6 128//6 129//6
f 129//6 128//6 130//6
f 130//6 128//6 131//6
f 132//6 131//6 128//6
f 133//13 134//13 135//13
f 134//13 133//13 136//13
f 137//14 138//14 139//14
f 140//14 139//14 138//14
f 141//8 142//8 143//8
f 142//8 141//8 144//8
f 144//8 141//8 145//8
f 144//8 145//8 146//8
f 147//7 148//7 149//7
f 148//7 150//7 149//7
f 149//7 150//7 151//7
f 152//7 151//7 150//7
f 153//19 154//19 155//19
f 154//19 153//19 156//19
f 157//20 158//20 159//20
f 160//20 159//20 158//20
f 161//21 162//21 163//21
f 162//21 161//21 164//21
f 165//22 166//22 167//22
f 168//22 167//22 166//22
f 169//23 170//23 171//23
f 170//23 169//23 172//23
f 173//24 174//24 175//24
f 176//24 175//24 174//24
f 177//5 178//5 179//5
f 178//5 177//5 180//5
f 180//5 177//5 181//5
f 180//5 181//5 182//5
f 183//6 184//6 185//6
f 184//6 186//6 185//6
f 185//6 186//6 187//6
f 188//6 187//6 186//6
f 189//14 190//14 191//14
f 190//14 189//14 192//14
f 193//13 194//13 195//13
f 196//13 195//13 194//13
f 197//6 198//6 199//6
f 198//6 197//6 200//6
f 198//6 200//6 201//6
f 198//6 201//6 202//6
f 202//6 201//6 203//6
f 204//6 205//6 206//6
f 205//6 204//6 207//6
f 207//6 204//6 208//6
f 208//6 204//6 209//6
f 209//6 204//6 210//6
f 210//6 204//6 211//6
f 211//6 204//6 212//6
f 208//6 209//6 213//6
f 213//6 209//6 214//6
f 214//6 209//6 215//6
f 214//6 215//6 216//6
f 214//6 216//6 217//6
f 211//6 212//6 218//6
f 218//6 212//6 219//6
f 219//6 212//6 220//6
f 219//6 220//6 221//6
f 221//6 220//6 222//6
f 221//6 222//6 223//6
f 223//6 222//6 224//6
f 220//6 212//6 225//6
f 225//6 212//6 226//6
f 226//6 212//6 227//6
f 227//6 212//6 203//6
f 203//6 212//6 228//6
f 228//6 212//6 229//6
f 229//6 212//6 230//6
f 230//6 212//6 231//6
f 231//6 212//6 232//6
f 232//6 212//6 233//6
f 206//6 234//6 235//6
f 234//6 206//6 236//6
f 236//6 206//6 237//6
f 237//6 206//6 205//6
f 235//6 234//6 238//6
f 235//6 238//6 239//6
f 235//6 239//6 240//6
f 235//6 240//6 241//6
f 235//6 241//6 242//6
f 235//6 242//6 243//6
f 235//6 243//6 244//6
f 235//6 244//6 245//6
f 235//6 245//6 233//6
f 235//6 233//6 212//6
f 217//6 246//6 247//6
f 246//6 217//6 216//6
f 247//6 246//6 248//6
f 247//6 248//6 249//6
f 247//6 249//6 250//6
f 247//6 250//6 251//6
f 247//6 251//6 252//6
f 247//6 252//6 253//6
f 247//6 253//6 254//6
f 247//6 254//6 228//6
f 228//6 254//6 255//6
f 228//6 255//6 256//6
f 228//6 256//6 257//6
f 228//6 257//6 258//6
f 228//6 258//6 259//6
f 228//6 259//6 202//6
f 228//6 202//6 203//6
f 215//6 260//6 216//6
f 260//6 215//6 261//6
f 260//6 261//6 262//6
f 262//6 261//6 263//6
f 262//6 263//6 264//6
f 265//5 266//5 267//5
f 266//5 268//5 267//5
f 267//5 268//5 269//5
f 268//5 270//5 269//5
f 271//5 269//5 270//5
f 272//5 273//5 274//5
f 273//5 275//5 274//5
f 275//5 276//5 274//5
f 276//5 277//5 274//5
f 277//5 278//5 274//5
f 278//5 279//5 274//5
f 279//5 280//5 274//5
f 274//5 280//5 281//5
f 280//5 282//5 281//5
f 282//5 283//5 281//5
f 283//5 284//5 281//5
f 284//5 285//5 281//5
f 285//5 286//5 281//5
f 286//5 287//5 281//5
f 287//5 288//5 281//5
f 271//5 289//5 288//5
f 281//5 288//5 289//5
f 290//5 291//5 292//5
f 291//5 293//5 292//5
f 293//5 294//5 292//5
f 294//5 295//5 292//5
f 295//5 296//5 292//5
f 296//5 297//5 292//5
f 297//5 298//5 292//5
f 298//5 299//5 292//5
f 299//5 300//5 292//5
f 300//5 301//5 292//5
f 302//5 303//5 304//5
f 304//5 303//5 305//5
f 305//5 303//5 301//5
f 292//5 301//5 303//5
f 291//5 290//5 306//5
f 306//5 290//5 307//5
f 307//5 290//5 308//5
f 308//5 290//5 309//5
f 309//5 290//5 274//5
f 274//5 290//5 272//5
f 272//5 290//5 310//5
f 310//5 290//5 311//5
f 311//5 290//5 312//5
f 312//5 290//5 313//5
f 314//5 315//5 316//5
f 316//5 315//5 317//5
f 315//5 313//5 317//5
f 317//5 313//5 318//5
f 313//5 290//5 318//5
f 318//5 290//5 319//5
f 319//5 290//5 320//5
f 289//5 271//5 321//5
f 271//5 270//5 321//5
f 270//5 322//5 321//5
f 321//5 322//5 323//5
f 323//5 322//5 324//5
f 290//5 325//5 320//5
f 320//5 325//5 326//5
f 326//5 325//5 322//5
f 322//5 325//5 324//5
f 324//5 325//5 327//5
f 327//5 325//5 302//5
f 303//5 302//5 325//5
f 272//5 328//5 273//5
f 273//5 328//5 329//5
f 328//5 330//5 329//5
f 330//5 331//5 329//5
f 332//5 329//5 331//5
