# SSTK version 0.8.0
# 37
mtllib original-37.mtl
o #ID1352
v -0.194858 -0.282607 0.027409
v -0.421659 -0.225907 -0.341144
v -0.194858 -0.225907 -0.341144
v -0.421659 -0.282607 0.027409
v -0.421659 -0.282607 0.027409
v -0.194858 -0.282607 0.027409
v -0.421659 -0.225907 -0.341144
v -0.194858 -0.225907 -0.341144
v -0.421659 -0.282607 0.027409
v -0.450010 -0.197557 -0.341144
v -0.421659 -0.225907 -0.341144
v -0.457097 -0.247170 0.027409
v -0.457097 -0.247170 0.027409
v -0.421659 -0.282607 0.027409
v -0.450010 -0.197557 -0.341144
v -0.421659 -0.225907 -0.341144
v -0.421659 0.227696 -0.341144
v -0.450010 -0.197557 -0.341144
v -0.450010 0.199346 -0.341144
v -0.421659 -0.225907 -0.341144
v -0.194858 0.227696 -0.341144
v -0.194858 -0.225907 -0.341144
v -0.166508 0.199346 -0.341144
v -0.166508 -0.197557 -0.341144
v -0.166508 -0.197557 -0.341144
v -0.166508 0.199346 -0.341144
v -0.194858 -0.225907 -0.341144
v -0.194858 0.227696 -0.341144
v -0.421659 -0.225907 -0.341144
v -0.421659 0.227696 -0.341144
v -0.450010 -0.197557 -0.341144
v -0.450010 0.199346 -0.341144
v -0.159420 -0.247170 0.027409
v -0.194858 -0.225907 -0.341144
v -0.166508 -0.197557 -0.341144
v -0.194858 -0.282607 0.027409
v -0.194858 -0.282607 0.027409
v -0.159420 -0.247170 0.027409
v -0.194858 -0.225907 -0.341144
v -0.166508 -0.197557 -0.341144
v -0.457097 0.248958 0.027409
v -0.450010 -0.197557 -0.341144
v -0.457097 -0.247170 0.027409
v -0.450010 0.199346 -0.341144
v -0.450010 0.199346 -0.341144
v -0.457097 0.248958 0.027409
v -0.450010 -0.197557 -0.341144
v -0.457097 -0.247170 0.027409
v -0.421659 0.284396 0.027409
v -0.194858 0.227696 -0.341144
v -0.421659 0.227696 -0.341144
v -0.194858 0.284396 0.027409
v -0.194858 0.284396 0.027409
v -0.421659 0.284396 0.027409
v -0.194858 0.227696 -0.341144
v -0.421659 0.227696 -0.341144
v -0.194858 0.284396 0.027409
v -0.166508 0.199346 -0.341144
v -0.194858 0.227696 -0.341144
v -0.159420 0.248958 0.027409
v -0.159420 0.248958 0.027409
v -0.194858 0.284396 0.027409
v -0.166508 0.199346 -0.341144
v -0.194858 0.227696 -0.341144
v -0.166508 -0.197557 -0.341144
v -0.159420 0.248958 0.027409
v -0.159420 -0.247170 0.027409
v -0.166508 0.199346 -0.341144
v -0.166508 0.199346 -0.341144
v -0.166508 -0.197557 -0.341144
v -0.159420 0.248958 0.027409
v -0.159420 -0.247170 0.027409
v -0.457097 0.248958 0.027409
v -0.421659 0.227696 -0.341144
v -0.450010 0.199346 -0.341144
v -0.421659 0.284396 0.027409
v -0.421659 0.284396 0.027409
v -0.457097 0.248958 0.027409
v -0.421659 0.227696 -0.341144
v -0.450010 0.199346 -0.341144
vn 0 -0.9883716953384785 -0.15205719928284278
vn 0 0.9883716953384785 0.15205719928284278
vn -0.7029594927356895 -0.7029594927367668 -0.10814759888249681
vn 0.7029594927356895 0.7029594927367668 0.10814759888249681
vn 0 0 -1
vn 0 0 1
vn 0.7029594927367668 -0.7029594927356895 -0.10814759888249681
vn -0.7029594927367668 0.7029594927356895 0.10814759888249681
vn -0.9998151400963902 0 -0.019227210771084288
vn 0.9998151400963902 0 0.019227210771084288
vn 0 0.9883716953384785 -0.15205719928284278
vn 0 -0.9883716953384785 0.15205719928284278
vn 0.7029594927356895 0.7029594927367668 -0.10814759888249681
vn -0.7029594927356895 -0.7029594927367668 0.10814759888249681
vn 0.9998151400963902 0 -0.019227210771084288
vn -0.9998151400963902 0 0.019227210771084288
vn -0.7029594927367668 0.7029594927356895 -0.10814759888249681
vn 0.7029594927367668 -0.7029594927356895 0.10814759888249681
usemtl material_0_0
f 1//1 2//1 3//1
f 2//1 1//1 4//1
f 5//2 6//2 7//2
f 8//2 7//2 6//2
f 9//3 10//3 11//3
f 10//3 9//3 12//3
f 13//4 14//4 15//4
f 16//4 15//4 14//4
f 17//5 18//5 19//5
f 18//5 17//5 20//5
f 20//5 17//5 21//5
f 20//5 21//5 22//5
f 22//5 21//5 23//5
f 22//5 23//5 24//5
f 25//6 26//6 27//6
f 26//6 28//6 27//6
f 27//6 28//6 29//6
f 28//6 30//6 29//6
f 29//6 30//6 31//6
f 32//6 31//6 30//6
f 33//7 34//7 35//7
f 34//7 33//7 36//7
f 37//8 38//8 39//8
f 40//8 39//8 38//8
f 41//9 42//9 43//9
f 42//9 41//9 44//9
f 45//10 46//10 47//10
f 48//10 47//10 46//10
f 49//11 50//11 51//11
f 50//11 49//11 52//11
f 53//12 54//12 55//12
f 56//12 55//12 54//12
f 57//13 58//13 59//13
f 58//13 57//13 60//13
f 61//14 62//14 63//14
f 64//14 63//14 62//14
f 65//15 66//15 67//15
f 66//15 65//15 68//15
f 69//16 70//16 71//16
f 72//16 71//16 70//16
f 73//17 74//17 75//17
f 74//17 73//17 76//17
f 77//18 78//18 79//18
f 80//18 79//18 78//18
