# SSTK version 0.8.0
# 36
mtllib original-36.mtl
o #ID1346
v -0.338295 -0.234645 0.178875
v -0.333784 -0.224220 0.178143
v -0.338665 -0.228302 0.178430
v -0.334296 -0.230183 0.178562
v -0.331824 -0.228116 0.178417
v -0.319332 -0.220809 0.177904
v -0.318002 -0.224855 0.178188
v -0.329172 -0.215074 0.177501
v -0.335039 -0.204946 0.176790
v -0.335504 -0.211447 0.177247
v -0.332615 -0.208210 0.177019
v -0.327784 -0.210978 0.177214
v -0.320170 -0.216253 0.177584
v -0.319631 -0.212045 0.177289
v -0.317244 -0.213181 0.177368
v -0.315651 -0.223207 0.178072
v -0.315985 -0.215500 0.177531
v -0.315084 -0.220397 0.177875
v -0.334126 -0.233097 0.178767
v -0.332664 -0.241967 0.179389
v -0.329631 -0.238941 0.179177
v -0.325324 -0.247585 0.179784
v -0.323539 -0.243604 0.179504
v -0.318623 -0.248849 0.179873
v -0.319659 -0.244336 0.179556
v -0.316387 -0.241918 0.179386
v -0.313141 -0.244800 0.179588
v -0.313612 -0.237099 0.179048
v -0.312542 -0.228966 0.178477
v -0.309506 -0.238483 0.179145
v -0.311404 -0.226585 0.178309
v -0.309079 -0.225329 0.178221
v -0.308324 -0.229504 0.178514
v -0.304170 -0.224430 0.178158
v -0.303757 -0.228668 0.178456
v -0.301353 -0.224995 0.178198
v -0.300338 -0.243085 0.179468
v -0.299701 -0.227341 0.178363
v -0.296245 -0.247953 0.179810
v -0.296432 -0.241130 0.179331
v -0.294359 -0.243595 0.179504
v -0.289887 -0.247585 0.179784
v -0.291438 -0.243425 0.179492
v -0.285580 -0.238941 0.179177
v -0.282547 -0.241967 0.179389
v -0.280906 -0.232864 0.178750
v -0.276915 -0.234645 0.178875
v -0.280172 -0.228994 0.178479
v -0.279707 -0.222492 0.178022
v -0.275648 -0.227960 0.178406
v -0.299226 -0.218440 0.177738
v -0.299560 -0.210733 0.177197
v -0.300127 -0.213543 0.177394
v -0.297209 -0.209085 0.177081
v -0.297967 -0.220759 0.177900
v -0.295580 -0.221895 0.177980
v -0.295879 -0.213131 0.177365
v -0.295040 -0.217687 0.177685
v -0.287427 -0.222962 0.178055
v -0.286039 -0.218865 0.177768
v -0.282596 -0.225730 0.178249
v -0.283386 -0.205824 0.176852
v -0.281426 -0.209720 0.177125
v -0.280915 -0.203757 0.176707
v -0.276546 -0.205638 0.176839
v -0.276915 -0.199295 0.176393
v -0.338295 -0.199295 0.176393
v -0.339563 -0.205980 0.176863
v -0.332664 -0.191973 0.175879
v -0.334305 -0.201075 0.176519
v -0.329631 -0.194999 0.176092
v -0.325324 -0.186355 0.175485
v -0.323773 -0.190515 0.175777
v -0.318966 -0.185987 0.175459
v -0.320851 -0.190345 0.175765
v -0.318779 -0.192810 0.175938
v -0.314873 -0.190855 0.175801
v -0.315509 -0.206599 0.176906
v -0.313858 -0.208945 0.177071
v -0.311454 -0.205272 0.176813
v -0.311041 -0.209510 0.177111
v -0.306887 -0.204436 0.176754
v -0.306132 -0.208611 0.177048
v -0.305705 -0.195456 0.176124
v -0.303807 -0.207355 0.176959
v -0.302069 -0.189140 0.175681
v -0.302668 -0.204974 0.176792
v -0.301598 -0.196841 0.176221
v -0.296588 -0.185091 0.175396
v -0.298824 -0.192022 0.175883
v -0.295552 -0.189604 0.175713
v -0.289887 -0.186355 0.175485
v -0.291672 -0.190336 0.175765
v -0.285580 -0.194999 0.176092
v -0.282547 -0.191973 0.175879
v -0.281085 -0.200843 0.176502
v -0.280915 -0.203757 0.176707
v -0.281085 -0.200843 0.176502
v -0.276915 -0.199295 0.176393
v -0.282547 -0.191973 0.175879
v -0.285580 -0.194999 0.176092
v -0.289887 -0.186355 0.175485
v -0.291672 -0.190336 0.175765
v -0.295552 -0.189604 0.175713
v -0.296588 -0.185091 0.175396
v -0.298824 -0.192022 0.175883
v -0.301598 -0.196841 0.176221
v -0.302069 -0.189140 0.175681
v -0.302668 -0.204974 0.176792
v -0.303807 -0.207355 0.176959
v -0.305705 -0.195456 0.176124
v -0.306132 -0.208611 0.177048
v -0.306887 -0.204436 0.176754
v -0.311041 -0.209510 0.177111
v -0.311454 -0.205272 0.176813
v -0.313858 -0.208945 0.177071
v -0.314873 -0.190855 0.175801
v -0.315509 -0.206599 0.176906
v -0.318779 -0.192810 0.175938
v -0.318966 -0.185987 0.175459
v -0.320851 -0.190345 0.175765
v -0.323773 -0.190515 0.175777
v -0.325324 -0.186355 0.175485
v -0.329631 -0.194999 0.176092
v -0.332664 -0.191973 0.175879
v -0.334305 -0.201075 0.176519
v -0.335039 -0.204946 0.176790
v -0.338295 -0.199295 0.176393
v -0.335504 -0.211447 0.177247
v -0.339563 -0.205980 0.176863
v -0.276546 -0.205638 0.176839
v -0.281426 -0.209720 0.177125
v -0.283386 -0.205824 0.176852
v -0.295879 -0.213131 0.177365
v -0.297209 -0.209085 0.177081
v -0.280172 -0.228994 0.178479
v -0.282596 -0.225730 0.178249
v -0.279707 -0.222492 0.178022
v -0.286039 -0.218865 0.177768
v -0.287427 -0.222962 0.178055
v -0.295040 -0.217687 0.177685
v -0.295580 -0.221895 0.177980
v -0.297967 -0.220759 0.177900
v -0.299226 -0.218440 0.177738
v -0.299560 -0.210733 0.177197
v -0.300127 -0.213543 0.177394
v -0.275648 -0.227960 0.178406
v -0.276915 -0.234645 0.178875
v -0.280906 -0.232864 0.178750
v -0.282547 -0.241967 0.179389
v -0.285580 -0.238941 0.179177
v -0.289887 -0.247585 0.179784
v -0.291438 -0.243425 0.179492
v -0.294359 -0.243595 0.179504
v -0.296245 -0.247953 0.179810
v -0.296432 -0.241130 0.179331
v -0.299701 -0.227341 0.178363
v -0.300338 -0.243085 0.179468
v -0.301353 -0.224995 0.178198
v -0.303757 -0.228668 0.178456
v -0.304170 -0.224430 0.178158
v -0.308324 -0.229504 0.178514
v -0.309079 -0.225329 0.178221
v -0.309506 -0.238483 0.179145
v -0.311404 -0.226585 0.178309
v -0.312542 -0.228966 0.178477
v -0.313141 -0.244800 0.179588
v -0.313612 -0.237099 0.179048
v -0.316387 -0.241918 0.179386
v -0.318623 -0.248849 0.179873
v -0.319659 -0.244336 0.179556
v -0.323539 -0.243604 0.179504
v -0.325324 -0.247585 0.179784
v -0.329631 -0.238941 0.179177
v -0.332664 -0.241967 0.179389
v -0.334126 -0.233097 0.178767
v -0.338295 -0.234645 0.178875
v -0.334296 -0.230183 0.178562
v -0.315084 -0.220397 0.177875
v -0.315651 -0.223207 0.178072
v -0.315985 -0.215500 0.177531
v -0.317244 -0.213181 0.177368
v -0.318002 -0.224855 0.178188
v -0.319332 -0.220809 0.177904
v -0.319631 -0.212045 0.177289
v -0.320170 -0.216253 0.177584
v -0.327784 -0.210978 0.177214
v -0.329172 -0.215074 0.177501
v -0.332615 -0.208210 0.177019
v -0.331824 -0.228116 0.178417
v -0.333784 -0.224220 0.178143
v -0.338665 -0.228302 0.178430
vn 0 0.07003472676455913 0.9975445539157703
vn 0 -0.07003472676455913 -0.9975445539157703
usemtl material_0_0
f 97//2 98//2 99//2
f 99//2 98//2 100//2
f 98//2 101//2 100//2
f 100//2 101//2 102//2
f 101//2 103//2 102//2
f 103//2 104//2 102//2
f 102//2 104//2 105//2
f 104//2 106//2 105//2
f 106//2 107//2 105//2
f 105//2 107//2 108//2
f 107//2 109//2 108//2
f 109//2 110//2 108//2
f 108//2 110//2 111//2
f 110//2 112//2 111//2
f 111//2 112//2 113//2
f 112//2 114//2 113//2
f 113//2 114//2 115//2
f 114//2 116//2 115//2
f 115//2 116//2 117//2
f 116//2 118//2 117//2
f 118//2 119//2 117//2
f 117//2 119//2 120//2
f 119//2 121//2 120//2
f 121//2 122//2 120//2
f 120//2 122//2 123//2
f 122//2 124//2 123//2
f 123//2 124//2 125//2
f 124//2 126//2 125//2
f 126//2 127//2 125//2
f 125//2 127//2 128//2
f 127//2 129//2 128//2
f 130//2 128//2 129//2
f 99//2 131//2 97//2
f 131//2 132//2 97//2
f 97//2 132//2 133//2
f 132//2 134//2 133//2
f 135//2 133//2 134//2
f 136//2 137//2 138//2
f 138//2 137//2 139//2
f 137//2 140//2 139//2
f 139//2 140//2 141//2
f 140//2 142//2 141//2
f 141//2 142//2 134//2
f 134//2 142//2 135//2
f 142//2 143//2 135//2
f 143//2 144//2 135//2
f 135//2 144//2 145//2
f 146//2 145//2 144//2
f 147//2 148//2 138//2
f 138//2 148//2 136//2
f 136//2 148//2 149//2
f 148//2 150//2 149//2
f 149//2 150//2 151//2
f 150//2 152//2 151//2
f 151//2 152//2 153//2
f 153//2 152//2 154//2
f 152//2 155//2 154//2
f 154//2 155//2 156//2
f 156//2 155//2 157//2
f 155//2 158//2 157//2
f 157//2 158//2 159//2
f 158//2 160//2 159//2
f 159//2 160//2 161//2
f 160//2 162//2 161//2
f 161//2 162//2 163//2
f 162//2 164//2 163//2
f 163//2 164//2 165//2
f 165//2 164//2 166//2
f 164//2 167//2 166//2
f 166//2 167//2 168//2
f 168//2 167//2 169//2
f 167//2 170//2 169//2
f 169//2 170//2 171//2
f 171//2 170//2 172//2
f 170//2 173//2 172//2
f 172//2 173//2 174//2
f 173//2 175//2 174//2
f 174//2 175//2 176//2
f 175//2 177//2 176//2
f 178//2 176//2 177//2
f 179//2 180//2 181//2
f 181//2 180//2 182//2
f 180//2 183//2 182//2
f 183//2 184//2 182//2
f 182//2 184//2 185//2
f 184//2 186//2 185//2
f 185//2 186//2 187//2
f 186//2 188//2 187//2
f 187//2 188//2 189//2
f 189//2 188//2 127//2
f 129//2 127//2 188//2
f 183//2 190//2 184//2
f 184//2 190//2 191//2
f 190//2 178//2 191//2
f 178//2 177//2 191//2
f 192//2 191//2 177//2
usemtl material_1_0
f 1//1 2//1 3//1
f 2//1 1//1 4//1
f 2//1 4//1 5//1
f 2//1 5//1 6//1
f 6//1 5//1 7//1
f 8//1 9//1 10//1
f 9//1 8//1 11//1
f 11//1 8//1 12//1
f 12//1 8//1 13//1
f 12//1 13//1 14//1
f 14//1 13//1 6//1
f 14//1 6//1 15//1
f 15//1 6//1 7//1
f 15//1 7//1 16//1
f 15//1 16//1 17//1
f 17//1 16//1 18//1
f 1//1 19//1 4//1
f 19//1 1//1 20//1
f 19//1 20//1 21//1
f 21//1 20//1 22//1
f 21//1 22//1 23//1
f 23//1 22//1 24//1
f 23//1 24//1 25//1
f 25//1 24//1 26//1
f 26//1 24//1 27//1
f 26//1 27//1 28//1
f 28//1 27//1 29//1
f 29//1 27//1 30//1
f 29//1 30//1 31//1
f 31//1 30//1 32//1
f 32//1 30//1 33//1
f 32//1 33//1 34//1
f 34//1 33//1 35//1
f 34//1 35//1 36//1
f 36//1 35//1 37//1
f 36//1 37//1 38//1
f 38//1 37//1 39//1
f 38//1 39//1 40//1
f 40//1 39//1 41//1
f 41//1 39//1 42//1
f 41//1 42//1 43//1
f 43//1 42//1 44//1
f 44//1 42//1 45//1
f 44//1 45//1 46//1
f 46//1 45//1 47//1
f 46//1 47//1 48//1
f 48//1 47//1 49//1
f 49//1 47//1 50//1
f 51//1 52//1 53//1
f 52//1 51//1 54//1
f 54//1 51//1 55//1
f 54//1 55//1 56//1
f 54//1 56//1 57//1
f 57//1 56//1 58//1
f 58//1 56//1 59//1
f 58//1 59//1 60//1
f 60//1 59//1 61//1
f 60//1 61//1 49//1
f 49//1 61//1 48//1
f 57//1 62//1 54//1
f 62//1 57//1 63//1
f 62//1 63//1 64//1
f 64//1 63//1 65//1
f 64//1 65//1 66//1
f 10//1 67//1 68//1
f 67//1 10//1 9//1
f 67//1 9//1 69//1
f 69//1 9//1 70//1
f 69//1 70//1 71//1
f 69//1 71//1 72//1
f 72//1 71//1 73//1
f 72//1 73//1 74//1
f 74//1 73//1 75//1
f 74//1 75//1 76//1
f 74//1 76//1 77//1
f 77//1 76//1 78//1
f 77//1 78//1 79//1
f 77//1 79//1 80//1
f 80//1 79//1 81//1
f 80//1 81//1 82//1
f 82//1 81//1 83//1
f 82//1 83//1 84//1
f 84//1 83//1 85//1
f 84//1 85//1 86//1
f 86//1 85//1 87//1
f 86//1 87//1 88//1
f 86//1 88//1 89//1
f 89//1 88//1 90//1
f 89//1 90//1 91//1
f 89//1 91//1 92//1
f 92//1 91//1 93//1
f 92//1 93//1 94//1
f 92//1 94//1 95//1
f 95//1 94//1 96//1
f 95//1 96//1 66//1
f 66//1 96//1 64//1
