# SSTK version 0.8.0
# 2
mtllib original-2.mtl
o #ID10
v -0.013668 0.360169 -0.002361
v -0.391766 0.309756 -0.002361
v -0.391766 0.360169 -0.002361
v -0.013668 0.309756 -0.002361
v 0.881163 0.360169 0.136275
v -0.908500 0.360169 0.186688
v 0.881163 0.360169 0.186688
v -0.908500 0.360169 0.136275
v 0.893767 0.360169 -0.178807
v 0.893767 0.360169 0.136275
v 0.364430 0.360169 -0.002361
v -0.921103 0.360169 0.136275
v 0.868560 0.360169 -0.178689
v 0.868560 0.360169 -0.178807
v 0.843354 0.360169 -0.178689
v 0.364430 0.360169 -0.178689
v -0.391766 0.360169 -0.178807
v -0.870690 0.360169 -0.178807
v -0.391766 0.360169 -0.002361
v -0.921103 0.360169 -0.178807
v -0.013668 0.360169 -0.002361
v -0.895897 0.360169 -0.178807
v -0.013668 0.196327 -0.178689
v -0.013668 0.612234 -0.002361
v -0.013668 0.612234 -0.178689
v -0.013668 0.360169 -0.002361
v -0.013668 0.309756 -0.002361
v -0.013668 0.196327 -0.002361
v 0.364430 0.309756 -0.178689
v -0.013668 0.309756 -0.002361
v 0.364430 0.309756 -0.002361
v -0.391766 0.309756 -0.002361
v -0.391766 0.309756 -0.178807
v 0.364430 0.309756 -0.178807
v 0.316033 0.309756 -0.178807
v 0.314017 0.309756 -0.178807
v -0.341353 0.309756 -0.178807
v -0.391766 0.309756 -0.002361
v -0.391766 0.360169 -0.178807
v -0.391766 0.360169 -0.002361
v -0.391766 0.309756 -0.178807
v -0.895897 0.360169 -0.178807
v -0.921103 0.108104 -0.178807
v -0.921103 0.360169 -0.178807
v -0.895897 0.108104 -0.178807
v -0.921103 0.108104 -0.178807
v -0.921103 0.360169 0.136275
v -0.921103 0.360169 -0.178807
v -0.921103 0.297153 0.136275
v -0.921103 0.108104 0.136275
v -0.908500 0.297153 0.136275
v -0.921103 0.360169 0.136275
v -0.921103 0.297153 0.136275
v -0.908500 0.360169 0.136275
v -0.908500 -0.396027 0.136275
v -0.908500 -0.333010 0.174084
v -0.908500 -0.333010 0.136275
v -0.908500 0.297153 0.136275
v -0.908500 0.360169 0.186688
v -0.908500 0.360169 0.136275
v -0.908500 0.297153 0.174084
v -0.908500 -0.396027 0.186688
v 0.881163 -0.396027 0.186688
v -0.908500 0.360169 0.186688
v -0.908500 -0.396027 0.186688
v 0.881163 0.360169 0.186688
v 0.881163 0.360169 0.186688
v 0.881163 0.297153 0.174084
v 0.881163 0.360169 0.136275
v 0.881163 -0.396027 0.186688
v 0.881163 -0.333351 0.174084
v 0.881163 -0.333351 0.136275
v 0.881163 -0.396027 0.136275
v 0.881163 0.297153 0.136275
v 0.893767 0.297153 0.136275
v 0.881163 0.360169 0.136275
v 0.881163 0.297153 0.136275
v 0.893767 0.360169 0.136275
v 0.893767 0.297153 0.136275
v 0.893767 0.360169 -0.178807
v 0.893767 0.360169 0.136275
v 0.893767 0.108104 -0.178807
v 0.893767 0.108104 0.136275
v 0.893767 0.360169 -0.178807
v 0.868560 0.108104 -0.178807
v 0.868560 0.360169 -0.178807
v 0.893767 0.108104 -0.178807
v 0.364430 0.360169 -0.002361
v 0.364430 0.612234 -0.178689
v 0.364430 0.612234 -0.002361
v 0.364430 0.360169 -0.178689
v -0.013668 0.360169 -0.002361
v 0.364430 0.612234 -0.002361
v -0.013668 0.612234 -0.002361
v 0.364430 0.360169 -0.002361
v 0.364430 0.612234 -0.178689
v -0.013668 0.196327 -0.178689
v -0.013668 0.612234 -0.178689
v 0.364430 0.360169 -0.178689
v 0.364430 0.196327 -0.178689
v 0.364430 0.309756 -0.178689
v 0.364430 0.612234 -0.178689
v -0.013668 0.612234 -0.002361
v 0.364430 0.612234 -0.002361
v -0.013668 0.612234 -0.178689
v -0.908500 -0.396027 0.136275
v -0.921103 -0.333010 0.136275
v -0.921103 -0.396027 0.136275
v -0.908500 -0.333010 0.136275
v -0.921103 -0.396027 -0.178807
v -0.908500 -0.396027 0.136275
v -0.921103 -0.396027 0.136275
v -0.895897 -0.396027 -0.191410
v 0.868560 -0.396027 -0.178807
v -0.895897 -0.396027 -0.178807
v 0.868560 -0.396027 -0.191410
v -0.908500 -0.396027 0.186688
v -0.706830 -0.396027 0.161481
v 0.881163 -0.396027 0.186688
v -0.706830 -0.396027 0.136275
v -0.580797 -0.396027 0.136275
v 0.553479 -0.396027 0.136275
v 0.679511 -0.396027 0.136275
v 0.881163 -0.396027 0.136275
v 0.893767 -0.396027 0.136275
v 0.893767 -0.396027 -0.178807
v 0.679511 -0.396027 0.161481
v -0.580797 -0.396027 0.161481
v 0.553479 -0.396027 0.161481
v 0.553479 -0.396027 0.141316
v 0.893767 -0.396027 0.136275
v 0.881163 -0.333351 0.136275
v 0.881163 -0.396027 0.136275
v 0.893767 -0.333351 0.136275
v 0.893767 0.108104 -0.191410
v 0.868560 0.108104 -0.178807
v 0.893767 0.108104 -0.178807
v 0.868560 0.108104 -0.191410
v 0.868560 0.108104 -0.178807
v 0.868560 0.360169 -0.191410
v 0.868560 0.360169 -0.178807
v 0.868560 0.108104 -0.191410
v -0.921103 -0.396027 -0.178807
v -0.921103 -0.143961 0.136275
v -0.921103 -0.143961 -0.178807
v -0.921103 -0.333010 0.136275
v -0.921103 -0.396027 0.136275
v -0.895897 -0.143961 -0.178807
v -0.921103 -0.396027 -0.178807
v -0.921103 -0.143961 -0.178807
v -0.895897 -0.396027 -0.178807
v 0.868560 -0.396027 -0.178807
v 0.868560 -0.145324 -0.191410
v 0.868560 -0.145324 -0.178807
v 0.868560 -0.396027 -0.191410
v 0.893767 -0.145324 -0.178807
v 0.868560 -0.396027 -0.178807
v 0.868560 -0.145324 -0.178807
v 0.893767 -0.396027 -0.178807
v 0.893767 -0.333351 0.136275
v 0.893767 -0.145324 -0.178807
v 0.893767 -0.145324 0.136275
v 0.893767 -0.396027 -0.178807
v 0.893767 -0.396027 0.136275
v 0.868560 -0.145324 -0.191410
v 0.893767 -0.145324 -0.178807
v 0.868560 -0.145324 -0.178807
v 0.893767 -0.145324 -0.191410
vn 0 0 -1
vn 0 0 1
vn 0 1 0
vn 0 -1 0
vn -1 0 0
vn 1 0 0
usemtl material_0_2
f 1//1 2//1 3//1
f 3//2 2//2 1//2
f 2//1 1//1 4//1
f 4//2 1//2 2//2
f 5//3 6//3 7//3
f 7//4 6//4 5//4
f 6//3 5//3 8//3
f 8//4 5//4 6//4
f 9//3 5//3 10//3
f 10//4 5//4 9//4
f 5//3 9//3 11//3
f 11//4 9//4 5//4
f 5//3 11//3 8//3
f 8//4 11//4 5//4
f 8//3 11//3 12//3
f 12//4 11//4 8//4
f 11//3 9//3 13//3
f 13//4 9//4 11//4
f 13//3 9//3 14//3
f 14//4 9//4 13//4
f 11//3 15//3 16//3
f 16//4 15//4 11//4
f 15//3 11//3 13//3
f 13//4 11//4 15//4
f 17//3 18//3 19//3
f 19//4 18//4 17//4
f 12//3 19//3 20//3
f 20//4 19//4 12//4
f 19//3 12//3 11//3
f 11//4 12//4 19//4
f 19//3 11//3 21//3
f 21//4 11//4 19//4
f 20//3 19//3 22//3
f 22//4 19//4 20//4
f 22//3 19//3 18//3
f 18//4 19//4 22//4
f 23//5 24//5 25//5
f 25//6 24//6 23//6
f 24//5 23//5 26//5
f 26//6 23//6 24//6
f 26//5 23//5 27//5
f 27//6 23//6 26//6
f 27//5 23//5 28//5
f 28//6 23//6 27//6
f 29//3 30//3 31//3
f 31//4 30//4 29//4
f 30//3 29//3 32//3
f 32//4 29//4 30//4
f 32//3 29//3 33//3
f 33//4 29//4 32//4
f 33//3 29//3 34//3
f 34//4 29//4 33//4
f 33//3 34//3 35//3
f 35//4 34//4 33//4
f 33//3 35//3 36//3
f 36//4 35//4 33//4
f 33//3 36//3 37//3
f 37//4 36//4 33//4
f 38//6 39//6 40//6
f 40//5 39//5 38//5
f 39//6 38//6 41//6
f 41//5 38//5 39//5
f 42//1 43//1 44//1
f 44//2 43//2 42//2
f 43//1 42//1 45//1
f 45//2 42//2 43//2
f 46//5 47//5 48//5
f 48//6 47//6 46//6
f 47//5 46//5 49//5
f 49//6 46//6 47//6
f 49//5 46//5 50//5
f 50//6 46//6 49//6
f 51//2 52//2 53//2
f 53//1 52//1 51//1
f 52//2 51//2 54//2
f 54//1 51//1 52//1
f 55//5 56//5 57//5
f 57//6 56//6 55//6
f 58//5 59//5 60//5
f 60//6 59//6 58//6
f 59//5 58//5 61//5
f 61//6 58//6 59//6
f 59//5 61//5 62//5
f 62//6 61//6 59//6
f 62//5 61//5 56//5
f 56//6 61//6 62//6
f 62//5 56//5 55//5
f 55//6 56//6 62//6
f 63//2 64//2 65//2
f 65//1 64//1 63//1
f 64//2 63//2 66//2
f 66//1 63//1 64//1
f 67//6 68//6 69//6
f 69//5 68//5 67//5
f 68//6 67//6 70//6
f 70//5 67//5 68//5
f 68//6 70//6 71//6
f 71//5 70//5 68//5
f 71//6 70//6 72//6
f 72//5 70//5 71//5
f 72//6 70//6 73//6
f 73//5 70//5 72//5
f 74//6 69//6 68//6
f 68//5 69//5 74//5
f 75//2 76//2 77//2
f 77//1 76//1 75//1
f 76//2 75//2 78//2
f 78//1 75//1 76//1
f 79//6 80//6 81//6
f 81//5 80//5 79//5
f 80//6 79//6 82//6
f 82//5 79//5 80//5
f 82//6 79//6 83//6
f 83//5 79//5 82//5
f 84//1 85//1 86//1
f 86//2 85//2 84//2
f 85//1 84//1 87//1
f 87//2 84//2 85//2
f 88//6 89//6 90//6
f 90//5 89//5 88//5
f 89//6 88//6 91//6
f 91//5 88//5 89//5
f 92//2 93//2 94//2
f 94//1 93//1 92//1
f 93//2 92//2 95//2
f 95//1 92//1 93//1
f 96//1 97//1 98//1
f 98//2 97//2 96//2
f 97//1 96//1 99//1
f 99//2 96//2 97//2
f 97//1 99//1 100//1
f 100//2 99//2 97//2
f 100//1 99//1 101//1
f 101//2 99//2 100//2
f 102//3 103//3 104//3
f 104//4 103//4 102//4
f 103//3 102//3 105//3
f 105//4 102//4 103//4
f 106//2 107//2 108//2
f 108//1 107//1 106//1
f 107//2 106//2 109//2
f 109//1 106//1 107//1
f 110//4 111//4 112//4
f 112//3 111//3 110//3
f 113//4 114//4 115//4
f 115//3 114//3 113//3
f 114//4 113//4 116//4
f 116//3 113//3 114//3
f 117//4 118//4 119//4
f 119//3 118//3 117//3
f 118//4 117//4 111//4
f 111//3 117//3 118//3
f 118//4 111//4 120//4
f 120//3 111//3 118//3
f 120//4 111//4 121//4
f 121//3 111//3 120//3
f 121//4 111//4 122//4
f 122//3 111//3 121//3
f 122//4 111//4 123//4
f 123//3 111//3 122//3
f 123//4 111//4 124//4
f 124//3 111//3 123//3
f 124//4 111//4 125//4
f 125//3 111//3 124//3
f 125//4 111//4 126//4
f 126//3 111//3 125//3
f 126//4 111//4 110//4
f 110//3 111//3 126//3
f 126//4 110//4 115//4
f 115//3 110//3 126//3
f 126//4 115//4 114//4
f 114//3 115//3 126//3
f 119//4 127//4 124//4
f 124//3 127//3 119//3
f 127//4 119//4 128//4
f 128//3 119//3 127//3
f 128//4 119//4 118//4
f 118//3 119//3 128//3
f 127//4 128//4 129//4
f 129//3 128//3 127//3
f 124//4 127//4 123//4
f 123//3 127//3 124//3
f 121//4 129//4 128//4
f 128//3 129//3 121//3
f 129//4 121//4 130//4
f 130//3 121//3 129//3
f 130//4 121//4 122//4
f 122//3 121//3 130//3
f 131//2 132//2 133//2
f 133//1 132//1 131//1
f 132//2 131//2 134//2
f 134//1 131//1 132//1
f 135//3 136//3 137//3
f 137//4 136//4 135//4
f 136//3 135//3 138//3
f 138//4 135//4 136//4
f 139//6 140//6 141//6
f 141//5 140//5 139//5
f 140//6 139//6 142//6
f 142//5 139//5 140//5
f 143//5 144//5 145//5
f 145//6 144//6 143//6
f 144//5 143//5 146//5
f 146//6 143//6 144//6
f 146//5 143//5 147//5
f 147//6 143//6 146//6
f 148//1 149//1 150//1
f 150//2 149//2 148//2
f 149//1 148//1 151//1
f 151//2 148//2 149//2
f 152//6 153//6 154//6
f 154//5 153//5 152//5
f 153//6 152//6 155//6
f 155//5 152//5 153//5
f 156//1 157//1 158//1
f 158//2 157//2 156//2
f 157//1 156//1 159//1
f 159//2 156//2 157//2
f 160//6 161//6 162//6
f 162//5 161//5 160//5
f 161//6 160//6 163//6
f 163//5 160//5 161//5
f 163//6 160//6 164//6
f 164//5 160//5 163//5
f 165//4 166//4 167//4
f 167//3 166//3 165//3
f 166//4 165//4 168//4
f 168//3 165//3 166//3
