# SSTK version 0.8.0
# 8
mtllib original-8.mtl
o #ID52
v -0.484695 -0.036350 0.237101
v -0.479767 0.018884 0.237101
v -0.485867 -0.008408 0.237101
v -0.476331 -0.063036 0.237101
v -0.466811 0.043668 0.237101
v -0.461346 -0.086648 0.237101
v -0.447882 0.064254 0.237101
v -0.440760 -0.105577 0.237101
v -0.424270 0.079240 0.237101
v -0.415976 -0.118533 0.237101
v -0.397584 0.087603 0.237101
v -0.388683 -0.124633 0.237101
v -0.369642 0.088775 0.237101
v -0.360742 -0.123461 0.237101
v -0.342350 0.082675 0.237101
v -0.334056 -0.115097 0.237101
v -0.317566 0.069719 0.237101
v -0.310444 -0.100112 0.237101
v -0.296980 0.050790 0.237101
v -0.291515 -0.079526 0.237101
v -0.281994 0.027178 0.237101
v -0.278559 -0.054742 0.237101
v -0.273631 0.000492 0.237101
v -0.272459 -0.027449 0.237101
v -0.317566 0.069719 0.186688
v -0.342350 0.082675 0.237101
v -0.317566 0.069719 0.237101
v -0.342350 0.082675 0.186688
v -0.369642 0.088775 0.237101
v -0.369642 0.088775 0.186688
v -0.397584 0.087603 0.237101
v -0.397584 0.087603 0.186688
v -0.424270 0.079240 0.237101
v -0.424270 0.079240 0.186688
v -0.447882 0.064254 0.237101
v -0.447882 0.064254 0.186688
v -0.466811 0.043668 0.186688
v -0.466811 0.043668 0.237101
v -0.479767 0.018884 0.186688
v -0.479767 0.018884 0.237101
v -0.485867 -0.008408 0.186688
v -0.485867 -0.008408 0.237101
v -0.484695 -0.036350 0.186688
v -0.484695 -0.036350 0.237101
v -0.476331 -0.063036 0.186688
v -0.476331 -0.063036 0.237101
v -0.461346 -0.086648 0.186688
v -0.461346 -0.086648 0.237101
v -0.440760 -0.105577 0.237101
v -0.440760 -0.105577 0.186688
v -0.415976 -0.118533 0.237101
v -0.415976 -0.118533 0.186688
v -0.388683 -0.124633 0.237101
v -0.388683 -0.124633 0.186688
v -0.360742 -0.123461 0.237101
v -0.360742 -0.123461 0.186688
v -0.334056 -0.115097 0.237101
v -0.334056 -0.115097 0.186688
v -0.310444 -0.100112 0.237101
v -0.310444 -0.100112 0.186688
v -0.291515 -0.079526 0.186688
v -0.291515 -0.079526 0.237101
v -0.278559 -0.054742 0.186688
v -0.278559 -0.054742 0.237101
v -0.272459 -0.027449 0.186688
v -0.272459 -0.027449 0.237101
v -0.273631 0.000492 0.186688
v -0.273631 0.000492 0.237101
v -0.281994 0.027178 0.186688
v -0.281994 0.027178 0.237101
v -0.296980 0.050790 0.186688
v -0.296980 0.050790 0.237101
vn 0 0 1
vn 0 0 -1
vn 0.5749862033372056 0.8181631047485983 0
vn 0.3436377884101062 0.9391022683268374 0
vn -0.5749862033372056 -0.8181631047485983 0
vn -0.3436377884101062 -0.9391022683268374 0
vn 0.08887106344983552 0.9960431386648348 0
vn -0.08887106344983552 -0.9960431386648348 0
vn -0.17195210199614896 0.9851053114358413 0
vn 0.17195210199614896 -0.9851053114358413 0
vn -0.4210569921644158 0.9070341831207107 0
vn 0.4210569921644158 -0.9070341831207107 0
vn -0.6414675054793223 0.7671502065528858 0
vn 0.6414675054793223 -0.7671502065528858 0
vn -0.8181631047485983 0.5749862033372056 0
vn 0.8181631047485983 -0.5749862033372056 0
vn -0.9391022683268374 0.3436377884101062 0
vn 0.9391022683268374 -0.3436377884101062 0
vn -0.9960431386648348 0.08887106344983552 0
vn 0.9960431386648348 -0.08887106344983552 0
vn -0.9851053114358413 -0.17195210199614896 0
vn 0.9851053114358413 0.17195210199614896 0
vn -0.9070341831207107 -0.4210569921644158 0
vn 0.9070341831207107 0.4210569921644158 0
vn -0.7671502065528858 -0.6414675054793223 0
vn 0.7671502065528858 0.6414675054793223 0
usemtl material_0_2
f 1//1 2//1 3//1
f 3//2 2//2 1//2
f 2//1 1//1 4//1
f 4//2 1//2 2//2
f 2//1 4//1 5//1
f 5//2 4//2 2//2
f 5//1 4//1 6//1
f 6//2 4//2 5//2
f 5//1 6//1 7//1
f 7//2 6//2 5//2
f 7//1 6//1 8//1
f 8//2 6//2 7//2
f 7//1 8//1 9//1
f 9//2 8//2 7//2
f 9//1 8//1 10//1
f 10//2 8//2 9//2
f 9//1 10//1 11//1
f 11//2 10//2 9//2
f 11//1 10//1 12//1
f 12//2 10//2 11//2
f 11//1 12//1 13//1
f 13//2 12//2 11//2
f 13//1 12//1 14//1
f 14//2 12//2 13//2
f 13//1 14//1 15//1
f 15//2 14//2 13//2
f 15//1 14//1 16//1
f 16//2 14//2 15//2
f 15//1 16//1 17//1
f 17//2 16//2 15//2
f 17//1 16//1 18//1
f 18//2 16//2 17//2
f 17//1 18//1 19//1
f 19//2 18//2 17//2
f 19//1 18//1 20//1
f 20//2 18//2 19//2
f 19//1 20//1 21//1
f 21//2 20//2 19//2
f 21//1 20//1 22//1
f 22//2 20//2 21//2
f 21//1 22//1 23//1
f 23//2 22//2 21//2
f 23//1 22//1 24//1
f 24//2 22//2 23//2
f 25//3 26//4 27//3
f 27//5 26//6 25//5
f 26//4 25//3 28//4
f 28//6 25//5 26//6
f 28//4 29//7 26//4
f 26//6 29//8 28//6
f 29//7 28//4 30//7
f 30//8 28//6 29//8
f 30//7 31//9 29//7
f 29//8 31//10 30//8
f 31//9 30//7 32//9
f 32//10 30//8 31//10
f 32//9 33//11 31//9
f 31//10 33//12 32//10
f 33//11 32//9 34//11
f 34//12 32//10 33//12
f 34//11 35//13 33//11
f 33//12 35//14 34//12
f 35//13 34//11 36//13
f 36//14 34//12 35//14
f 37//15 35//13 36//13
f 36//14 35//14 37//16
f 35//13 37//15 38//15
f 38//16 37//16 35//14
f 39//17 38//15 37//15
f 37//16 38//16 39//18
f 38//15 39//17 40//17
f 40//18 39//18 38//16
f 41//19 40//17 39//17
f 39//18 40//18 41//20
f 40//17 41//19 42//19
f 42//20 41//20 40//18
f 43//21 42//19 41//19
f 41//20 42//20 43//22
f 42//19 43//21 44//21
f 44//22 43//22 42//20
f 45//23 44//21 43//21
f 43//22 44//22 45//24
f 44//21 45//23 46//23
f 46//24 45//24 44//22
f 47//25 46//23 45//23
f 45//24 46//24 47//26
f 46//23 47//25 48//25
f 48//26 47//26 46//24
f 47//25 49//5 48//25
f 48//26 49//3 47//26
f 49//5 47//25 50//5
f 50//3 47//26 49//3
f 50//5 51//6 49//5
f 49//3 51//4 50//3
f 51//6 50//5 52//6
f 52//4 50//3 51//4
f 52//6 53//8 51//6
f 51//4 53//7 52//4
f 53//8 52//6 54//8
f 54//7 52//4 53//7
f 54//8 55//10 53//8
f 53//7 55//9 54//7
f 55//10 54//8 56//10
f 56//9 54//7 55//9
f 56//10 57//12 55//10
f 55//9 57//11 56//9
f 57//12 56//10 58//12
f 58//11 56//9 57//11
f 58//12 59//14 57//12
f 57//11 59//13 58//11
f 59//14 58//12 60//14
f 60//13 58//11 59//13
f 59//14 61//16 62//16
f 62//15 61//15 59//13
f 61//16 59//14 60//14
f 60//13 59//13 61//15
f 62//16 63//18 64//18
f 64//17 63//17 62//15
f 63//18 62//16 61//16
f 61//15 62//15 63//17
f 64//18 65//20 66//20
f 66//19 65//19 64//17
f 65//20 64//18 63//18
f 63//17 64//17 65//19
f 66//20 67//22 68//22
f 68//21 67//21 66//19
f 67//22 66//20 65//20
f 65//19 66//19 67//21
f 68//22 69//24 70//24
f 70//23 69//23 68//21
f 69//24 68//22 67//22
f 67//21 68//21 69//23
f 70//24 71//26 72//26
f 72//25 71//25 70//23
f 71//26 70//24 69//24
f 69//23 70//23 71//25
f 71//26 27//3 72//26
f 72//25 27//5 71//25
f 27//3 71//26 25//3
f 25//5 71//25 27//5
