# SSTK version 0.8.0
# 10
mtllib original-10.mtl
o #ID64
v 0.553479 -0.723711 0.161481
v 0.679511 -0.723711 0.186688
v 0.553479 -0.723711 0.186688
v 0.679511 -0.723711 0.161481
v 0.679511 -0.585076 0.186688
v 0.679511 -0.396027 0.136275
v 0.679511 -0.396027 0.161481
v 0.679511 -0.597679 0.161481
v 0.679511 -0.597679 0.186688
v 0.679511 -0.723711 0.186688
v 0.679511 -0.723711 0.161481
v 0.679511 -0.723711 0.186688
v 0.553479 -0.597679 0.186688
v 0.553479 -0.723711 0.186688
v 0.553479 -0.585076 0.186688
v 0.679511 -0.585076 0.186688
v 0.679511 -0.597679 0.186688
v 0.553479 -0.597679 0.161481
v 0.553479 -0.396027 0.141316
v 0.553479 -0.396027 0.136275
v 0.553479 -0.585076 0.186688
v 0.553479 -0.597679 0.186688
v 0.553479 -0.723711 0.161481
v 0.553479 -0.723711 0.186688
v 0.553479 -0.396027 0.161481
v 0.679511 -0.597679 0.161481
v 0.553479 -0.723711 0.161481
v 0.553479 -0.597679 0.161481
v 0.679511 -0.723711 0.161481
v 0.679511 -0.585076 0.186688
v 0.553479 -0.396027 0.161481
v 0.553479 -0.585076 0.186688
v 0.679511 -0.396027 0.161481
v 0.679511 -0.396027 0.136275
v 0.553479 -0.597679 0.161481
v 0.553479 -0.396027 0.136275
v 0.679511 -0.597679 0.161481
vn 0 -1 0
vn 0 1 0
vn 1 0 0
vn -1 0 0
vn 0 0 1
vn 0 0 -1
vn 0 0.13216370044036285 0.9912279033027219
vn 0 -0.13216370044036285 -0.9912279033027219
vn 0 -0.12403469766613213 -0.9922778813290515
vn 0 0.12403469766613213 0.9922778813290515
usemtl material_0_2
f 1//1 2//1 3//1
f 3//2 2//2 1//2
f 2//1 1//1 4//1
f 4//2 1//2 2//2
f 5//3 6//3 7//3
f 7//4 6//4 5//4
f 6//3 5//3 8//3
f 8//4 5//4 6//4
f 8//3 5//3 9//3
f 9//4 5//4 8//4
f 8//3 9//3 10//3
f 10//4 9//4 8//4
f 8//3 10//3 11//3
f 11//4 10//4 8//4
f 12//5 13//5 14//5
f 14//6 13//6 12//6
f 13//5 12//5 15//5
f 15//6 12//6 13//6
f 15//5 12//5 16//5
f 16//6 12//6 15//6
f 16//5 12//5 17//5
f 17//6 12//6 16//6
f 18//4 19//4 20//4
f 20//3 19//3 18//3
f 19//4 18//4 21//4
f 21//3 18//3 19//3
f 21//4 18//4 22//4
f 22//3 18//3 21//3
f 22//4 18//4 23//4
f 23//3 18//3 22//3
f 22//4 23//4 24//4
f 24//3 23//3 22//3
f 21//4 25//4 19//4
f 19//3 25//3 21//3
f 26//6 27//6 28//6
f 28//5 27//5 26//5
f 27//6 26//6 29//6
f 29//5 26//5 27//5
f 30//7 31//7 32//7
f 32//8 31//8 30//8
f 31//7 30//7 33//7
f 33//8 30//8 31//8
f 34//9 35//9 36//9
f 36//10 35//10 34//10
f 35//9 34//9 37//9
f 37//10 34//10 35//10
