# SSTK version 0.8.0
# 3
mtllib original-3.mtl
o #ID18
v 0.314017 0.309756 -0.191410
v 0.364430 0.360169 -0.178807
v 0.364430 0.360169 -0.191410
v 0.314017 0.309756 -0.178807
v 0.314017 0.309756 -0.178807
v 0.314017 0.309756 -0.191410
v 0.364430 0.360169 -0.178807
v 0.364430 0.360169 -0.191410
v 0.316033 0.309756 -0.178807
v 0.364430 0.360169 -0.178807
v 0.314017 0.309756 -0.178807
v 0.364430 0.309756 -0.178807
v 0.364430 0.309756 -0.178807
v 0.316033 0.309756 -0.178807
v 0.364430 0.360169 -0.178807
v 0.314017 0.309756 -0.178807
v 0.364430 0.309756 -0.178807
v 0.364430 0.360169 -0.178689
v 0.364430 0.360169 -0.178807
v 0.364430 0.309756 -0.178689
v 0.364430 0.309756 -0.178689
v 0.364430 0.309756 -0.178807
v 0.364430 0.360169 -0.178689
v 0.364430 0.360169 -0.178807
v 0.364430 0.360169 -0.002361
v 0.364430 0.309756 -0.002361
v 0.364430 0.309756 -0.002361
v 0.364430 0.360169 -0.002361
v 0.364430 0.196327 -0.002361
v 0.364430 0.309756 -0.178689
v 0.364430 0.309756 -0.002361
v 0.364430 0.196327 -0.178689
v 0.364430 0.196327 -0.178689
v 0.364430 0.196327 -0.002361
v 0.364430 0.309756 -0.178689
v 0.364430 0.309756 -0.002361
v 0.364430 0.360169 -0.002361
v -0.013668 0.309756 -0.002361
v -0.013668 0.360169 -0.002361
v 0.364430 0.309756 -0.002361
v 0.364430 0.309756 -0.002361
v 0.364430 0.360169 -0.002361
v -0.013668 0.309756 -0.002361
v -0.013668 0.360169 -0.002361
v -0.013668 0.196327 -0.002361
v 0.364430 0.309756 -0.002361
v -0.013668 0.309756 -0.002361
v 0.364430 0.196327 -0.002361
v 0.364430 0.196327 -0.002361
v -0.013668 0.196327 -0.002361
v 0.364430 0.309756 -0.002361
v -0.013668 0.309756 -0.002361
v -0.013668 0.196327 -0.178689
v 0.364430 0.196327 -0.002361
v -0.013668 0.196327 -0.002361
v 0.364430 0.196327 -0.178689
v 0.364430 0.196327 -0.178689
v -0.013668 0.196327 -0.178689
v 0.364430 0.196327 -0.002361
v -0.013668 0.196327 -0.002361
vn -0.7071067811865476 0.7071067811865476 0
vn 0 0 1
vn -1 0 0
vn 1 0 0
vn 0 0 -1
vn 0 -1 0
vn 0.7071067811865476 -0.7071067811865476 0
vn 0 1 0
usemtl material_0_0
f 1//1 2//1 3//1
f 2//1 1//1 4//1
f 9//2 10//2 11//2
f 10//2 9//2 12//2
f 17//3 18//3 19//3
f 18//3 17//3 20//3
f 20//3 25//3 18//3
f 25//3 20//3 26//3
f 29//4 30//4 31//4
f 30//4 29//4 32//4
f 37//5 38//5 39//5
f 38//5 37//5 40//5
f 45//2 46//2 47//2
f 46//2 45//2 48//2
f 53//6 54//6 55//6
f 54//6 53//6 56//6
usemtl material_1_0
f 5//7 6//7 7//7
f 8//7 7//7 6//7
f 13//5 14//5 15//5
f 16//5 15//5 14//5
f 21//4 22//4 23//4
f 24//4 23//4 22//4
f 27//4 21//4 28//4
f 23//4 28//4 21//4
f 33//3 34//3 35//3
f 36//3 35//3 34//3
f 41//2 42//2 43//2
f 44//2 43//2 42//2
f 49//5 50//5 51//5
f 52//5 51//5 50//5
f 57//8 58//8 59//8
f 60//8 59//8 58//8
