# SSTK version 0.8.0
# 15
mtllib original-15.mtl
o #ID94
v 0.049405 -0.585076 0.186688
v 0.049405 -0.396027 0.136275
v 0.049405 -0.396027 0.161481
v 0.049405 -0.597679 0.161481
v 0.049405 -0.597679 0.186688
v 0.049405 -0.723711 0.186688
v 0.049405 -0.723711 0.161481
v 0.049405 -0.585076 0.186688
v -0.076628 -0.396027 0.161481
v -0.076628 -0.585076 0.186688
v 0.049405 -0.396027 0.161481
v 0.049405 -0.723711 0.186688
v -0.076628 -0.597679 0.186688
v -0.076628 -0.723711 0.186688
v -0.076628 -0.585076 0.186688
v 0.049405 -0.585076 0.186688
v 0.049405 -0.597679 0.186688
v -0.076628 -0.723711 0.161481
v 0.049405 -0.723711 0.186688
v -0.076628 -0.723711 0.186688
v 0.049405 -0.723711 0.161481
v 0.049405 -0.597679 0.161481
v -0.076628 -0.723711 0.161481
v -0.076628 -0.597679 0.161481
v 0.049405 -0.723711 0.161481
v 0.049405 -0.396027 0.136275
v -0.076628 -0.597679 0.161481
v -0.076628 -0.396027 0.136275
v 0.049405 -0.597679 0.161481
v -0.076628 -0.597679 0.161481
v -0.076628 -0.396027 0.141316
v -0.076628 -0.396027 0.136275
v -0.076628 -0.585076 0.186688
v -0.076628 -0.597679 0.186688
v -0.076628 -0.723711 0.161481
v -0.076628 -0.723711 0.186688
v -0.076628 -0.396027 0.161481
vn 1 0 0
vn -1 0 0
vn 0 0.13216370044036285 0.9912279033027219
vn 0 -0.13216370044036285 -0.9912279033027219
vn 0 0 1
vn 0 0 -1
vn 0 -1 0
vn 0 1 0
vn 0 -0.12403469766613213 -0.9922778813290515
vn 0 0.12403469766613213 0.9922778813290515
usemtl material_0_2
f 1//1 2//1 3//1
f 3//2 2//2 1//2
f 2//1 1//1 4//1
f 4//2 1//2 2//2
f 4//1 1//1 5//1
f 5//2 1//2 4//2
f 4//1 5//1 6//1
f 6//2 5//2 4//2
f 4//1 6//1 7//1
f 7//2 6//2 4//2
f 8//3 9//3 10//3
f 10//4 9//4 8//4
f 9//3 8//3 11//3
f 11//4 8//4 9//4
f 12//5 13//5 14//5
f 14//6 13//6 12//6
f 13//5 12//5 15//5
f 15//6 12//6 13//6
f 15//5 12//5 16//5
f 16//6 12//6 15//6
f 16//5 12//5 17//5
f 17//6 12//6 16//6
f 18//7 19//7 20//7
f 20//8 19//8 18//8
f 19//7 18//7 21//7
f 21//8 18//8 19//8
f 22//6 23//6 24//6
f 24//5 23//5 22//5
f 23//6 22//6 25//6
f 25//5 22//5 23//5
f 26//9 27//9 28//9
f 28//10 27//10 26//10
f 27//9 26//9 29//9
f 29//10 26//10 27//10
f 30//2 31//2 32//2
f 32//1 31//1 30//1
f 31//2 30//2 33//2
f 33//1 30//1 31//1
f 33//2 30//2 34//2
f 34//1 30//1 33//1
f 34//2 30//2 35//2
f 35//1 30//1 34//1
f 34//2 35//2 36//2
f 36//1 35//1 34//1
f 33//2 37//2 31//2
f 31//1 37//1 33//1
