# SSTK version 0.8.0
# 2
mtllib original-2.mtl
o Group3/mesh1/mesh1-geometry#mesh1-geometry
v -0.566971 -0.644188 0.159890
v -0.617578 -0.603705 0.159890
v -0.566971 -0.654312 0.159890
v -0.607454 -0.603705 0.159890
v 0.040266 -0.320328 0.159890
v -0.566971 -0.654312 0.281337
v 0.040266 -0.644188 0.159890
v -0.607454 0.003532 0.159890
v -0.043555 -0.309299 0.159890
v -0.617578 -0.603705 0.281337
v 0.040266 -0.654312 0.159890
v -0.121664 -0.276938 0.159890
v -0.617578 0.003532 0.159890
v -0.617578 0.610769 0.281337
v 0.687985 -0.603705 0.159890
v 0.040266 0.003532 0.159890
v 0.040266 -0.401293 0.281337
v 0.647503 -0.654312 0.281337
v 0.647503 -0.644188 0.159890
v -0.188744 -0.225478 0.159890
v -0.617578 0.610769 0.159890
v -0.607454 0.610769 0.159890
v 0.124087 -0.309299 0.159890
v -0.064517 -0.387497 0.281337
v -0.162147 -0.347053 0.281337
v -0.350763 -0.101251 0.281337
v 0.698109 -0.603705 0.281337
v 0.647503 -0.654312 0.159890
v -0.245993 -0.282727 0.281337
v -0.240205 -0.158398 0.159890
v -0.272565 0.087353 0.159890
v -0.566971 0.661375 0.159890
v 0.698109 -0.603705 0.159890
v 0.202196 -0.276938 0.159890
v 0.040266 -0.507555 0.281337
v 0.145048 -0.387497 0.281337
v -0.310319 -0.198881 0.281337
v -0.364559 0.003532 0.281337
v 0.040266 -0.548037 0.281337
v -0.272565 -0.080289 0.159890
v -0.566971 0.651251 0.159890
v -0.283594 0.003532 0.159890
v -0.240205 0.165462 0.159890
v -0.566971 0.661375 0.281337
v 0.040266 0.651251 0.159890
v 0.698109 0.003532 0.159890
v 0.687985 0.003532 0.159890
v 0.242678 -0.347053 0.281337
v 0.269275 -0.225478 0.159890
v -0.350763 0.108315 0.281337
v 0.035025 -0.547349 0.281337
v 0.030142 -0.545334 0.281337
v 0.045506 -0.547349 0.281337
v 0.040266 0.327392 0.159890
v -0.188744 0.232542 0.159890
v 0.040266 0.661375 0.159890
v 0.698109 0.610769 0.281337
v 0.326525 -0.282727 0.281337
v 0.320736 -0.158398 0.159890
v 0.035025 -0.508243 0.281337
v 0.030142 -0.510270 0.281337
v 0.025947 -0.542108 0.281337
v -0.310319 0.205944 0.281337
v 0.050390 -0.545334 0.281337
v 0.054584 -0.542108 0.281337
v 0.022734 -0.537926 0.281337
v 0.020719 -0.533043 0.281337
v 0.057797 -0.537926 0.281337
v 0.698109 0.610769 0.159890
v -0.121664 0.284002 0.159890
v 0.647503 0.661375 0.281337
v 0.040266 0.555101 0.281337
v -0.043555 0.316363 0.159890
v 0.687985 0.610769 0.159890
v 0.647503 0.661375 0.159890
v 0.390850 -0.198881 0.281337
v 0.353096 -0.080289 0.159890
v 0.022734 -0.517678 0.281337
v 0.025947 -0.513484 0.281337
v 0.020719 -0.522562 0.281337
v 0.050390 -0.510270 0.281337
v 0.045506 -0.508243 0.281337
v 0.054584 -0.513484 0.281337
v 0.057797 -0.517678 0.281337
v 0.020018 -0.527802 0.281337
v -0.245993 0.289791 0.281337
v 0.059812 -0.533043 0.281337
v 0.060501 -0.527802 0.281337
v 0.364126 0.003532 0.159890
v 0.353096 0.087353 0.159890
v 0.045506 0.554412 0.281337
v 0.050390 0.552398 0.281337
v 0.035025 0.554412 0.281337
v 0.030142 0.552398 0.281337
v -0.064517 0.394561 0.281337
v 0.124087 0.316363 0.159890
v 0.647503 0.651251 0.159890
v 0.431295 -0.101251 0.281337
v 0.059812 -0.522562 0.281337
v -0.162147 0.354116 0.281337
v 0.320736 0.165462 0.159890
v 0.054584 0.549172 0.281337
v 0.057797 0.544990 0.281337
v 0.025947 0.549172 0.281337
v 0.059812 0.540106 0.281337
v 0.020719 0.540106 0.281337
v 0.022734 0.544990 0.281337
v 0.040266 0.408357 0.281337
v 0.202196 0.284002 0.159890
v 0.445090 0.003532 0.281337
v 0.431295 0.108315 0.281337
v 0.269275 0.232542 0.159890
v 0.060501 0.534866 0.281337
v 0.020018 0.534866 0.281337
v 0.020719 0.529626 0.281337
v 0.242678 0.354116 0.281337
v 0.145048 0.394561 0.281337
v 0.390850 0.205944 0.281337
v 0.057797 0.524742 0.281337
v 0.059812 0.529626 0.281337
v 0.035025 0.515307 0.281337
v 0.030142 0.517334 0.281337
v 0.025947 0.520547 0.281337
v 0.022734 0.524742 0.281337
v 0.326525 0.289791 0.281337
v 0.045506 0.515307 0.281337
v 0.040266 0.514618 0.281337
v 0.050390 0.517334 0.281337
v 0.054584 0.520547 0.281337
vn 0 0 1
vn 0 0 -1
vn 0.7071067811865478 0.7071067811865476 0
vn -0.7071067811865478 -0.7071067811865476 0
vn 0 1 0
vn 0 -1 0
vn 1 0 0
vn -1 0 0
vn 0.14356705352252547 0.535799199748658 0.8320503101925737
vn 0 0.5547001962252291 0.8320502943378437
vn 0 -0.5547001962252291 -0.8320502943378437
vn -0.14356705352252547 -0.535799199748658 -0.8320503101925737
vn -0.14356705352252525 0.535799199748658 0.8320503101925737
vn 0.14356705352252525 -0.535799199748658 -0.8320503101925737
vn 0.2773501369477658 0.4803842372003441 0.832050410843297
vn -0.2773501369477658 -0.4803842372003441 -0.832050410843297
vn 0.3922321792211218 0.3922321792211216 0.8320503801855389
vn -0.3922321792211218 -0.3922321792211216 -0.8320503801855389
vn 0.7071067811865476 -0.7071067811865478 0
vn -0.7071067811865476 0.7071067811865478 0
vn 0.48038423720034423 0.27735013694776556 0.832050410843297
vn -0.48038423720034423 -0.27735013694776556 -0.832050410843297
vn -0.27735013694776556 0.48038423720034423 0.832050410843297
vn 0.27735013694776556 -0.48038423720034423 -0.832050410843297
vn 0.535799199748658 0.14356705352252525 0.8320503101925737
vn -0.535799199748658 -0.14356705352252525 -0.8320503101925737
vn 0.5547001962252291 0 0.8320502943378437
vn -0.5547001962252291 0 -0.8320502943378437
vn 0.535799199748658 -0.14356705352252547 0.8320503101925737
vn -0.535799199748658 0.14356705352252547 -0.8320503101925737
vn 0.4803842372003441 -0.2773501369477658 0.832050410843297
vn -0.4803842372003441 0.2773501369477658 -0.832050410843297
vn -0.3922321792211216 0.3922321792211218 0.8320503801855389
vn 0.3922321792211216 -0.3922321792211218 -0.8320503801855389
vn 0.3922321792211216 -0.3922321792211218 0.8320503801855389
vn -0.3922321792211216 0.3922321792211218 -0.8320503801855389
vn -0.4803842372003441 0.2773501369477658 0.832050410843297
vn 0.4803842372003441 -0.2773501369477658 -0.832050410843297
vn 0.27735013694776556 -0.48038423720034423 0.832050410843297
vn -0.27735013694776556 0.48038423720034423 -0.832050410843297
vn 0 -0.5547001962252291 0.8320502943378437
vn 0.14356705352252525 -0.535799199748658 0.8320503101925737
vn -0.14356705352252525 0.535799199748658 -0.8320503101925737
vn 0 0.5547001962252291 -0.8320502943378437
vn -0.535799199748658 0.14356705352252547 0.8320503101925737
vn 0.535799199748658 -0.14356705352252547 -0.8320503101925737
vn -0.14356705352252547 -0.535799199748658 0.8320503101925737
vn 0.14356705352252547 0.535799199748658 -0.8320503101925737
vn -0.5547001962252291 0 0.8320502943378437
vn 0.5547001962252291 0 -0.8320502943378437
vn -0.535799199748658 -0.14356705352252525 0.8320503101925737
vn 0.535799199748658 0.14356705352252525 -0.8320503101925737
vn -0.48038423720034423 -0.27735013694776556 0.832050410843297
vn 0.48038423720034423 0.27735013694776556 -0.832050410843297
vn -0.2773501369477658 -0.4803842372003441 0.832050410843297
vn 0.2773501369477658 0.4803842372003441 -0.832050410843297
vn -0.3922321792211218 -0.3922321792211216 0.8320503801855389
vn 0.3922321792211218 0.3922321792211216 -0.8320503801855389
usemtl material_0_0
f 1//1 2//1 3//1
f 2//1 1//1 4//1
f 3//2 2//2 1//2
f 4//2 1//2 2//2
f 1//1 5//1 4//1
f 4//2 5//2 1//2
f 2//3 6//3 3//3
f 3//4 6//4 2//4
f 3//1 7//1 1//1
f 1//2 7//2 3//2
f 8//1 2//1 4//1
f 4//2 2//2 8//2
f 5//1 1//1 7//1
f 7//2 1//2 5//2
f 4//1 5//1 9//1
f 9//2 5//2 4//2
f 6//3 2//3 10//3
f 10//4 2//4 6//4
f 6//5 11//5 3//5
f 3//6 11//6 6//6
f 7//1 3//1 11//1
f 11//2 3//2 7//2
f 4//1 12//1 8//1
f 8//2 12//2 4//2
f 13//7 14//7 2//7
f 2//8 14//8 13//8
f 2//1 8//1 13//1
f 13//2 8//2 2//2
f 7//1 15//1 5//1
f 5//2 15//2 7//2
f 16//1 9//1 5//1
f 5//2 9//2 16//2
f 9//9 17//10 5//10
f 5//11 17//11 9//12
f 4//1 9//1 12//1
f 12//2 9//2 4//2
f 2//7 14//7 10//7
f 10//8 14//8 2//8
f 10//2 18//2 6//2
f 6//1 18//1 10//1
f 18//5 11//5 6//5
f 6//6 11//6 18//6
f 11//1 19//1 7//1
f 7//2 19//2 11//2
f 8//1 12//1 20//1
f 20//2 12//2 8//2
f 14//7 13//7 21//7
f 21//8 13//8 14//8
f 22//1 13//1 8//1
f 8//2 13//2 22//2
f 15//1 7//1 19//1
f 19//2 7//2 15//2
f 5//1 15//1 23//1
f 23//2 15//2 5//2
f 9//1 16//1 12//1
f 12//2 16//2 9//2
f 23//1 16//1 5//1
f 5//2 16//2 23//2
f 17//10 9//9 24//9
f 24//12 9//12 17//11
f 17//10 23//13 5//10
f 5//11 23//14 17//11
f 25//15 9//9 12//15
f 12//16 9//12 25//16
f 26//2 10//2 14//2
f 14//1 10//1 26//1
f 18//2 10//2 27//2
f 27//1 10//1 18//1
f 11//5 18//5 28//5
f 28//6 18//6 11//6
f 19//1 11//1 28//1
f 28//2 11//2 19//2
f 12//1 16//1 20//1
f 20//2 16//2 12//2
f 29//17 12//15 20//17
f 20//18 12//16 29//18
f 8//1 20//1 30//1
f 30//2 20//2 8//2
f 13//1 22//1 21//1
f 21//2 22//2 13//2
f 8//1 31//1 22//1
f 22//2 31//2 8//2
f 32//19 14//19 21//19
f 21//20 14//20 32//20
f 18//20 33//20 28//20
f 28//19 33//19 18//19
f 33//1 19//1 28//1
f 19//1 33//1 15//1
f 28//2 19//2 33//2
f 15//2 33//2 19//2
f 23//1 15//1 34//1
f 34//2 15//2 23//2
f 16//1 23//1 34//1
f 34//2 23//2 16//2
f 9//9 25//15 24//9
f 24//12 25//16 9//12
f 35//2 24//2 17//2
f 17//1 24//1 35//1
f 23//13 17//10 36//13
f 36//14 17//11 23//14
f 12//15 29//17 25//15
f 25//16 29//18 12//16
f 37//2 10//2 26//2
f 26//1 10//1 37//1
f 26//2 14//2 38//2
f 38//1 14//1 26//1
f 27//2 10//2 39//2
f 39//1 10//1 27//1
f 33//20 18//20 27//20
f 27//19 18//19 33//19
f 20//1 16//1 30//1
f 30//2 16//2 20//2
f 20//17 37//21 29//17
f 29//18 37//22 20//18
f 37//21 20//17 30//21
f 30//22 20//18 37//22
f 8//1 30//1 40//1
f 40//2 30//2 8//2
f 41//1 21//1 22//1
f 22//2 21//2 41//2
f 31//1 8//1 42//1
f 42//2 8//2 31//2
f 22//1 31//1 43//1
f 43//2 31//2 22//2
f 14//19 32//19 44//19
f 44//20 32//20 14//20
f 22//1 45//1 41//1
f 41//2 45//2 22//2
f 21//1 41//1 32//1
f 32//2 41//2 21//2
f 46//1 15//1 33//1
f 33//2 15//2 46//2
f 34//1 15//1 47//1
f 47//2 15//2 34//2
f 23//13 48//23 34//23
f 34//24 48//24 23//14
f 16//1 34//1 49//1
f 49//2 34//2 16//2
f 35//2 25//2 24//2
f 24//1 25//1 35//1
f 36//2 35//2 17//2
f 17//1 35//1 36//1
f 48//23 23//13 36//13
f 36//14 23//14 48//24
f 35//2 29//2 25//2
f 25//1 29//1 35//1
f 29//2 10//2 37//2
f 37//1 10//1 29//1
f 30//21 26//25 37//21
f 37//22 26//26 30//22
f 38//2 14//2 50//2
f 50//1 14//1 38//1
f 40//25 38//27 26//25
f 26//26 38//28 40//26
f 39//2 10//2 51//2
f 51//2 10//2 52//2
f 51//1 10//1 39//1
f 53//2 27//2 39//2
f 39//1 27//1 53//1
f 27//8 46//8 33//8
f 33//7 46//7 27//7
f 30//1 16//1 40//1
f 40//2 16//2 30//2
f 26//25 30//21 40//25
f 40//26 30//22 26//26
f 8//1 40//1 42//1
f 42//2 40//2 8//2
f 50//29 42//27 31//29
f 31//30 42//28 50//30
f 42//1 54//1 31//1
f 31//2 54//2 42//2
f 31//1 54//1 43//1
f 43//2 54//2 31//2
f 43//31 50//29 31//29
f 31//30 50//30 43//32
f 22//1 43//1 55//1
f 55//2 43//2 22//2
f 56//6 44//6 32//6
f 32//5 44//5 56//5
f 57//2 14//2 44//2
f 44//1 14//1 57//1
f 22//1 54//1 45//1
f 45//2 54//2 22//2
f 56//1 41//1 45//1
f 41//1 56//1 32//1
f 45//2 41//2 56//2
f 32//2 56//2 41//2
f 15//1 46//1 47//1
f 47//2 46//2 15//2
f 34//1 47//1 49//1
f 49//2 47//2 34//2
f 58//33 34//23 48//23
f 48//24 34//24 58//34
f 34//23 58//33 49//33
f 49//34 58//34 34//24
f 16//1 49//1 59//1
f 59//2 49//2 16//2
f 48//2 35//2 36//2
f 36//1 35//1 48//1
f 60//2 29//2 35//2
f 60//1 29//1 61//1
f 35//1 29//1 60//1
f 62//2 10//2 29//2
f 29//1 10//1 62//1
f 50//2 14//2 63//2
f 63//1 14//1 50//1
f 42//27 50//29 38//27
f 38//28 50//30 42//28
f 38//27 40//25 42//27
f 42//28 40//26 38//28
f 35//2 53//2 39//2
f 53//2 35//2 64//2
f 64//2 35//2 65//2
f 51//2 35//2 39//2
f 35//2 51//2 52//2
f 52//1 10//1 51//1
f 35//2 52//2 62//2
f 35//2 62//2 66//2
f 35//2 66//2 67//2
f 52//2 10//2 62//2
f 62//2 29//2 66//2
f 66//2 29//2 67//2
f 62//1 10//1 52//1
f 66//1 29//1 62//1
f 67//1 29//1 66//1
f 58//2 27//2 65//2
f 65//2 27//2 64//2
f 64//2 27//2 53//2
f 65//1 27//1 58//1
f 64//1 27//1 65//1
f 53//1 27//1 64//1
f 58//2 65//2 68//2
f 68//1 65//1 58//1
f 46//8 27//8 69//8
f 69//7 27//7 46//7
f 40//1 16//1 42//1
f 42//2 16//2 40//2
f 54//1 42//1 16//1
f 16//2 42//2 54//2
f 43//1 54//1 55//1
f 55//2 54//2 43//2
f 50//29 43//31 63//31
f 63//32 43//32 50//30
f 55//35 63//31 43//31
f 43//32 63//32 55//36
f 22//1 55//1 70//1
f 70//2 55//2 22//2
f 56//6 71//6 44//6
f 44//5 71//5 56//5
f 57//2 72//2 14//2
f 14//1 72//1 57//1
f 57//2 44//2 71//2
f 71//1 44//1 57//1
f 22//1 73//1 54//1
f 54//2 73//2 22//2
f 54//1 74//1 45//1
f 45//2 74//2 54//2
f 45//1 75//1 56//1
f 56//2 75//2 45//2
f 69//1 47//1 46//1
f 46//2 47//2 69//2
f 49//1 47//1 59//1
f 59//2 47//2 49//2
f 58//2 35//2 48//2
f 48//1 35//1 58//1
f 76//37 49//33 58//33
f 58//34 49//34 76//38
f 49//33 76//37 59//37
f 59//38 76//38 49//34
f 16//1 59//1 77//1
f 77//2 59//2 16//2
f 78//2 29//2 79//2
f 79//2 29//2 61//2
f 61//2 29//2 60//2
f 78//1 29//1 80//1
f 79//1 29//1 78//1
f 61//1 29//1 79//1
f 81//2 35//2 82//2
f 35//2 61//2 60//2
f 58//2 81//2 82//2
f 58//2 82//2 35//2
f 81//1 83//1 58//1
f 82//1 81//1 58//1
f 35//1 82//1 58//1
f 35//2 80//2 78//2
f 35//2 78//2 79//2
f 35//2 79//2 61//2
f 67//2 29//2 85//2
f 85//1 29//1 67//1
f 63//2 14//2 86//2
f 86//1 14//1 63//1
f 65//2 35//2 68//2
f 68//2 35//2 87//2
f 35//2 67//2 85//2
f 76//2 27//2 58//2
f 58//1 27//1 76//1
f 58//2 68//2 87//2
f 58//2 87//2 88//2
f 87//1 68//1 58//1
f 88//1 87//1 58//1
f 69//8 27//8 57//8
f 57//7 27//7 69//7
f 47//1 69//1 74//1
f 74//2 69//2 47//2
f 74//1 89//1 47//1
f 47//2 89//2 74//2
f 16//1 90//1 54//1
f 54//2 90//2 16//2
f 55//1 54//1 70//1
f 70//2 54//2 55//2
f 63//31 55//35 86//35
f 86//36 55//36 63//32
f 70//39 86//35 55//35
f 55//36 86//36 70//40
f 22//1 70//1 73//1
f 73//2 70//2 22//2
f 71//6 56//6 75//6
f 75//5 56//5 71//5
f 91//1 92//1 57//1
f 72//1 91//1 57//1
f 93//2 14//2 72//2
f 93//1 14//1 94//1
f 72//1 14//1 93//1
f 71//4 69//4 57//4
f 57//3 69//3 71//3
f 70//1 54//1 73//1
f 73//2 54//2 70//2
f 54//41 95//42 73//42
f 73//43 95//43 54//44
f 96//1 74//1 54//1
f 54//2 74//2 96//2
f 45//1 74//1 97//1
f 97//2 74//2 45//2
f 75//1 45//1 97//1
f 97//2 45//2 75//2
f 59//1 47//1 77//1
f 77//2 47//2 59//2
f 98//45 59//37 76//37
f 76//38 59//38 98//46
f 59//37 98//45 77//45
f 77//46 98//46 59//38
f 16//1 77//1 89//1
f 89//2 77//2 16//2
f 80//1 29//1 85//1
f 80//2 29//2 78//2
f 99//2 35//2 84//2
f 84//2 35//2 83//2
f 83//2 35//2 81//2
f 58//2 88//2 99//2
f 58//2 99//2 84//2
f 58//2 84//2 83//2
f 58//2 83//2 81//2
f 84//1 99//1 58//1
f 83//1 84//1 58//1
f 35//2 85//2 80//2
f 85//2 29//2 80//2
f 86//2 14//2 100//2
f 100//1 14//1 86//1
f 87//2 35//2 88//2
f 88//2 35//2 99//2
f 99//1 88//1 58//1
f 98//2 27//2 76//2
f 76//1 27//1 98//1
f 27//2 98//2 57//2
f 57//1 98//1 27//1
f 75//1 74//1 69//1
f 69//2 74//2 75//2
f 89//1 74//1 90//1
f 90//2 74//2 89//2
f 77//1 47//1 89//1
f 89//2 47//2 77//2
f 90//1 16//1 89//1
f 89//2 16//2 90//2
f 54//1 90//1 101//1
f 101//2 90//2 54//2
f 86//35 70//39 100//39
f 100//40 70//40 86//36
f 73//42 100//39 70//39
f 70//40 100//40 73//43
f 69//4 71//4 75//4
f 75//3 71//3 69//3
f 92//2 72//2 91//2
f 72//2 94//2 93//2
f 57//2 92//2 91//2
f 57//2 91//2 72//2
f 92//1 102//1 57//1
f 57//2 102//2 92//2
f 103//1 105//1 57//1
f 102//1 103//1 57//1
f 106//2 14//2 107//2
f 107//2 14//2 104//2
f 104//2 14//2 94//2
f 94//2 14//2 93//2
f 107//1 14//1 106//1
f 104//1 14//1 107//1
f 94//1 14//1 104//1
f 72//2 106//2 107//2
f 72//2 107//2 104//2
f 72//2 104//2 94//2
f 95//42 54//41 108//41
f 108//44 54//44 95//43
f 100//39 73//42 95//42
f 95//43 73//43 100//40
f 109//1 74//1 96//1
f 96//2 74//2 109//2
f 54//1 109//1 96//1
f 96//2 109//2 54//2
f 96//47 108//41 54//41
f 54//44 108//44 96//48
f 74//1 75//1 97//1
f 97//2 75//2 74//2
f 98//45 89//49 77//45
f 77//46 89//50 98//46
f 100//2 14//2 95//2
f 95//1 14//1 100//1
f 57//2 98//2 110//2
f 110//1 98//1 57//1
f 90//1 74//1 101//1
f 101//2 74//2 90//2
f 89//49 111//51 90//51
f 90//52 111//52 89//50
f 111//51 101//53 90//51
f 90//52 101//54 111//52
f 54//1 101//1 112//1
f 112//2 101//2 54//2
f 105//2 72//2 103//2
f 103//2 72//2 102//2
f 102//2 72//2 92//2
f 57//2 113//2 105//2
f 57//2 105//2 103//2
f 57//2 103//2 102//2
f 105//1 113//1 57//1
f 114//2 14//2 106//2
f 114//1 14//1 115//1
f 106//1 14//1 114//1
f 72//2 115//2 114//2
f 72//2 114//2 106//2
f 95//2 14//2 108//2
f 108//1 14//1 95//1
f 112//1 74//1 109//1
f 109//2 74//2 112//2
f 116//55 96//47 109//55
f 109//56 96//48 116//56
f 54//1 112//1 109//1
f 109//2 112//2 54//2
f 108//41 96//47 117//47
f 117//48 96//48 108//44
f 89//49 98//45 110//49
f 110//50 98//46 89//50
f 57//2 110//2 111//2
f 111//1 110//1 57//1
f 101//1 74//1 112//1
f 112//2 74//2 101//2
f 111//51 89//49 110//49
f 110//50 89//50 111//52
f 101//53 111//51 118//53
f 118//54 111//52 101//54
f 118//53 112//57 101//53
f 101//54 112//58 118//54
f 119//2 72//2 120//2
f 120//2 72//2 113//2
f 113//2 72//2 105//2
f 57//2 120//2 113//2
f 120//1 119//1 57//1
f 113//1 120//1 57//1
f 57//2 119//2 120//2
f 115//2 14//2 114//2
f 72//2 121//2 122//2
f 72//2 122//2 123//2
f 72//2 123//2 124//2
f 72//2 124//2 115//2
f 108//2 14//2 121//2
f 121//1 14//1 108//1
f 125//57 109//55 112//57
f 112//58 109//56 125//58
f 96//47 116//55 117//47
f 117//48 116//56 96//48
f 109//55 125//57 116//55
f 116//56 125//58 109//56
f 57//2 117//2 108//2
f 108//1 117//1 57//1
f 57//2 111//2 118//2
f 118//1 111//1 57//1
f 112//57 118//53 125//57
f 125//58 118//54 112//58
f 72//2 126//2 127//2
f 126//2 72//2 128//2
f 128//2 72//2 129//2
f 129//2 72//2 119//2
f 121//2 72//2 127//2
f 129//1 128//1 57//1
f 119//1 129//1 57//1
f 57//2 126//2 128//2
f 57//2 128//2 129//2
f 57//2 129//2 119//2
f 126//1 108//1 57//1
f 128//1 126//1 57//1
f 124//2 14//2 115//2
f 122//1 14//1 121//1
f 123//1 14//1 122//1
f 124//1 14//1 123//1
f 115//1 14//1 124//1
f 108//2 121//2 127//2
f 126//2 108//2 127//2
f 127//1 121//1 108//1
f 127//1 108//1 126//1
f 121//2 14//2 122//2
f 122//2 14//2 123//2
f 123//2 14//2 124//2
f 57//2 108//2 126//2
f 57//2 116//2 117//2
f 117//1 116//1 57//1
f 57//2 125//2 116//2
f 116//1 125//1 57//1
f 57//2 118//2 125//2
f 125//1 118//1 57//1
usemtl material_1_0
f 39//1 53//1 35//1
f 39//1 35//1 51//1
f 52//1 51//1 35//1
f 62//1 52//1 35//1
f 66//1 62//1 35//1
f 67//1 66//1 35//1
f 83//1 35//1 84//1
f 81//1 35//1 83//1
f 82//1 35//1 81//1
f 61//1 79//1 35//1
f 60//1 61//1 35//1
f 78//1 80//1 35//1
f 79//1 78//1 35//1
f 64//1 35//1 53//1
f 65//1 35//1 64//1
f 68//1 35//1 65//1
f 87//1 35//1 68//1
f 85//1 67//1 35//1
f 84//1 35//1 99//1
f 99//1 35//1 88//1
f 80//1 85//1 35//1
f 88//1 35//1 87//1
f 102//1 72//1 103//1
f 92//1 72//1 102//1
f 91//1 72//1 92//1
f 94//1 104//1 72//1
f 93//1 94//1 72//1
f 107//1 106//1 72//1
f 104//1 107//1 72//1
f 103//1 72//1 105//1
f 105//1 72//1 113//1
f 114//1 115//1 72//1
f 106//1 114//1 72//1
f 120//1 72//1 119//1
f 113//1 72//1 120//1
f 122//1 121//1 72//1
f 123//1 122//1 72//1
f 124//1 123//1 72//1
f 115//1 124//1 72//1
f 127//1 126//1 72//1
f 128//1 72//1 126//1
f 129//1 72//1 128//1
f 119//1 72//1 129//1
f 127//1 72//1 121//1
