# SSTK version 0.8.0
# 8
mtllib original-8.mtl
o instance_1/ficha_de_luz/ID46#ID46
v -0.856384 -0.386485 0.036968
v 0.762131 -0.480055 0.006683
v -0.856384 -0.480055 0.006683
v 0.762131 -0.386485 0.036968
v 0.762131 -0.386485 0.036968
v -0.856384 -0.386485 0.036968
v 0.762131 -0.480055 0.006683
v -0.856384 -0.480055 0.006683
v 0.762131 -0.571293 -0.030032
v 0.762131 -0.302491 -0.043520
v 0.762131 -0.571293 -0.043520
v 0.762131 0.305403 -0.043520
v 0.762131 0.575156 -0.043520
v 0.762131 0.575156 -0.030032
v 0.762131 -0.480055 0.006683
v 0.762131 0.483917 0.006683
v 0.762131 -0.386485 0.036968
v 0.762131 0.390348 0.036968
v 0.762131 -0.302491 0.057832
v 0.762131 0.305403 0.058068
v 0.762131 -0.291037 0.060677
v 0.762131 0.294899 0.060677
v 0.762131 -0.194171 0.077694
v 0.762131 0.198034 0.077694
v 0.762131 -0.096358 0.087937
v 0.762131 0.100220 0.087937
v 0.762131 0.001931 0.091357
v 0.762131 0.001931 0.091357
v 0.762131 -0.096358 0.087937
v 0.762131 0.100220 0.087937
v 0.762131 0.198034 0.077694
v 0.762131 -0.194171 0.077694
v 0.762131 0.294899 0.060677
v 0.762131 -0.291037 0.060677
v 0.762131 0.305403 0.058068
v 0.762131 -0.302491 0.057832
v 0.762131 0.390348 0.036968
v 0.762131 -0.386485 0.036968
v 0.762131 0.483917 0.006683
v 0.762131 -0.480055 0.006683
v 0.762131 0.575156 -0.030032
v 0.762131 -0.571293 -0.030032
v 0.762131 0.575156 -0.043520
v 0.762131 0.305403 -0.043520
v 0.762131 -0.302491 -0.043520
v 0.762131 -0.571293 -0.043520
v 0.762131 -0.571293 -0.030032
v -0.856384 -0.571293 -0.030032
v 0.762131 -0.571293 -0.030032
v -0.856384 -0.571293 -0.030032
v -0.856384 0.575156 -0.030032
v -0.856384 0.305403 -0.043520
v -0.856384 0.575156 -0.043520
v -0.856384 -0.302491 -0.043520
v -0.856384 -0.571293 -0.043520
v -0.856384 -0.571293 -0.030032
v -0.856384 0.483917 0.006683
v -0.856384 -0.480055 0.006683
v -0.856384 0.390348 0.036968
v -0.856384 -0.386485 0.036968
v -0.856384 0.305403 0.058068
v -0.856384 -0.302491 0.057832
v -0.856384 -0.291037 0.060677
v -0.856384 0.294899 0.060677
v -0.856384 0.198034 0.077694
v -0.856384 -0.194171 0.077694
v -0.856384 0.100220 0.087937
v -0.856384 -0.096358 0.087937
v -0.856384 0.001931 0.091357
v -0.856384 0.001931 0.091357
v -0.856384 0.100220 0.087937
v -0.856384 -0.096358 0.087937
v -0.856384 -0.194171 0.077694
v -0.856384 0.198034 0.077694
v -0.856384 -0.291037 0.060677
v -0.856384 0.294899 0.060677
v -0.856384 0.305403 0.058068
v -0.856384 -0.302491 0.057832
v -0.856384 -0.386485 0.036968
v -0.856384 0.390348 0.036968
v -0.856384 -0.480055 0.006683
v -0.856384 0.483917 0.006683
v -0.856384 -0.571293 -0.030032
v -0.856384 0.575156 -0.030032
v -0.856384 -0.571293 -0.043520
v -0.856384 -0.302491 -0.043520
v -0.856384 0.305403 -0.043520
v -0.856384 0.575156 -0.043520
v -0.856384 -0.291037 0.060677
v -0.519194 -0.302491 0.057832
v -0.856384 -0.302491 0.057832
v -0.519194 -0.291037 0.060677
v 0.762131 -0.302491 0.057832
v 0.424940 -0.302491 0.057832
v 0.424940 -0.291037 0.060677
v 0.762131 -0.291037 0.060677
v 0.762131 -0.291037 0.060677
v 0.424940 -0.291037 0.060677
v 0.762131 -0.302491 0.057832
v 0.424940 -0.302491 0.057832
v -0.519194 -0.302491 0.057832
v -0.856384 -0.302491 0.057832
v -0.519194 -0.291037 0.060677
v -0.856384 -0.291037 0.060677
v -0.856384 0.305403 0.058068
v -0.519194 0.294899 0.060677
v -0.856384 0.294899 0.060677
v -0.519194 0.305403 0.058068
v -0.856384 0.390348 0.036968
v -0.519194 0.331583 0.051565
v 0.424940 0.331583 0.051565
v 0.762131 0.294899 0.060677
v 0.424940 0.294899 0.060677
v 0.762131 0.305403 0.058068
v 0.762131 0.390348 0.036968
v -0.856384 0.390348 0.036968
v 0.424940 0.331583 0.051565
v 0.762131 0.390348 0.036968
v 0.762131 0.305403 0.058068
v 0.762131 0.294899 0.060677
v 0.424940 0.294899 0.060677
v -0.519194 0.331583 0.051565
v -0.519194 0.305403 0.058068
v -0.856384 0.305403 0.058068
v -0.519194 0.294899 0.060677
v -0.856384 0.294899 0.060677
v -0.856384 0.483917 0.006683
v 0.762131 0.483917 0.006683
v 0.762131 0.483917 0.006683
v -0.856384 0.483917 0.006683
v -0.856384 0.575156 -0.030032
v 0.762131 0.575156 -0.030032
v 0.762131 0.575156 -0.030032
v -0.856384 0.575156 -0.030032
v -0.856384 0.575156 -0.030032
v 0.762131 0.575156 -0.043520
v 0.762131 0.575156 -0.030032
v 0.424940 0.575156 -0.043520
v -0.856384 0.575156 -0.043520
v -0.856384 0.575156 -0.043520
v -0.856384 0.575156 -0.030032
v 0.424940 0.575156 -0.043520
v 0.762131 0.575156 -0.043520
v 0.762131 0.575156 -0.030032
v 0.424940 0.331583 -0.043520
v 0.762131 0.305403 -0.043520
v 0.424940 0.305403 -0.043520
v 0.762131 0.575156 -0.043520
v 0.424940 0.575156 -0.043520
v 0.424940 0.575156 -0.043520
v 0.424940 0.331583 -0.043520
v 0.762131 0.575156 -0.043520
v 0.762131 0.305403 -0.043520
v 0.424940 0.305403 -0.043520
v 0.762131 -0.302491 -0.043520
v 0.424940 -0.302491 -0.043520
v 0.762131 -0.302491 -0.043520
v 0.424940 -0.302491 -0.043520
v 0.762131 -0.302491 -0.043520
v -0.856384 -0.571293 -0.043520
v 0.762131 -0.571293 -0.043520
v -0.856384 -0.302491 -0.043520
v 0.424940 -0.302491 -0.043520
v -0.519194 -0.302491 -0.043520
v -0.519194 -0.302491 -0.043520
v 0.424940 -0.302491 -0.043520
v -0.856384 -0.302491 -0.043520
v 0.762131 -0.302491 -0.043520
v -0.856384 -0.571293 -0.043520
v 0.762131 -0.571293 -0.043520
v -0.856384 -0.571293 -0.043520
v 0.762131 -0.571293 -0.030032
v 0.762131 -0.571293 -0.043520
v -0.856384 -0.571293 -0.030032
v -0.856384 -0.571293 -0.030032
v -0.856384 -0.571293 -0.043520
v 0.762131 -0.571293 -0.030032
v 0.762131 -0.571293 -0.043520
v 0.762131 -0.194171 0.077694
v 0.424940 -0.194171 0.077694
v 0.424940 -0.194171 0.077694
v 0.762131 -0.194171 0.077694
v 0.762131 -0.096358 0.087937
v 0.424940 -0.096358 0.087937
v 0.424940 -0.096358 0.087937
v 0.762131 -0.096358 0.087937
v 0.762131 0.001931 0.091357
v 0.424940 0.001931 0.091357
v 0.424940 0.001931 0.091357
v 0.762131 0.001931 0.091357
v 0.762131 0.100220 0.087937
v 0.424940 0.100220 0.087937
v 0.424940 0.100220 0.087937
v 0.762131 0.100220 0.087937
v 0.762131 0.198034 0.077694
v 0.424940 0.198034 0.077694
v 0.424940 0.198034 0.077694
v 0.762131 0.198034 0.077694
v -0.856384 0.198034 0.077694
v -0.519194 0.198034 0.077694
v -0.856384 0.198034 0.077694
v -0.519194 0.198034 0.077694
v -0.856384 0.100220 0.087937
v -0.519194 0.100220 0.087937
v -0.856384 0.100220 0.087937
v -0.519194 0.100220 0.087937
v -0.856384 0.001931 0.091357
v -0.519194 0.001931 0.091357
v -0.856384 0.001931 0.091357
v -0.519194 0.001931 0.091357
v -0.856384 -0.096358 0.087937
v -0.519194 -0.096358 0.087937
v -0.856384 -0.096358 0.087937
v -0.519194 -0.096358 0.087937
v -0.856384 -0.194171 0.077694
v -0.519194 -0.194171 0.077694
v -0.856384 -0.194171 0.077694
v -0.519194 -0.194171 0.077694
v -0.856384 0.305403 -0.043520
v -0.519194 -0.302491 -0.043520
v -0.856384 -0.302491 -0.043520
v -0.519194 0.305403 -0.043520
v -0.519194 0.305403 -0.043520
v -0.856384 0.305403 -0.043520
v -0.519194 -0.302491 -0.043520
v -0.856384 -0.302491 -0.043520
v -0.856384 0.575156 -0.043520
v -0.519194 0.331583 -0.043520
v -0.856384 0.575156 -0.043520
v -0.519194 0.331583 -0.043520
v -0.519194 -0.302491 0.057832
v -0.519194 0.305403 -0.043520
v -0.519194 -0.302491 -0.043520
v -0.519194 0.305403 0.024590
v -0.519194 0.305403 0.058068
v -0.519194 -0.291037 0.060677
v -0.519194 0.294899 0.060677
v -0.519194 -0.194171 0.077694
v -0.519194 0.198034 0.077694
v -0.519194 -0.096358 0.087937
v -0.519194 0.100220 0.087937
v -0.519194 0.001931 0.091357
v -0.519194 0.001931 0.091357
v -0.519194 -0.096358 0.087937
v -0.519194 0.100220 0.087937
v -0.519194 0.198034 0.077694
v -0.519194 -0.194171 0.077694
v -0.519194 0.294899 0.060677
v -0.519194 -0.291037 0.060677
v -0.519194 0.305403 0.058068
v -0.519194 -0.302491 0.057832
v -0.519194 0.305403 0.024590
v -0.519194 0.305403 -0.043520
v -0.519194 -0.302491 -0.043520
v -0.519194 -0.302491 0.057832
v 0.424940 -0.302491 -0.043520
v 0.424940 -0.302491 0.057832
v -0.519194 -0.302491 -0.043520
v -0.519194 -0.302491 -0.043520
v -0.519194 -0.302491 0.057832
v 0.424940 -0.302491 -0.043520
v 0.424940 -0.302491 0.057832
v 0.424940 -0.302491 0.057832
v 0.424940 0.305403 -0.043520
v 0.424940 -0.302491 -0.043520
v 0.424940 0.305403 0.024590
v 0.424940 0.331583 0.051565
v 0.424940 0.294899 0.060677
v 0.424940 -0.291037 0.060677
v 0.424940 -0.194171 0.077694
v 0.424940 0.198034 0.077694
v 0.424940 -0.096358 0.087937
v 0.424940 0.100220 0.087937
v 0.424940 0.001931 0.091357
v 0.424940 0.001931 0.091357
v 0.424940 -0.096358 0.087937
v 0.424940 0.100220 0.087937
v 0.424940 0.198034 0.077694
v 0.424940 -0.194171 0.077694
v 0.424940 0.294899 0.060677
v 0.424940 -0.291037 0.060677
v 0.424940 -0.302491 0.057832
v 0.424940 0.331583 0.051565
v 0.424940 0.305403 0.024590
v 0.424940 0.305403 -0.043520
v 0.424940 -0.302491 -0.043520
v 0.424940 0.331583 -0.043520
v -0.519194 0.331583 0.051565
v 0.424940 0.331583 0.051565
v -0.519194 0.331583 -0.043520
v -0.519194 0.331583 -0.043520
v 0.424940 0.331583 -0.043520
v -0.519194 0.331583 0.051565
v 0.424940 0.331583 0.051565
v -0.519194 0.331583 0.051565
v 0.424940 0.305403 0.024590
v 0.424940 0.331583 0.051565
v -0.519194 0.305403 0.024590
v -0.519194 0.305403 0.024590
v -0.519194 0.331583 0.051565
v 0.424940 0.305403 0.024590
v 0.424940 0.331583 0.051565
v 0.424940 0.305403 0.024590
v 0.424940 0.331583 -0.043520
v 0.424940 0.305403 -0.043520
v 0.424940 0.331583 0.051565
v 0.424940 0.331583 0.051565
v 0.424940 0.305403 0.024590
v 0.424940 0.331583 -0.043520
v 0.424940 0.305403 -0.043520
v -0.519194 0.305403 0.024590
v -0.519194 0.331583 -0.043520
v -0.519194 0.305403 -0.043520
v -0.519194 0.331583 0.051565
v -0.519194 0.331583 0.051565
v -0.519194 0.305403 0.024590
v -0.519194 0.331583 -0.043520
v -0.519194 0.305403 -0.043520
v -0.519194 0.305403 0.024590
v 0.424940 0.305403 -0.043520
v 0.424940 0.305403 0.024590
v -0.519194 0.305403 -0.043520
v -0.519194 0.305403 -0.043520
v -0.519194 0.305403 0.024590
v 0.424940 0.305403 -0.043520
v 0.424940 0.305403 0.024590
vn 0 0.2746659991441284 -0.961539697003799
vn 0 0.34083310658113797 -0.9401238181528274
vn 0 -0.2746659991441284 0.961539697003799
vn 0 -0.34083310658113797 0.9401238181528274
vn -1 0 0
vn 1 0 0
vn 0 0.37331818566032615 -0.9277033643656157
vn 0 -0.37331818566032615 0.9277033643656157
vn 0 0.19012189845812472 -0.9817604920379912
vn 0 0.24106400489593285 -0.9705092197107318
vn 0 -0.19012189845812472 0.9817604920379912
vn 0 -0.24106400489593285 0.9705092197107318
vn 0 -0.24106400489593285 -0.9705092197107318
vn 0 -0.22415630151754598 -0.9745532065977592
vn 0 -0.2746659991441284 -0.961539697003799
vn 0 0.2746659991441284 0.961539697003799
vn 0 0.24106400489593285 0.9705092197107318
vn 0 0.22415630151754598 0.9745532065977592
vn 0 -0.34083310658113797 -0.9401238181528274
vn 0 0.34083310658113797 0.9401238181528274
vn 0 -0.37331818566032615 -0.9277033643656157
vn 0 0.37331818566032615 0.9277033643656157
vn 0 -1 0
vn 0 1 0
vn 0 0 -1
vn 0 0 1
vn 0 -0.1386728072221438 0.9903382515772731
vn 0 0.1386728072221438 -0.9903382515772731
vn 0 -0.0695045026349571 0.9975816378189141
vn 0 0.0695045026349571 -0.9975816378189141
vn 0 0.0695045026349571 0.9975816378189141
vn 0 -0.0695045026349571 -0.9975816378189141
vn 0 0.1386728072221438 0.9903382515772731
vn 0 -0.1386728072221438 -0.9903382515772731
vn 0 -0.7176090048885535 0.6964462047443866
vn 0 0.7176090048885535 -0.6964462047443866
usemtl material_0_0
f 1//1 2//2 3//2
f 2//2 1//1 4//1
f 5//3 6//3 7//4
f 8//4 7//4 6//3
f 9//5 10//5 11//5
f 10//5 9//5 12//5
f 12//5 9//5 13//5
f 13//5 9//5 14//5
f 14//5 9//5 15//5
f 14//5 15//5 16//5
f 16//5 15//5 17//5
f 16//5 17//5 18//5
f 18//5 17//5 19//5
f 18//5 19//5 20//5
f 20//5 19//5 21//5
f 20//5 21//5 22//5
f 22//5 21//5 23//5
f 22//5 23//5 24//5
f 24//5 23//5 25//5
f 24//5 25//5 26//5
f 26//5 25//5 27//5
f 28//6 29//6 30//6
f 30//6 29//6 31//6
f 29//6 32//6 31//6
f 31//6 32//6 33//6
f 32//6 34//6 33//6
f 33//6 34//6 35//6
f 34//6 36//6 35//6
f 35//6 36//6 37//6
f 36//6 38//6 37//6
f 37//6 38//6 39//6
f 38//6 40//6 39//6
f 39//6 40//6 41//6
f 40//6 42//6 41//6
f 41//6 42//6 43//6
f 43//6 42//6 44//6
f 44//6 42//6 45//6
f 46//6 45//6 42//6
f 3//2 47//7 48//7
f 47//7 3//2 2//2
f 7//4 8//4 49//8
f 50//8 49//8 8//4
f 51//6 52//6 53//6
f 52//6 51//6 54//6
f 54//6 51//6 55//6
f 55//6 51//6 56//6
f 56//6 51//6 57//6
f 56//6 57//6 58//6
f 58//6 57//6 59//6
f 58//6 59//6 60//6
f 60//6 59//6 61//6
f 60//6 61//6 62//6
f 62//6 61//6 63//6
f 63//6 61//6 64//6
f 63//6 64//6 65//6
f 63//6 65//6 66//6
f 66//6 65//6 67//6
f 66//6 67//6 68//6
f 68//6 67//6 69//6
f 70//5 71//5 72//5
f 72//5 71//5 73//5
f 71//5 74//5 73//5
f 73//5 74//5 75//5
f 74//5 76//5 75//5
f 76//5 77//5 75//5
f 75//5 77//5 78//5
f 78//5 77//5 79//5
f 77//5 80//5 79//5
f 79//5 80//5 81//5
f 80//5 82//5 81//5
f 81//5 82//5 83//5
f 82//5 84//5 83//5
f 83//5 84//5 85//5
f 85//5 84//5 86//5
f 86//5 84//5 87//5
f 88//5 87//5 84//5
f 89//9 90//10 91//10
f 90//10 89//9 92//9
f 91//10 4//1 1//1
f 4//1 91//10 93//10
f 93//10 91//10 90//10
f 93//10 90//10 94//10
f 93//10 94//10 95//9
f 93//10 95//9 96//9
f 97//11 98//11 99//12
f 98//11 100//12 99//12
f 100//12 101//12 99//12
f 101//12 102//12 99//12
f 99//12 102//12 5//3
f 6//3 5//3 102//12
f 103//11 104//11 101//12
f 102//12 101//12 104//11
f 105//13 106//14 107//14
f 106//14 105//13 108//13
f 108//13 105//13 109//15
f 108//13 109//15 110//13
f 110//13 109//15 111//13
f 111//13 112//14 113//14
f 112//14 111//13 114//13
f 114//13 111//13 115//15
f 115//15 111//13 109//15
f 116//16 117//17 118//16
f 118//16 117//17 119//17
f 119//17 117//17 120//18
f 121//18 120//18 117//17
f 117//17 116//16 122//17
f 122//17 116//16 123//17
f 116//16 124//17 123//17
f 123//17 124//17 125//18
f 126//18 125//18 124//17
f 127//19 115//15 109//15
f 115//15 127//19 128//19
f 129//20 130//20 118//16
f 116//16 118//16 130//20
f 131//21 128//19 127//19
f 128//19 131//21 132//21
f 133//22 134//22 129//20
f 130//20 129//20 134//22
f 135//23 136//23 137//23
f 136//23 135//23 138//23
f 138//23 135//23 139//23
f 140//24 141//24 142//24
f 142//24 141//24 143//24
f 144//24 143//24 141//24
f 145//25 146//25 147//25
f 146//25 145//25 148//25
f 148//25 145//25 149//25
f 150//26 151//26 152//26
f 152//26 151//26 153//26
f 154//26 153//26 151//26
f 147//25 155//25 156//25
f 155//25 147//25 146//25
f 153//26 154//26 157//26
f 158//26 157//26 154//26
f 159//26 160//26 161//26
f 160//26 159//26 162//26
f 162//26 159//26 163//26
f 162//26 163//26 164//26
f 165//25 166//25 167//25
f 166//25 168//25 167//25
f 167//25 168//25 169//25
f 170//25 169//25 168//25
f 171//24 172//24 173//24
f 172//24 171//24 174//24
f 175//23 176//23 177//23
f 178//23 177//23 176//23
f 179//27 98//11 97//11
f 98//11 179//27 180//27
f 181//28 182//28 95//9
f 96//9 95//9 182//28
f 183//29 180//27 179//27
f 180//27 183//29 184//29
f 185//30 186//30 181//28
f 182//28 181//28 186//30
f 187//26 184//29 183//29
f 184//29 187//26 188//26
f 189//25 190//25 185//30
f 186//30 185//30 190//25
f 191//31 188//26 187//26
f 188//26 191//31 192//31
f 193//32 194//32 189//25
f 190//25 189//25 194//32
f 195//33 192//31 191//31
f 192//31 195//33 196//33
f 197//34 198//34 193//32
f 194//32 193//32 198//34
f 120//18 196//33 195//33
f 196//33 120//18 121//18
f 113//14 112//14 197//34
f 198//34 197//34 112//14
f 125//18 199//33 200//33
f 199//33 125//18 126//18
f 107//14 106//14 201//34
f 202//34 201//34 106//14
f 200//33 203//31 204//31
f 203//31 200//33 199//33
f 201//34 202//34 205//32
f 206//32 205//32 202//34
f 204//31 207//26 208//26
f 207//26 204//31 203//31
f 205//32 206//32 209//25
f 210//25 209//25 206//32
f 208//26 211//29 212//29
f 211//29 208//26 207//26
f 209//25 210//25 213//30
f 214//30 213//30 210//25
f 212//29 215//27 216//27
f 215//27 212//29 211//29
f 213//30 214//30 217//28
f 218//28 217//28 214//30
f 216//27 104//11 103//11
f 104//11 216//27 215//27
f 217//28 218//28 89//9
f 92//9 89//9 218//28
f 219//25 220//25 221//25
f 220//25 219//25 222//25
f 223//26 224//26 225//26
f 226//26 225//26 224//26
f 227//25 222//25 219//25
f 222//25 227//25 228//25
f 228//25 227//25 145//25
f 145//25 227//25 149//25
f 150//26 229//26 151//26
f 151//26 229//26 230//26
f 230//26 229//26 223//26
f 224//26 223//26 229//26
f 231//5 232//5 233//5
f 232//5 231//5 234//5
f 234//5 231//5 235//5
f 235//5 231//5 236//5
f 235//5 236//5 237//5
f 237//5 236//5 238//5
f 237//5 238//5 239//5
f 239//5 238//5 240//5
f 239//5 240//5 241//5
f 241//5 240//5 242//5
f 243//6 244//6 245//6
f 245//6 244//6 246//6
f 244//6 247//6 246//6
f 246//6 247//6 248//6
f 247//6 249//6 248//6
f 248//6 249//6 250//6
f 249//6 251//6 250//6
f 250//6 251//6 252//6
f 252//6 251//6 253//6
f 254//6 253//6 251//6
f 255//23 256//23 257//23
f 256//23 255//23 258//23
f 259//24 260//24 261//24
f 262//24 261//24 260//24
f 263//5 264//5 265//5
f 264//5 263//5 266//5
f 266//5 263//5 267//5
f 267//5 263//5 268//5
f 268//5 263//5 269//5
f 268//5 269//5 270//5
f 268//5 270//5 271//5
f 271//5 270//5 272//5
f 271//5 272//5 273//5
f 273//5 272//5 274//5
f 275//6 276//6 277//6
f 277//6 276//6 278//6
f 276//6 279//6 278//6
f 278//6 279//6 280//6
f 279//6 281//6 280//6
f 281//6 282//6 280//6
f 280//6 282//6 283//6
f 283//6 282//6 284//6
f 284//6 282//6 285//6
f 286//6 285//6 282//6
f 287//24 288//24 289//24
f 288//24 287//24 290//24
f 291//23 292//23 293//23
f 294//23 293//23 292//23
f 295//35 296//35 297//35
f 296//35 295//35 298//35
f 299//36 300//36 301//36
f 302//36 301//36 300//36
f 303//5 304//5 305//5
f 304//5 303//5 306//5
f 307//6 308//6 309//6
f 310//6 309//6 308//6
f 228//25 147//25 222//25
f 147//25 228//25 145//25
f 151//26 230//26 154//26
f 223//26 154//26 230//26
f 222//25 156//25 220//25
f 156//25 222//25 147//25
f 154//26 223//26 158//26
f 225//26 158//26 223//26
f 311//5 312//5 313//5
f 312//5 311//5 314//5
f 315//6 316//6 317//6
f 318//6 317//6 316//6
f 319//23 320//23 321//23
f 320//23 319//23 322//23
f 323//24 324//24 325//24
f 326//24 325//24 324//24
