# SSTK version 0.8.0
# 19
mtllib original-19.mtl
o #ID151
v -0.029738 0.130905 -0.016977
v -0.032111 0.133278 -0.016977
v -0.141307 0.130905 -0.016977
v -0.029738 0.373035 -0.016977
v -0.032111 0.370662 -0.016977
v -0.138934 0.370662 -0.016977
v -0.138934 0.133278 -0.016977
v -0.141307 0.373035 -0.016977
v -0.029738 0.373035 -0.016977
v -0.138934 0.370662 -0.016977
v -0.141307 0.373035 -0.016977
v -0.138934 0.133278 -0.016977
v -0.032111 0.133278 -0.016977
v -0.141307 0.130905 -0.016977
v -0.032111 0.370662 -0.016977
v -0.029738 0.130905 -0.016977
v -0.029738 0.130905 0.042369
v -0.141307 0.130905 -0.016977
v -0.141307 0.130905 0.042369
v -0.029738 0.130905 -0.016977
v -0.029738 0.130905 -0.016977
v -0.029738 0.130905 0.042369
v -0.141307 0.130905 -0.016977
v -0.141307 0.130905 0.042369
v -0.029738 0.373035 -0.016977
v -0.029738 0.130905 0.042369
v -0.029738 0.373035 0.042369
v -0.029738 0.130905 -0.016977
v -0.029738 0.130905 -0.016977
v -0.029738 0.373035 -0.016977
v -0.029738 0.130905 0.042369
v -0.029738 0.373035 0.042369
v -0.029738 0.373035 -0.016977
v -0.141307 0.373035 0.042369
v -0.141307 0.373035 -0.016977
v -0.029738 0.373035 0.042369
v -0.029738 0.373035 0.042369
v -0.029738 0.373035 -0.016977
v -0.141307 0.373035 0.042369
v -0.141307 0.373035 -0.016977
v -0.141307 0.130905 -0.016977
v -0.141307 0.373035 0.042369
v -0.141307 0.130905 0.042369
v -0.141307 0.373035 -0.016977
v -0.141307 0.373035 -0.016977
v -0.141307 0.130905 -0.016977
v -0.141307 0.373035 0.042369
v -0.141307 0.130905 0.042369
vn 0 0 1
vn 0 0 -1
vn 0 1 0
vn 0 -1 0
vn -1 0 0
vn 1 0 0
usemtl material_0_0
f 1//1 2//1 3//1
f 2//1 1//1 4//1
f 2//1 4//1 5//1
f 5//1 4//1 6//1
f 3//1 7//1 8//1
f 7//1 3//1 2//1
f 8//1 7//1 6//1
f 8//1 6//1 4//1
f 9//2 10//2 11//2
f 10//2 12//2 11//2
f 13//2 14//2 12//2
f 11//2 12//2 14//2
f 10//2 9//2 15//2
f 15//2 9//2 13//2
f 9//2 16//2 13//2
f 14//2 13//2 16//2
f 17//3 18//3 19//3
f 18//3 17//3 20//3
f 21//4 22//4 23//4
f 24//4 23//4 22//4
f 25//5 26//5 27//5
f 26//5 25//5 28//5
f 29//6 30//6 31//6
f 32//6 31//6 30//6
f 33//4 34//4 35//4
f 34//4 33//4 36//4
f 37//3 38//3 39//3
f 40//3 39//3 38//3
f 41//6 42//6 43//6
f 42//6 41//6 44//6
f 45//5 46//5 47//5
f 48//5 47//5 46//5
