# SSTK version 0.8.0
# 3
mtllib original-3.mtl
o #ID55
v -0.740979 -0.031676 -0.016977
v -0.759411 -0.031676 -0.016977
v -0.750195 -0.032890 -0.016977
v -0.732391 -0.028119 -0.016977
v -0.750195 -0.029329 -0.016977
v -0.741900 -0.028237 -0.016977
v -0.734171 -0.025035 -0.016977
v -0.725016 -0.022460 -0.016977
v -0.727534 -0.019943 -0.016977
v -0.719358 -0.015086 -0.016977
v -0.722441 -0.013305 -0.016977
v -0.715801 -0.006498 -0.016977
v -0.719240 -0.005576 -0.016977
v -0.714587 0.002718 -0.016977
v -0.718148 0.002718 -0.016977
v -0.715801 0.011934 -0.016977
v -0.719240 0.011012 -0.016977
v -0.722441 0.018741 -0.016977
v -0.719358 0.020521 -0.016977
v -0.727534 0.025378 -0.016977
v -0.725016 0.027896 -0.016977
v -0.734171 0.030471 -0.016977
v -0.732391 0.033555 -0.016977
v -0.741900 0.033673 -0.016977
v -0.740979 0.037112 -0.016977
v -0.750195 0.034765 -0.016977
v -0.767998 -0.028119 -0.016977
v -0.758489 -0.028237 -0.016977
v -0.766218 -0.025035 -0.016977
v -0.775373 -0.022460 -0.016977
v -0.772855 -0.019943 -0.016977
v -0.781032 -0.015086 -0.016977
v -0.777948 -0.013305 -0.016977
v -0.784589 -0.006498 -0.016977
v -0.781149 -0.005576 -0.016977
v -0.785802 0.002718 -0.016977
v -0.782241 0.002718 -0.016977
v -0.781149 0.011012 -0.016977
v -0.784589 0.011934 -0.016977
v -0.777948 0.018741 -0.016977
v -0.781032 0.020521 -0.016977
v -0.772855 0.025378 -0.016977
v -0.775373 0.027896 -0.016977
v -0.766218 0.030471 -0.016977
v -0.767998 0.033555 -0.016977
v -0.758489 0.033673 -0.016977
v -0.759411 0.037112 -0.016977
v -0.750195 0.038325 -0.016977
v -0.750195 0.038325 -0.016977
v -0.740979 0.037112 -0.016977
v -0.759411 0.037112 -0.016977
v -0.750195 0.034765 -0.016977
v -0.758489 0.033673 -0.016977
v -0.767998 0.033555 -0.016977
v -0.766218 0.030471 -0.016977
v -0.775373 0.027896 -0.016977
v -0.772855 0.025378 -0.016977
v -0.781032 0.020521 -0.016977
v -0.777948 0.018741 -0.016977
v -0.784589 0.011934 -0.016977
v -0.781149 0.011012 -0.016977
v -0.785802 0.002718 -0.016977
v -0.782241 0.002718 -0.016977
v -0.781149 -0.005576 -0.016977
v -0.784589 -0.006498 -0.016977
v -0.777948 -0.013305 -0.016977
v -0.781032 -0.015086 -0.016977
v -0.772855 -0.019943 -0.016977
v -0.775373 -0.022460 -0.016977
v -0.766218 -0.025035 -0.016977
v -0.767998 -0.028119 -0.016977
v -0.758489 -0.028237 -0.016977
v -0.750195 -0.029329 -0.016977
v -0.759411 -0.031676 -0.016977
v -0.741900 0.033673 -0.016977
v -0.732391 0.033555 -0.016977
v -0.734171 0.030471 -0.016977
v -0.725016 0.027896 -0.016977
v -0.727534 0.025378 -0.016977
v -0.719358 0.020521 -0.016977
v -0.722441 0.018741 -0.016977
v -0.715801 0.011934 -0.016977
v -0.719240 0.011012 -0.016977
v -0.718148 0.002718 -0.016977
v -0.714587 0.002718 -0.016977
v -0.719240 -0.005576 -0.016977
v -0.715801 -0.006498 -0.016977
v -0.722441 -0.013305 -0.016977
v -0.719358 -0.015086 -0.016977
v -0.727534 -0.019943 -0.016977
v -0.725016 -0.022460 -0.016977
v -0.734171 -0.025035 -0.016977
v -0.732391 -0.028119 -0.016977
v -0.741900 -0.028237 -0.016977
v -0.740979 -0.031676 -0.016977
v -0.750195 -0.032890 -0.016977
v -0.785802 0.002718 -0.016977
v -0.785021 0.008652 0.042369
v -0.785802 0.002718 0.042369
v -0.784589 0.011934 0.042369
v -0.784589 0.011934 -0.016977
v -0.784589 0.011934 -0.016977
v -0.785802 0.002718 -0.016977
v -0.784589 0.011934 0.042369
v -0.785021 0.008652 0.042369
v -0.785802 0.002718 0.042369
v -0.784589 -0.006498 -0.016977
v -0.785021 -0.003217 0.042369
v -0.784589 -0.006498 0.042369
v -0.784589 -0.006498 -0.016977
v -0.785021 -0.003217 0.042369
v -0.784589 -0.006498 0.042369
v -0.781032 -0.015086 -0.016977
v -0.781032 -0.015086 0.042369
v -0.781032 -0.015086 -0.016977
v -0.781032 -0.015086 0.042369
v -0.775373 -0.022460 -0.016977
v -0.775373 -0.022460 0.042369
v -0.775373 -0.022460 -0.016977
v -0.775373 -0.022460 0.042369
v -0.767998 -0.028119 0.042369
v -0.767998 -0.028119 -0.016977
v -0.767998 -0.028119 -0.016977
v -0.767998 -0.028119 0.042369
v -0.759411 -0.031676 0.042369
v -0.759411 -0.031676 -0.016977
v -0.759411 -0.031676 -0.016977
v -0.759411 -0.031676 0.042369
v -0.750195 -0.032890 0.042369
v -0.750195 -0.032890 -0.016977
v -0.750195 -0.032890 -0.016977
v -0.750195 -0.032890 0.042369
v -0.740979 -0.031676 0.042369
v -0.740979 -0.031676 -0.016977
v -0.740979 -0.031676 -0.016977
v -0.740979 -0.031676 0.042369
v -0.732391 -0.028119 0.042369
v -0.732391 -0.028119 -0.016977
v -0.732391 -0.028119 -0.016977
v -0.732391 -0.028119 0.042369
v -0.725016 -0.022460 0.042369
v -0.725016 -0.022460 -0.016977
v -0.725016 -0.022460 -0.016977
v -0.725016 -0.022460 0.042369
v -0.719358 -0.015086 -0.016977
v -0.719358 -0.015086 0.042369
v -0.719358 -0.015086 -0.016977
v -0.719358 -0.015086 0.042369
v -0.715801 -0.006498 -0.016977
v -0.715801 -0.006498 0.042369
v -0.715801 -0.006498 -0.016977
v -0.715801 -0.006498 0.042369
v -0.714587 0.002718 -0.016977
v -0.715369 -0.003217 0.042369
v -0.714587 0.002718 0.042369
v -0.714587 0.002718 -0.016977
v -0.715369 -0.003217 0.042369
v -0.714587 0.002718 0.042369
v -0.715801 0.011934 -0.016977
v -0.715369 0.008652 0.042369
v -0.715801 0.011934 0.042369
v -0.715801 0.011934 -0.016977
v -0.715369 0.008652 0.042369
v -0.715801 0.011934 0.042369
v -0.719358 0.020521 -0.016977
v -0.719358 0.020521 0.042369
v -0.719358 0.020521 -0.016977
v -0.719358 0.020521 0.042369
v -0.725016 0.027896 -0.016977
v -0.725016 0.027896 0.042369
v -0.725016 0.027896 -0.016977
v -0.725016 0.027896 0.042369
v -0.732391 0.033555 0.042369
v -0.732391 0.033555 -0.016977
v -0.732391 0.033555 0.042369
v -0.732391 0.033555 -0.016977
v -0.740979 0.037112 0.042369
v -0.740979 0.037112 -0.016977
v -0.740979 0.037112 0.042369
v -0.740979 0.037112 -0.016977
v -0.750195 0.038325 0.042369
v -0.750195 0.038325 -0.016977
v -0.750195 0.038325 0.042369
v -0.750195 0.038325 -0.016977
v -0.759411 0.037112 0.042369
v -0.759411 0.037112 -0.016977
v -0.759411 0.037112 0.042369
v -0.759411 0.037112 -0.016977
v -0.767998 0.033555 0.042369
v -0.767998 0.033555 -0.016977
v -0.767998 0.033555 0.042369
v -0.767998 0.033555 -0.016977
v -0.775373 0.027896 0.042369
v -0.775373 0.027896 -0.016977
v -0.775373 0.027896 0.042369
v -0.775373 0.027896 -0.016977
v -0.781032 0.020521 -0.016977
v -0.781032 0.020521 0.042369
v -0.781032 0.020521 -0.016977
v -0.781032 0.020521 0.042369
vn 0 0 1
vn 0 0 -1
vn 1 0 0
vn 0.9914448610250887 -0.1305261948688555 0
vn 0.9659258358036645 -0.25881900959356163 0
vn -0.9659258358036645 0.25881900959356163 0
vn -1 0 0
vn -0.9914448610250887 0.1305261948688555 0
vn 0.9659258358036645 0.25881900959356163 0
vn 0.9914448610250887 0.1305261948688555 0
vn -0.9659258358036645 -0.25881900959356163 0
vn -0.9914448610250887 -0.1305261948688555 0
vn 0.866025402838329 0.5000000016387101 0
vn -0.866025402838329 -0.5000000016387101 0
vn 0.7071067811865476 0.7071067811865476 0
vn -0.7071067811865476 -0.7071067811865476 0
vn 0.5000000016387101 0.866025402838329 0
vn -0.5000000016387101 -0.866025402838329 0
vn 0.25881900959356163 0.9659258358036645 0
vn -0.25881900959356163 -0.9659258358036645 0
vn 0 1 0
vn 0 -1 0
vn -0.25881900959356163 0.9659258358036645 0
vn 0.25881900959356163 -0.9659258358036645 0
vn -0.5000000016387101 0.866025402838329 0
vn 0.5000000016387101 -0.866025402838329 0
vn -0.7071067811865476 0.7071067811865476 0
vn 0.7071067811865476 -0.7071067811865476 0
vn -0.866025402838329 0.5000000016387101 0
vn 0.866025402838329 -0.5000000016387101 0
usemtl material_0_0
f 1//1 2//1 3//1
f 2//1 1//1 4//1
f 2//1 4//1 5//1
f 5//1 4//1 6//1
f 6//1 4//1 7//1
f 7//1 4//1 8//1
f 7//1 8//1 9//1
f 9//1 8//1 10//1
f 9//1 10//1 11//1
f 11//1 10//1 12//1
f 11//1 12//1 13//1
f 13//1 12//1 14//1
f 13//1 14//1 15//1
f 15//1 14//1 16//1
f 15//1 16//1 17//1
f 17//1 16//1 18//1
f 18//1 16//1 19//1
f 18//1 19//1 20//1
f 20//1 19//1 21//1
f 20//1 21//1 22//1
f 22//1 21//1 23//1
f 22//1 23//1 24//1
f 24//1 23//1 25//1
f 24//1 25//1 26//1
f 5//1 27//1 2//1
f 27//1 5//1 28//1
f 27//1 28//1 29//1
f 27//1 29//1 30//1
f 30//1 29//1 31//1
f 30//1 31//1 32//1
f 32//1 31//1 33//1
f 32//1 33//1 34//1
f 34//1 33//1 35//1
f 34//1 35//1 36//1
f 36//1 35//1 37//1
f 36//1 37//1 38//1
f 36//1 38//1 39//1
f 39//1 38//1 40//1
f 39//1 40//1 41//1
f 41//1 40//1 42//1
f 41//1 42//1 43//1
f 43//1 42//1 44//1
f 43//1 44//1 45//1
f 45//1 44//1 46//1
f 45//1 46//1 47//1
f 47//1 46//1 26//1
f 47//1 26//1 25//1
f 47//1 25//1 48//1
f 49//2 50//2 51//2
f 50//2 52//2 51//2
f 52//2 53//2 51//2
f 51//2 53//2 54//2
f 53//2 55//2 54//2
f 54//2 55//2 56//2
f 55//2 57//2 56//2
f 56//2 57//2 58//2
f 57//2 59//2 58//2
f 58//2 59//2 60//2
f 59//2 61//2 60//2
f 60//2 61//2 62//2
f 61//2 63//2 62//2
f 63//2 64//2 62//2
f 62//2 64//2 65//2
f 64//2 66//2 65//2
f 65//2 66//2 67//2
f 66//2 68//2 67//2
f 67//2 68//2 69//2
f 68//2 70//2 69//2
f 69//2 70//2 71//2
f 70//2 72//2 71//2
f 72//2 73//2 71//2
f 74//2 71//2 73//2
f 52//2 50//2 75//2
f 50//2 76//2 75//2
f 75//2 76//2 77//2
f 76//2 78//2 77//2
f 77//2 78//2 79//2
f 78//2 80//2 79//2
f 79//2 80//2 81//2
f 80//2 82//2 81//2
f 81//2 82//2 83//2
f 83//2 82//2 84//2
f 82//2 85//2 84//2
f 84//2 85//2 86//2
f 85//2 87//2 86//2
f 86//2 87//2 88//2
f 87//2 89//2 88//2
f 88//2 89//2 90//2
f 89//2 91//2 90//2
f 90//2 91//2 92//2
f 91//2 93//2 92//2
f 92//2 93//2 94//2
f 94//2 93//2 73//2
f 73//2 93//2 74//2
f 93//2 95//2 74//2
f 96//2 74//2 95//2
f 97//3 98//4 99//3
f 98//4 97//3 100//5
f 100//5 97//3 101//5
f 102//6 103//7 104//6
f 104//6 103//7 105//8
f 106//7 105//8 103//7
f 107//9 108//10 109//9
f 108//10 107//9 99//3
f 99//3 107//9 97//3
f 103//7 110//11 106//7
f 106//7 110//11 111//12
f 112//11 111//12 110//11
f 113//13 109//9 114//13
f 109//9 113//13 107//9
f 110//11 115//14 112//11
f 116//14 112//11 115//14
f 117//15 114//13 118//15
f 114//13 117//15 113//13
f 115//14 119//16 116//14
f 120//16 116//14 119//16
f 121//17 117//15 118//15
f 117//15 121//17 122//17
f 123//18 124//18 119//16
f 120//16 119//16 124//18
f 125//19 122//17 121//17
f 122//17 125//19 126//19
f 127//20 128//20 123//18
f 124//18 123//18 128//20
f 129//21 126//19 125//19
f 126//19 129//21 130//21
f 131//22 132//22 127//20
f 128//20 127//20 132//22
f 133//23 130//21 129//21
f 130//21 133//23 134//23
f 135//24 136//24 131//22
f 132//22 131//22 136//24
f 137//25 134//23 133//23
f 134//23 137//25 138//25
f 139//26 140//26 135//24
f 136//24 135//24 140//26
f 141//27 138//25 137//25
f 138//25 141//27 142//27
f 143//28 144//28 139//26
f 140//26 139//26 144//28
f 145//29 141//27 146//29
f 141//27 145//29 142//27
f 143//28 147//30 144//28
f 148//30 144//28 147//30
f 149//6 146//29 150//6
f 146//29 149//6 145//29
f 147//30 151//5 148//30
f 152//5 148//30 151//5
f 153//7 154//8 155//7
f 154//8 153//7 150//6
f 150//6 153//7 149//6
f 151//5 156//3 152//5
f 152//5 156//3 157//4
f 158//3 157//4 156//3
f 159//11 160//12 161//11
f 160//12 159//11 155//7
f 155//7 159//11 153//7
f 156//3 162//9 158//3
f 158//3 162//9 163//10
f 164//9 163//10 162//9
f 165//14 161//11 166//14
f 161//11 165//14 159//11
f 162//9 167//13 164//9
f 168//13 164//9 167//13
f 169//16 166//14 170//16
f 166//14 169//16 165//14
f 167//13 171//15 168//13
f 172//15 168//13 171//15
f 169//16 173//18 174//18
f 173//18 169//16 170//16
f 172//15 171//15 175//17
f 176//17 175//17 171//15
f 174//18 177//20 178//20
f 177//20 174//18 173//18
f 175//17 176//17 179//19
f 180//19 179//19 176//17
f 178//20 181//22 182//22
f 181//22 178//20 177//20
f 179//19 180//19 183//21
f 184//21 183//21 180//19
f 182//22 185//24 186//24
f 185//24 182//22 181//22
f 183//21 184//21 187//23
f 188//23 187//23 184//21
f 186//24 189//26 190//26
f 189//26 186//24 185//24
f 187//23 188//23 191//25
f 192//25 191//25 188//23
f 190//26 193//28 194//28
f 193//28 190//26 189//26
f 191//25 192//25 195//27
f 196//27 195//27 192//25
f 197//30 193//28 198//30
f 193//28 197//30 194//28
f 196//27 199//29 195//27
f 200//29 195//27 199//29
f 101//5 198//30 100//5
f 198//30 101//5 197//30
f 199//29 102//6 200//29
f 104//6 200//29 102//6
