# SSTK version 0.8.0
# 2
mtllib original-2.mtl
o #ID47
v 0.759024 0.021579 0.018630
v 0.710788 -0.019943 0.018630
v 0.714587 -0.022858 0.018630
v 0.707873 -0.016143 0.018630
v 0.752310 0.028294 0.018630
v 0.756109 0.025378 0.018630
v 0.756109 0.025378 0.018630
v 0.759024 0.021579 0.018630
v 0.752310 0.028294 0.018630
v 0.707873 -0.016143 0.018630
v 0.710788 -0.019943 0.018630
v 0.714587 -0.022858 0.018630
v 0.714587 -0.022858 -0.016977
v 0.710788 -0.019943 0.018630
v 0.710788 -0.019943 -0.016977
v 0.714587 -0.022858 0.018630
v 0.717425 -0.025035 -0.016977
v 0.714587 -0.022858 0.030500
v 0.717425 -0.025035 0.030500
v 0.717425 -0.025035 0.030500
v 0.717425 -0.025035 -0.016977
v 0.714587 -0.022858 0.030500
v 0.714587 -0.022858 0.018630
v 0.714587 -0.022858 -0.016977
v 0.710788 -0.019943 0.018630
v 0.710788 -0.019943 -0.016977
v 0.759024 0.021579 0.030500
v 0.714587 -0.022858 0.018630
v 0.714587 -0.022858 0.030500
v 0.759024 0.021579 0.018630
v 0.759024 0.021579 0.018630
v 0.759024 0.021579 0.030500
v 0.714587 -0.022858 0.018630
v 0.714587 -0.022858 0.030500
v 0.761202 0.018741 -0.016977
v 0.759024 0.021579 0.030500
v 0.761202 0.018741 0.030500
v 0.759024 0.021579 0.018630
v 0.756109 0.025378 0.018630
v 0.756109 0.025378 -0.016977
v 0.759024 0.021579 -0.016977
v 0.759024 0.021579 -0.016977
v 0.761202 0.018741 -0.016977
v 0.756109 0.025378 -0.016977
v 0.756109 0.025378 0.018630
v 0.759024 0.021579 0.018630
v 0.759024 0.021579 0.030500
v 0.761202 0.018741 0.030500
v 0.752310 0.028294 0.030500
v 0.749472 0.030471 -0.016977
v 0.749472 0.030471 0.030500
v 0.752310 0.028294 -0.016977
v 0.752310 0.028294 0.018630
v 0.752310 0.028294 -0.016977
v 0.752310 0.028294 0.018630
v 0.752310 0.028294 0.030500
v 0.749472 0.030471 -0.016977
v 0.749472 0.030471 0.030500
v 0.752310 0.028294 0.018630
v 0.707873 -0.016143 0.030500
v 0.707873 -0.016143 0.018630
v 0.752310 0.028294 0.030500
v 0.752310 0.028294 0.030500
v 0.752310 0.028294 0.018630
v 0.707873 -0.016143 0.030500
v 0.707873 -0.016143 0.018630
v 0.705695 -0.013305 -0.016977
v 0.707873 -0.016143 0.030500
v 0.705695 -0.013305 0.030500
v 0.707873 -0.016143 0.018630
v 0.707873 -0.016143 -0.016977
v 0.707873 -0.016143 -0.016977
v 0.705695 -0.013305 -0.016977
v 0.707873 -0.016143 0.018630
v 0.707873 -0.016143 0.030500
v 0.705695 -0.013305 0.030500
v 0.725154 -0.028237 -0.016977
v 0.725154 -0.028237 0.030500
v 0.725154 -0.028237 0.030500
v 0.725154 -0.028237 -0.016977
v 0.741743 -0.028237 0.030500
v 0.725154 -0.028237 0.030500
v 0.733449 -0.029329 0.030500
v 0.749472 -0.025035 0.030500
v 0.717425 -0.025035 0.030500
v 0.756109 -0.019943 0.030500
v 0.714587 -0.022858 0.030500
v 0.759024 0.021579 0.030500
v 0.761202 -0.013305 0.030500
v 0.764403 -0.005576 0.030500
v 0.765495 0.002718 0.030500
v 0.764403 0.011012 0.030500
v 0.761202 0.018741 0.030500
v 0.761202 0.018741 0.030500
v 0.764403 0.011012 0.030500
v 0.759024 0.021579 0.030500
v 0.765495 0.002718 0.030500
v 0.764403 -0.005576 0.030500
v 0.761202 -0.013305 0.030500
v 0.756109 -0.019943 0.030500
v 0.714587 -0.022858 0.030500
v 0.717425 -0.025035 0.030500
v 0.749472 -0.025035 0.030500
v 0.725154 -0.028237 0.030500
v 0.741743 -0.028237 0.030500
v 0.733449 -0.029329 0.030500
v 0.764403 0.011012 -0.016977
v 0.764403 0.011012 0.030500
v 0.764403 0.011012 -0.016977
v 0.764403 0.011012 0.030500
v 0.741743 0.033673 -0.016977
v 0.741743 0.033673 0.030500
v 0.741743 0.033673 -0.016977
v 0.741743 0.033673 0.030500
v 0.752310 0.028294 0.030500
v 0.705695 -0.013305 0.030500
v 0.707873 -0.016143 0.030500
v 0.702494 -0.005576 0.030500
v 0.701402 0.002718 0.030500
v 0.702494 0.011012 0.030500
v 0.705695 0.018741 0.030500
v 0.710788 0.025378 0.030500
v 0.717425 0.030471 0.030500
v 0.749472 0.030471 0.030500
v 0.741743 0.033673 0.030500
v 0.725154 0.033673 0.030500
v 0.733449 0.034765 0.030500
v 0.733449 0.034765 0.030500
v 0.741743 0.033673 0.030500
v 0.725154 0.033673 0.030500
v 0.717425 0.030471 0.030500
v 0.749472 0.030471 0.030500
v 0.752310 0.028294 0.030500
v 0.710788 0.025378 0.030500
v 0.705695 0.018741 0.030500
v 0.702494 0.011012 0.030500
v 0.701402 0.002718 0.030500
v 0.702494 -0.005576 0.030500
v 0.705695 -0.013305 0.030500
v 0.707873 -0.016143 0.030500
v 0.702494 -0.005576 -0.016977
v 0.702494 -0.005576 0.030500
v 0.702494 -0.005576 -0.016977
v 0.702494 -0.005576 0.030500
v 0.733449 -0.029329 -0.016977
v 0.733449 -0.029329 0.030500
v 0.733449 -0.029329 0.030500
v 0.733449 -0.029329 -0.016977
v 0.741743 -0.028237 -0.016977
v 0.741743 -0.028237 0.030500
v 0.741743 -0.028237 0.030500
v 0.741743 -0.028237 -0.016977
v 0.749472 -0.025035 -0.016977
v 0.749472 -0.025035 0.030500
v 0.749472 -0.025035 0.030500
v 0.749472 -0.025035 -0.016977
v 0.756109 -0.019943 -0.016977
v 0.756109 -0.019943 0.030500
v 0.756109 -0.019943 0.030500
v 0.756109 -0.019943 -0.016977
v 0.761202 -0.013305 0.030500
v 0.761202 -0.013305 -0.016977
v 0.761202 -0.013305 -0.016977
v 0.761202 -0.013305 0.030500
v 0.764403 -0.005576 0.030500
v 0.764403 -0.005576 -0.016977
v 0.764403 -0.005576 -0.016977
v 0.764403 -0.005576 0.030500
v 0.765495 0.002718 0.030500
v 0.765495 0.002718 -0.016977
v 0.765495 0.002718 -0.016977
v 0.765495 0.002718 0.030500
v 0.733449 0.034765 -0.016977
v 0.733449 0.034765 0.030500
v 0.733449 0.034765 -0.016977
v 0.733449 0.034765 0.030500
v 0.725154 0.033673 -0.016977
v 0.725154 0.033673 0.030500
v 0.725154 0.033673 -0.016977
v 0.725154 0.033673 0.030500
v 0.717425 0.030471 -0.016977
v 0.717425 0.030471 0.030500
v 0.717425 0.030471 -0.016977
v 0.717425 0.030471 0.030500
v 0.710788 0.025378 -0.016977
v 0.710788 0.025378 0.030500
v 0.710788 0.025378 -0.016977
v 0.710788 0.025378 0.030500
v 0.705695 0.018741 0.030500
v 0.705695 0.018741 -0.016977
v 0.705695 0.018741 -0.016977
v 0.705695 0.018741 0.030500
v 0.702494 0.011012 0.030500
v 0.702494 0.011012 -0.016977
v 0.702494 0.011012 -0.016977
v 0.702494 0.011012 0.030500
v 0.701402 0.002718 0.030500
v 0.701402 0.002718 -0.016977
v 0.701402 0.002718 -0.016977
v 0.701402 0.002718 0.030500
vn 0 0 1
vn -0.608761430209528 -0.7933533393698233 0
vn -0.7071067811865476 -0.7071067811865476 0
vn -0.5000000016387101 -0.866025402838329 0
vn -0.7071067811865476 0.7071067811865476 0
vn 0.866025402838329 0.5000000016387101 0
vn 0.7933533393698233 0.608761430209528 0
vn 0.7071067811865476 0.7071067811865476 0
vn 0.608761430209528 0.7933533393698233 0
vn 0.5000000016387101 0.866025402838329 0
vn 0.7071067811865476 -0.7071067811865476 0
vn -0.866025402838329 -0.5000000016387101 0
vn -0.7933533393698233 -0.608761430209528 0
vn -0.25881900959356163 -0.9659258358036645 0
vn 0.9659258358036645 0.25881900959356163 0
vn 0.25881900959356163 0.9659258358036645 0
vn -0.9659258358036645 -0.25881900959356163 0
vn 0 -1 0
vn 0.25881900959356163 -0.9659258358036645 0
vn 0.5000000016387101 -0.866025402838329 0
vn 0.866025402838329 -0.5000000016387101 0
vn 0.9659258358036645 -0.25881900959356163 0
vn 1 0 0
vn 0 1 0
vn -0.25881900959356163 0.9659258358036645 0
vn -0.5000000016387101 0.866025402838329 0
vn -0.866025402838329 0.5000000016387101 0
vn -0.9659258358036645 0.25881900959356163 0
vn -1 0 0
vn 0 0 -1
usemtl material_0_0
f 7//30 8//30 9//30
f 9//30 8//30 10//30
f 10//30 8//30 11//30
f 12//30 11//30 8//30
f 20//10 21//10 22//9
f 22//9 21//10 23//9
f 21//10 24//9 23//9
f 23//9 24//9 25//8
f 26//8 25//8 24//9
f 31//11 32//11 33//11
f 34//11 33//11 32//11
f 42//13 43//12 44//3
f 44//3 43//12 45//3
f 45//3 43//12 46//13
f 46//13 43//12 47//13
f 48//12 47//13 43//12
f 44//3 45//3 54//2
f 45//3 55//2 54//2
f 55//2 56//2 54//2
f 54//2 56//2 57//4
f 58//4 57//4 56//2
f 63//5 64//5 65//5
f 66//5 65//5 64//5
f 72//7 73//6 26//8
f 26//8 73//6 25//8
f 25//8 73//6 74//7
f 74//7 73//6 75//7
f 76//6 75//7 73//6
f 79//16 80//16 20//10
f 21//10 20//10 80//16
f 94//30 95//30 96//30
f 95//30 97//30 96//30
f 97//30 98//30 96//30
f 98//30 99//30 96//30
f 99//30 100//30 96//30
f 96//30 100//30 101//30
f 101//30 100//30 102//30
f 100//30 103//30 102//30
f 102//30 103//30 104//30
f 103//30 105//30 104//30
f 106//30 104//30 105//30
f 43//12 109//17 48//12
f 110//17 48//12 109//17
f 57//4 58//4 113//14
f 114//14 113//14 58//4
f 128//30 129//30 130//30
f 130//30 129//30 131//30
f 129//30 132//30 131//30
f 132//30 133//30 131//30
f 131//30 133//30 134//30
f 134//30 133//30 135//30
f 135//30 133//30 136//30
f 136//30 133//30 137//30
f 137//30 133//30 138//30
f 138//30 133//30 139//30
f 140//30 139//30 133//30
f 73//6 143//15 76//6
f 144//15 76//6 143//15
f 147//24 148//24 79//16
f 80//16 79//16 148//24
f 151//25 152//25 147//24
f 148//24 147//24 152//25
f 155//26 156//26 151//25
f 152//25 151//25 156//26
f 159//5 160//5 155//26
f 156//26 155//26 160//5
f 163//27 160//5 164//27
f 159//5 164//27 160//5
f 167//28 163//27 168//28
f 164//27 168//28 163//27
f 171//29 167//28 172//29
f 168//28 172//29 167//28
f 109//17 171//29 110//17
f 172//29 110//17 171//29
f 113//14 114//14 175//18
f 176//18 175//18 114//14
f 175//18 176//18 179//19
f 180//19 179//19 176//18
f 179//19 180//19 183//20
f 184//20 183//20 180//19
f 183//20 184//20 187//11
f 188//11 187//11 184//20
f 191//21 187//11 192//21
f 188//11 192//21 187//11
f 195//22 191//21 196//22
f 192//21 196//22 191//21
f 199//23 195//22 200//23
f 196//22 200//23 195//22
f 143//15 199//23 144//15
f 200//23 144//15 199//23
usemtl material_1_0
f 1//1 2//1 3//1
f 2//1 1//1 4//1
f 4//1 1//1 5//1
f 5//1 1//1 6//1
f 13//2 14//3 15//3
f 14//3 13//2 16//2
f 16//2 13//2 17//4
f 16//2 17//4 18//2
f 18//2 17//4 19//4
f 27//5 28//5 29//5
f 28//5 27//5 30//5
f 35//6 36//7 37//6
f 36//7 35//6 38//7
f 38//7 35//6 39//8
f 39//8 35//6 40//8
f 40//8 35//6 41//7
f 49//9 50//10 51//10
f 50//10 49//9 52//9
f 52//9 49//9 53//9
f 52//9 53//9 39//8
f 52//9 39//8 40//8
f 59//11 60//11 61//11
f 60//11 59//11 62//11
f 67//12 68//13 69//12
f 68//13 67//12 70//13
f 70//13 67//12 14//3
f 14//3 67//12 15//3
f 15//3 67//12 71//13
f 77//14 19//4 17//4
f 19//4 77//14 78//14
f 81//1 82//1 83//1
f 82//1 81//1 84//1
f 82//1 84//1 85//1
f 85//1 84//1 86//1
f 85//1 86//1 87//1
f 87//1 86//1 88//1
f 88//1 86//1 89//1
f 88//1 89//1 90//1
f 88//1 90//1 91//1
f 88//1 91//1 92//1
f 88//1 92//1 93//1
f 107//15 37//6 108//15
f 37//6 107//15 35//6
f 51//10 111//16 112//16
f 111//16 51//10 50//10
f 115//1 116//1 117//1
f 116//1 115//1 118//1
f 118//1 115//1 119//1
f 119//1 115//1 120//1
f 120//1 115//1 121//1
f 121//1 115//1 122//1
f 122//1 115//1 123//1
f 123//1 115//1 124//1
f 123//1 124//1 125//1
f 123//1 125//1 126//1
f 126//1 125//1 127//1
f 141//17 69//12 142//17
f 69//12 141//17 67//12
f 145//18 78//14 77//14
f 78//14 145//18 146//18
f 149//19 146//18 145//18
f 146//18 149//19 150//19
f 153//20 150//19 149//19
f 150//19 153//20 154//20
f 157//11 154//20 153//20
f 154//20 157//11 158//11
f 157//11 161//21 158//11
f 161//21 157//11 162//21
f 162//21 165//22 161//21
f 165//22 162//21 166//22
f 166//22 169//23 165//22
f 169//23 166//22 170//23
f 170//23 108//15 169//23
f 108//15 170//23 107//15
f 112//16 173//24 174//24
f 173//24 112//16 111//16
f 174//24 177//25 178//25
f 177//25 174//24 173//24
f 178//25 181//26 182//26
f 181//26 178//25 177//25
f 182//26 185//5 186//5
f 185//5 182//26 181//26
f 185//5 189//27 186//5
f 189//27 185//5 190//27
f 190//27 193//28 189//27
f 193//28 190//27 194//28
f 194//28 197//29 193//28
f 197//29 194//28 198//29
f 198//29 142//17 197//29
f 142//17 198//29 141//17
