# SSTK version 0.8.0
# 21
mtllib original-21.mtl
o #ID4
v 0.134057 0.138557 0.053933
v 0.134057 0.173524 0.053762
v 0.134057 0.140400 0.054154
v 0.134057 0.136839 0.053242
v 0.134057 0.363540 0.087567
v 0.134057 0.367101 0.087705
v 0.134057 0.365383 0.087902
v 0.134057 0.368576 0.086988
v 0.134057 0.332326 0.077583
v 0.134057 0.369707 0.085802
v 0.134057 0.370419 0.084226
v 0.134057 0.370661 0.082368
v 0.134057 0.370661 0.042369
v 0.134057 0.293283 0.067808
v 0.134057 0.253692 0.060561
v 0.134057 0.213717 0.055873
v 0.134057 0.135364 0.052127
v 0.134057 0.134233 0.050666
v 0.134057 0.133521 0.048956
v 0.134057 0.133278 0.047116
v 0.134057 0.133278 0.042369
v 0.134057 0.133278 0.042369
v 0.134057 0.133278 0.047116
v 0.134057 0.370661 0.042369
v 0.134057 0.133521 0.048956
v 0.134057 0.134233 0.050666
v 0.134057 0.135364 0.052127
v 0.134057 0.136839 0.053242
v 0.134057 0.173524 0.053762
v 0.134057 0.213717 0.055873
v 0.134057 0.253692 0.060561
v 0.134057 0.293283 0.067808
v 0.134057 0.332326 0.077583
v 0.134057 0.370661 0.082368
v 0.134057 0.370419 0.084226
v 0.134057 0.369707 0.085802
v 0.134057 0.368576 0.086988
v 0.134057 0.363540 0.087567
v 0.134057 0.367101 0.087705
v 0.134057 0.365383 0.087902
v 0.134057 0.138557 0.053933
v 0.134057 0.140400 0.054154
v 0.134057 0.140400 0.054154
v 0.027234 0.138557 0.053933
v 0.134057 0.138557 0.053933
v 0.027234 0.140400 0.054154
v 0.027234 0.140400 0.054154
v 0.134057 0.140400 0.054154
v 0.027234 0.138557 0.053933
v 0.134057 0.138557 0.053933
v 0.027234 0.136839 0.053242
v 0.134057 0.136839 0.053242
v 0.027234 0.136839 0.053242
v 0.134057 0.136839 0.053242
v 0.027234 0.135364 0.052127
v 0.134057 0.135364 0.052127
v 0.027234 0.135364 0.052127
v 0.134057 0.135364 0.052127
v 0.134057 0.134233 0.050666
v 0.027234 0.134233 0.050666
v 0.134057 0.134233 0.050666
v 0.027234 0.134233 0.050666
v 0.134057 0.133521 0.048956
v 0.027234 0.133521 0.048956
v 0.134057 0.133521 0.048956
v 0.027234 0.133521 0.048956
v 0.134057 0.133278 0.047116
v 0.027234 0.133278 0.047116
v 0.134057 0.133278 0.047116
v 0.027234 0.133278 0.047116
v 0.134057 0.133278 0.042369
v 0.027234 0.133278 0.047116
v 0.027234 0.133278 0.042369
v 0.134057 0.133278 0.047116
v 0.134057 0.133278 0.047116
v 0.134057 0.133278 0.042369
v 0.027234 0.133278 0.047116
v 0.027234 0.133278 0.042369
v 0.027234 0.370661 0.042369
v 0.134057 0.133278 0.042369
v 0.027234 0.133278 0.042369
v 0.134057 0.370661 0.042369
v 0.134057 0.370661 0.042369
v 0.027234 0.370661 0.042369
v 0.134057 0.133278 0.042369
v 0.027234 0.133278 0.042369
v 0.027234 0.370661 0.082368
v 0.032083 0.370661 0.077520
v 0.027234 0.370661 0.042369
v 0.134057 0.370661 0.082368
v 0.129209 0.370661 0.077520
v 0.129209 0.370661 0.053152
v 0.032083 0.370661 0.053152
v 0.134057 0.370661 0.042369
v 0.134057 0.370661 0.082368
v 0.129209 0.370661 0.053152
v 0.134057 0.370661 0.042369
v 0.032083 0.370661 0.053152
v 0.032083 0.370661 0.077520
v 0.027234 0.370661 0.042369
v 0.129209 0.370661 0.077520
v 0.027234 0.370661 0.082368
v 0.134057 0.370419 0.084226
v 0.027234 0.370419 0.084226
v 0.134057 0.370419 0.084226
v 0.027234 0.370419 0.084226
v 0.134057 0.369707 0.085802
v 0.027234 0.369707 0.085802
v 0.134057 0.369707 0.085802
v 0.027234 0.369707 0.085802
v 0.134057 0.368576 0.086988
v 0.027234 0.368576 0.086988
v 0.134057 0.368576 0.086988
v 0.027234 0.368576 0.086988
v 0.027234 0.367101 0.087705
v 0.134057 0.367101 0.087705
v 0.027234 0.367101 0.087705
v 0.134057 0.367101 0.087705
v 0.027234 0.365383 0.087902
v 0.134057 0.365383 0.087902
v 0.027234 0.365383 0.087902
v 0.134057 0.365383 0.087902
v 0.027234 0.363540 0.087567
v 0.134057 0.363540 0.087567
v 0.027234 0.363540 0.087567
v 0.134057 0.363540 0.087567
v 0.134057 0.363540 0.087567
v 0.027234 0.332326 0.077583
v 0.134057 0.332326 0.077583
v 0.027234 0.363540 0.087567
v 0.027234 0.363540 0.087567
v 0.134057 0.363540 0.087567
v 0.027234 0.332326 0.077583
v 0.134057 0.332326 0.077583
v 0.027234 0.293283 0.067808
v 0.134057 0.293283 0.067808
v 0.027234 0.293283 0.067808
v 0.134057 0.293283 0.067808
v 0.027234 0.253692 0.060561
v 0.134057 0.253692 0.060561
v 0.027234 0.253692 0.060561
v 0.134057 0.253692 0.060561
v 0.027234 0.213717 0.055873
v 0.134057 0.213717 0.055873
v 0.027234 0.213717 0.055873
v 0.134057 0.213717 0.055873
v 0.027234 0.173524 0.053762
v 0.134057 0.173524 0.053762
v 0.027234 0.173524 0.053762
v 0.134057 0.173524 0.053762
v 0.027234 0.140400 0.054154
v 0.134057 0.140400 0.054154
v 0.027234 0.140400 0.054154
v 0.134057 0.140400 0.054154
v 0.027234 0.367101 0.087705
v 0.027234 0.363540 0.087567
v 0.027234 0.365383 0.087902
v 0.027234 0.368576 0.086988
v 0.027234 0.332326 0.077583
v 0.027234 0.369707 0.085802
v 0.027234 0.370419 0.084226
v 0.027234 0.370661 0.082368
v 0.027234 0.370661 0.042369
v 0.027234 0.293283 0.067808
v 0.027234 0.253692 0.060561
v 0.027234 0.213717 0.055873
v 0.027234 0.173524 0.053762
v 0.027234 0.136839 0.053242
v 0.027234 0.135364 0.052127
v 0.027234 0.134233 0.050666
v 0.027234 0.133521 0.048956
v 0.027234 0.133278 0.047116
v 0.027234 0.133278 0.042369
v 0.027234 0.138557 0.053933
v 0.027234 0.140400 0.054154
v 0.027234 0.136839 0.053242
v 0.027234 0.173524 0.053762
v 0.027234 0.138557 0.053933
v 0.027234 0.140400 0.054154
v 0.027234 0.133278 0.042369
v 0.027234 0.370661 0.042369
v 0.027234 0.133278 0.047116
v 0.027234 0.133521 0.048956
v 0.027234 0.134233 0.050666
v 0.027234 0.135364 0.052127
v 0.027234 0.213717 0.055873
v 0.027234 0.253692 0.060561
v 0.027234 0.293283 0.067808
v 0.027234 0.332326 0.077583
v 0.027234 0.370661 0.082368
v 0.027234 0.370419 0.084226
v 0.027234 0.369707 0.085802
v 0.027234 0.368576 0.086988
v 0.027234 0.363540 0.087567
v 0.027234 0.367101 0.087705
v 0.027234 0.365383 0.087902
vn 1 0 0
vn -1 0 0
vn 0 -0.11899069630964366 0.9928953692065174
vn 0 -0.24830819556962958 0.9686810827165744
vn 0 0.11899069630964366 -0.9928953692065174
vn 0 0.24830819556962958 -0.9686810827165744
vn 0 -0.4923798983682113 0.8703803971154853
vn 0 0.4923798983682113 -0.8703803971154853
vn 0 -0.702915784299234 0.7112730841125599
vn 0 0.702915784299234 -0.7112730841125599
vn 0 -0.8645002575401358 0.5026323753132489
vn 0 0.8645002575401358 -0.5026323753132489
vn 0 -0.9656787446404084 0.2597394120069674
vn 0 0.9656787446404084 -0.2597394120069674
vn 0 -0.9914196960720298 0.1307171994821028
vn 0 0.9914196960720298 -0.1307171994821028
vn 0 -1 0
vn 0 1 0
vn 0 0 -1
vn 0 0 1
vn 0 0.997891571190786 0.0649030981262423
vn 0 -0.997891571190786 -0.0649030981262423
vn 0 0.9618804438202682 0.2734703124584534
vn 0 -0.9618804438202682 -0.2734703124584534
vn 0 0.8293019877576407 0.5588006917508476
vn 0 -0.8293019877576407 -0.5588006917508476
vn 0 0.5896284266595427 0.8076746365183151
vn 0 -0.5896284266595427 -0.8076746365183151
vn 0 0.2795641080880956 0.9601270277775267
vn 0 -0.2795641080880956 -0.9601270277775267
vn 0 -0.032594089071351966 0.9994686715238296
vn 0 0.032594089071351966 -0.9994686715238296
vn 0 -0.1787358009303156 0.9838971051211599
vn 0 0.1787358009303156 -0.9838971051211599
vn 0 -0.3046766180458141 0.9524558564133906
vn 0 -0.2739108926708543 0.9617550742659253
vn 0 0.3046766180458141 -0.9524558564133906
vn 0 0.2739108926708543 -0.9617550742659253
vn 0 -0.211562705667908 0.9773644261842531
vn 0 0.211562705667908 -0.9773644261842531
vn 0 -0.148340492050047 0.9889363470003264
vn 0 0.148340492050047 -0.9889363470003264
vn 0 -0.08450546136481366 0.9964230160928239
vn 0 0.08450546136481366 -0.9964230160928239
vn 0 -0.02032136999267511 0.999793499639611
vn 0 0.02032136999267511 -0.999793499639611
vn 0 0.011818749481608149 0.9999301561412632
vn 0 -0.011818749481608149 -0.9999301561412632
usemtl material_0_0
f 1//1 2//1 3//1
f 2//1 1//1 4//1
f 5//1 6//1 7//1
f 6//1 5//1 8//1
f 8//1 5//1 9//1
f 8//1 9//1 10//1
f 10//1 9//1 11//1
f 11//1 9//1 12//1
f 12//1 9//1 13//1
f 13//1 9//1 14//1
f 13//1 14//1 15//1
f 13//1 15//1 16//1
f 13//1 16//1 2//1
f 13//1 2//1 4//1
f 13//1 4//1 17//1
f 13//1 17//1 18//1
f 13//1 18//1 19//1
f 13//1 19//1 20//1
f 13//1 20//1 21//1
f 22//2 23//2 24//2
f 23//2 25//2 24//2
f 25//2 26//2 24//2
f 26//2 27//2 24//2
f 27//2 28//2 24//2
f 28//2 29//2 24//2
f 29//2 30//2 24//2
f 30//2 31//2 24//2
f 31//2 32//2 24//2
f 32//2 33//2 24//2
f 24//2 33//2 34//2
f 34//2 33//2 35//2
f 35//2 33//2 36//2
f 36//2 33//2 37//2
f 33//2 38//2 37//2
f 37//2 38//2 39//2
f 40//2 39//2 38//2
f 28//2 41//2 29//2
f 42//2 29//2 41//2
f 43//3 44//4 45//4
f 44//4 43//3 46//3
f 47//5 48//5 49//6
f 50//6 49//6 48//5
f 45//4 51//7 52//7
f 51//7 45//4 44//4
f 49//6 50//6 53//8
f 54//8 53//8 50//6
f 52//7 55//9 56//9
f 55//9 52//7 51//7
f 53//8 54//8 57//10
f 58//10 57//10 54//8
f 59//11 55//9 60//11
f 55//9 59//11 56//9
f 58//10 61//12 57//10
f 62//12 57//10 61//12
f 63//13 60//11 64//13
f 60//11 63//13 59//11
f 61//12 65//14 62//12
f 66//14 62//12 65//14
f 67//15 64//13 68//15
f 64//13 67//15 63//13
f 65//14 69//16 66//14
f 70//16 66//14 69//16
f 71//17 72//17 73//17
f 72//17 71//17 74//17
f 75//18 76//18 77//18
f 78//18 77//18 76//18
f 79//19 80//19 81//19
f 80//19 79//19 82//19
f 83//20 84//20 85//20
f 86//20 85//20 84//20
f 87//21 88//18 89//18
f 88//18 87//21 90//21
f 88//18 90//21 91//18
f 91//18 90//21 92//18
f 89//18 93//18 94//18
f 93//18 89//18 88//18
f 94//18 93//18 92//18
f 94//18 92//18 90//21
f 95//22 96//17 97//17
f 96//17 98//17 97//17
f 99//17 100//17 98//17
f 97//17 98//17 100//17
f 96//17 95//22 101//17
f 101//17 95//22 99//17
f 95//22 102//22 99//17
f 100//17 99//17 102//22
f 103//23 87//21 104//23
f 87//21 103//23 90//21
f 95//22 105//24 102//22
f 106//24 102//22 105//24
f 107//25 104//23 108//25
f 104//23 107//25 103//23
f 105//24 109//26 106//24
f 110//26 106//24 109//26
f 111//27 108//25 112//27
f 108//25 111//27 107//25
f 109//26 113//28 110//26
f 114//28 110//26 113//28
f 111//27 115//29 116//29
f 115//29 111//27 112//27
f 114//28 113//28 117//30
f 118//30 117//30 113//28
f 116//29 119//31 120//31
f 119//31 116//29 115//29
f 117//30 118//30 121//32
f 122//32 121//32 118//30
f 120//31 123//33 124//33
f 123//33 120//31 119//31
f 121//32 122//32 125//34
f 126//34 125//34 122//32
f 127//35 128//36 129//36
f 128//36 127//35 130//35
f 131//37 132//37 133//38
f 134//38 133//38 132//37
f 129//36 135//39 136//39
f 135//39 129//36 128//36
f 133//38 134//38 137//40
f 138//40 137//40 134//38
f 136//39 139//41 140//41
f 139//41 136//39 135//39
f 137//40 138//40 141//42
f 142//42 141//42 138//40
f 140//41 143//43 144//43
f 143//43 140//41 139//41
f 141//42 142//42 145//44
f 146//44 145//44 142//42
f 144//43 147//45 148//45
f 147//45 144//43 143//43
f 145//44 146//44 149//46
f 150//46 149//46 146//44
f 148//45 151//47 152//47
f 151//47 148//45 147//45
f 149//46 150//46 153//48
f 154//48 153//48 150//46
f 155//2 156//2 157//2
f 156//2 155//2 158//2
f 156//2 158//2 159//2
f 159//2 158//2 160//2
f 159//2 160//2 161//2
f 159//2 161//2 162//2
f 159//2 162//2 163//2
f 159//2 163//2 164//2
f 164//2 163//2 165//2
f 165//2 163//2 166//2
f 166//2 163//2 167//2
f 167//2 163//2 168//2
f 168//2 163//2 169//2
f 169//2 163//2 170//2
f 170//2 163//2 171//2
f 171//2 163//2 172//2
f 172//2 163//2 173//2
f 167//2 174//2 175//2
f 174//2 167//2 168//2
f 176//1 177//1 178//1
f 179//1 178//1 177//1
f 180//1 181//1 182//1
f 182//1 181//1 183//1
f 183//1 181//1 184//1
f 184//1 181//1 185//1
f 185//1 181//1 176//1
f 176//1 181//1 177//1
f 177//1 181//1 186//1
f 186//1 181//1 187//1
f 187//1 181//1 188//1
f 188//1 181//1 189//1
f 181//1 190//1 189//1
f 190//1 191//1 189//1
f 191//1 192//1 189//1
f 192//1 193//1 189//1
f 189//1 193//1 194//1
f 193//1 195//1 194//1
f 196//1 194//1 195//1
