# SSTK version 0.8.0
# 4
mtllib original-4.mtl
o #ID61
v -0.781149 0.011012 -0.016977
v -0.781460 0.008652 0.030500
v -0.781149 0.011012 0.030500
v -0.781460 0.008652 0.018630
v -0.782241 0.002718 0.018630
v -0.782241 0.002718 -0.016977
v -0.782241 0.002718 -0.016977
v -0.781149 0.011012 -0.016977
v -0.782241 0.002718 0.018630
v -0.781460 0.008652 0.018630
v -0.781460 0.008652 0.030500
v -0.781149 0.011012 0.030500
v -0.718148 0.002718 0.018630
v -0.781460 -0.003217 0.018630
v -0.718929 -0.003217 0.018630
v -0.782241 0.002718 0.018630
v -0.718929 0.008652 0.018630
v -0.781460 0.008652 0.018630
v -0.781460 0.008652 0.018630
v -0.718929 0.008652 0.018630
v -0.782241 0.002718 0.018630
v -0.718148 0.002718 0.018630
v -0.781460 -0.003217 0.018630
v -0.718929 -0.003217 0.018630
v -0.718929 0.008652 0.018630
v -0.781460 0.008652 0.030500
v -0.781460 0.008652 0.018630
v -0.718929 0.008652 0.030500
v -0.718929 0.008652 0.030500
v -0.718929 0.008652 0.018630
v -0.781460 0.008652 0.030500
v -0.781460 0.008652 0.018630
v -0.719240 0.011012 0.030500
v -0.781460 0.008652 0.030500
v -0.718929 0.008652 0.030500
v -0.781149 0.011012 0.030500
v -0.722441 0.018741 0.030500
v -0.777948 0.018741 0.030500
v -0.727534 0.025378 0.030500
v -0.772855 0.025378 0.030500
v -0.734171 0.030471 0.030500
v -0.766218 0.030471 0.030500
v -0.741900 0.033673 0.030500
v -0.758489 0.033673 0.030500
v -0.750195 0.034765 0.030500
v -0.750195 0.034765 0.030500
v -0.741900 0.033673 0.030500
v -0.758489 0.033673 0.030500
v -0.766218 0.030471 0.030500
v -0.734171 0.030471 0.030500
v -0.772855 0.025378 0.030500
v -0.727534 0.025378 0.030500
v -0.777948 0.018741 0.030500
v -0.722441 0.018741 0.030500
v -0.781149 0.011012 0.030500
v -0.719240 0.011012 0.030500
v -0.781460 0.008652 0.030500
v -0.718929 0.008652 0.030500
v -0.777948 0.018741 -0.016977
v -0.777948 0.018741 0.030500
v -0.777948 0.018741 -0.016977
v -0.777948 0.018741 0.030500
v -0.781460 -0.003217 0.018630
v -0.781149 -0.005576 0.030500
v -0.781460 -0.003217 0.030500
v -0.781149 -0.005576 -0.016977
v -0.781460 -0.003217 0.018630
v -0.781149 -0.005576 -0.016977
v -0.781149 -0.005576 0.030500
v -0.781460 -0.003217 0.030500
v -0.718929 -0.003217 0.030500
v -0.781460 -0.003217 0.018630
v -0.781460 -0.003217 0.030500
v -0.718929 -0.003217 0.018630
v -0.718929 -0.003217 0.018630
v -0.718929 -0.003217 0.030500
v -0.781460 -0.003217 0.018630
v -0.781460 -0.003217 0.030500
v -0.719240 -0.005576 -0.016977
v -0.718929 -0.003217 0.030500
v -0.719240 -0.005576 0.030500
v -0.718929 -0.003217 0.018630
v -0.718148 0.002718 0.018630
v -0.718148 0.002718 -0.016977
v -0.718148 0.002718 -0.016977
v -0.719240 -0.005576 -0.016977
v -0.718148 0.002718 0.018630
v -0.718929 -0.003217 0.018630
v -0.718929 -0.003217 0.030500
v -0.719240 -0.005576 0.030500
v -0.718929 0.008652 0.018630
v -0.719240 0.011012 0.030500
v -0.718929 0.008652 0.030500
v -0.719240 0.011012 -0.016977
v -0.718929 0.008652 0.018630
v -0.719240 0.011012 -0.016977
v -0.719240 0.011012 0.030500
v -0.718929 0.008652 0.030500
v -0.722441 0.018741 0.030500
v -0.722441 0.018741 -0.016977
v -0.722441 0.018741 -0.016977
v -0.722441 0.018741 0.030500
v -0.727534 0.025378 0.030500
v -0.727534 0.025378 -0.016977
v -0.727534 0.025378 -0.016977
v -0.727534 0.025378 0.030500
v -0.734171 0.030471 -0.016977
v -0.734171 0.030471 0.030500
v -0.734171 0.030471 -0.016977
v -0.734171 0.030471 0.030500
v -0.741900 0.033673 -0.016977
v -0.741900 0.033673 0.030500
v -0.741900 0.033673 -0.016977
v -0.741900 0.033673 0.030500
v -0.750195 0.034765 -0.016977
v -0.750195 0.034765 0.030500
v -0.750195 0.034765 -0.016977
v -0.750195 0.034765 0.030500
v -0.758489 0.033673 -0.016977
v -0.758489 0.033673 0.030500
v -0.758489 0.033673 -0.016977
v -0.758489 0.033673 0.030500
v -0.766218 0.030471 -0.016977
v -0.766218 0.030471 0.030500
v -0.766218 0.030471 -0.016977
v -0.766218 0.030471 0.030500
v -0.772855 0.025378 -0.016977
v -0.772855 0.025378 0.030500
v -0.772855 0.025378 -0.016977
v -0.772855 0.025378 0.030500
v -0.777948 -0.013305 0.030500
v -0.777948 -0.013305 -0.016977
v -0.777948 -0.013305 -0.016977
v -0.777948 -0.013305 0.030500
v -0.741900 -0.028237 0.030500
v -0.758489 -0.028237 0.030500
v -0.750195 -0.029329 0.030500
v -0.734171 -0.025035 0.030500
v -0.766218 -0.025035 0.030500
v -0.727534 -0.019943 0.030500
v -0.772855 -0.019943 0.030500
v -0.722441 -0.013305 0.030500
v -0.777948 -0.013305 0.030500
v -0.719240 -0.005576 0.030500
v -0.781149 -0.005576 0.030500
v -0.718929 -0.003217 0.030500
v -0.781460 -0.003217 0.030500
v -0.781460 -0.003217 0.030500
v -0.718929 -0.003217 0.030500
v -0.781149 -0.005576 0.030500
v -0.719240 -0.005576 0.030500
v -0.777948 -0.013305 0.030500
v -0.722441 -0.013305 0.030500
v -0.772855 -0.019943 0.030500
v -0.727534 -0.019943 0.030500
v -0.766218 -0.025035 0.030500
v -0.734171 -0.025035 0.030500
v -0.758489 -0.028237 0.030500
v -0.741900 -0.028237 0.030500
v -0.750195 -0.029329 0.030500
v -0.722441 -0.013305 -0.016977
v -0.722441 -0.013305 0.030500
v -0.722441 -0.013305 -0.016977
v -0.722441 -0.013305 0.030500
v -0.772855 -0.019943 0.030500
v -0.772855 -0.019943 -0.016977
v -0.772855 -0.019943 -0.016977
v -0.772855 -0.019943 0.030500
v -0.766218 -0.025035 -0.016977
v -0.766218 -0.025035 0.030500
v -0.766218 -0.025035 0.030500
v -0.766218 -0.025035 -0.016977
v -0.758489 -0.028237 -0.016977
v -0.758489 -0.028237 0.030500
v -0.758489 -0.028237 0.030500
v -0.758489 -0.028237 -0.016977
v -0.750195 -0.029329 -0.016977
v -0.750195 -0.029329 0.030500
v -0.750195 -0.029329 0.030500
v -0.750195 -0.029329 -0.016977
v -0.741900 -0.028237 -0.016977
v -0.741900 -0.028237 0.030500
v -0.741900 -0.028237 0.030500
v -0.741900 -0.028237 -0.016977
v -0.734171 -0.025035 -0.016977
v -0.734171 -0.025035 0.030500
v -0.734171 -0.025035 0.030500
v -0.734171 -0.025035 -0.016977
v -0.727534 -0.019943 -0.016977
v -0.727534 -0.019943 0.030500
v -0.727534 -0.019943 0.030500
v -0.727534 -0.019943 -0.016977
vn -0.9659258358036645 0.25881900959356163 0
vn -0.9914448610250887 0.1305261948688555 0
vn -1 0 0
vn 0 0 1
vn 0 -1 0
vn -0.866025402838329 0.5000000016387101 0
vn -0.9914448610250887 -0.1305261948688555 0
vn -0.9659258358036645 -0.25881900959356163 0
vn 0 1 0
vn 0.9659258358036645 -0.25881900959356163 0
vn 0.9914448610250887 -0.1305261948688555 0
vn 1 0 0
vn 0.9914448610250887 0.1305261948688555 0
vn 0.9659258358036645 0.25881900959356163 0
vn 0.866025402838329 0.5000000016387101 0
vn 0.7071067811865476 0.7071067811865476 0
vn 0.5000000016387101 0.866025402838329 0
vn 0.25881900959356163 0.9659258358036645 0
vn -0.25881900959356163 0.9659258358036645 0
vn -0.5000000016387101 0.866025402838329 0
vn -0.7071067811865476 0.7071067811865476 0
vn -0.866025402838329 -0.5000000016387101 0
vn 0.866025402838329 -0.5000000016387101 0
vn -0.7071067811865476 -0.7071067811865476 0
vn -0.5000000016387101 -0.866025402838329 0
vn -0.25881900959356163 -0.9659258358036645 0
vn 0.25881900959356163 -0.9659258358036645 0
vn 0.5000000016387101 -0.866025402838329 0
vn 0.7071067811865476 -0.7071067811865476 0
vn 0 0 -1
usemtl material_0_0
f 7//12 8//10 9//12
f 9//12 8//10 10//11
f 10//11 8//10 11//11
f 12//10 11//11 8//10
f 19//30 20//30 21//30
f 20//30 22//30 21//30
f 21//30 22//30 23//30
f 24//30 23//30 22//30
f 29//9 30//9 31//9
f 32//9 31//9 30//9
f 46//30 47//30 48//30
f 48//30 47//30 49//30
f 47//30 50//30 49//30
f 49//30 50//30 51//30
f 50//30 52//30 51//30
f 51//30 52//30 53//30
f 52//30 54//30 53//30
f 53//30 54//30 55//30
f 54//30 56//30 55//30
f 55//30 56//30 57//30
f 58//30 57//30 56//30
f 8//10 61//23 12//10
f 62//23 12//10 61//23
f 7//12 67//13 68//14
f 68//14 67//13 69//14
f 70//13 69//14 67//13
f 9//12 67//13 7//12
f 75//5 76//5 77//5
f 78//5 77//5 76//5
f 85//3 86//1 87//3
f 87//3 86//1 88//2
f 88//2 86//1 89//2
f 90//1 89//2 86//1
f 85//3 95//7 96//8
f 96//8 95//7 97//8
f 98//7 97//8 95//7
f 87//3 95//7 85//3
f 101//22 96//8 102//22
f 97//8 102//22 96//8
f 105//24 101//22 106//24
f 102//22 106//24 101//22
f 105//24 106//24 109//25
f 110//25 109//25 106//24
f 109//25 110//25 113//26
f 114//26 113//26 110//25
f 113//26 114//26 117//5
f 118//5 117//5 114//26
f 117//5 118//5 121//27
f 122//27 121//27 118//5
f 121//27 122//27 125//28
f 126//28 125//28 122//27
f 125//28 126//28 129//29
f 130//29 129//29 126//28
f 61//23 129//29 62//23
f 130//29 62//23 129//29
f 133//15 68//14 134//15
f 69//14 134//15 68//14
f 148//30 149//30 150//30
f 149//30 151//30 150//30
f 150//30 151//30 152//30
f 151//30 153//30 152//30
f 152//30 153//30 154//30
f 153//30 155//30 154//30
f 154//30 155//30 156//30
f 155//30 157//30 156//30
f 156//30 157//30 158//30
f 157//30 159//30 158//30
f 160//30 158//30 159//30
f 86//1 163//6 90//1
f 164//6 90//1 163//6
f 167//16 133//15 168//16
f 134//15 168//16 133//15
f 171//17 172//17 168//16
f 167//16 168//16 172//17
f 175//18 176//18 171//17
f 172//17 171//17 176//18
f 179//9 180//9 175//18
f 176//18 175//18 180//9
f 183//19 184//19 179//9
f 180//9 179//9 184//19
f 187//20 188//20 183//19
f 184//19 183//19 188//20
f 191//21 192//21 187//20
f 188//20 187//20 192//21
f 163//6 192//21 164//6
f 191//21 164//6 192//21
usemtl material_1_0
f 1//1 2//2 3//1
f 2//2 1//1 4//2
f 4//2 1//1 5//3
f 5//3 1//1 6//3
f 13//4 14//4 15//4
f 14//4 13//4 16//4
f 16//4 13//4 17//4
f 16//4 17//4 18//4
f 25//5 26//5 27//5
f 26//5 25//5 28//5
f 33//4 34//4 35//4
f 34//4 33//4 36//4
f 36//4 33//4 37//4
f 36//4 37//4 38//4
f 38//4 37//4 39//4
f 38//4 39//4 40//4
f 40//4 39//4 41//4
f 40//4 41//4 42//4
f 42//4 41//4 43//4
f 42//4 43//4 44//4
f 44//4 43//4 45//4
f 59//6 3//1 60//6
f 3//1 59//6 1//1
f 6//3 63//7 5//3
f 63//7 64//8 65//7
f 64//8 63//7 66//8
f 66//8 63//7 6//3
f 71//9 72//9 73//9
f 72//9 71//9 74//9
f 79//10 80//11 81//10
f 80//11 79//10 82//11
f 82//11 79//10 83//12
f 83//12 79//10 84//12
f 84//12 91//13 83//12
f 91//13 92//14 93//13
f 92//14 91//13 94//14
f 94//14 91//13 84//12
f 94//14 99//15 92//14
f 99//15 94//14 100//15
f 100//15 103//16 99//15
f 103//16 100//15 104//16
f 103//16 107//17 108//17
f 107//17 103//16 104//16
f 108//17 111//18 112//18
f 111//18 108//17 107//17
f 112//18 115//9 116//9
f 115//9 112//18 111//18
f 116//9 119//19 120//19
f 119//19 116//9 115//9
f 120//19 123//20 124//20
f 123//20 120//19 119//19
f 124//20 127//21 128//21
f 127//21 124//20 123//20
f 127//21 60//6 128//21
f 60//6 127//21 59//6
f 66//8 131//22 64//8
f 131//22 66//8 132//22
f 135//4 136//4 137//4
f 136//4 135//4 138//4
f 136//4 138//4 139//4
f 139//4 138//4 140//4
f 139//4 140//4 141//4
f 141//4 140//4 142//4
f 141//4 142//4 143//4
f 143//4 142//4 144//4
f 143//4 144//4 145//4
f 145//4 144//4 146//4
f 145//4 146//4 147//4
f 161//23 81//10 162//23
f 81//10 161//23 79//10
f 132//22 165//24 131//22
f 165//24 132//22 166//24
f 169//25 165//24 166//24
f 165//24 169//25 170//25
f 173//26 170//25 169//25
f 170//25 173//26 174//26
f 177//5 174//26 173//26
f 174//26 177//5 178//5
f 181//27 178//5 177//5
f 178//5 181//27 182//27
f 185//28 182//27 181//27
f 182//27 185//28 186//28
f 189//29 186//28 185//28
f 186//28 189//29 190//29
f 189//29 162//23 190//29
f 162//23 189//29 161//23
