# SSTK version 0.8.0
# 2
mtllib original-2.mtl
o #ID39
v 0.195974 0.156696 0.053090
v 0.197591 0.123578 0.039135
v 0.224006 0.138844 0.039135
v 0.210725 0.160648 0.053090
v 0.185175 0.145897 0.053090
v 0.224006 0.138844 0.039135
v 0.197591 0.123578 -0.044598
v 0.224006 0.138844 -0.044598
v 0.197591 0.123578 0.039135
v 0.225476 0.156696 0.053090
v 0.181223 0.131146 0.053090
v 0.247657 0.036475 0.039135
v 0.197591 0.123578 -0.044598
v 0.197591 0.123578 0.039135
v 0.247657 0.036475 -0.044598
v 0.224006 0.138844 -0.044598
v 0.247657 0.036475 -0.044598
v 0.274246 0.051827 -0.044598
v 0.197591 0.123578 -0.044598
v 0.274246 0.051827 -0.044598
v 0.224006 0.138844 0.039135
v 0.224006 0.138844 -0.044598
v 0.274246 0.051827 0.039135
v 0.236275 0.145897 0.053090
v 0.185175 0.116394 0.053090
v 0.235388 0.029423 0.053090
v 0.247657 0.036475 0.039135
v 0.247657 0.036475 0.039135
v 0.274246 0.051827 -0.044598
v 0.247657 0.036475 -0.044598
v 0.274246 0.051827 0.039135
v 0.274246 0.051827 0.039135
v 0.286488 0.058925 0.053090
v 0.246187 0.018624 0.053090
v 0.275690 0.018624 0.053090
v 0.290441 0.044174 0.053090
v 0.260938 0.014671 0.053090
v 0.286488 0.029423 0.053090
vn 0.23224188725569542 -0.40182247794993786 0.8857778513928221
vn 0.5298012001952768 0.005595592002062451 0.8481034003125981
vn -0.2729773109986355 -0.4583568184678337 0.8458087340788102
vn 0.03418289159957389 -0.5239069245160018 0.8510893398263641
vn 0.43566557241435394 -0.29035598161512444 0.8519911460532856
vn 0.5003914047350912 -0.865799308192864 0
vn -0.29524630975740357 -0.5732219189440388 0.7643600252608381
vn 0.6403493901555894 -0.030233739535201642 0.7674884882010168
vn 0.8669862884640149 0.4983319933692718 0
vn 0 0 1
vn -0.8660253595370575 -0.5000000766387045 0
vn -0.5623678785376072 -0.4251022837762565 0.7092463729320879
vn 0.644860296707079 0.2725756986081167 0.7140431963538026
vn 0.5624447980633002 0.4244251985385513 0.7095907975566235
vn 0.27347909887956295 0.45798749812363665 0.8458466965345872
vn -0.5000000766387045 0.8660253595370575 0
vn -0.5335083996466887 -0.007272586995183793 0.8457634994399006
vn -0.6493332205687049 -0.27447330869439646 0.709246622466561
vn 0.2952488063244583 0.573230512279042 0.7643526163730258
vn -0.23217970671761262 0.4021462116352222 0.8856472256242678
vn -0.6440464961880551 0.030920439816989904 0.7643611954759434
vn -0.03418431902241938 0.5239088850175991 0.8510880756611443
vn -0.4366239061934861 0.2915559041357044 0.8510903120726693
usemtl material_0_0
f 1//1 2//2 3//3
f 1//1 3//3 4//4
f 5//5 2//2 1//1
f 6//6 7//6 8//6
f 7//6 6//6 9//6
f 4//4 3//3 10//7
f 11//8 2//2 5//5
f 12//9 13//9 14//9
f 13//9 12//9 15//9
f 16//10 17//10 18//10
f 17//10 16//10 19//10
f 20//11 21//11 22//11
f 21//11 20//11 23//11
f 3//3 24//12 10//7
f 11//8 25//13 2//2
f 2//2 26//14 27//15
f 28//16 29//16 30//16
f 29//16 28//16 31//16
f 24//12 32//17 33//18
f 32//17 24//12 3//3
f 25//13 26//14 2//2
f 26//14 34//19 27//15
f 27//15 35//20 32//17
f 32//17 36//21 33//18
f 34//19 37//22 27//15
f 27//15 37//22 35//20
f 32//17 35//20 38//23
f 32//17 38//23 36//21
