# SSTK version 0.8.0
# 7
mtllib original-7.mtl
o #ID69
v -0.371802 0.347858 0.053090
v -0.346682 0.238657 0.033552
v -0.346682 0.334950 0.033552
v -0.371802 0.225749 0.053090
v -0.366567 0.206211 0.053090
v -0.346682 0.238657 0.033552
v -0.346682 0.334950 -0.050180
v -0.346682 0.334950 0.033552
v -0.346682 0.238657 -0.050180
v -0.366567 0.367396 0.053090
v -0.352264 0.191909 0.053090
v -0.346682 0.238657 0.033552
v -0.318771 0.238657 -0.050180
v -0.346682 0.238657 -0.050180
v -0.318771 0.238657 0.033552
v -0.346682 0.334950 -0.050180
v -0.318771 0.238657 -0.050180
v -0.318771 0.334950 -0.050180
v -0.346682 0.238657 -0.050180
v -0.318771 0.334950 0.033552
v -0.346682 0.334950 -0.050180
v -0.318771 0.334950 -0.050180
v -0.346682 0.334950 0.033552
v -0.352264 0.381698 0.053090
v -0.332727 0.186673 0.053090
v -0.318771 0.238657 0.033552
v -0.318771 0.238657 -0.050180
v -0.318771 0.334950 0.033552
v -0.318771 0.334950 -0.050180
v -0.318771 0.238657 0.033552
v -0.318771 0.334950 0.033552
v -0.332727 0.386934 0.053090
v -0.313189 0.191909 0.053090
v -0.293652 0.225749 0.053090
v -0.293652 0.347858 0.053090
v -0.313189 0.381698 0.053090
v -0.298887 0.206211 0.053090
v -0.298887 0.367396 0.053090
vn 0.5824794792982714 -0.08932760682523429 0.8079221712858802
vn 0.3836370040571052 0.18814830198973886 0.904114409561349
vn 0.3836370040571052 -0.18814830198973886 0.904114409561349
vn 0.5824794792982714 0.08932760682523429 0.8079221712858802
vn 0.411469180232912 0.2716944869477252 0.8699857582056547
vn 1 0 0
vn 0.411469180232912 -0.2716944869477252 0.8699857582056547
vn 0.18438830514150298 0.36016931004299907 0.9144829254995385
vn 0 1 0
vn 0 0 1
vn 0 -1 0
vn 0.18438830514150298 -0.36016931004299907 0.9144829254995385
vn 8.229073469263711e-9 0.37099052115577036 0.9286366529555949
vn -0.38363708933936613 0.18814829477167316 0.9041143748761717
vn -1 0 0
vn -0.38363708933936613 -0.18814829477167316 0.9041143748761717
vn 8.229073469263711e-9 -0.37099052115577036 0.9286366529555949
vn -0.18438829850040134 0.36016939707080353 0.9144828925626661
vn -0.5824797034801379 0.08932765053370535 0.8079220048270866
vn -0.5824797034801379 -0.08932765053370535 0.8079220048270866
vn -0.18438829850040134 -0.36016939707080353 0.9144828925626661
vn -0.4114692160301456 0.2716945105847592 0.8699857338931746
vn -0.4114692160301456 -0.2716945105847592 0.8699857338931746
usemtl material_0_0
f 1//1 2//2 3//3
f 2//2 1//1 4//4
f 4//4 5//5 2//2
f 6//6 7//6 8//6
f 7//6 6//6 9//6
f 1//1 3//3 10//7
f 5//5 11//8 2//2
f 12//9 13//9 14//9
f 13//9 12//9 15//9
f 16//10 17//10 18//10
f 17//10 16//10 19//10
f 20//11 21//11 22//11
f 21//11 20//11 23//11
f 10//7 3//3 24//12
f 11//8 25//13 2//2
f 2//2 25//13 26//14
f 27//15 28//15 29//15
f 28//15 27//15 30//15
f 3//3 31//16 32//17
f 24//12 3//3 32//17
f 25//13 33//18 26//14
f 31//16 34//19 35//20
f 34//19 31//16 26//14
f 32//17 31//16 36//21
f 26//14 33//18 37//22
f 31//16 35//20 38//23
f 26//14 37//22 34//19
f 31//16 38//23 36//21
