# SSTK version 0.8.0
# 12
mtllib original-12.mtl
o #ID99
v 0.126609 -0.258892 -0.030643
v 0.131340 -0.235108 0.053090
v 0.131340 -0.235108 -0.030643
v 0.126609 -0.258892 0.053090
v 0.131340 -0.095554 0.053090
v 0.131340 -0.095554 -0.030643
v 0.126609 -0.071770 -0.030643
v 0.131340 -0.235108 -0.030643
v 0.131340 -0.095554 -0.030643
v 0.126609 -0.258892 -0.030643
v 0.113136 -0.051607 -0.030643
v 0.113136 -0.279055 -0.030643
v 0.092973 -0.038134 -0.030643
v 0.092973 -0.292528 -0.030643
v 0.069189 -0.033403 -0.030643
v 0.069189 -0.297259 -0.030643
v -0.070365 -0.033403 -0.030643
v -0.070365 -0.297259 -0.030643
v -0.094149 -0.038134 -0.030643
v -0.094149 -0.292528 -0.030643
v -0.114312 -0.051607 -0.030643
v -0.114312 -0.279055 -0.030643
v -0.127785 -0.071770 -0.030643
v -0.127785 -0.258892 -0.030643
v -0.132516 -0.095554 -0.030643
v -0.132516 -0.235108 -0.030643
v 0.113136 -0.279055 -0.030643
v 0.113136 -0.279055 0.053090
v 0.126609 -0.071770 0.053090
v 0.126609 -0.071770 -0.030643
v -0.094149 -0.038134 0.053090
v -0.114312 -0.051607 -0.030643
v -0.094149 -0.038134 -0.030643
v -0.114312 -0.051607 0.053090
v -0.127785 -0.071770 0.053090
v -0.127785 -0.071770 -0.030643
v -0.132516 -0.095554 0.053090
v -0.132516 -0.095554 -0.030643
v -0.132516 -0.235108 0.053090
v -0.132516 -0.235108 -0.030643
v -0.127785 -0.258892 0.053090
v -0.127785 -0.258892 -0.030643
v -0.114312 -0.279055 0.053090
v -0.114312 -0.279055 -0.030643
v -0.094149 -0.292528 -0.030643
v -0.094149 -0.292528 0.053090
v -0.070365 -0.297259 -0.030643
v -0.070365 -0.297259 0.053090
v 0.069189 -0.297259 -0.030643
v 0.069189 -0.297259 0.053090
v 0.092973 -0.292528 -0.030643
v 0.092973 -0.292528 0.053090
v 0.113136 -0.051607 0.053090
v 0.113136 -0.051607 -0.030643
v 0.092973 -0.038134 -0.030643
v 0.092973 -0.038134 0.053090
v 0.069189 -0.033403 -0.030643
v 0.069189 -0.033403 0.053090
v -0.070365 -0.033403 -0.030643
v -0.070365 -0.033403 0.053090
vn -0.9238795391929066 0.38268341623423263 0
vn -0.9951847264480945 0.09801714260491001 0
vn -0.9951847264480945 -0.09801714260491001 0
vn 0 0 1
vn -0.7071067811865476 0.7071067811865476 0
vn -0.9238795391929066 -0.38268341623423263 0
vn 0.3826835869449008 -0.9238794684822172 0
vn 0.7071068811865378 -0.7071066811865431 0
vn 0.9238795538375647 -0.3826833808788962 0
vn 0.995184727423546 -0.0980171327009833 0
vn 0.995184727423546 0.0980171327009833 0
vn 0.9238795538375647 0.3826833808788962 0
vn 0.7071068811865378 0.7071066811865431 0
vn 0.3826835869449008 0.9238794684822172 0
vn 0.09801723174024876 0.9951847176690256 0
vn -0.09801714260491001 0.9951847264480945 0
vn -0.38268341623423263 0.9238795391929066 0
vn -0.7071067811865476 -0.7071067811865476 0
vn -0.38268341623423263 -0.9238795391929066 0
vn -0.09801714260491001 -0.9951847264480945 0
vn 0.09801723174024876 -0.9951847176690256 0
usemtl material_0_0
f 1//1 2//2 3//2
f 2//2 1//1 4//1
f 3//2 5//3 6//3
f 5//3 3//2 2//2
f 7//4 8//4 9//4
f 8//4 7//4 10//4
f 10//4 7//4 11//4
f 10//4 11//4 12//4
f 12//4 11//4 13//4
f 12//4 13//4 14//4
f 14//4 13//4 15//4
f 14//4 15//4 16//4
f 16//4 15//4 17//4
f 16//4 17//4 18//4
f 18//4 17//4 19//4
f 18//4 19//4 20//4
f 20//4 19//4 21//4
f 20//4 21//4 22//4
f 22//4 21//4 23//4
f 22//4 23//4 24//4
f 24//4 23//4 25//4
f 24//4 25//4 26//4
f 27//5 4//1 1//1
f 4//1 27//5 28//5
f 6//3 29//6 30//6
f 29//6 6//3 5//3
f 31//7 32//8 33//7
f 32//8 31//7 34//8
f 35//9 32//8 34//8
f 32//8 35//9 36//9
f 37//10 36//9 35//9
f 36//9 37//10 38//10
f 39//11 38//10 37//10
f 38//10 39//11 40//11
f 41//12 40//11 39//11
f 40//11 41//12 42//12
f 43//13 42//12 41//12
f 42//12 43//13 44//13
f 43//13 45//14 44//13
f 45//14 43//13 46//14
f 46//14 47//15 45//14
f 47//15 46//14 48//15
f 48//15 49//16 47//15
f 49//16 48//15 50//16
f 50//16 51//17 49//16
f 51//17 50//16 52//17
f 52//17 27//5 51//17
f 27//5 52//17 28//5
f 30//6 53//18 54//18
f 53//18 30//6 29//6
f 53//18 55//19 54//18
f 55//19 53//18 56//19
f 56//19 57//20 55//19
f 57//20 56//19 58//20
f 58//20 59//21 57//20
f 59//21 58//20 60//21
f 60//21 33//7 59//21
f 33//7 60//21 31//7
