# SSTK version 0.8.0
# 6
mtllib original-6.mtl
o #ID63
v -0.226653 0.156696 0.053090
v -0.225182 0.138844 0.039135
v -0.211901 0.160648 0.053090
v -0.237451 0.145897 0.053090
v -0.197150 0.156696 0.053090
v -0.275422 0.051827 0.039135
v -0.287664 0.058925 0.053090
v -0.198768 0.123578 0.039135
v -0.291617 0.044174 0.053090
v -0.275422 0.051827 0.039135
v -0.225182 0.138844 -0.044598
v -0.225182 0.138844 0.039135
v -0.275422 0.051827 -0.044598
v -0.198768 0.123578 0.039135
v -0.225182 0.138844 -0.044598
v -0.198768 0.123578 -0.044598
v -0.225182 0.138844 0.039135
v -0.186351 0.145897 0.053090
v -0.287664 0.029423 0.053090
v -0.275422 0.051827 0.039135
v -0.248833 0.036475 -0.044598
v -0.275422 0.051827 -0.044598
v -0.248833 0.036475 0.039135
v -0.225182 0.138844 -0.044598
v -0.248833 0.036475 -0.044598
v -0.198768 0.123578 -0.044598
v -0.275422 0.051827 -0.044598
v -0.248833 0.036475 -0.044598
v -0.198768 0.123578 0.039135
v -0.198768 0.123578 -0.044598
v -0.248833 0.036475 0.039135
v -0.182399 0.131146 0.053090
v -0.276866 0.018624 0.053090
v -0.248833 0.036475 0.039135
v -0.236564 0.029423 0.053090
v -0.186351 0.116394 0.053090
v -0.262114 0.014671 0.053090
v -0.247363 0.018624 0.053090
vn 0.29524630975740357 -0.5732219189440388 0.7643600252608381
vn 0.2729773109986355 -0.4583568184678337 0.8458087340788102
vn -0.03418289159957389 -0.5239069245160018 0.8510893398263641
vn 0.5623678785376072 -0.4251022837762565 0.7092463729320879
vn -0.23224188725569542 -0.40182247794993786 0.8857778513928221
vn 0.5335083996466887 -0.007272586995183793 0.8457634994399006
vn 0.6493332205687049 -0.27447330869439646 0.709246622466561
vn -0.5298012001952768 0.005595592002062451 0.8481034003125981
vn 0.6440464961880551 0.030920439816989904 0.7643611954759434
vn 0.8660253595370575 -0.5000000766387045 0
vn -0.5003914047350912 -0.865799308192864 0
vn -0.43566557241435394 -0.29035598161512444 0.8519911460532856
vn 0.4366239061934861 0.2915559041357044 0.8510903120726693
vn 0.5000000766387045 0.8660253595370575 0
vn 0 0 1
vn -0.8669862884640149 0.4983319933692718 0
vn -0.6403493901555894 -0.030233739535201642 0.7674884882010168
vn 0.23217970671761262 0.4021462116352222 0.8856472256242678
vn -0.27347909887956295 0.45798749812363665 0.8458466965345872
vn -0.5624447980633002 0.4244251985385513 0.7095907975566235
vn -0.644860296707079 0.2725756986081167 0.7140431963538026
vn 0.03418431902241938 0.5239088850175991 0.8510880756611443
vn -0.2952488063244583 0.573230512279042 0.7643526163730258
usemtl material_0_0
f 1//1 2//2 3//3
f 4//4 2//2 1//1
f 2//2 5//5 3//3
f 4//4 6//6 2//2
f 6//6 4//4 7//7
f 2//2 8//8 5//5
f 9//9 6//6 7//7
f 10//10 11//10 12//10
f 11//10 10//10 13//10
f 14//11 15//11 16//11
f 15//11 14//11 17//11
f 8//8 18//12 5//5
f 9//9 19//13 6//6
f 20//14 21//14 22//14
f 21//14 20//14 23//14
f 24//15 25//15 26//15
f 25//15 24//15 27//15
f 28//16 29//16 30//16
f 29//16 28//16 31//16
f 8//8 32//17 18//12
f 19//13 33//18 6//6
f 33//18 34//19 6//6
f 34//19 35//20 8//8
f 8//8 36//21 32//17
f 33//18 37//22 34//19
f 34//19 38//23 35//20
f 35//20 36//21 8//8
f 37//22 38//23 34//19
