# SSTK version 0.8.0
# 15
mtllib original-15.mtl
o #ID123
v -0.079354 -0.095690 0.097583
v -0.088502 -0.135989 0.116067
v -0.068502 -0.121166 0.120039
v -0.103849 -0.113845 0.092719
v -0.103849 -0.155308 0.110891
v -0.122644 -0.137505 0.086379
v 0.073059 -0.177805 0.104863
v 0.073059 -0.226089 0.091925
v 0.076350 -0.201947 0.098394
v 0.063412 -0.248585 0.085897
v 0.063412 -0.155308 0.110891
v 0.048066 -0.267904 0.080721
v 0.048066 -0.135989 0.116067
v 0.028066 -0.282727 0.076749
v 0.028066 -0.121166 0.120039
v 0.004775 -0.292046 0.074252
v 0.004775 -0.111847 0.122536
v -0.020218 -0.295224 0.073400
v -0.020218 -0.108669 0.123388
v -0.045212 -0.292046 0.074252
v -0.045212 -0.111847 0.122536
v -0.068502 -0.282727 0.076749
v -0.068502 -0.121166 0.120039
v -0.088502 -0.267904 0.080721
v -0.088502 -0.135989 0.116067
v -0.103849 -0.248585 0.085897
v -0.103849 -0.155308 0.110891
v -0.113496 -0.226089 0.091925
v -0.113496 -0.177805 0.104863
v -0.116786 -0.201947 0.098394
v -0.050829 -0.084277 0.100641
v -0.045212 -0.111847 0.122536
v -0.085090 -0.078924 0.073400
v -0.110205 -0.102088 0.073400
v -0.134460 -0.165058 0.078996
v -0.113496 -0.177805 0.104863
v -0.127747 -0.130978 0.073400
v -0.136641 -0.195250 0.073400
v -0.116786 -0.201947 0.098394
v -0.126992 -0.224869 0.073400
v -0.113496 -0.226089 0.091925
v -0.111645 -0.249897 0.073400
v -0.103849 -0.248585 0.085897
v -0.088502 -0.267904 0.080721
v -0.092092 -0.269659 0.073400
v -0.068502 -0.282727 0.076749
v -0.069631 -0.283855 0.073400
v -0.045212 -0.292046 0.074252
v -0.045358 -0.292382 0.073400
v -0.020218 -0.295224 0.073400
v 0.004775 -0.292046 0.074252
v -0.020218 -0.295224 0.073400
v 0.004922 -0.292382 0.073400
v 0.028066 -0.282727 0.076749
v 0.029195 -0.283855 0.073400
v 0.048066 -0.267904 0.080721
v 0.051656 -0.269659 0.073400
v 0.071208 -0.249897 0.073400
v 0.063412 -0.248585 0.085897
v 0.073059 -0.226089 0.091925
v 0.086556 -0.224869 0.073400
v 0.076350 -0.201947 0.098394
v 0.096205 -0.195250 0.073400
v 0.073059 -0.177805 0.104863
v 0.094023 -0.165058 0.078996
v 0.063412 -0.155308 0.110891
v 0.082208 -0.137505 0.086379
v 0.063412 -0.113845 0.092719
v 0.048066 -0.135989 0.116067
v 0.038917 -0.095690 0.097583
v 0.028066 -0.121166 0.120039
v 0.010393 -0.084277 0.100641
v 0.004775 -0.111847 0.122536
v -0.020218 -0.080385 0.101684
v -0.020218 -0.108669 0.123388
v -0.054216 -0.063894 0.073400
v -0.136846 -0.162897 0.073400
v 0.096410 -0.162897 0.073400
v 0.087311 -0.130978 0.073400
v 0.069769 -0.102088 0.073400
v 0.044654 -0.078924 0.073400
v 0.013779 -0.063894 0.073400
v -0.020218 -0.058682 0.073400
vt 0.6653406 -0.7072067
vt 0.6909188 -0.5945323
vt 0.635 -0.6359783
vt 0.7338269 -0.656446
vt 0.7338269 -0.5405188
vt 0.7863782 -0.5902933
vt 0.2392 -0.4776189
vt 0.2392 -0.3426189
vt 0.23 -0.4101189
vt 0.2661731 -0.2797189
vt 0.2661731 -0.5405188
vt 0.3090812 -0.2257054
vt 0.3090812 -0.5945323
vt 0.365 -0.1842595
vt 0.365 -0.6359783
vt 0.4301189 -0.1582054
vt 0.4301189 -0.6620323
vt 0.5 -0.1493189
vt 0.5 -0.6709188
vt 0.5698811 -0.1582054
vt 0.5698811 -0.6620323
vt 0.635 -0.1842595
vt 0.6909188 -0.2257054
vt 0.7338269 -0.2797189
vt 0.7608 -0.3426189
vt 0.7608 -0.4776189
vt 0.77 -0.4101189
vt 0.5855866 -0.7391163
vt 0.6813797 -0.7540846
vt 0.7515999 -0.6893189
vt 0.8194134 -0.5132568
vt 0.8006464 -0.6085449
vt 0.8255133 -0.4288435
vt 0.7985353 -0.3460293
vt 0.755624 -0.2760526
vt 0.7009567 -0.2207978
vt 0.6381566 -0.1811078
vt 0.5702896 -0.1572653
vt 0.4297104 -0.1572653
vt 0.3618434 -0.1811078
vt 0.2990433 -0.2207978
vt 0.244376 -0.2760526
vt 0.2014647 -0.3460293
vt 0.1744867 -0.4288435
vt 0.1805866 -0.5132568
vt 0.2136218 -0.5902933
vt 0.2661731 -0.656446
vt 0.3346594 -0.7072067
vt 0.4144134 -0.7391163
vt 0.5 -0.75
vt 0.5950551 -0.796108
vt 0.8260859 -0.5193001
vt 0.1739141 -0.5193001
vt 0.1993536 -0.6085449
vt 0.2484001 -0.6893189
vt 0.3186203 -0.7540846
vt 0.4049449 -0.796108
vt 0.5 -0.8106811
vn -0.43434469307562046 0.5984650904591918 0.6731895892679242
vn -0.5609855092656238 0.38431140634755245 0.7332121121102373
vn -0.39667667739169504 0.5060939711555342 0.7658436563512858
vn -0.614256196058192 0.46511809701524176 0.6374593959092923
vn -0.6870641029512633 0.22560120096906322 0.6906859029668206
vn -0.7523071207418485 0.2913369080324456 0.590894916291555
vn 0 -0.25881900959356163 0.9659258358036645
vn -0.22483339974188452 0.6822904992167101 0.6956504992013723
vn -0.20533500053695306 0.5826497015236348 0.7863567020563307
vn -0.45079288191108174 0.6799342727163493 0.5783382767930811
vn -0.6407503051649313 0.5439002043842462 0.541859404367796
vn -0.8428612803696436 0.083521828054765 0.5316097876187341
vn -0.7663204804716376 0.04077927896081006 0.6411629836610617
vn -0.7895517231826404 0.3644434107007056 0.4937500144973771
vn -0.8037470258180066 -0.13359920429148106 0.5797775186236456
vn -0.7933533129505964 -0.1575591025719743 0.5880184095987361
vn -0.7714921263103931 -0.33659181147887657 0.5399128184127847
vn -0.7663204808521611 -0.35589739110728985 0.534873786635256
vn -0.6958169152871361 -0.5258102115520794 0.48924681074877946
vn -0.6870641223185535 -0.5407193175646969 0.4853509157661127
vn -0.5609855047555695 -0.6994295059291828 0.4428246037538995
vn -0.5708357682257807 -0.6897930616043051 0.44534487521093363
vn -0.39667668080146196 -0.8212120602546059 0.4101930801472891
vn -0.4050418964493805 -0.8164980928425328 0.41142669639341095
vn -0.20533499329808666 -0.8977677706978257 0.3896800872812611
vn -0.2101073028369476 -0.896521012105163 0.3900064052660127
vn -0.10388190015179173 -0.9188810013426644 0.3806130005561498
vn 0.20533499329808666 -0.8977677706978257 0.3896800872812611
vn 0.10388190015179173 -0.9188810013426644 0.3806130005561498
vn 0.2101073028369476 -0.896521012105163 0.3900064052660127
vn 0.39667668080146196 -0.8212120602546059 0.4101930801472891
vn 0.4050418964493805 -0.8164980928425328 0.41142669639341095
vn 0.5609855047555695 -0.6994295059291828 0.4428246037538995
vn 0.5708357682257807 -0.6897930616043051 0.44534487521093363
vn 0.6958169152871361 -0.5258102115520794 0.48924681074877946
vn 0.6870641223185535 -0.5407193175646969 0.4853509157661127
vn 0.7663204808521611 -0.35589739110728985 0.534873786635256
vn 0.7714921263103931 -0.33659181147887657 0.5399128184127847
vn 0.7933533129505964 -0.1575591025719743 0.5880184095987361
vn 0.8037470258180066 -0.13359920429148106 0.5797775186236456
vn 0.7663204804716376 0.04077927896081006 0.6411629836610617
vn 0.8428612803696436 0.083521828054765 0.5316097876187341
vn 0.6870641029512633 0.22560120096906322 0.6906859029668206
vn 0.7523071207418485 0.2913369080324456 0.590894916291555
vn 0.614256196058192 0.46511809701524176 0.6374593959092923
vn 0.5609855092656238 0.38431140634755245 0.7332121121102373
vn 0.43434469307562046 0.5984650904591918 0.6731895892679242
vn 0.39667667739169504 0.5060939711555342 0.7658436563512858
vn 0.22483339974188452 0.6822904992167101 0.6956504992013723
vn 0.20533500053695306 0.5826497015236348 0.7863567020563307
vn 0 0.7108817006790874 0.703311600671856
vn 0 0.608761430209528 0.7933533393698233
vn -0.23255859285824668 0.7646241765187896 0.6010543815419328
vn -0.8891115336703209 0.1435165054349163 0.4346075164584239
vn 0.8891115336703209 0.1435165054349163 0.4346075164584239
vn 0.7895517231826404 0.3644434107007056 0.4937500144973771
vn 0.6407503051649313 0.5439002043842462 0.541859404367796
vn 0.45079288191108174 0.6799342727163493 0.5783382767930811
vn 0.23255859285824668 0.7646241765187896 0.6010543815419328
vn 0 0.7933533393698233 0.608761430209528
usemtl material_0_0
f 1/1/1 2/2/2 3/3/3
f 2/2/2 1/1/1 4/4/4
f 4/4/4 5/5/5 2/2/2
f 5/5/5 4/4/4 6/6/6
f 7/7/7 8/8/7 9/9/7
f 8/8/7 7/7/7 10/10/7
f 10/10/7 7/7/7 11/11/7
f 10/10/7 11/11/7 12/12/7
f 12/12/7 11/11/7 13/13/7
f 12/12/7 13/13/7 14/14/7
f 14/14/7 13/13/7 15/15/7
f 14/14/7 15/15/7 16/16/7
f 16/16/7 15/15/7 17/17/7
f 16/16/7 17/17/7 18/18/7
f 18/18/7 17/17/7 19/19/7
f 18/18/7 19/19/7 20/20/7
f 20/20/7 19/19/7 21/21/7
f 20/20/7 21/21/7 22/22/7
f 22/22/7 21/21/7 23/3/7
f 22/22/7 23/3/7 24/23/7
f 24/23/7 23/3/7 25/2/7
f 24/23/7 25/2/7 26/24/7
f 26/24/7 25/2/7 27/5/7
f 26/24/7 27/5/7 28/25/7
f 28/25/7 27/5/7 29/26/7
f 28/25/7 29/26/7 30/27/7
f 31/28/8 3/3/3 32/21/9
f 3/3/3 31/28/8 1/1/1
f 4/4/4 33/29/10 34/30/11
f 33/29/10 4/4/4 1/1/1
f 35/31/12 5/5/5 6/6/6
f 5/5/5 35/31/12 36/26/13
f 37/32/14 4/4/4 34/30/11
f 4/4/4 37/32/14 6/6/6
f 38/33/15 36/26/13 35/31/12
f 36/26/13 38/33/15 39/27/16
f 40/34/17 39/27/16 38/33/15
f 39/27/16 40/34/17 41/25/18
f 42/35/19 41/25/18 40/34/17
f 41/25/18 42/35/19 43/24/20
f 42/35/19 44/23/21 43/24/20
f 44/23/21 42/35/19 45/36/22
f 46/22/23 45/36/22 47/37/24
f 45/36/22 46/22/23 44/23/21
f 48/20/25 47/37/24 49/38/26
f 47/37/24 48/20/25 46/22/23
f 48/20/25 49/38/26 50/18/27
f 51/16/28 52/18/29 53/39/30
f 54/14/31 53/39/30 55/40/32
f 53/39/30 54/14/31 51/16/28
f 56/12/33 55/40/32 57/41/34
f 55/40/32 56/12/33 54/14/31
f 56/12/33 58/42/35 59/10/36
f 58/42/35 56/12/33 57/41/34
f 60/8/37 58/42/35 61/43/38
f 58/42/35 60/8/37 59/10/36
f 62/9/39 61/43/38 63/44/40
f 61/43/38 62/9/39 60/8/37
f 64/7/41 63/44/40 65/45/42
f 63/44/40 64/7/41 62/9/39
f 66/11/43 65/45/42 67/46/44
f 65/45/42 66/11/43 64/7/41
f 68/47/45 66/11/43 67/46/44
f 66/11/43 68/47/45 69/13/46
f 70/48/47 69/13/46 68/47/45
f 69/13/46 70/48/47 71/15/48
f 72/49/49 71/15/48 70/48/47
f 71/15/48 72/49/49 73/17/50
f 74/50/51 73/17/50 72/49/49
f 73/17/50 74/50/51 75/19/52
f 74/50/51 32/21/9 75/19/52
f 32/21/9 74/50/51 31/28/8
f 1/1/1 76/51/53 33/29/10
f 76/51/53 1/1/1 31/28/8
f 77/52/54 6/6/6 37/32/14
f 6/6/6 77/52/54 35/31/12
f 38/33/15 35/31/12 77/52/54
f 63/44/40 78/53/55 65/45/42
f 67/46/44 78/53/55 79/54/56
f 78/53/55 67/46/44 65/45/42
f 68/47/45 79/54/56 80/55/57
f 79/54/56 68/47/45 67/46/44
f 70/48/47 80/55/57 81/56/58
f 80/55/57 70/48/47 68/47/45
f 72/49/49 81/56/58 82/57/59
f 81/56/58 72/49/49 70/48/47
f 74/50/51 82/57/59 83/58/60
f 82/57/59 74/50/51 72/49/49
f 31/28/8 83/58/60 76/51/53
f 83/58/60 31/28/8 74/50/51
