# SSTK version 0.8.0
# 16
mtllib original-16.mtl
o #ID131
v 0.091059 -0.058522 0.073400
v 0.096410 -0.162897 0.073400
v 0.116068 -0.091115 0.073400
v 0.087311 -0.130978 0.073400
v 0.058467 -0.033513 0.073400
v 0.069769 -0.102088 0.073400
v 0.044654 -0.078924 0.073400
v 0.020512 -0.017792 0.073400
v 0.013779 -0.063894 0.073400
v -0.020218 -0.012429 0.073400
v -0.020218 -0.058682 0.073400
v -0.054216 -0.063894 0.073400
v -0.060949 -0.017792 0.073400
v -0.085090 -0.078924 0.073400
v -0.098903 -0.033513 0.073400
v -0.110205 -0.102088 0.073400
v -0.131496 -0.058522 0.073400
v -0.127747 -0.130978 0.073400
v -0.136846 -0.162897 0.073400
v -0.156505 -0.091115 0.073400
v -0.156505 -0.248485 0.073400
v -0.172226 -0.210530 0.073400
v -0.172226 -0.129069 0.073400
v -0.177589 -0.169800 0.073400
v 0.131790 -0.129069 0.073400
v 0.131790 -0.210530 0.073400
v 0.137152 -0.169800 0.073400
v 0.116068 -0.248485 0.073400
v 0.091059 -0.281077 0.073400
v 0.096205 -0.195250 0.073400
v 0.086556 -0.224869 0.073400
v 0.058467 -0.306086 0.073400
v 0.071208 -0.249897 0.073400
v 0.051656 -0.269659 0.073400
v 0.020512 -0.321808 0.073400
v 0.029195 -0.283855 0.073400
v 0.004922 -0.292382 0.073400
v -0.020218 -0.327170 0.073400
v -0.020218 -0.295224 0.073400
v -0.060949 -0.321808 0.073400
v -0.045358 -0.292382 0.073400
v -0.069631 -0.283855 0.073400
v -0.098903 -0.306086 0.073400
v -0.092092 -0.269659 0.073400
v -0.111645 -0.249897 0.073400
v -0.131496 -0.281077 0.073400
v -0.126992 -0.224869 0.073400
v -0.136641 -0.195250 0.073400
v 0.020512 -0.321808 0.073400
v -0.020218 -0.348630 0.066247
v 0.026066 -0.342536 0.066247
v -0.020218 -0.327170 0.073400
v 0.058467 -0.306086 0.073400
v 0.069197 -0.324671 0.066247
v 0.091059 -0.281077 0.073400
v 0.106234 -0.296252 0.066247
v 0.116068 -0.248485 0.073400
v 0.134653 -0.259215 0.066247
v 0.131790 -0.210530 0.073400
v 0.152518 -0.216084 0.066247
v 0.137152 -0.169800 0.073400
v 0.158612 -0.169800 0.066247
v 0.152518 -0.123515 0.066247
v 0.131790 -0.129069 0.073400
v 0.134653 -0.080385 0.066247
v 0.116068 -0.091115 0.073400
v 0.106234 -0.043348 0.066247
v 0.091059 -0.058522 0.073400
v 0.069197 -0.014929 0.066247
v 0.058467 -0.033513 0.073400
v 0.026066 0.002937 0.066247
v 0.020512 -0.017792 0.073400
v -0.020218 0.009030 0.066247
v -0.020218 -0.012429 0.073400
v -0.066503 0.002937 0.066247
v -0.060949 -0.017792 0.073400
v -0.098903 -0.033513 0.073400
v -0.109633 -0.014929 0.066247
v -0.131496 -0.058522 0.073400
v -0.146670 -0.043348 0.066247
v -0.156505 -0.091115 0.073400
v -0.175090 -0.080385 0.066247
v -0.172226 -0.129069 0.073400
v -0.192955 -0.123515 0.066247
v -0.177589 -0.169800 0.073400
v -0.199048 -0.169800 0.066247
v -0.192955 -0.216084 0.066247
v -0.172226 -0.210530 0.073400
v -0.175090 -0.259215 0.066247
v -0.156505 -0.248485 0.073400
v -0.146670 -0.296252 0.066247
v -0.131496 -0.281077 0.073400
v -0.109633 -0.324671 0.066247
v -0.098903 -0.306086 0.073400
v -0.066503 -0.342536 0.066247
v -0.060949 -0.321808 0.073400
vt 0.188873 -0.811127
vt 0.1739141 -0.5193001
vt 0.1189488 -0.72
vt 0.1993536 -0.6085449
vt 0.28 -0.8810512
vt 0.2484001 -0.6893189
vt 0.3186203 -0.7540846
vt 0.3861196 -0.9250074
vt 0.4049449 -0.796108
vt 0.5 -0.94
vt 0.5 -0.8106811
vt 0.5950551 -0.796108
vt 0.6138804 -0.9250074
vt 0.6813797 -0.7540846
vt 0.72 -0.8810512
vt 0.7515999 -0.6893189
vt 0.811127 -0.811127
vt 0.8006464 -0.6085449
vt 0.8260859 -0.5193001
vt 0.8810512 -0.72
vt 0.8810512 -0.28
vt 0.9250074 -0.3861196
vt 0.9250074 -0.6138804
vt 0.94 -0.5
vt 0.07499264 -0.6138804
vt 0.07499264 -0.3861196
vt 0.06 -0.5
vt 0.1189488 -0.28
vt 0.188873 -0.188873
vt 0.1744867 -0.4288435
vt 0.2014647 -0.3460293
vt 0.28 -0.1189488
vt 0.244376 -0.2760526
vt 0.2990433 -0.2207978
vt 0.3861196 -0.07499264
vt 0.3618434 -0.1811078
vt 0.4297104 -0.1572653
vt 0.5 -0.06
vt 0.5 -0.1493189
vt 0.6138804 -0.07499264
vt 0.5702896 -0.1572653
vt 0.6381566 -0.1811078
vt 0.72 -0.1189488
vt 0.7009567 -0.2207978
vt 0.755624 -0.2760526
vt 0.811127 -0.188873
vt 0.7985353 -0.3460293
vt 0.8255133 -0.4288435
vt 0.5 1.297851e-13
vt 0.3705905 -0.01703709
vt 0.25 -0.0669873
vt 0.1464466 -0.1464466
vt 0.0669873 -0.25
vt 0.01703709 -0.3705905
vt 2.220446e-16 -0.5
vt 0.01703709 -0.6294095
vt 0.0669873 -0.75
vt 0.1464466 -0.8535534
vt 0.25 -0.9330127
vt 0.3705905 -0.9829629
vt 0.5 -1
vt 0.6294095 -0.9829629
vt 0.75 -0.9330127
vt 0.8535534 -0.8535534
vt 0.9330127 -0.75
vt 0.9829629 -0.6294095
vt 1 -0.5
vt 0.9829629 -0.3705905
vt 0.9330127 -0.25
vt 0.8535534 -0.1464466
vt 0.75 -0.0669873
vt 0.6294095 -0.01703709
vn 0 0 1
vn 0.08184576899278376 -0.3054525962410175 0.9486832883252461
vn 0 -0.31622779601683737 0.9486832880505133
vn 0.1581138983627472 -0.273861297164195 0.9486832901764842
vn 0.2236067993614494 -0.2236067993614494 0.9486832972908593
vn 0.273861297164195 -0.1581138983627472 0.9486832901764842
vn 0.3054525962410175 -0.08184576899278376 0.9486832883252461
vn 0.31622779601683737 0 0.9486832880505133
vn 0.3054525962410175 0.08184576899278376 0.9486832883252461
vn 0.273861297164195 0.1581138983627472 0.9486832901764842
vn 0.2236067993614494 0.2236067993614494 0.9486832972908593
vn 0.1581138983627472 0.273861297164195 0.9486832901764842
vn 0.08184576899278376 0.3054525962410175 0.9486832883252461
vn 0 0.31622779601683737 0.9486832880505133
vn -0.08184576899278376 0.3054525962410175 0.9486832883252461
vn -0.1581138983627472 0.273861297164195 0.9486832901764842
vn -0.2236067993614494 0.2236067993614494 0.9486832972908593
vn -0.273861297164195 0.1581138983627472 0.9486832901764842
vn -0.3054525962410175 0.08184576899278376 0.9486832883252461
vn -0.31622779601683737 0 0.9486832880505133
vn -0.3054525962410175 -0.08184576899278376 0.9486832883252461
vn -0.273861297164195 -0.1581138983627472 0.9486832901764842
vn -0.2236067993614494 -0.2236067993614494 0.9486832972908593
vn -0.1581138983627472 -0.273861297164195 0.9486832901764842
vn -0.08184576899278376 -0.3054525962410175 0.9486832883252461
usemtl material_0_0
f 1/1/1 2/2/1 3/3/1
f 2/2/1 1/1/1 4/4/1
f 4/4/1 1/1/1 5/5/1
f 4/4/1 5/5/1 6/6/1
f 6/6/1 5/5/1 7/7/1
f 7/7/1 5/5/1 8/8/1
f 7/7/1 8/8/1 9/9/1
f 9/9/1 8/8/1 10/10/1
f 9/9/1 10/10/1 11/11/1
f 11/11/1 10/10/1 12/12/1
f 12/12/1 10/10/1 13/13/1
f 12/12/1 13/13/1 14/14/1
f 14/14/1 13/13/1 15/15/1
f 14/14/1 15/15/1 16/16/1
f 16/16/1 15/15/1 17/17/1
f 16/16/1 17/17/1 18/18/1
f 18/18/1 17/17/1 19/19/1
f 19/19/1 17/17/1 20/20/1
f 19/19/1 20/20/1 21/21/1
f 21/21/1 20/20/1 22/22/1
f 22/22/1 20/20/1 23/23/1
f 22/22/1 23/23/1 24/24/1
f 25/25/1 26/26/1 27/27/1
f 26/26/1 25/25/1 28/28/1
f 28/28/1 25/25/1 3/3/1
f 28/28/1 3/3/1 29/29/1
f 29/29/1 3/3/1 30/30/1
f 30/30/1 3/3/1 2/2/1
f 29/29/1 30/30/1 31/31/1
f 29/29/1 31/31/1 32/32/1
f 32/32/1 31/31/1 33/33/1
f 32/32/1 33/33/1 34/34/1
f 32/32/1 34/34/1 35/35/1
f 35/35/1 34/34/1 36/36/1
f 35/35/1 36/36/1 37/37/1
f 35/35/1 37/37/1 38/38/1
f 38/38/1 37/37/1 39/39/1
f 38/38/1 39/39/1 40/40/1
f 40/40/1 39/39/1 41/41/1
f 40/40/1 41/41/1 42/42/1
f 40/40/1 42/42/1 43/43/1
f 43/43/1 42/42/1 44/44/1
f 43/43/1 44/44/1 45/45/1
f 43/43/1 45/45/1 46/46/1
f 46/46/1 45/45/1 47/47/1
f 46/46/1 47/47/1 48/48/1
f 46/46/1 48/48/1 21/21/1
f 21/21/1 48/48/1 19/19/1
f 49/35/2 50/49/3 51/50/2
f 50/49/3 49/35/2 52/38/3
f 53/32/4 51/50/2 54/51/4
f 51/50/2 53/32/4 49/35/2
f 55/29/5 54/51/4 56/52/5
f 54/51/4 55/29/5 53/32/4
f 57/28/6 56/52/5 58/53/6
f 56/52/5 57/28/6 55/29/5
f 59/26/7 58/53/6 60/54/7
f 58/53/6 59/26/7 57/28/6
f 61/27/8 60/54/7 62/55/8
f 60/54/7 61/27/8 59/26/7
f 63/56/9 61/27/8 62/55/8
f 61/27/8 63/56/9 64/25/9
f 65/57/10 64/25/9 63/56/9
f 64/25/9 65/57/10 66/3/10
f 67/58/11 66/3/10 65/57/10
f 66/3/10 67/58/11 68/1/11
f 69/59/12 68/1/11 67/58/11
f 68/1/11 69/59/12 70/5/12
f 71/60/13 70/5/12 69/59/12
f 70/5/12 71/60/13 72/8/13
f 73/61/14 72/8/13 71/60/13
f 72/8/13 73/61/14 74/10/14
f 75/62/15 74/10/14 73/61/14
f 74/10/14 75/62/15 76/13/15
f 75/62/15 77/15/16 76/13/15
f 77/15/16 75/62/15 78/63/16
f 78/63/16 79/17/17 77/15/16
f 79/17/17 78/63/16 80/64/17
f 80/64/17 81/20/18 79/17/17
f 81/20/18 80/64/17 82/65/18
f 82/65/18 83/23/19 81/20/18
f 83/23/19 82/65/18 84/66/19
f 84/66/19 85/24/20 83/23/19
f 85/24/20 84/66/19 86/67/20
f 85/24/20 87/68/21 88/22/21
f 87/68/21 85/24/20 86/67/20
f 88/22/21 89/69/22 90/21/22
f 89/69/22 88/22/21 87/68/21
f 90/21/22 91/70/23 92/46/23
f 91/70/23 90/21/22 89/69/22
f 92/46/23 93/71/24 94/43/24
f 93/71/24 92/46/23 91/70/23
f 94/43/24 95/72/25 96/40/25
f 95/72/25 94/43/24 93/71/24
f 96/40/25 50/49/3 52/38/3
f 50/49/3 96/40/25 95/72/25
