# SSTK version 0.8.0
# 9
mtllib original-9.mtl
o #ID75
v 0.261991 0.143390 -0.048204
v 0.287576 0.052436 -0.048204
v 0.307771 0.064096 -0.048204
v 0.241796 0.131731 -0.048204
v 0.287576 0.052436 0.073400
v 0.307771 0.064096 -0.048204
v 0.287576 0.052436 -0.048204
v 0.307771 0.064096 0.073400
v 0.307771 0.064096 -0.048204
v 0.261991 0.143390 0.073400
v 0.261991 0.143390 -0.048204
v 0.307771 0.064096 0.073400
v 0.261991 0.143390 0.073400
v 0.241796 0.131731 -0.048204
v 0.261991 0.143390 -0.048204
v 0.241796 0.131731 0.073400
v 0.287576 0.052436 0.073400
v 0.241796 0.131731 -0.048204
v 0.241796 0.131731 0.073400
v 0.287576 0.052436 -0.048204
vt 0.7037 0.5587063
vt 0.6607102 0.7115323
vt 0.626777 0.691941
vt 0.7376332 0.5782976
vn 0 0 1
vn -0.5000000016387101 0.866025402838329 0
vn -0.866025402838329 -0.5000000016387101 0
vn 0.5000000016387101 -0.866025402838329 0
vn 0.866025402838329 0.5000000016387101 0
usemtl material_0_0
f 1/1/1 2/2/1 3/3/1
f 2/2/1 1/1/1 4/4/1
f 5/2/2 6/3/2 7/2/2
f 6/3/2 5/2/2 8/3/2
f 9/3/3 10/1/3 11/1/3
f 10/1/3 9/3/3 12/3/3
f 13/1/4 14/4/4 15/1/4
f 14/4/4 13/1/4 16/4/4
f 17/2/5 18/4/5 19/4/5
f 18/4/5 17/2/5 20/2/5
