# SSTK version 0.8.0
# 13
mtllib original-13.mtl
o #ID107
v -0.519305 0.052436 0.073400
v -0.565085 0.131731 -0.048204
v -0.565085 0.131731 0.073400
v -0.519305 0.052436 -0.048204
v -0.519305 0.052436 0.073400
v -0.499109 0.064096 -0.048204
v -0.519305 0.052436 -0.048204
v -0.499109 0.064096 0.073400
v -0.544890 0.143390 -0.048204
v -0.519305 0.052436 -0.048204
v -0.499109 0.064096 -0.048204
v -0.565085 0.131731 -0.048204
v -0.544890 0.143390 0.073400
v -0.565085 0.131731 -0.048204
v -0.544890 0.143390 -0.048204
v -0.565085 0.131731 0.073400
v -0.499109 0.064096 -0.048204
v -0.544890 0.143390 0.073400
v -0.544890 0.143390 -0.048204
v -0.499109 0.064096 0.073400
vt 0.6607102 0.7115323
vt 0.7376332 0.5782976
vt 0.626777 0.691941
vt 0.7037 0.5587063
vn 0.866025402838329 0.5000000016387101 0
vn -0.5000000016387101 0.866025402838329 0
vn 0 0 1
vn 0.5000000016387101 -0.866025402838329 0
vn -0.866025402838329 -0.5000000016387101 0
usemtl material_0_0
f 1/1/1 2/2/1 3/2/1
f 2/2/1 1/1/1 4/1/1
f 5/1/2 6/3/2 7/1/2
f 6/3/2 5/1/2 8/3/2
f 9/4/3 10/1/3 11/3/3
f 10/1/3 9/4/3 12/2/3
f 13/4/4 14/2/4 15/4/4
f 14/2/4 13/4/4 16/2/4
f 17/3/5 18/4/5 19/4/5
f 18/4/5 17/3/5 20/3/5
