# SSTK version 0.8.0
# 8
mtllib original-8.mtl
o #ID67
v 0.371562 0.367982 -0.048204
v 0.394882 0.276421 -0.048204
v 0.394882 0.367982 -0.048204
v 0.371562 0.276421 -0.048204
v 0.371562 0.276421 0.073400
v 0.394882 0.276421 -0.048204
v 0.371562 0.276421 -0.048204
v 0.394882 0.276421 0.073400
v 0.394882 0.276421 -0.048204
v 0.394882 0.367982 0.073400
v 0.394882 0.367982 -0.048204
v 0.394882 0.276421 0.073400
v 0.394882 0.367982 0.073400
v 0.371562 0.367982 -0.048204
v 0.394882 0.367982 -0.048204
v 0.371562 0.367982 0.073400
v 0.371562 0.276421 0.073400
v 0.371562 0.367982 -0.048204
v 0.371562 0.367982 0.073400
v 0.371562 0.276421 -0.048204
vt 0.5195913 0.1813333
vt 0.4804087 0.3351794
vt 0.4804087 0.1813333
vt 0.5195913 0.3351794
vn 0 0 1
vn 0 1 0
vn -1 0 0
vn 0 -1 0
vn 1 0 0
usemtl material_0_0
f 1/1/1 2/2/1 3/3/1
f 2/2/1 1/1/1 4/4/1
f 5/4/2 6/2/2 7/4/2
f 6/2/2 5/4/2 8/2/2
f 9/2/3 10/3/3 11/3/3
f 10/3/3 9/2/3 12/2/3
f 13/3/4 14/1/4 15/3/4
f 14/1/4 13/3/4 16/1/4
f 17/4/5 18/1/5 19/1/5
f 18/1/5 17/4/5 20/4/5
