# SSTK version 0.8.0
# 12
mtllib original-12.mtl
o #ID99
v -0.411999 0.367982 0.073400
v -0.435318 0.367982 -0.048204
v -0.411999 0.367982 -0.048204
v -0.435318 0.367982 0.073400
v -0.411999 0.276421 -0.048204
v -0.411999 0.367982 0.073400
v -0.411999 0.367982 -0.048204
v -0.411999 0.276421 0.073400
v -0.435318 0.276421 0.073400
v -0.435318 0.367982 -0.048204
v -0.435318 0.367982 0.073400
v -0.435318 0.276421 -0.048204
v -0.435318 0.367982 -0.048204
v -0.411999 0.276421 -0.048204
v -0.411999 0.367982 -0.048204
v -0.435318 0.276421 -0.048204
v -0.435318 0.276421 0.073400
v -0.411999 0.276421 -0.048204
v -0.435318 0.276421 -0.048204
v -0.411999 0.276421 0.073400
vt 0.4804087 0.1813333
vt 0.5195913 0.1813333
vt 0.4804087 0.3351794
vt 0.5195913 0.3351794
vn 0 -1 0
vn -1 0 0
vn 1 0 0
vn 0 0 1
vn 0 1 0
usemtl material_0_0
f 1/1/1 2/2/1 3/1/1
f 2/2/1 1/1/1 4/2/1
f 5/3/2 6/1/2 7/1/2
f 6/1/2 5/3/2 8/3/2
f 9/4/3 10/2/3 11/2/3
f 10/2/3 9/4/3 12/4/3
f 13/2/4 14/3/4 15/1/4
f 14/3/4 13/2/4 16/4/4
f 17/4/5 18/3/5 19/4/5
f 18/3/5 17/4/5 20/3/5
