# SSTK version 0.8.0
# 3
mtllib original-3.mtl
o #ID24
v 0.577242 -0.017667 -0.012704
v 0.580269 -0.004680 0.023752
v 0.580269 -0.004680 -0.012704
v 0.577242 -0.017667 0.023752
v 0.590002 0.004434 -0.012704
v 0.590002 0.004434 0.023752
v 0.580269 0.013548 -0.012704
v 0.580269 -0.004680 -0.012704
v 0.590002 0.004434 -0.012704
v 0.577242 0.026534 -0.012704
v 0.577242 -0.017667 -0.012704
v 0.564482 0.022662 -0.012704
v 0.564482 -0.013795 -0.012704
v 0.551723 0.026534 -0.012704
v 0.551723 -0.017667 -0.012704
v 0.548697 0.013548 -0.012704
v 0.548697 -0.004680 -0.012704
v 0.538963 0.004434 -0.012704
v 0.564482 -0.013795 0.023752
v 0.577242 -0.017667 -0.012704
v 0.564482 -0.013795 -0.012704
v 0.577242 -0.017667 0.023752
v 0.590002 0.004434 0.023752
v 0.580269 0.013548 -0.012704
v 0.590002 0.004434 -0.012704
v 0.580269 0.013548 0.023752
v 0.577242 0.026534 0.023752
v 0.577242 0.026534 -0.012704
v 0.577242 0.026534 0.023752
v 0.564482 0.022662 -0.012704
v 0.577242 0.026534 -0.012704
v 0.564482 0.022662 0.023752
v 0.551723 0.026534 -0.012704
v 0.551723 0.026534 0.023752
v 0.548697 0.013548 0.023752
v 0.551723 0.026534 -0.012704
v 0.551723 0.026534 0.023752
v 0.548697 0.013548 -0.012704
v 0.538963 0.004434 -0.012704
v 0.538963 0.004434 0.023752
v 0.538963 0.004434 0.023752
v 0.548697 -0.004680 -0.012704
v 0.538963 0.004434 -0.012704
v 0.548697 -0.004680 0.023752
v 0.551723 -0.017667 0.023752
v 0.551723 -0.017667 -0.012704
v 0.551723 -0.017667 0.023752
v 0.551723 -0.017667 -0.012704
vt -0.814 -1.189228
vt -0.8173205 -1.203477
vt -0.828 -1.213477
vt -0.5173205 -0.51
vt -0.5173205 -0.49
vt -0.528 -0.5
vt -0.514 -0.5242487
vt -0.514 -0.4757513
vt -0.5 -0.52
vt -0.5 -0.48
vt -0.486 -0.5242487
vt -0.486 -0.4757513
vt -0.4826795 -0.51
vt -0.4826795 -0.49
vt -0.472 -0.5
vt -0.8 -1.193477
vt -0.8173205 -1.223477
vt -0.814 -1.237725
vt -0.8 -1.233477
vt -0.786 -1.237725
vt -0.7826795 -1.223477
vt -0.772 -1.213477
vt -0.7826795 -1.203477
vt -0.786 -1.189228
vn -0.9739045716235524 0.22695789338717676 0
vn -0.866025402838329 0.5000000016387101 0
vn -0.6835036205012232 0.7299471218942643 0
vn 0 0 1
vn 0 1 0
vn 0.2904009838526879 0.956905046792727 0
vn -0.6835036205012232 -0.7299471218942643 0
vn -0.866025402838329 -0.5000000016387101 0
vn -0.9739045716235524 -0.22695789338717676 0
vn 0.2904009838526879 -0.956905046792727 0
vn 0 -1 0
vn -0.2904009838526879 -0.956905046792727 0
vn 0.866025402838329 -0.5000000016387101 0
vn 0.9739045716235524 -0.22695789338717676 0
vn 0.6835036205012232 -0.7299471218942643 0
vn 0.6835036205012232 0.7299471218942643 0
vn 0.866025402838329 0.5000000016387101 0
vn 0.9739045716235524 0.22695789338717676 0
vn -0.2904009838526879 0.956905046792727 0
usemtl material_0_0
f 1/1/1 2/2/2 3/2/2
f 2/2/2 1/1/1 4/1/1
f 2/2/2 5/3/3 3/2/2
f 5/3/3 2/2/2 6/3/3
f 7/4/4 8/5/4 9/6/4
f 8/5/4 7/4/4 10/7/4
f 8/5/4 10/7/4 11/8/4
f 11/8/4 10/7/4 12/9/4
f 11/8/4 12/9/4 13/10/4
f 13/10/4 12/9/4 14/11/4
f 13/10/4 14/11/4 15/12/4
f 15/12/4 14/11/4 16/13/4
f 15/12/4 16/13/4 17/14/4
f 17/14/4 16/13/4 18/15/4
f 19/16/5 20/1/6 21/16/5
f 20/1/6 19/16/5 22/1/6
f 23/3/7 24/17/8 25/3/7
f 24/17/8 23/3/7 26/17/8
f 24/17/8 27/18/9 28/18/9
f 27/18/9 24/17/8 26/17/8
f 29/18/10 30/19/11 31/18/10
f 30/19/11 29/18/10 32/19/11
f 32/19/11 33/20/12 30/19/11
f 33/20/12 32/19/11 34/20/12
f 35/21/13 36/20/14 37/20/14
f 36/20/14 35/21/13 38/21/13
f 35/21/13 39/22/15 38/21/13
f 39/22/15 35/21/13 40/22/15
f 41/22/16 42/23/17 43/22/16
f 42/23/17 41/22/16 44/23/17
f 45/24/18 42/23/17 44/23/17
f 42/23/17 45/24/18 46/24/18
f 47/24/19 21/16/5 48/24/19
f 21/16/5 47/24/19 19/16/5
