# SSTK version 0.8.0
# 10
mtllib original-10.mtl
o #ID78
v 0.734555 0.687994 0.023752
v 0.746765 -0.633556 0.023752
v 0.746765 0.642424 0.023752
v 0.734555 -0.679127 0.023752
v 0.701195 -0.712487 0.023752
v 0.701195 0.721354 0.023752
v 0.655624 0.733565 0.023752
v 0.655624 -0.724697 0.023752
v 0.619168 0.004434 0.023752
v 0.611841 0.031776 0.023752
v 0.591825 0.051792 0.023752
v -0.620356 0.733565 0.023752
v 0.564482 0.059118 0.023752
v 0.537140 0.051792 0.023752
v 0.517124 0.031776 0.023752
v 0.509798 0.004434 0.023752
v 0.272830 0.072463 0.023752
v 0.286174 0.059118 0.023752
v 0.291058 0.040890 0.023752
v 0.254602 0.077347 0.023752
v 0.145232 0.077347 0.023752
v 0.127004 0.072463 0.023752
v 0.113660 0.059118 0.023752
v 0.108776 0.040890 0.023752
v 0.108776 -0.032023 0.023752
v -0.078391 0.059118 0.023752
v -0.073507 0.040890 0.023752
v -0.091735 0.072463 0.023752
v -0.109964 0.077347 0.023752
v -0.219333 0.077347 0.023752
v -0.237562 0.072463 0.023752
v -0.250906 0.059118 0.023752
v -0.255790 0.040890 0.023752
v -0.255790 -0.032023 0.023752
v -0.474529 0.004434 0.023752
v -0.481856 0.031776 0.023752
v -0.501872 0.051792 0.023752
v -0.529214 0.059118 0.023752
v -0.556556 0.051792 0.023752
v -0.576573 0.031776 0.023752
v -0.583899 0.004434 0.023752
v -0.620356 -0.724697 0.023752
v -0.665926 -0.712487 0.023752
v -0.665926 0.721354 0.023752
v -0.699286 0.687994 0.023752
v -0.699286 -0.679127 0.023752
v -0.711497 0.642424 0.023752
v -0.711497 -0.633556 0.023752
v 0.591825 -0.042925 0.023752
v 0.611841 -0.022909 0.023752
v 0.564482 -0.050251 0.023752
v 0.537140 -0.042925 0.023752
v 0.517124 -0.022909 0.023752
v 0.272830 -0.063595 0.023752
v 0.286174 -0.050251 0.023752
v 0.291058 -0.032023 0.023752
v 0.254602 -0.068479 0.023752
v 0.145232 -0.068479 0.023752
v 0.127004 -0.063595 0.023752
v 0.113660 -0.050251 0.023752
v -0.078391 -0.050251 0.023752
v -0.073507 -0.032023 0.023752
v -0.091735 -0.063595 0.023752
v -0.109964 -0.068479 0.023752
v -0.219333 -0.068479 0.023752
v -0.237562 -0.063595 0.023752
v -0.250906 -0.050251 0.023752
v -0.481856 -0.022909 0.023752
v -0.501872 -0.042925 0.023752
v -0.529214 -0.050251 0.023752
v -0.556556 -0.042925 0.023752
v -0.576573 -0.022909 0.023752
vt 0.002791137 0.03125
vt 0 0.9375
vt 0 0.0625
vt 0.002791137 0.96875
vt 0.01041667 0.9916266
vt 0.01041667 0.008373412
vt 0.02083333 1.110223e-16
vt 0.02083333 1
vt 0.02916667 0.5
vt 0.03084135 0.48125
vt 0.03541667 0.467524
vt 0.3125 1.110223e-16
vt 0.04166667 0.4625
vt 0.04791667 0.467524
vt 0.05249198 0.48125
vt 0.05416667 0.5
vt 0.1083333 0.4533494
vt 0.1052831 0.4625
vt 0.1041667 0.475
vt 0.1125 0.45
vt 0.1375 0.45
vt 0.1416667 0.4533494
vt 0.1447169 0.4625
vt 0.1458333 0.475
vt 0.1458333 0.525
vt 0.1886165 0.4625
vt 0.1875 0.475
vt 0.1916667 0.4533494
vt 0.1958333 0.45
vt 0.2208333 0.45
vt 0.225 0.4533494
vt 0.2280502 0.4625
vt 0.2291667 0.475
vt 0.2291667 0.525
vt 0.2791667 0.5
vt 0.2808413 0.48125
vt 0.2854167 0.467524
vt 0.2916667 0.4625
vt 0.2979167 0.467524
vt 0.302492 0.48125
vt 0.3041667 0.5
vt 0.3125 1
vt 0.3229167 0.9916266
vt 0.3229167 0.008373412
vt 0.3305422 0.03125
vt 0.3305422 0.96875
vt 0.3333333 0.0625
vt 0.3333333 0.9375
vt 0.03541667 0.532476
vt 0.03084135 0.51875
vt 0.04166667 0.5375
vt 0.04791667 0.532476
vt 0.05249198 0.51875
vt 0.1083333 0.5466506
vt 0.1052831 0.5375
vt 0.1041667 0.525
vt 0.1125 0.55
vt 0.1375 0.55
vt 0.1416667 0.5466506
vt 0.1447169 0.5375
vt 0.1886165 0.5375
vt 0.1875 0.525
vt 0.1916667 0.5466506
vt 0.1958333 0.55
vt 0.2208333 0.55
vt 0.225 0.5466506
vt 0.2280502 0.5375
vt 0.2808413 0.51875
vt 0.2854167 0.532476
vt 0.2916667 0.5375
vt 0.2979167 0.532476
vt 0.302492 0.51875
vn 0 0 1
usemtl material_0_0
f 1/1/1 2/2/1 3/3/1
f 2/2/1 1/1/1 4/4/1
f 4/4/1 1/1/1 5/5/1
f 5/5/1 1/1/1 6/6/1
f 5/5/1 6/6/1 7/7/1
f 5/5/1 7/7/1 8/8/1
f 8/8/1 7/7/1 9/9/1
f 9/9/1 7/7/1 10/10/1
f 10/10/1 7/7/1 11/11/1
f 11/11/1 7/7/1 12/12/1
f 11/11/1 12/12/1 13/13/1
f 13/13/1 12/12/1 14/14/1
f 14/14/1 12/12/1 15/15/1
f 15/15/1 12/12/1 16/16/1
f 16/16/1 12/12/1 17/17/1
f 16/16/1 17/17/1 18/18/1
f 16/16/1 18/18/1 19/19/1
f 17/17/1 12/12/1 20/20/1
f 20/20/1 12/12/1 21/21/1
f 21/21/1 12/12/1 22/22/1
f 22/22/1 12/12/1 23/23/1
f 23/23/1 12/12/1 24/24/1
f 24/24/1 12/12/1 25/25/1
f 25/25/1 12/12/1 26/26/1
f 25/25/1 26/26/1 27/27/1
f 26/26/1 12/12/1 28/28/1
f 28/28/1 12/12/1 29/29/1
f 29/29/1 12/12/1 30/30/1
f 30/30/1 12/12/1 31/31/1
f 31/31/1 12/12/1 32/32/1
f 32/32/1 12/12/1 33/33/1
f 33/33/1 12/12/1 34/34/1
f 34/34/1 12/12/1 35/35/1
f 35/35/1 12/12/1 36/36/1
f 36/36/1 12/12/1 37/37/1
f 37/37/1 12/12/1 38/38/1
f 38/38/1 12/12/1 39/39/1
f 39/39/1 12/12/1 40/40/1
f 40/40/1 12/12/1 41/41/1
f 41/41/1 12/12/1 42/42/1
f 42/42/1 12/12/1 43/43/1
f 43/43/1 12/12/1 44/44/1
f 43/43/1 44/44/1 45/45/1
f 43/43/1 45/45/1 46/46/1
f 46/46/1 45/45/1 47/47/1
f 46/46/1 47/47/1 48/48/1
f 8/8/1 49/49/1 42/42/1
f 49/49/1 8/8/1 50/50/1
f 50/50/1 8/8/1 9/9/1
f 42/42/1 49/49/1 51/51/1
f 42/42/1 51/51/1 52/52/1
f 42/42/1 52/52/1 53/53/1
f 42/42/1 53/53/1 16/16/1
f 42/42/1 16/16/1 54/54/1
f 54/54/1 16/16/1 55/55/1
f 55/55/1 16/16/1 56/56/1
f 56/56/1 16/16/1 19/19/1
f 42/42/1 54/54/1 57/57/1
f 42/42/1 57/57/1 58/58/1
f 42/42/1 58/58/1 59/59/1
f 42/42/1 59/59/1 60/60/1
f 42/42/1 60/60/1 25/25/1
f 42/42/1 25/25/1 61/61/1
f 61/61/1 25/25/1 62/62/1
f 62/62/1 25/25/1 27/27/1
f 42/42/1 61/61/1 63/63/1
f 42/42/1 63/63/1 64/64/1
f 42/42/1 64/64/1 65/65/1
f 42/42/1 65/65/1 66/66/1
f 42/42/1 66/66/1 67/67/1
f 42/42/1 67/67/1 34/34/1
f 42/42/1 34/34/1 35/35/1
f 42/42/1 35/35/1 68/68/1
f 42/42/1 68/68/1 69/69/1
f 42/42/1 69/69/1 70/70/1
f 42/42/1 70/70/1 71/71/1
f 42/42/1 71/71/1 72/72/1
f 42/42/1 72/72/1 41/41/1
