# SSTK version 0.8.0
# 4
mtllib original-4.mtl
o #ID32
v 0.119128 0.005940 0.009618
v 0.132472 0.011167 0.188676
v 0.132472 0.019270 0.010223
v 0.119128 -0.002163 0.188071
v 0.280706 -0.002163 0.188071
v 0.280706 -0.038583 0.186417
v 0.285590 -0.020373 0.187244
v 0.267362 -0.051913 0.185812
v 0.267362 0.011167 0.188676
v 0.249133 -0.056792 0.185590
v 0.249133 0.016046 0.188898
v 0.150701 -0.056792 0.185590
v 0.150701 0.016046 0.188898
v 0.132472 -0.051913 0.185812
v 0.132472 0.011167 0.188676
v 0.119128 -0.038583 0.186417
v 0.119128 -0.002163 0.188071
v 0.114244 -0.020373 0.187244
v 0.150701 0.024150 0.010444
v 0.150701 0.016046 0.188898
v 0.114244 -0.012269 0.008791
v 0.114244 -0.020373 0.187244
v 0.249133 0.024150 0.010444
v 0.249133 0.016046 0.188898
v 0.119128 -0.030479 0.007964
v 0.119128 -0.038583 0.186417
v 0.132472 -0.043809 0.007359
v 0.132472 -0.051913 0.185812
v 0.150701 -0.056792 0.185590
v 0.150701 -0.048689 0.007137
v 0.249133 -0.048689 0.007137
v 0.249133 -0.056792 0.185590
v 0.267362 -0.043809 0.007359
v 0.267362 -0.051913 0.185812
v 0.280706 -0.038583 0.186417
v 0.280706 -0.030479 0.007964
v 0.285590 -0.020373 0.187244
v 0.285590 -0.012269 0.008791
v 0.280706 -0.002163 0.188071
v 0.280706 0.005940 0.009618
v 0.267362 0.011167 0.188676
v 0.267362 0.019270 0.010223
vt -0.9246766 -0.002277127
vt -0.9688573 0.4981499
vt -0.9774461 -0.001369804
vt -0.9160878 0.4972426
vt -2.588641 -0.06
vt -2.588641 -0.02
vt -2.594 -0.04
vt -2.574 -0.005358984
vt -2.574 -0.07464102
vt -2.554 -5.342948e-16
vt -2.554 -0.08
vt -2.446 -2.289835e-16
vt -2.446 -0.08
vt -2.426 -0.005358984
vt -2.426 -0.07464102
vt -2.411359 -0.02
vt -2.411359 -0.06
vt -2.406 -0.04
vt -0.8764403 0.4979568
vt -0.8994478 -0.001387906
vt -0.8787437 -0.002008654
vt -0.8971444 0.4985776
vt -0.903991 -0.004591724
vt -0.8954022 0.494928
vt -1.174939 -0.0001186798
vt -1.172636 0.4998468
vt -0.981546 0.002969979
vt -1.028049 0.5033769
vt -1.034339 0.003634481
vt -0.9752557 0.5027124
vt -0.9608511 0.00127482
vt -0.9545609 0.5010173
vt -1 0.5
vt -1.05282 1.124101e-15
vt -1 1.110223e-15
vt -1.05282 0.5
vt -0.892 8.326673e-17
vt -1 -6.938894e-17
vt -0.892 0.5
vt -0.8391798 1.665335e-16
vt -0.892 2.498002e-16
vt -0.8391798 0.5
vt -0.9167443 0.5027124
vt -0.9311489 0.00127482
vt -0.910454 0.002969979
vt -0.9374391 0.5010173
vt -0.8639513 0.5033769
vt -0.857661 0.003634481
vt -0.9759122 0.4972426
vt -0.988009 -0.004591724
vt -0.9673234 -0.002277127
vt -0.9965978 0.494928
vt -1.01556 0.4979568
vt -1.066073 -0.002251987
vt -1.013256 -0.002008654
vt -1.068376 0.4977135
vt -0.9925522 -0.001387906
vt -0.9948556 0.4985776
vn -0.8660253963844003 0.49948529791468144 0.022681489905306256
vn -0.4999999961401351 0.8651338933214 0.03928549969672655
vn 0 -0.04536298862717762 0.998970569768104
vn -0.13052620479931226 0.9904242364168651 0.04497490165368017
vn -1 -7.44291e-9 0
vn 0.13052620479931226 0.9904242364168651 0.04497490165368017
vn -0.8660253963844003 -0.49948529791468144 -0.022681489905306256
vn -0.4999999961401351 -0.8651338933214 -0.03928549969672655
vn -0.13052620479931226 -0.9904242364168651 -0.04497490165368017
vn 0.13052620479931226 -0.9904242364168651 -0.04497490165368017
vn 0.4999999961401351 -0.8651338933214 -0.03928549969672655
vn 0.8660253963844003 -0.49948529791468144 -0.022681489905306256
vn 1 7.44291e-9 0
vn 0.8660253963844003 0.49948529791468144 0.022681489905306256
vn 0.4999999961401351 0.8651338933214 0.03928549969672655
usemtl material_0_0
f 1/1/1 2/2/2 3/3/2
f 2/2/2 1/1/1 4/4/1
f 5/5/3 6/6/3 7/7/3
f 6/6/3 5/5/3 8/8/3
f 8/8/3 5/5/3 9/9/3
f 8/8/3 9/9/3 10/10/3
f 10/10/3 9/9/3 11/11/3
f 10/10/3 11/11/3 12/12/3
f 12/12/3 11/11/3 13/13/3
f 12/12/3 13/13/3 14/14/3
f 14/14/3 13/13/3 15/15/3
f 14/14/3 15/15/3 16/16/3
f 16/16/3 15/15/3 17/17/3
f 16/16/3 17/17/3 18/18/3
f 2/19/2 19/20/4 3/21/2
f 19/20/4 2/19/2 20/22/4
f 21/23/5 4/4/1 1/1/1
f 4/4/1 21/23/5 22/24/5
f 20/22/4 23/25/6 19/20/4
f 23/25/6 20/22/4 24/26/6
f 25/27/7 22/28/5 21/29/5
f 22/28/5 25/27/7 26/30/7
f 27/31/8 26/30/7 25/27/7
f 26/30/7 27/31/8 28/32/8
f 29/33/9 27/34/8 30/35/9
f 27/34/8 29/33/9 28/36/8
f 31/37/10 29/33/9 30/38/9
f 29/33/9 31/37/10 32/39/10
f 33/40/11 32/39/10 31/41/10
f 32/39/10 33/40/11 34/42/11
f 35/43/12 33/44/11 36/45/12
f 33/44/11 35/43/12 34/46/11
f 37/47/13 36/45/12 38/48/13
f 36/45/12 37/47/13 35/43/12
f 39/49/14 38/50/13 40/51/14
f 38/50/13 39/49/14 37/52/13
f 41/53/15 40/54/14 42/55/15
f 40/54/14 41/53/15 39/56/14
f 23/57/6 41/53/15 42/55/15
f 41/53/15 23/57/6 24/58/6
