# SSTK version 0.8.0
# 5
mtllib original-5.mtl
o #ID40
v 0.280706 -0.030479 0.007964
v 0.280706 0.005940 0.009618
v 0.285590 -0.012269 0.008791
v 0.267362 -0.043809 0.007359
v 0.267362 0.019270 0.010223
v 0.249133 -0.048689 0.007137
v 0.249133 0.024150 0.010444
v 0.150701 -0.048689 0.007137
v 0.150701 0.024150 0.010444
v 0.132472 -0.043809 0.007359
v 0.132472 0.019270 0.010223
v 0.119128 -0.030479 0.007964
v 0.119128 0.005940 0.009618
v 0.114244 -0.012269 0.008791
vn 0 0.04536298862717762 -0.998970569768104
usemtl material_0_0
f 1//1 2//1 3//1
f 2//1 1//1 4//1
f 2//1 4//1 5//1
f 5//1 4//1 6//1
f 5//1 6//1 7//1
f 7//1 6//1 8//1
f 7//1 8//1 9//1
f 9//1 8//1 10//1
f 9//1 10//1 11//1
f 11//1 10//1 12//1
f 11//1 12//1 13//1
f 13//1 12//1 14//1
