# SSTK version 0.8.0
# 9
mtllib original-9.mtl
o #ID70
v -0.481856 0.031776 0.023752
v -0.481856 -0.022909 0.023752
v -0.474529 0.004434 0.023752
v -0.501872 0.051792 0.023752
v -0.501872 -0.042925 0.023752
v -0.503694 0.004434 0.023752
v -0.529214 0.059118 0.023752
v -0.516454 0.026534 0.023752
v -0.513428 0.013548 0.023752
v -0.529214 0.022662 0.023752
v -0.541974 0.026534 0.023752
v -0.556556 0.051792 0.023752
v -0.545000 0.013548 0.023752
v -0.554734 0.004434 0.023752
v -0.529214 -0.050251 0.023752
v -0.516454 -0.017667 0.023752
v -0.513428 -0.004680 0.023752
v -0.529214 -0.013795 0.023752
v -0.556556 -0.042925 0.023752
v -0.541974 -0.017667 0.023752
v -0.545000 -0.004680 0.023752
v -0.576573 0.031776 0.023752
v -0.576573 -0.022909 0.023752
v -0.583899 0.004434 0.023752
vt -0.8519615 -1.243477
vt -0.8519615 -1.183477
vt -0.86 -1.213477
vt -0.83 -1.265438
vt -0.83 -1.161515
vt -0.828 -1.213477
vt -0.8 -1.273477
vt -0.814 -1.237725
vt -0.8173205 -1.223477
vt -0.8 -1.233477
vt -0.786 -1.237725
vt -0.77 -1.265438
vt -0.7826795 -1.223477
vt -0.772 -1.213477
vt -0.8 -1.153477
vt -0.814 -1.189228
vt -0.8173205 -1.203477
vt -0.8 -1.193477
vt -0.77 -1.161515
vt -0.786 -1.189228
vt -0.7826795 -1.203477
vt -0.7480385 -1.243477
vt -0.7480385 -1.183477
vt -0.74 -1.213477
vn 0 0 1
usemtl material_0_0
f 1/1/1 2/2/1 3/3/1
f 2/2/1 1/1/1 4/4/1
f 2/2/1 4/4/1 5/5/1
f 5/5/1 4/4/1 6/6/1
f 6/6/1 4/4/1 7/7/1
f 6/6/1 7/7/1 8/8/1
f 6/6/1 8/8/1 9/9/1
f 8/8/1 7/7/1 10/10/1
f 10/10/1 7/7/1 11/11/1
f 11/11/1 7/7/1 12/12/1
f 11/11/1 12/12/1 13/13/1
f 13/13/1 12/12/1 14/14/1
f 6/6/1 15/15/1 5/5/1
f 15/15/1 6/6/1 16/16/1
f 16/16/1 6/6/1 17/17/1
f 15/15/1 16/16/1 18/18/1
f 15/15/1 18/18/1 19/19/1
f 19/19/1 18/18/1 20/20/1
f 19/19/1 20/20/1 21/21/1
f 19/19/1 21/21/1 14/14/1
f 19/19/1 14/14/1 12/12/1
f 19/19/1 12/12/1 22/22/1
f 19/19/1 22/22/1 23/23/1
f 23/23/1 22/22/1 24/24/1
