# SSTK version 0.8.0
# 8
mtllib original-8.mtl
o #ID62
v -0.513428 0.013548 -0.012704
v -0.513428 -0.004680 -0.012704
v -0.503694 0.004434 -0.012704
v -0.516454 0.026534 -0.012704
v -0.516454 -0.017667 -0.012704
v -0.529214 0.022662 -0.012704
v -0.529214 -0.013795 -0.012704
v -0.541974 0.026534 -0.012704
v -0.541974 -0.017667 -0.012704
v -0.545000 0.013548 -0.012704
v -0.545000 -0.004680 -0.012704
v -0.554734 0.004434 -0.012704
v -0.503694 0.004434 0.023752
v -0.513428 0.013548 -0.012704
v -0.503694 0.004434 -0.012704
v -0.513428 0.013548 0.023752
v -0.516454 0.026534 0.023752
v -0.516454 0.026534 -0.012704
v -0.516454 0.026534 0.023752
v -0.529214 0.022662 -0.012704
v -0.516454 0.026534 -0.012704
v -0.529214 0.022662 0.023752
v -0.541974 0.026534 -0.012704
v -0.541974 0.026534 0.023752
v -0.545000 0.013548 0.023752
v -0.541974 0.026534 -0.012704
v -0.541974 0.026534 0.023752
v -0.545000 0.013548 -0.012704
v -0.554734 0.004434 -0.012704
v -0.554734 0.004434 0.023752
v -0.554734 0.004434 0.023752
v -0.545000 -0.004680 -0.012704
v -0.554734 0.004434 -0.012704
v -0.545000 -0.004680 0.023752
v -0.541974 -0.017667 0.023752
v -0.541974 -0.017667 -0.012704
v -0.541974 -0.017667 0.023752
v -0.529214 -0.013795 -0.012704
v -0.541974 -0.017667 -0.012704
v -0.529214 -0.013795 0.023752
v -0.516454 -0.017667 -0.012704
v -0.516454 -0.017667 0.023752
v -0.516454 -0.017667 -0.012704
v -0.513428 -0.004680 0.023752
v -0.513428 -0.004680 -0.012704
v -0.516454 -0.017667 0.023752
v -0.503694 0.004434 -0.012704
v -0.503694 0.004434 0.023752
vt 0.6826795 -0.51
vt 0.6826795 -0.49
vt 0.672 -0.5
vt 0.686 -0.5242487
vt 0.686 -0.4757513
vt 0.7 -0.52
vt 0.7 -0.48
vt 0.714 -0.5242487
vt 0.714 -0.4757513
vt 0.7173205 -0.51
vt 0.7173205 -0.49
vt 0.728 -0.5
vt -0.828 -1.213477
vt -0.8173205 -1.223477
vt -0.814 -1.237725
vt -0.8 -1.233477
vt -0.786 -1.237725
vt -0.7826795 -1.223477
vt -0.772 -1.213477
vt -0.7826795 -1.203477
vt -0.786 -1.189228
vt -0.8 -1.193477
vt -0.814 -1.189228
vt -0.8173205 -1.203477
vn 0 0 1
vn -0.6835036205012232 -0.7299471218942643 0
vn -0.866025402838329 -0.5000000016387101 0
vn -0.9739045716235524 -0.22695789338717676 0
vn 0.2904009838526879 -0.956905046792727 0
vn 0 -1 0
vn -0.2904009838526879 -0.956905046792727 0
vn 0.866025402838329 -0.5000000016387101 0
vn 0.9739045716235524 -0.22695789338717676 0
vn 0.6835036205012232 -0.7299471218942643 0
vn 0.6835036205012232 0.7299471218942643 0
vn 0.866025402838329 0.5000000016387101 0
vn 0.9739045716235524 0.22695789338717676 0
vn -0.2904009838526879 0.956905046792727 0
vn 0 1 0
vn 0.2904009838526879 0.956905046792727 0
vn -0.9739045716235524 0.22695789338717676 0
vn -0.866025402838329 0.5000000016387101 0
vn -0.6835036205012232 0.7299471218942643 0
usemtl material_0_0
f 1/1/1 2/2/1 3/3/1
f 2/2/1 1/1/1 4/4/1
f 2/2/1 4/4/1 5/5/1
f 5/5/1 4/4/1 6/6/1
f 5/5/1 6/6/1 7/7/1
f 7/7/1 6/6/1 8/8/1
f 7/7/1 8/8/1 9/9/1
f 9/9/1 8/8/1 10/10/1
f 9/9/1 10/10/1 11/11/1
f 11/11/1 10/10/1 12/12/1
f 13/13/2 14/14/3 15/13/2
f 14/14/3 13/13/2 16/14/3
f 14/14/3 17/15/4 18/15/4
f 17/15/4 14/14/3 16/14/3
f 19/15/5 20/16/6 21/15/5
f 20/16/6 19/15/5 22/16/6
f 22/16/6 23/17/7 20/16/6
f 23/17/7 22/16/6 24/17/7
f 25/18/8 26/17/9 27/17/9
f 26/17/9 25/18/8 28/18/8
f 25/18/8 29/19/10 28/18/8
f 29/19/10 25/18/8 30/19/10
f 31/19/11 32/20/12 33/19/11
f 32/20/12 31/19/11 34/20/12
f 35/21/13 32/20/12 34/20/12
f 32/20/12 35/21/13 36/21/13
f 37/21/14 38/22/15 39/21/14
f 38/22/15 37/21/14 40/22/15
f 40/22/15 41/23/16 38/22/15
f 41/23/16 40/22/15 42/23/16
f 43/23/17 44/24/18 45/24/18
f 44/24/18 43/23/17 46/23/17
f 44/24/18 47/13/19 45/24/18
f 47/13/19 44/24/18 48/13/19
