# SSTK version 0.8.0
# 2
mtllib original-2.mtl
o #ID16
v 0.291058 0.040890 0.005524
v 0.286174 0.059118 0.023752
v 0.286174 0.059118 0.005524
v 0.291058 0.040890 0.023752
v 0.272830 0.072463 0.023752
v 0.272830 0.072463 0.005524
v 0.286174 0.059118 0.005524
v 0.291058 -0.032023 0.005524
v 0.291058 0.040890 0.005524
v 0.286174 -0.050251 0.005524
v 0.272830 0.072463 0.005524
v 0.272830 -0.063595 0.005524
v 0.254602 0.077347 0.005524
v 0.254602 -0.068479 0.005524
v 0.145232 -0.068479 0.005524
v 0.145232 0.077347 0.005524
v 0.127004 -0.063595 0.005524
v 0.127004 0.072463 0.005524
v 0.113660 0.059118 0.005524
v 0.113660 -0.050251 0.005524
v 0.108776 0.040890 0.005524
v 0.108776 -0.032023 0.005524
v 0.291058 -0.032023 0.005524
v 0.291058 -0.032023 0.023752
v 0.254602 0.077347 0.023752
v 0.254602 0.077347 0.005524
v 0.145232 0.077347 0.023752
v 0.145232 0.077347 0.005524
v 0.127004 0.072463 0.005524
v 0.127004 0.072463 0.023752
v 0.113660 0.059118 0.023752
v 0.113660 0.059118 0.005524
v 0.108776 0.040890 0.023752
v 0.108776 0.040890 0.005524
v 0.108776 -0.032023 0.023752
v 0.108776 -0.032023 0.005524
v 0.113660 -0.050251 0.023752
v 0.113660 -0.050251 0.005524
v 0.127004 -0.063595 0.023752
v 0.127004 -0.063595 0.005524
v 0.145232 -0.068479 0.005524
v 0.145232 -0.068479 0.023752
v 0.254602 -0.068479 0.005524
v 0.254602 -0.068479 0.023752
v 0.272830 -0.063595 0.005524
v 0.272830 -0.063595 0.023752
v 0.286174 -0.050251 0.023752
v 0.286174 -0.050251 0.005524
vt 2.946681 -0.2198984
vt 2.96064 -0.194722
vt 2.941322 -0.1998984
vt 2.965999 -0.214722
vt 2.940823 -0.1711152
vt 2.926681 -0.1852574
vt 2.955464 -0.1857562
vt 0.005358984 -0.56
vt 0 -0.46
vt 0 -0.54
vt 0.005358984 -0.44
vt 0.02 -0.574641
vt 0.02 -0.425359
vt 0.04 -0.58
vt 0.04 -0.42
vt 0.16 -0.42
vt 0.16 -0.58
vt 0.18 -0.425359
vt 0.18 -0.574641
vt 0.194641 -0.56
vt 0.194641 -0.44
vt 0.2 -0.54
vt 0.2 -0.46
vt 2.946681 -0.2998984
vt 2.966681 -0.2198984
vt 2.966681 -0.2998984
vt 2.911857 -0.1605799
vt 2.906681 -0.1798984
vt 2.931857 -0.1659388
vt 2.786681 -0.1598984
vt 2.786681 -0.1798984
vt 2.906681 -0.1598984
vt 2.781504 -0.1605799
vt 2.766681 -0.1852574
vt 2.761504 -0.1659388
vt 2.737897 -0.1857562
vt 2.752538 -0.1711152
vt 2.75204 -0.1998984
vt 2.727362 -0.214722
vt 2.732721 -0.194722
vt 2.746681 -0.2198984
vt 2.726681 -0.2998984
vt 2.726681 -0.2198984
vt 2.746681 -0.2998984
vt 2.732721 -0.3250747
vt 2.727362 -0.3050747
vt 2.75204 -0.3198984
vt 2.752538 -0.3486815
vt 2.737897 -0.3340405
vt 2.766681 -0.3345394
vt 2.761504 -0.3538579
vt 2.786681 -0.3398984
vt 2.781504 -0.3592169
vt 2.786681 -0.3598984
vt 2.906681 -0.3398984
vt 2.906681 -0.3598984
vt 2.911857 -0.3592169
vt 2.926681 -0.3345394
vt 2.931857 -0.3538579
vt 2.955464 -0.3340405
vt 2.941322 -0.3198984
vt 2.940823 -0.3486815
vt 2.965999 -0.3050747
vt 2.96064 -0.3250747
vn -0.9914448610250887 -0.1305261948688555 0
vn -0.866025402838329 -0.5000000016387101 0
vn -0.5000000016387101 -0.866025402838329 0
vn 0 0 1
vn -0.9914448610250887 0.1305261948688555 0
vn -0.1305261948688555 -0.9914448610250887 0
vn 0.1305261948688555 -0.9914448610250887 0
vn 0.5000000016387101 -0.866025402838329 0
vn 0.866025402838329 -0.5000000016387101 0
vn 0.9914448610250887 -0.1305261948688555 0
vn 0.9914448610250887 0.1305261948688555 0
vn 0.866025402838329 0.5000000016387101 0
vn 0.5000000016387101 0.866025402838329 0
vn 0.1305261948688555 0.9914448610250887 0
vn -0.1305261948688555 0.9914448610250887 0
vn -0.5000000016387101 0.866025402838329 0
vn -0.866025402838329 0.5000000016387101 0
usemtl material_0_0
f 1/1/1 2/2/2 3/3/2
f 2/2/2 1/1/1 4/4/1
f 3/3/2 5/5/3 6/6/3
f 5/5/3 3/3/2 2/7/2
f 7/8/4 8/9/4 9/10/4
f 8/9/4 7/8/4 10/11/4
f 10/11/4 7/8/4 11/12/4
f 10/11/4 11/12/4 12/13/4
f 12/13/4 11/12/4 13/14/4
f 12/13/4 13/14/4 14/15/4
f 14/15/4 13/14/4 15/16/4
f 15/16/4 13/14/4 16/17/4
f 15/16/4 16/17/4 17/18/4
f 17/18/4 16/17/4 18/19/4
f 17/18/4 18/19/4 19/20/4
f 17/18/4 19/20/4 20/21/4
f 20/21/4 19/20/4 21/22/4
f 20/21/4 21/22/4 22/23/4
f 23/24/5 4/25/1 1/1/1
f 4/25/1 23/24/5 24/26/5
f 6/6/3 25/27/6 26/28/6
f 25/27/6 6/6/3 5/29/3
f 26/28/6 27/30/7 28/31/7
f 27/30/7 26/28/6 25/32/6
f 27/33/7 29/34/8 28/31/7
f 29/34/8 27/33/7 30/35/8
f 31/36/9 29/34/8 30/37/8
f 29/34/8 31/36/9 32/38/9
f 33/39/10 32/38/9 31/40/9
f 32/38/9 33/39/10 34/41/10
f 35/42/11 34/41/10 33/43/10
f 34/41/10 35/42/11 36/44/11
f 37/45/12 36/44/11 35/46/11
f 36/44/11 37/45/12 38/47/12
f 39/48/13 38/47/12 37/49/12
f 38/47/12 39/48/13 40/50/13
f 39/51/13 41/52/14 40/50/13
f 41/52/14 39/51/13 42/53/14
f 42/54/14 43/55/15 41/52/14
f 43/55/15 42/54/14 44/56/15
f 44/57/15 45/58/16 43/55/15
f 45/58/16 44/57/15 46/59/16
f 45/58/16 47/60/17 48/61/17
f 47/60/17 45/58/16 46/62/16
f 48/61/17 24/63/5 23/24/5
f 24/63/5 48/61/17 47/64/17
