# SSTK version 0.8.0
# 11
mtllib original-11.mtl
o #ID91
v -0.078391 0.059118 0.005524
v -0.073507 -0.032023 0.005524
v -0.073507 0.040890 0.005524
v -0.078391 -0.050251 0.005524
v -0.091735 0.072463 0.005524
v -0.091735 -0.063595 0.005524
v -0.109964 0.077347 0.005524
v -0.109964 -0.068479 0.005524
v -0.219333 -0.068479 0.005524
v -0.219333 0.077347 0.005524
v -0.237562 -0.063595 0.005524
v -0.237562 0.072463 0.005524
v -0.250906 0.059118 0.005524
v -0.250906 -0.050251 0.005524
v -0.255790 0.040890 0.005524
v -0.255790 -0.032023 0.005524
v -0.073507 -0.032023 0.005524
v -0.073507 0.040890 0.023752
v -0.073507 0.040890 0.005524
v -0.073507 -0.032023 0.023752
v -0.078391 0.059118 0.023752
v -0.078391 0.059118 0.005524
v -0.091735 0.072463 0.023752
v -0.091735 0.072463 0.005524
v -0.109964 0.077347 0.023752
v -0.109964 0.077347 0.005524
v -0.219333 0.077347 0.023752
v -0.219333 0.077347 0.005524
v -0.237562 0.072463 0.005524
v -0.237562 0.072463 0.023752
v -0.250906 0.059118 0.023752
v -0.250906 0.059118 0.005524
v -0.255790 0.040890 0.023752
v -0.255790 0.040890 0.005524
v -0.255790 -0.032023 0.023752
v -0.255790 -0.032023 0.005524
v -0.250906 -0.050251 0.023752
v -0.250906 -0.050251 0.005524
v -0.237562 -0.063595 0.023752
v -0.237562 -0.063595 0.005524
v -0.219333 -0.068479 0.005524
v -0.219333 -0.068479 0.023752
v -0.109964 -0.068479 0.005524
v -0.109964 -0.068479 0.023752
v -0.091735 -0.063595 0.005524
v -0.091735 -0.063595 0.023752
v -0.078391 -0.050251 0.023752
v -0.078391 -0.050251 0.005524
vt 0.005358984 -0.56
vt 1.387779e-17 -0.46
vt 1.387779e-17 -0.54
vt 0.005358984 -0.44
vt 0.02 -0.574641
vt 0.02 -0.425359
vt 0.04 -0.58
vt 0.04 -0.42
vt 0.16 -0.42
vt 0.16 -0.58
vt 0.18 -0.425359
vt 0.18 -0.574641
vt 0.194641 -0.56
vt 0.194641 -0.44
vt 0.2 -0.54
vt 0.2 -0.46
vt 2.946681 -0.2998984
vt 2.966681 -0.2198984
vt 2.946681 -0.2198984
vt 2.966681 -0.2998984
vt 2.96064 -0.194722
vt 2.941322 -0.1998984
vt 2.965999 -0.214722
vt 2.940823 -0.1711152
vt 2.926681 -0.1852574
vt 2.955464 -0.1857562
vt 2.911857 -0.1605799
vt 2.906681 -0.1798984
vt 2.931857 -0.1659388
vt 2.786681 -0.1598984
vt 2.786681 -0.1798984
vt 2.906681 -0.1598984
vt 2.781504 -0.1605799
vt 2.766681 -0.1852574
vt 2.761504 -0.1659388
vt 2.737897 -0.1857562
vt 2.752538 -0.1711152
vt 2.75204 -0.1998984
vt 2.727362 -0.214722
vt 2.732721 -0.194722
vt 2.746681 -0.2198984
vt 2.726681 -0.2998984
vt 2.726681 -0.2198984
vt 2.746681 -0.2998984
vt 2.732721 -0.3250747
vt 2.727362 -0.3050747
vt 2.75204 -0.3198984
vt 2.752538 -0.3486815
vt 2.737897 -0.3340405
vt 2.766681 -0.3345394
vt 2.761504 -0.3538579
vt 2.786681 -0.3398984
vt 2.781504 -0.3592169
vt 2.786681 -0.3598984
vt 2.906681 -0.3398984
vt 2.906681 -0.3598984
vt 2.911857 -0.3592169
vt 2.926681 -0.3345394
vt 2.931857 -0.3538579
vt 2.955464 -0.3340405
vt 2.941322 -0.3198984
vt 2.940823 -0.3486815
vt 2.965999 -0.3050747
vt 2.96064 -0.3250747
vn 0 0 1
vn -0.9914448610250887 0.1305261948688555 0
vn -0.9914448610250887 -0.1305261948688555 0
vn -0.866025402838329 -0.5000000016387101 0
vn -0.5000000016387101 -0.866025402838329 0
vn -0.1305261948688555 -0.9914448610250887 0
vn 0.1305261948688555 -0.9914448610250887 0
vn 0.5000000016387101 -0.866025402838329 0
vn 0.866025402838329 -0.5000000016387101 0
vn 0.9914448610250887 -0.1305261948688555 0
vn 0.9914448610250887 0.1305261948688555 0
vn 0.866025402838329 0.5000000016387101 0
vn 0.5000000016387101 0.866025402838329 0
vn 0.1305261948688555 0.9914448610250887 0
vn -0.1305261948688555 0.9914448610250887 0
vn -0.5000000016387101 0.866025402838329 0
vn -0.866025402838329 0.5000000016387101 0
usemtl material_0_0
f 1/1/1 2/2/1 3/3/1
f 2/2/1 1/1/1 4/4/1
f 4/4/1 1/1/1 5/5/1
f 4/4/1 5/5/1 6/6/1
f 6/6/1 5/5/1 7/7/1
f 6/6/1 7/7/1 8/8/1
f 8/8/1 7/7/1 9/9/1
f 9/9/1 7/7/1 10/10/1
f 9/9/1 10/10/1 11/11/1
f 11/11/1 10/10/1 12/12/1
f 11/11/1 12/12/1 13/13/1
f 11/11/1 13/13/1 14/14/1
f 14/14/1 13/13/1 15/15/1
f 14/14/1 15/15/1 16/16/1
f 17/17/2 18/18/3 19/19/3
f 18/18/3 17/17/2 20/20/2
f 19/19/3 21/21/4 22/22/4
f 21/21/4 19/19/3 18/23/3
f 22/22/4 23/24/5 24/25/5
f 23/24/5 22/22/4 21/26/4
f 24/25/5 25/27/6 26/28/6
f 25/27/6 24/25/5 23/29/5
f 26/28/6 27/30/7 28/31/7
f 27/30/7 26/28/6 25/32/6
f 27/33/7 29/34/8 28/31/7
f 29/34/8 27/33/7 30/35/8
f 31/36/9 29/34/8 30/37/8
f 29/34/8 31/36/9 32/38/9
f 33/39/10 32/38/9 31/40/9
f 32/38/9 33/39/10 34/41/10
f 35/42/11 34/41/10 33/43/10
f 34/41/10 35/42/11 36/44/11
f 37/45/12 36/44/11 35/46/11
f 36/44/11 37/45/12 38/47/12
f 39/48/13 38/47/12 37/49/12
f 38/47/12 39/48/13 40/50/13
f 39/51/13 41/52/14 40/50/13
f 41/52/14 39/51/13 42/53/14
f 42/54/14 43/55/15 41/52/14
f 43/55/15 42/54/14 44/56/15
f 44/57/15 45/58/16 43/55/15
f 45/58/16 44/57/15 46/59/16
f 45/58/16 47/60/17 48/61/17
f 47/60/17 45/58/16 46/62/16
f 48/61/17 20/63/2 17/17/2
f 20/63/2 48/61/17 47/64/17
