# SSTK version 0.8.0
# 3
mtllib original-3.mtl
o #ID47
v -0.050652 -0.001148 0.046852
v -0.024962 -0.015996 0.046852
v -0.023388 0.016214 0.060425
v -0.037735 0.020058 0.060425
v -0.024962 -0.015996 0.046852
v -0.050652 -0.001148 -0.034585
v -0.024962 -0.015996 -0.034585
v -0.050652 -0.001148 0.046852
v -0.012886 0.005711 0.060425
v -0.052082 0.016214 0.060425
v -0.099515 -0.085780 0.046852
v -0.050652 -0.001148 -0.034585
v -0.050652 -0.001148 0.046852
v -0.099515 -0.085780 -0.034585
v -0.050652 -0.001148 -0.034585
v -0.073655 -0.100711 -0.034585
v -0.024962 -0.015996 -0.034585
v -0.099515 -0.085780 -0.034585
v -0.073655 -0.100711 -0.034585
v -0.024962 -0.015996 0.046852
v -0.024962 -0.015996 -0.034585
v -0.073655 -0.100711 0.046852
v -0.009041 -0.008635 0.060425
v -0.062585 0.005711 0.060425
v -0.099515 -0.085780 0.046852
v -0.111422 -0.078876 0.060425
v -0.099515 -0.085780 0.046852
v -0.073655 -0.100711 -0.034585
v -0.099515 -0.085780 -0.034585
v -0.073655 -0.100711 0.046852
v -0.061722 -0.107570 0.060425
v -0.012886 -0.022982 0.060425
v -0.073655 -0.100711 0.046852
v -0.115266 -0.093223 0.060425
v -0.100919 -0.118073 0.060425
v -0.072225 -0.118073 0.060425
v -0.111422 -0.107570 0.060425
v -0.086572 -0.121917 0.060425
vt -0.9046912 -0.9994154
vt -0.9084768 -0.9972275
vt -0.9087086 -1.001974
vt -0.9065946 -1.00254
vt -0.9102562 -1.000426
vt -0.9044805 -1.001974
vt -0.8974912 -0.9869446
vt -0.9013018 -0.9847446
vt -0.9108227 -0.9983121
vt -0.9029329 -1.000426
vt -0.8957367 -0.987962
vt -0.90306 -0.9837338
vt -0.9102562 -0.996198
vt -0.8951702 -0.9858479
vt -0.8972843 -0.9821862
vt -0.9015124 -0.9821862
vt -0.8957367 -0.9837338
vt -0.8993984 -0.9816198
vn 0.2729773109986355 -0.4583568184678337 0.8458087340788102
vn -0.5306058201420648 0.005774451219201083 0.8475990321752872
vn -0.23224188725569542 -0.40182247794993786 0.8857778513928221
vn -0.03418289159957389 -0.5239069245160018 0.8510893398263641
vn -0.5003914047350912 -0.865799308192864 0
vn -0.43566557241435394 -0.29035598161512444 0.8519911460532856
vn 0.29524630975740357 -0.5732219189440388 0.7643600252608381
vn 0.8660253595370575 -0.5000000766387045 0
vn 0 0 1
vn -0.8669862884640149 0.4983319933692718 0
vn -0.6403493901555894 -0.030233739535201642 0.7674884882010168
vn 0.5623678785376072 -0.4251022837762565 0.7092463729320879
vn 0.5335083996466887 -0.007272586995183793 0.8457634994399006
vn 0.6493332205687049 -0.27447330869439646 0.709246622466561
vn 0.5000000766387045 0.8660253595370575 0
vn -0.5614460051113792 0.4241600038615336 0.7105397064687216
vn -0.6461322016201474 0.27289760068427843 0.712769301787237
vn -0.27241890322564283 0.4575531054177697 0.8464237100222874
vn 0.6440464961880551 0.030920439816989904 0.7643611954759434
vn 0.23217970671761262 0.4021462116352222 0.8856472256242678
vn -0.2952488063244583 0.573230512279042 0.7643526163730258
vn 0.4366239061934861 0.2915559041357044 0.8510903120726693
vn 0.03418431902241938 0.5239088850175991 0.8510880756611443
usemtl material_0_0
f 1/1/1 2/2/2 3/3/3
f 1/1/1 3/3/3 4/4/4
f 5/2/5 6/1/5 7/2/5
f 6/1/5 5/2/5 8/1/5
f 2/2/2 9/5/6 3/3/3
f 10/6/7 1/1/1 4/4/4
f 11/7/8 12/1/8 13/1/8
f 12/1/8 11/7/8 14/7/8
f 15/1/9 16/8/9 17/2/9
f 16/8/9 15/1/9 18/7/9
f 19/8/10 20/2/10 21/2/10
f 20/2/10 19/8/10 22/8/10
f 2/2/2 23/9/11 9/5/6
f 24/10/12 1/1/1 10/6/7
f 24/10/12 25/7/13 1/1/1
f 25/7/13 24/10/12 26/11/14
f 27/7/15 28/8/15 29/7/15
f 28/8/15 27/7/15 30/8/15
f 2/2/2 31/12/16 32/13/17
f 31/12/16 2/2/2 33/8/18
f 2/2/2 32/13/17 23/9/11
f 34/14/19 25/7/13 26/11/14
f 35/15/20 33/8/18 25/7/13
f 33/8/18 36/16/21 31/12/16
f 34/14/19 37/17/22 25/7/13
f 35/15/20 38/18/23 33/8/18
f 37/17/22 35/15/20 25/7/13
f 38/18/23 36/16/21 33/8/18
