# SSTK version 0.8.0
# 8
mtllib original-8.mtl
o #ID87
v 0.386506 -0.088177 -0.034585
v 0.391107 -0.065045 0.060425
v 0.391107 -0.065045 -0.034585
v 0.386506 -0.088177 0.060425
v 0.391107 0.070684 0.060425
v 0.391107 0.070684 -0.034585
v 0.386506 0.093816 -0.034585
v 0.391107 -0.065045 -0.034585
v 0.391107 0.070684 -0.034585
v 0.386506 -0.088177 -0.034585
v 0.373403 -0.107788 -0.034585
v 0.373403 0.113426 -0.034585
v 0.353792 0.126530 -0.034585
v 0.353792 -0.120891 -0.034585
v 0.330660 0.131131 -0.034585
v 0.330660 -0.125492 -0.034585
v 0.194931 0.131131 -0.034585
v 0.194931 -0.125492 -0.034585
v 0.171799 0.126530 -0.034585
v 0.171799 -0.120891 -0.034585
v 0.152189 0.113426 -0.034585
v 0.152189 -0.107788 -0.034585
v 0.139085 0.093816 -0.034585
v 0.139085 -0.088177 -0.034585
v 0.134484 0.070684 -0.034585
v 0.134484 -0.065045 -0.034585
v 0.373403 -0.107788 -0.034585
v 0.373403 -0.107788 0.060425
v 0.386506 0.093816 0.060425
v 0.386506 0.093816 -0.034585
v 0.373403 0.113426 0.060425
v 0.353792 0.126530 -0.034585
v 0.373403 0.113426 -0.034585
v 0.353792 0.126530 0.060425
v 0.330660 0.131131 -0.034585
v 0.330660 0.131131 0.060425
v 0.194931 0.131131 -0.034585
v 0.194931 0.131131 0.060425
v 0.171799 0.126530 -0.034585
v 0.171799 0.126530 0.060425
v 0.152189 0.113426 -0.034585
v 0.152189 0.113426 0.060425
v 0.139085 0.093816 0.060425
v 0.139085 0.093816 -0.034585
v 0.134484 0.070684 0.060425
v 0.134484 0.070684 -0.034585
v 0.134484 -0.065045 0.060425
v 0.134484 -0.065045 -0.034585
v 0.139085 -0.088177 0.060425
v 0.139085 -0.088177 -0.034585
v 0.152189 -0.107788 0.060425
v 0.152189 -0.107788 -0.034585
v 0.171799 -0.120891 -0.034585
v 0.171799 -0.120891 0.060425
v 0.194931 -0.125492 -0.034585
v 0.194931 -0.125492 0.060425
v 0.330660 -0.125492 -0.034585
v 0.330660 -0.125492 0.060425
v 0.353792 -0.120891 -0.034585
v 0.353792 -0.120891 0.060425
vt -0.9691077 -0.9865914
vt -0.9697857 -0.99
vt -0.9697857 -1.01
vt -0.9691077 -1.013409
vt -0.9671769 -0.9837018
vt -0.9671769 -1.016298
vt -0.9642872 -1.018229
vt -0.9642872 -0.981771
vt -0.9608786 -1.018907
vt -0.9608786 -0.981093
vt -0.9408786 -1.018907
vt -0.9408786 -0.981093
vt -0.93747 -1.018229
vt -0.93747 -0.981771
vt -0.9345804 -1.016298
vt -0.9345804 -0.9837018
vt -0.9326496 -1.013409
vt -0.9326496 -0.9865914
vt -0.9319716 -1.01
vt -0.9319716 -0.99
vn -0.9238795391929066 0.38268341623423263 0
vn -0.9951847264480945 0.09801714260491001 0
vn -0.9951847264480945 -0.09801714260491001 0
vn 0 0 1
vn -0.7071067811865476 0.7071067811865476 0
vn -0.9238795391929066 -0.38268341623423263 0
vn -0.7071067811865476 -0.7071067811865476 0
vn -0.38268341623423263 -0.9238795391929066 0
vn -0.09801714260491001 -0.9951847264480945 0
vn 0.09801723174024876 -0.9951847176690256 0
vn 0.3826835869449008 -0.9238794684822172 0
vn 0.7071068811865378 -0.7071066811865431 0
vn 0.9238795538375647 -0.3826833808788962 0
vn 0.995184727423546 -0.0980171327009833 0
vn 0.995184727423546 0.0980171327009833 0
vn 0.9238795538375647 0.3826833808788962 0
vn 0.7071068811865378 0.7071066811865431 0
vn 0.3826835869449008 0.9238794684822172 0
vn 0.09801723174024876 0.9951847176690256 0
vn -0.09801714260491001 0.9951847264480945 0
vn -0.38268341623423263 0.9238795391929066 0
usemtl material_0_0
f 1/1/1 2/2/2 3/2/2
f 2/2/2 1/1/1 4/1/1
f 3/2/2 5/3/3 6/3/3
f 5/3/3 3/2/2 2/2/2
f 7/4/4 8/2/4 9/3/4
f 8/2/4 7/4/4 10/1/4
f 10/1/4 7/4/4 11/5/4
f 11/5/4 7/4/4 12/6/4
f 11/5/4 12/6/4 13/7/4
f 11/5/4 13/7/4 14/8/4
f 14/8/4 13/7/4 15/9/4
f 14/8/4 15/9/4 16/10/4
f 16/10/4 15/9/4 17/11/4
f 16/10/4 17/11/4 18/12/4
f 18/12/4 17/11/4 19/13/4
f 18/12/4 19/13/4 20/14/4
f 20/14/4 19/13/4 21/15/4
f 20/14/4 21/15/4 22/16/4
f 22/16/4 21/15/4 23/17/4
f 22/16/4 23/17/4 24/18/4
f 24/18/4 23/17/4 25/19/4
f 24/18/4 25/19/4 26/20/4
f 27/5/5 4/1/1 1/1/1
f 4/1/1 27/5/5 28/5/5
f 6/3/3 29/4/6 30/4/6
f 29/4/6 6/3/3 5/3/3
f 31/6/7 32/7/8 33/6/7
f 32/7/8 31/6/7 34/7/8
f 34/7/8 35/9/9 32/7/8
f 35/9/9 34/7/8 36/9/9
f 36/9/9 37/11/10 35/9/9
f 37/11/10 36/9/9 38/11/10
f 38/11/10 39/13/11 37/11/10
f 39/13/11 38/11/10 40/13/11
f 40/13/11 41/15/12 39/13/11
f 41/15/12 40/13/11 42/15/12
f 43/17/13 41/15/12 42/15/12
f 41/15/12 43/17/13 44/17/13
f 45/19/14 44/17/13 43/17/13
f 44/17/13 45/19/14 46/19/14
f 47/20/15 46/19/14 45/19/14
f 46/19/14 47/20/15 48/20/15
f 49/18/16 48/20/15 47/20/15
f 48/20/15 49/18/16 50/18/16
f 51/16/17 50/18/16 49/18/16
f 50/18/16 51/16/17 52/16/17
f 51/16/17 53/14/18 52/16/17
f 53/14/18 51/16/17 54/14/18
f 54/14/18 55/12/19 53/14/18
f 55/12/19 54/14/18 56/12/19
f 56/12/19 57/10/20 55/12/19
f 57/10/20 56/12/19 58/10/20
f 58/10/20 59/8/21 57/10/20
f 59/8/21 58/10/20 60/8/21
f 60/8/21 27/5/5 59/8/21
f 27/5/5 60/8/21 28/5/5
f 30/4/6 31/6/7 33/6/7
f 31/6/7 30/4/6 29/4/6
