# SSTK version 0.8.0
# 4
mtllib original-4.mtl
o #ID55
v -0.568708 -0.414642 0.060425
v -0.583585 -0.462207 0.049566
v -0.544970 -0.430502 0.060425
v -0.603180 -0.449114 0.049566
v -0.560471 -0.466805 0.049566
v -0.516970 -0.436071 0.060425
v 0.597387 0.396560 0.060425
v 0.602956 -0.362905 0.060425
v 0.602957 0.368560 0.060425
v 0.597387 -0.390905 0.060425
v 0.581527 0.420297 0.060425
v 0.581527 -0.414642 0.060425
v 0.557790 -0.430503 0.060425
v 0.557790 0.436157 0.060425
v 0.529790 -0.436072 0.060425
v 0.529790 0.441726 0.060425
v 0.386506 0.093816 0.060425
v 0.373403 0.113426 0.060425
v 0.353792 0.126530 0.060425
v -0.516970 0.441728 0.060425
v 0.391107 0.070684 0.060425
v 0.330660 0.131131 0.060425
v 0.194931 0.131131 0.060425
v 0.171799 0.126530 0.060425
v 0.152189 0.113426 0.060425
v 0.139085 0.093816 0.060425
v -0.136247 0.235050 0.060425
v 0.134484 0.070684 0.060425
v -0.122336 0.221139 0.060425
v 0.134484 -0.065045 0.060425
v -0.012886 0.005711 0.060425
v -0.009041 -0.008635 0.060425
v -0.023388 0.016214 0.060425
v -0.037735 0.020058 0.060425
v -0.052082 0.016214 0.060425
v -0.062585 0.005711 0.060425
v -0.117245 0.202137 0.060425
v -0.111422 -0.078876 0.060425
v -0.115266 -0.093223 0.060425
v -0.117245 0.083374 0.060425
v -0.155249 0.240141 0.060425
v -0.174251 0.235050 0.060425
v -0.188161 0.221139 0.060425
v -0.193253 0.202137 0.060425
v -0.193253 0.083374 0.060425
v -0.247913 0.005711 0.060425
v -0.199076 -0.078876 0.060425
v -0.195232 -0.093223 0.060425
v -0.258416 0.016214 0.060425
v -0.272763 0.020058 0.060425
v -0.287109 0.016214 0.060425
v -0.297612 0.005711 0.060425
v -0.301456 -0.008635 0.060425
v -0.516970 -0.436071 0.060425
v -0.544970 -0.430502 0.060425
v -0.544970 0.436158 0.060425
v -0.568707 0.420297 0.060425
v -0.568708 -0.414642 0.060425
v -0.584567 0.396560 0.060425
v -0.584568 -0.390905 0.060425
v -0.590137 0.368560 0.060425
v -0.590138 -0.362905 0.060425
v 0.353792 -0.120891 0.060425
v 0.373403 -0.107788 0.060425
v 0.386506 -0.088177 0.060425
v 0.391107 -0.065045 0.060425
v 0.330660 -0.125492 0.060425
v 0.194931 -0.125492 0.060425
v 0.171799 -0.120891 0.060425
v 0.152189 -0.107788 0.060425
v 0.139085 -0.088177 0.060425
v -0.072225 -0.118073 0.060425
v -0.061722 -0.107570 0.060425
v -0.012886 -0.022982 0.060425
v -0.086572 -0.121917 0.060425
v -0.100919 -0.118073 0.060425
v -0.111422 -0.107570 0.060425
v -0.199076 -0.107570 0.060425
v -0.122336 0.064372 0.060425
v -0.136247 0.050462 0.060425
v -0.155249 0.045370 0.060425
v -0.174251 0.050462 0.060425
v -0.188161 0.064372 0.060425
v -0.209579 -0.118073 0.060425
v -0.223926 -0.121917 0.060425
v -0.238273 -0.118073 0.060425
v -0.248776 -0.107570 0.060425
v -0.297612 -0.022982 0.060425
v -0.584568 -0.390905 0.060425
v -0.616273 -0.429519 0.049566
v 0.529790 -0.436072 0.060425
v 0.573291 -0.466805 0.049566
v 0.629092 0.435175 0.049566
v 0.602957 0.368560 0.060425
v 0.633690 0.412061 0.049566
v 0.597387 0.396560 0.060425
v 0.615999 0.454770 0.049566
v 0.581527 0.420297 0.060425
v 0.596404 0.467863 0.049566
v 0.557790 0.436157 0.060425
v 0.573291 0.472461 0.049566
v 0.529790 0.441726 0.060425
v -0.560471 0.472461 0.049566
v -0.516970 0.441728 0.060425
v -0.544970 0.436158 0.060425
v -0.583585 0.467863 0.049566
v -0.568707 0.420297 0.060425
v -0.603180 0.454770 0.049566
v -0.584567 0.396560 0.060425
v -0.616273 0.435175 0.049566
v -0.590137 0.368560 0.060425
v -0.620870 0.412061 0.049566
v -0.590138 -0.362905 0.060425
v -0.620870 -0.406406 0.049566
v 0.557790 -0.430503 0.060425
v 0.596404 -0.462207 0.049566
v 0.581527 -0.414642 0.060425
v 0.615999 -0.449114 0.049566
v 0.597387 -0.390905 0.060425
v 0.629092 -0.429519 0.049566
v 0.602956 -0.362905 0.060425
v 0.633690 -0.406406 0.049566
vt -0.829315 -0.9394664
vt -0.8271227 -0.9324575
vt -0.8328127 -0.9371293
vt -0.8242354 -0.9343868
vt -0.8305286 -0.93178
vt -0.8369386 -0.9363087
vt -1.000182 -1.058019
vt -1.001002 -0.9461096
vt -1.001002 -1.053893
vt -1.000182 -0.9419837
vt -0.9978445 -1.061516
vt -0.9978445 -0.9384859
vt -0.9943468 -0.9361488
vt -0.9943468 -1.063853
vt -0.9902209 -0.9353281
vt -0.9902209 -1.064674
vt -0.9691077 -1.013409
vt -0.9671769 -1.016298
vt -0.9642872 -1.018229
vt -0.835978 -1.064674
vt -0.9697857 -1.01
vt -0.9608786 -1.018907
vt -0.9408786 -1.018907
vt -0.93747 -1.018229
vt -0.9345804 -1.016298
vt -0.9326496 -1.013409
vt -0.8920786 -1.03422
vt -0.9319716 -1.01
vt -0.8941284 -1.03217
vt -0.9319716 -0.99
vt -0.9102562 -1.000426
vt -0.9108227 -0.9983121
vt -0.9087086 -1.001974
vt -0.9065946 -1.00254
vt -0.9044805 -1.001974
vt -0.9029329 -1.000426
vt -0.8948786 -1.02937
vt -0.8957367 -0.987962
vt -0.8951702 -0.9858479
vt -0.8948786 -1.01187
vt -0.8892786 -1.03497
vt -0.8864786 -1.03422
vt -0.8844289 -1.03217
vt -0.8836786 -1.02937
vt -0.8836786 -1.01187
vt -0.8756243 -1.000426
vt -0.8828205 -0.987962
vt -0.883387 -0.9858479
vt -0.8740767 -1.001974
vt -0.8719627 -1.00254
vt -0.8698486 -1.001974
vt -0.868301 -1.000426
vt -0.8677346 -0.9983121
vt -0.835978 -0.9353283
vt -0.8318521 -0.9361489
vt -0.8318522 -1.063854
vt -0.8283545 -1.061516
vt -0.8283544 -0.938486
vt -0.8260174 -1.058019
vt -0.8260172 -0.9419837
vt -0.8251967 -1.053893
vt -0.8251966 -0.9461096
vt -0.9642872 -0.981771
vt -0.9671769 -0.9837018
vt -0.9691077 -0.9865914
vt -0.9697857 -0.99
vt -0.9608786 -0.981093
vt -0.9408786 -0.981093
vt -0.93747 -0.981771
vt -0.9345804 -0.9837018
vt -0.9326496 -0.9865914
vt -0.9015124 -0.9821862
vt -0.90306 -0.9837338
vt -0.9102562 -0.996198
vt -0.8993984 -0.9816198
vt -0.8972843 -0.9821862
vt -0.8957367 -0.9837338
vt -0.8828205 -0.9837338
vt -0.8941284 -1.00907
vt -0.8920786 -1.00702
vt -0.8892786 -1.00627
vt -0.8864786 -1.00702
vt -0.8844289 -1.00907
vt -0.8812729 -0.9821862
vt -0.8791589 -0.9816198
vt -0.8770448 -0.9821862
vt -0.8754972 -0.9837338
vt -0.868301 -0.996198
vt -0.8269778 -0.9429641
vt -0.8223061 -0.9372741
vt -0.9902209 -0.9363085
vt -0.829568 -0.93178
vt -0.9966309 -0.93178
vt -0.835978 -0.9363087
vt -1.003851 -1.062726
vt -1 -1.05291
vt -1.004529 -1.05932
vt -0.9991793 -1.057036
vt -1.001922 -1.065613
vt -0.9968422 -1.060534
vt -0.9990345 -1.067543
vt -0.9933445 -1.062871
vt -0.9956286 -1.06822
vt -0.9892186 -1.063691
vt -0.829568 -1.06822
vt -0.9902209 -1.063691
vt -0.9966309 -1.06822
vt -0.835978 -1.063691
vt -0.8305286 -1.06822
vt -0.8328128 -1.062871
vt -0.8369386 -1.063691
vt -0.8271227 -1.067543
vt -0.8293151 -1.060534
vt -0.8242354 -1.065613
vt -0.826978 -1.057036
vt -0.8223061 -1.062726
vt -0.8261573 -1.05291
vt -0.8216286 -1.05932
vt -0.8216286 -1.060303
vt -0.8261572 -0.9461096
vt -0.8261573 -1.053893
vt -0.8216286 -0.9396996
vt -0.8261572 -0.94709
vt -0.8216286 -0.94068
vt -0.9933445 -0.9371292
vt -0.9956286 -0.93178
vt -0.9990345 -0.9324575
vt -0.9892186 -0.9363085
vt -0.9968422 -0.9394664
vt -1.001922 -0.9343867
vt -0.9991793 -0.9429641
vt -1.003851 -0.9372741
vt -0.9999999 -0.94709
vt -1.004529 -0.94068
vt -1 -1.053893
vt -1.004529 -0.9396996
vt -1.004529 -1.060303
vt -0.9999999 -0.9461096
vn -0.15372409260160855 -0.15372559260153634 0.9760826530233586
vn -0.10019900063636887 -0.21096890133987406 0.9723437061754037
vn -0.07848654033657887 -0.236113101012539 0.9685507041534983
vn -0.15372399260158878 -0.15372569260150695 0.9760826530232026
vn -0.04132586972685776 -0.28032999814716636 0.9590136936614244
vn -0.013177660249906914 -0.3164642060015656 0.9485129179880138
vn 0 0 1
vn -0.2361153940263058 -0.07848986801421473 0.9685498754957917
vn -0.2109695095567787 -0.10020220453909334 0.9723432440465033
vn 0.013178189737348954 -0.31646519369261517 0.9485125810954443
vn 0.04132895950974799 -0.28033229667464477 0.959012888624006
vn 0.21096659714908392 0.10020209864590993 0.9723438868601434
vn 0.3164645013862367 0.01317876005772806 0.9485128041548525
vn 0.2803296963559951 0.041330379462746515 0.9590135875337851
vn 0.23611169751970995 0.07849093917547373 0.9685506898256349
vn 0.15372229792355535 0.1537239979235324 0.9760831868152978
vn 0.15372230028663522 0.15372390028663818 0.976083201820034
vn 0.1001988968569921 0.21096589338248736 0.9723443694998037
vn 0.07848760155898474 0.23610940468979746 0.9685515192381599
vn 0.04132729150901227 0.28032691023577233 0.9590145350171678
vn 0.01317829014513769 0.31646300348533146 0.94851331044635
vn -0.04133033021896625 0.2803293014851722 0.959013705080812
vn -0.013178799636038196 0.31646399126014446 0.948512973804709
vn -0.07849085762588158 0.23611139285832233 0.9685507707041777
vn -0.1002021028737673 0.21096640605045544 0.9723439278865423
vn -0.15372390028663818 0.15372230028663522 0.976083201820034
vn -0.1537239026497166 0.1537222026496873 0.9760832168246049
vn -0.23610949948566423 0.07848757982902438 0.9685514978901286
vn -0.21096598893182053 0.10019889474313677 0.9723443489866503
vn -0.316463393234178 0.013178339718253983 0.9485131797212837
vn -0.28032730557039237 0.04132730082121604 0.9590144190566046
vn -0.3164657039436399 -0.013178120164219247 0.948512411819895
vn -0.2803328111499838 -0.04132896164382204 0.9590127381438637
vn 0.0784898280715666 -0.2361149941988401 0.9685499762034881
vn 0.10020210214192317 -0.2109692045096841 0.9723433207848403
vn 0.1537254996909541 -0.15372389969095732 0.9760826980377078
vn 0.15372559732779872 -0.1537238973278283 0.9760826830328233
vn 0.2361131952522793 -0.07848654842180693 0.9685506805245611
vn 0.2109688057906581 -0.10019900275025573 0.9723437266888276
vn 0.31646459566681595 -0.013177729819564245 0.9485127870125111
vn 0.28033030076061816 -0.041325930112129344 0.9590136026020846
usemtl material_0_0
f 1/1/1 2/2/2 3/3/3
f 2/2/2 1/1/1 4/4/4
f 3/3/3 5/5/5 6/6/6
f 5/5/5 3/3/3 2/2/2
f 7/7/7 8/8/7 9/9/7
f 8/8/7 7/7/7 10/10/7
f 10/10/7 7/7/7 11/11/7
f 10/10/7 11/11/7 12/12/7
f 12/12/7 11/11/7 13/13/7
f 13/13/7 11/11/7 14/14/7
f 13/13/7 14/14/7 15/15/7
f 15/15/7 14/14/7 16/16/7
f 15/15/7 16/16/7 17/17/7
f 17/17/7 16/16/7 18/18/7
f 18/18/7 16/16/7 19/19/7
f 19/19/7 16/16/7 20/20/7
f 15/15/7 17/17/7 21/21/7
f 19/19/7 20/20/7 22/22/7
f 22/22/7 20/20/7 23/23/7
f 23/23/7 20/20/7 24/24/7
f 24/24/7 20/20/7 25/25/7
f 25/25/7 20/20/7 26/26/7
f 26/26/7 20/20/7 27/27/7
f 26/26/7 27/27/7 28/28/7
f 28/28/7 27/27/7 29/29/7
f 28/28/7 29/29/7 30/30/7
f 30/30/7 29/29/7 31/31/7
f 30/30/7 31/31/7 32/32/7
f 31/31/7 29/29/7 33/33/7
f 33/33/7 29/29/7 34/34/7
f 34/34/7 29/29/7 35/35/7
f 35/35/7 29/29/7 36/36/7
f 36/36/7 29/29/7 37/37/7
f 36/36/7 37/37/7 38/38/7
f 38/38/7 37/37/7 39/39/7
f 39/39/7 37/37/7 40/40/7
f 27/27/7 20/20/7 41/41/7
f 41/41/7 20/20/7 42/42/7
f 42/42/7 20/20/7 43/43/7
f 43/43/7 20/20/7 44/44/7
f 44/44/7 20/20/7 45/45/7
f 45/45/7 20/20/7 46/46/7
f 45/45/7 46/46/7 47/47/7
f 45/45/7 47/47/7 48/48/7
f 46/46/7 20/20/7 49/49/7
f 49/49/7 20/20/7 50/50/7
f 50/50/7 20/20/7 51/51/7
f 51/51/7 20/20/7 52/52/7
f 52/52/7 20/20/7 53/53/7
f 53/53/7 20/20/7 54/54/7
f 54/54/7 20/20/7 55/55/7
f 55/55/7 20/20/7 56/56/7
f 55/55/7 56/56/7 57/57/7
f 55/55/7 57/57/7 58/58/7
f 58/58/7 57/57/7 59/59/7
f 58/58/7 59/59/7 60/60/7
f 60/60/7 59/59/7 61/61/7
f 60/60/7 61/61/7 62/62/7
f 15/15/7 63/63/7 54/54/7
f 63/63/7 15/15/7 64/64/7
f 64/64/7 15/15/7 65/65/7
f 65/65/7 15/15/7 66/66/7
f 66/66/7 15/15/7 21/21/7
f 54/54/7 63/63/7 67/67/7
f 54/54/7 67/67/7 68/68/7
f 54/54/7 68/68/7 69/69/7
f 54/54/7 69/69/7 70/70/7
f 54/54/7 70/70/7 71/71/7
f 54/54/7 71/71/7 30/30/7
f 54/54/7 30/30/7 72/72/7
f 72/72/7 30/30/7 73/73/7
f 73/73/7 30/30/7 74/74/7
f 74/74/7 30/30/7 32/32/7
f 54/54/7 72/72/7 75/75/7
f 54/54/7 75/75/7 76/76/7
f 54/54/7 76/76/7 77/77/7
f 54/54/7 77/77/7 39/39/7
f 54/54/7 39/39/7 78/78/7
f 78/78/7 39/39/7 79/79/7
f 79/79/7 39/39/7 40/40/7
f 78/78/7 79/79/7 80/80/7
f 78/78/7 80/80/7 81/81/7
f 78/78/7 81/81/7 48/48/7
f 48/48/7 81/81/7 82/82/7
f 48/48/7 82/82/7 83/83/7
f 48/48/7 83/83/7 45/45/7
f 54/54/7 78/78/7 84/84/7
f 54/54/7 84/84/7 85/85/7
f 54/54/7 85/85/7 86/86/7
f 54/54/7 86/86/7 87/87/7
f 54/54/7 87/87/7 88/88/7
f 54/54/7 88/88/7 53/53/7
f 89/89/8 4/4/4 1/1/1
f 4/4/4 89/89/8 90/90/9
f 91/91/10 5/92/5 92/93/11
f 5/92/5 91/91/10 6/94/6
f 93/95/12 94/96/13 95/97/14
f 94/96/13 93/95/12 96/98/15
f 97/99/16 96/98/15 93/95/12
f 96/98/15 97/99/16 98/100/17
f 99/101/18 98/100/17 97/99/16
f 98/100/17 99/101/18 100/102/19
f 101/103/20 100/102/19 99/101/18
f 100/102/19 101/103/20 102/104/21
f 103/105/22 102/106/21 101/107/20
f 102/106/21 103/105/22 104/108/23
f 103/109/22 105/110/24 104/111/23
f 105/110/24 103/109/22 106/112/25
f 106/112/25 107/113/26 105/110/24
f 107/113/26 106/112/25 108/114/27
f 108/114/27 109/115/28 107/113/26
f 109/115/28 108/114/27 110/116/29
f 110/116/29 111/117/30 109/115/28
f 111/117/30 110/116/29 112/118/31
f 112/119/31 113/120/32 111/121/30
f 113/120/32 112/119/31 114/122/33
f 113/123/32 90/90/9 89/89/8
f 90/90/9 113/123/32 114/124/33
f 115/125/34 92/126/11 116/127/35
f 92/126/11 115/125/34 91/128/10
f 117/129/36 116/127/35 118/130/37
f 116/127/35 117/129/36 115/125/34
f 119/131/38 118/130/37 120/132/39
f 118/130/37 119/131/38 117/129/36
f 121/133/40 120/132/39 122/134/41
f 120/132/39 121/133/40 119/131/38
f 94/135/13 122/136/41 95/137/14
f 122/136/41 94/135/13 121/138/40
