# SSTK version 0.8.0
# 4
mtllib original-4.mtl
o #ID56
v -0.560870 -0.392922 0.061572
v -0.575760 -0.440525 0.050706
v -0.537115 -0.408794 0.061572
v -0.595370 -0.427421 0.050706
v -0.552628 -0.445126 0.050706
v -0.509092 -0.414368 0.061572
v -0.166257 0.133861 0.061572
v -0.180319 -0.191926 0.061572
v -0.180319 -0.327761 0.061572
v -0.215132 0.049207 0.061572
v -0.184924 -0.168776 0.061572
v -0.198038 -0.149150 0.061572
v -0.217664 -0.136037 0.061572
v -0.225643 0.038696 0.061572
v -0.240814 -0.131432 0.061572
v -0.240001 0.034849 0.061572
v -0.254359 0.038696 0.061572
v -0.376649 -0.131432 0.061572
v -0.264870 0.049207 0.061572
v -0.268717 0.063565 0.061572
v -0.275793 0.221284 0.061572
v -0.270698 0.240301 0.061572
v -0.289715 0.207363 0.061572
v -0.308732 0.202267 0.061572
v -0.327748 0.207363 0.061572
v -0.348746 0.063565 0.061572
v -0.341670 0.221284 0.061572
v -0.346765 0.240301 0.061572
v -0.346765 0.359157 0.061572
v -0.352593 0.049207 0.061572
v -0.363104 0.038696 0.061572
v -0.377462 0.034849 0.061572
v -0.399799 -0.136037 0.061572
v -0.391821 0.038696 0.061572
v -0.402331 0.049207 0.061572
v -0.419425 -0.149150 0.061572
v -0.451206 0.133861 0.061572
v -0.432539 -0.168776 0.061572
v -0.437144 -0.191926 0.061572
v -0.437144 -0.327761 0.061572
v -0.040451 0.418916 0.061572
v -0.034879 -0.341144 0.061572
v -0.034877 0.390894 0.061572
v -0.040452 -0.369166 0.061572
v -0.056325 0.442671 0.061572
v -0.056325 -0.392922 0.061572
v -0.080081 0.458544 0.061572
v -0.080081 -0.408795 0.061572
v -0.108102 0.464118 0.061572
v -0.108103 -0.414369 0.061572
v -0.162409 0.148219 0.061572
v -0.166257 0.162577 0.061572
v -0.275793 0.378174 0.061572
v -0.289715 0.392095 0.061572
v -0.509092 0.464119 0.061572
v -0.176768 0.173088 0.061572
v -0.191126 0.176936 0.061572
v -0.205484 0.173088 0.061572
v -0.215995 0.162577 0.061572
v -0.270698 0.359157 0.061572
v -0.264870 0.077924 0.061572
v -0.308732 0.397191 0.061572
v -0.327748 0.392095 0.061572
v -0.341670 0.378174 0.061572
v -0.352593 0.077924 0.061572
v -0.401468 0.162577 0.061572
v -0.411979 0.173088 0.061572
v -0.426337 0.176936 0.061572
v -0.440695 0.173088 0.061572
v -0.451206 0.162577 0.061572
v -0.455054 0.148219 0.061572
v -0.240814 -0.388256 0.061572
v -0.509092 -0.414368 0.061572
v -0.217664 -0.383651 0.061572
v -0.198038 -0.370537 0.061572
v -0.184924 -0.350911 0.061572
v -0.376649 -0.388256 0.061572
v -0.399799 -0.383651 0.061572
v -0.419425 -0.370537 0.061572
v -0.432539 -0.350911 0.061572
v -0.537114 0.458545 0.061572
v -0.537115 -0.408794 0.061572
v -0.560869 0.442672 0.061572
v -0.560870 -0.392922 0.061572
v -0.576742 0.418916 0.061572
v -0.576744 -0.369166 0.061572
v -0.582316 0.390894 0.061572
v -0.582318 -0.341144 0.061572
v -0.576744 -0.369166 0.061572
v -0.608473 -0.407811 0.050706
v -0.108103 -0.414369 0.061572
v -0.064567 -0.445126 0.050706
v -0.080081 -0.408795 0.061572
v -0.041435 -0.440525 0.050706
v -0.056325 -0.392922 0.061572
v -0.021825 -0.427421 0.050706
v -0.040452 -0.369166 0.061572
v -0.008722 -0.407811 0.050706
v -0.034879 -0.341144 0.061572
v -0.004121 -0.384679 0.050706
v -0.034877 0.390894 0.061572
v -0.004120 0.434429 0.050706
v -0.008722 0.457561 0.050706
v -0.040451 0.418916 0.061572
v -0.021825 0.477172 0.050706
v -0.056325 0.442671 0.061572
v -0.041435 0.490275 0.050706
v -0.080081 0.458544 0.061572
v -0.064567 0.494876 0.050706
v -0.108102 0.464118 0.061572
v -0.552627 0.494876 0.050706
v -0.509092 0.464119 0.061572
v -0.537114 0.458545 0.061572
v -0.575759 0.490275 0.050706
v -0.560869 0.442672 0.061572
v -0.595370 0.477172 0.050706
v -0.576742 0.418916 0.061572
v -0.608473 0.457561 0.050706
v -0.582316 0.390894 0.061572
v -0.613074 0.434429 0.050706
v -0.582318 -0.341144 0.061572
v -0.613074 -0.384679 0.050706
vt -0.8283544 -0.9384884
vt -0.8261621 -0.9314795
vt -0.8318521 -0.9361513
vt -0.8232748 -0.9334088
vt -0.829568 -0.930802
vt -0.835978 -0.9353307
vt -0.8864562 -1.016048
vt -0.8843857 -0.96808
vt -0.8843857 -0.94808
vt -0.87926 -1.003584
vt -0.8837077 -0.9714886
vt -0.8817769 -0.9743782
vt -0.8788872 -0.976309
vt -0.8777124 -1.002036
vt -0.8754786 -0.976987
vt -0.8755984 -1.00147
vt -0.8734843 -1.002036
vt -0.8554786 -0.976987
vt -0.8719367 -1.003584
vt -0.8713702 -1.005698
vt -0.8703284 -1.02892
vt -0.8710786 -1.03172
vt -0.8682786 -1.02687
vt -0.8654786 -1.02612
vt -0.8626786 -1.02687
vt -0.859587 -1.005698
vt -0.8606289 -1.02892
vt -0.8598786 -1.03172
vt -0.8598786 -1.04922
vt -0.8590205 -1.003584
vt -0.8574729 -1.002036
vt -0.8553589 -1.00147
vt -0.85207 -0.976309
vt -0.8532448 -1.002036
vt -0.8516972 -1.003584
vt -0.8491804 -0.9743782
vt -0.844501 -1.016048
vt -0.8472496 -0.9714886
vt -0.8465716 -0.96808
vt -0.8465716 -0.94808
vt -0.9049795 -1.058019
vt -0.9058 -0.9461096
vt -0.9058002 -1.053893
vt -0.9049794 -0.9419837
vt -0.9026423 -1.061516
vt -0.9026423 -0.9384859
vt -0.8991446 -1.063853
vt -0.8991446 -0.9361488
vt -0.8950187 -1.064674
vt -0.8950187 -0.9353281
vt -0.8870227 -1.018162
vt -0.8864562 -1.020276
vt -0.8703284 -1.05202
vt -0.8682786 -1.05407
vt -0.8359781 -1.064674
vt -0.8849086 -1.021824
vt -0.8827946 -1.02239
vt -0.8806805 -1.021824
vt -0.8791329 -1.020276
vt -0.8710786 -1.04922
vt -0.8719367 -1.007812
vt -0.8654786 -1.05482
vt -0.8626786 -1.05407
vt -0.8606289 -1.05202
vt -0.8590205 -1.007812
vt -0.8518243 -1.020276
vt -0.8502767 -1.021824
vt -0.8481627 -1.02239
vt -0.8460486 -1.021824
vt -0.844501 -1.020276
vt -0.8439346 -1.018162
vt -0.8754786 -0.939173
vt -0.835978 -0.9353283
vt -0.8788872 -0.939851
vt -0.8817769 -0.9417818
vt -0.8837077 -0.9446714
vt -0.8554786 -0.939173
vt -0.85207 -0.939851
vt -0.8491804 -0.9417818
vt -0.8472496 -0.9446714
vt -0.8318522 -1.063854
vt -0.8318521 -0.9361489
vt -0.8283545 -1.061516
vt -0.8283544 -0.938486
vt -0.8260174 -1.058019
vt -0.8260172 -0.9419837
vt -0.8251968 -1.053893
vt -0.8251965 -0.9461096
vt -0.8260172 -0.9419861
vt -0.8213455 -0.9362961
vt -0.829568 -0.9307996
vt -0.9014287 -0.9307996
vt -0.8991446 -0.9361512
vt -0.9014287 -0.930802
vt -0.9048346 -0.9314795
vt -0.8950187 -0.9353305
vt -0.9026423 -0.9384884
vt -0.907722 -0.9334088
vt -0.9049794 -0.9419861
vt -0.9096512 -0.9362961
vt -0.9058 -0.946112
vt -0.9103287 -0.939702
vt -0.9103287 -0.9396996
vt -0.9103287 -1.060303
vt -0.9096513 -1.063709
vt -0.907722 -1.066596
vt -0.9048346 -1.068525
vt -0.9014287 -1.069203
vt -0.829568 -1.069203
vt -0.835978 -1.064674
vt -0.8261622 -1.068525
vt -0.8232748 -1.066596
vt -0.8213455 -1.063709
vt -0.8206681 -1.060303
vt -0.820668 -0.9396996
vt -0.8251965 -0.946112
vt -0.820668 -0.939702
vn -0.15372409260160855 -0.15372559260153634 0.9760826530233586
vn -0.10019900063636887 -0.21096890133987406 0.9723437061754037
vn -0.07848654033657887 -0.236113101012539 0.9685507041534983
vn -0.15372399260158878 -0.15372569260150695 0.9760826530232026
vn -0.041325889692701054 -0.2803299979154687 0.9590136928687828
vn -0.013177710241225276 -0.31646420579305234 0.9485129173630537
vn 1.719426999999972e-7 5.428136999999912e-8 1
vn -0.2361153940263058 -0.07848986801421473 0.9685498754957917
vn -0.2109695095567787 -0.10020220453909334 0.9723432440465033
vn 0.01317812974776996 -0.3164651939428409 0.9485125818454234
vn 0.041328949526828945 -0.2803322967905032 0.9590128890203562
vn 0.0784898280715666 -0.2361149941988401 0.9685499762034881
vn 0.10020210214192317 -0.2109692045096841 0.9723433207848403
vn 0.1537254996909541 -0.15372389969095732 0.9760826980377078
vn 0.15372559732779872 -0.1537238973278283 0.9760826830328233
vn 0.2361131952522793 -0.07848654842180693 0.9685506805245611
vn 0.2109688057906581 -0.10019900275025573 0.9723437266888276
vn 0.3164645955417073 -0.013177759814354241 0.9485127866375334
vn 0.28033030076061816 -0.041325930112129344 0.9590136026020846
vn 0.3164645015530609 0.013178720064675041 0.9485128046548607
vn 0.2803296964718564 0.04133036947982864 0.959013587930149
vn 0.21096659714908392 0.10020209864590993 0.9723438868601434
vn 0.23611169751970995 0.07849093917547373 0.9685506898256349
vn 0.15372229792355535 0.1537239979235324 0.9760831868152978
vn 0.15372230028663522 0.15372390028663818 0.976083201820034
vn 0.1001988968569921 0.21096589338248736 0.9723443694998037
vn 0.07848760155898474 0.23610940468979746 0.9685515192381599
vn 0.04132738135529999 0.28032690919310743 0.959014531450151
vn 0.013178610089565643 0.31646300215077405 0.9485133064463706
vn -0.04133024037270293 0.28032930252792027 0.9590137086480799
vn -0.013178469693359805 0.3164639926364303 0.9485129779297438
vn -0.07849085762588158 0.23611139285832233 0.9685507707041777
vn -0.1002021028737673 0.21096640605045544 0.9723439278865423
vn -0.15372390028663818 0.15372230028663522 0.976083201820034
vn -0.1537239026497166 0.1537222026496873 0.9760832168246049
vn -0.23610949948566423 0.07848757982902438 0.9685514978901286
vn -0.21096598893182053 0.10019889474313677 0.9723443489866503
vn -0.3164633927754253 0.013178449699147844 0.948513178346297
vn -0.2803273052228371 0.04132733076997821 0.9590144178675997
vn -0.3164657044023845 -0.013178010183320552 0.9485124131948462
vn -0.280332811381701 -0.041328941677982886 0.9590127389365635
usemtl material_0_0
f 1/1/1 2/2/2 3/3/3
f 2/2/2 1/1/1 4/4/4
f 3/3/3 5/5/5 6/6/6
f 5/5/5 3/3/3 2/2/2
f 7/7/7 8/8/7 9/9/7
f 8/8/7 7/7/7 10/10/7
f 8/8/7 10/10/7 11/11/7
f 11/11/7 10/10/7 12/12/7
f 12/12/7 10/10/7 13/13/7
f 13/13/7 10/10/7 14/14/7
f 13/13/7 14/14/7 15/15/7
f 15/15/7 14/14/7 16/16/7
f 15/15/7 16/16/7 17/17/7
f 15/15/7 17/17/7 18/18/7
f 18/18/7 17/17/7 19/19/7
f 18/18/7 19/19/7 20/20/7
f 18/18/7 20/20/7 21/21/7
f 21/21/7 20/20/7 22/22/7
f 18/18/7 21/21/7 23/23/7
f 18/18/7 23/23/7 24/24/7
f 18/18/7 24/24/7 25/25/7
f 18/18/7 25/25/7 26/26/7
f 26/26/7 25/25/7 27/27/7
f 26/26/7 27/27/7 28/28/7
f 26/26/7 28/28/7 29/29/7
f 18/18/7 26/26/7 30/30/7
f 18/18/7 30/30/7 31/31/7
f 18/18/7 31/31/7 32/32/7
f 18/18/7 32/32/7 33/33/7
f 33/33/7 32/32/7 34/34/7
f 33/33/7 34/34/7 35/35/7
f 33/33/7 35/35/7 36/36/7
f 36/36/7 35/35/7 37/37/7
f 36/36/7 37/37/7 38/38/7
f 38/38/7 37/37/7 39/39/7
f 39/39/7 37/37/7 40/40/7
f 41/41/7 42/42/7 43/43/7
f 42/42/7 41/41/7 44/44/7
f 44/44/7 41/41/7 45/45/7
f 44/44/7 45/45/7 46/46/7
f 46/46/7 45/45/7 47/47/7
f 46/46/7 47/47/7 48/48/7
f 48/48/7 47/47/7 49/49/7
f 48/48/7 49/49/7 50/50/7
f 50/50/7 49/49/7 51/51/7
f 51/51/7 49/49/7 52/52/7
f 52/52/7 49/49/7 53/53/7
f 53/53/7 49/49/7 54/54/7
f 54/54/7 49/49/7 55/55/7
f 52/52/7 53/53/7 56/56/7
f 56/56/7 53/53/7 57/57/7
f 57/57/7 53/53/7 58/58/7
f 58/58/7 53/53/7 59/59/7
f 59/59/7 53/53/7 60/60/7
f 59/59/7 60/60/7 61/61/7
f 61/61/7 60/60/7 20/20/7
f 20/20/7 60/60/7 22/22/7
f 54/54/7 55/55/7 62/62/7
f 62/62/7 55/55/7 63/63/7
f 63/63/7 55/55/7 64/64/7
f 64/64/7 55/55/7 29/29/7
f 29/29/7 55/55/7 65/65/7
f 29/29/7 65/65/7 26/26/7
f 65/65/7 55/55/7 66/66/7
f 66/66/7 55/55/7 67/67/7
f 67/67/7 55/55/7 68/68/7
f 68/68/7 55/55/7 69/69/7
f 69/69/7 55/55/7 70/70/7
f 70/70/7 55/55/7 71/71/7
f 50/50/7 72/72/7 73/73/7
f 72/72/7 50/50/7 74/74/7
f 74/74/7 50/50/7 75/75/7
f 75/75/7 50/50/7 76/76/7
f 76/76/7 50/50/7 9/9/7
f 9/9/7 50/50/7 51/51/7
f 9/9/7 51/51/7 7/7/7
f 73/73/7 72/72/7 77/77/7
f 73/73/7 77/77/7 78/78/7
f 73/73/7 78/78/7 79/79/7
f 73/73/7 79/79/7 80/80/7
f 73/73/7 80/80/7 40/40/7
f 73/73/7 40/40/7 37/37/7
f 73/73/7 37/37/7 71/71/7
f 73/73/7 71/71/7 55/55/7
f 73/73/7 55/55/7 81/81/7
f 73/73/7 81/81/7 82/82/7
f 82/82/7 81/81/7 83/83/7
f 82/82/7 83/83/7 84/84/7
f 84/84/7 83/83/7 85/85/7
f 84/84/7 85/85/7 86/86/7
f 86/86/7 85/85/7 87/87/7
f 86/86/7 87/87/7 88/88/7
f 89/89/8 4/4/4 1/1/1
f 4/4/4 89/89/8 90/90/9
f 91/50/10 5/91/5 92/92/11
f 5/91/5 91/50/10 6/73/6
f 93/93/12 92/94/11 94/95/13
f 92/94/11 93/93/12 91/96/10
f 95/97/14 94/95/13 96/98/15
f 94/95/13 95/97/14 93/93/12
f 97/99/16 96/98/15 98/100/17
f 96/98/15 97/99/16 95/97/14
f 99/101/18 98/100/17 100/102/19
f 98/100/17 99/101/18 97/99/16
f 101/43/20 100/103/19 102/104/21
f 100/103/19 101/43/20 99/42/18
f 103/105/22 101/43/20 102/104/21
f 101/43/20 103/105/22 104/41/23
f 105/106/24 104/41/23 103/105/22
f 104/41/23 105/106/24 106/45/25
f 107/107/26 106/45/25 105/106/24
f 106/45/25 107/107/26 108/47/27
f 109/108/28 108/47/27 107/107/26
f 108/47/27 109/108/28 110/49/29
f 111/109/30 110/49/29 109/108/28
f 110/49/29 111/109/30 112/55/31
f 111/109/30 113/81/32 112/110/31
f 113/81/32 111/109/30 114/111/33
f 114/111/33 115/83/34 113/81/32
f 115/83/34 114/111/33 116/112/35
f 116/112/35 117/85/36 115/83/34
f 117/85/36 116/112/35 118/113/37
f 118/113/37 119/87/38 117/85/36
f 119/87/38 118/113/37 120/114/39
f 120/114/39 121/88/40 119/87/38
f 121/88/40 120/114/39 122/115/41
f 121/116/40 90/90/9 89/89/8
f 90/90/9 121/116/40 122/117/41
