# SSTK version 0.8.0
# 11
mtllib original-11.mtl
o #ID112
v 0.466256 0.092784 -0.033512
v 0.461651 -0.066201 -0.033512
v 0.466256 -0.043051 -0.033512
v 0.461651 0.115935 -0.033512
v 0.448537 -0.085827 -0.033512
v 0.448537 0.135560 -0.033512
v 0.428911 -0.098940 -0.033512
v 0.428911 0.148674 -0.033512
v 0.405761 0.153279 -0.033512
v 0.405761 -0.103545 -0.033512
v 0.269926 0.153279 -0.033512
v 0.269926 -0.103545 -0.033512
v 0.246776 0.148674 -0.033512
v 0.246776 -0.098940 -0.033512
v 0.227150 -0.085827 -0.033512
v 0.227150 0.135560 -0.033512
v 0.214037 -0.066201 -0.033512
v 0.214037 0.115935 -0.033512
v 0.209432 -0.043051 -0.033512
v 0.209432 0.092784 -0.033512
vt -0.9795857 -1.01
vt -0.9789077 -0.9865914
vt -0.9795857 -0.99
vt -0.9789077 -1.013409
vt -0.9769769 -0.9837018
vt -0.9769769 -1.016298
vt -0.9740872 -0.981771
vt -0.9740872 -1.018229
vt -0.9706786 -1.018907
vt -0.9706786 -0.981093
vt -0.9506786 -1.018907
vt -0.9506786 -0.981093
vt -0.94727 -1.018229
vt -0.94727 -0.981771
vt -0.9443804 -0.9837018
vt -0.9443804 -1.016298
vt -0.9424496 -0.9865914
vt -0.9424496 -1.013409
vt -0.9417716 -0.99
vt -0.9417716 -1.01
vn 0 0 1
usemtl material_0_0
f 1/1/1 2/2/1 3/3/1
f 2/2/1 1/1/1 4/4/1
f 2/2/1 4/4/1 5/5/1
f 5/5/1 4/4/1 6/6/1
f 5/5/1 6/6/1 7/7/1
f 7/7/1 6/6/1 8/8/1
f 7/7/1 8/8/1 9/9/1
f 7/7/1 9/9/1 10/10/1
f 10/10/1 9/9/1 11/11/1
f 10/10/1 11/11/1 12/12/1
f 12/12/1 11/11/1 13/13/1
f 12/12/1 13/13/1 14/14/1
f 14/14/1 13/13/1 15/15/1
f 15/15/1 13/13/1 16/16/1
f 15/15/1 16/16/1 17/17/1
f 17/17/1 16/16/1 18/18/1
f 17/17/1 18/18/1 19/19/1
f 19/19/1 18/18/1 20/20/1
