# SSTK version 0.8.0
# 10
mtllib original-10.mtl
o #ID104
v 0.466256 -0.043051 -0.033512
v 0.461651 -0.066201 0.061572
v 0.466256 -0.043051 0.061572
v 0.461651 -0.066201 -0.033512
v 0.466256 0.092784 -0.033512
v 0.466256 0.092784 0.061572
v 0.448537 -0.085827 0.061572
v 0.448537 -0.085827 -0.033512
v 0.461651 0.115935 -0.033512
v 0.461651 0.115935 0.061572
v 0.428911 -0.098940 0.061572
v 0.428911 -0.098940 -0.033512
v 0.448537 0.135560 -0.033512
v 0.448537 0.135560 0.061572
v 0.405761 -0.103545 0.061572
v 0.405761 -0.103545 -0.033512
v 0.428911 0.148674 -0.033512
v 0.428911 0.148674 0.061572
v 0.269926 -0.103545 0.061572
v 0.269926 -0.103545 -0.033512
v 0.405761 0.153279 -0.033512
v 0.405761 0.153279 0.061572
v 0.246776 -0.098940 0.061572
v 0.246776 -0.098940 -0.033512
v 0.269926 0.153279 -0.033512
v 0.269926 0.153279 0.061572
v 0.227150 -0.085827 0.061572
v 0.227150 -0.085827 -0.033512
v 0.246776 0.148674 -0.033512
v 0.246776 0.148674 0.061572
v 0.214037 -0.066201 -0.033512
v 0.214037 -0.066201 0.061572
v 0.227150 0.135560 -0.033512
v 0.227150 0.135560 0.061572
v 0.209432 -0.043051 -0.033512
v 0.209432 -0.043051 0.061572
v 0.214037 0.115935 0.061572
v 0.214037 0.115935 -0.033512
v 0.209432 0.092784 -0.033512
v 0.209432 0.092784 0.061572
vn -0.9951847264480945 0.09801714260491001 -2.357803062661129e-9
vn -0.9238795391929063 0.3826834162342326 -9.205448390514413e-9
vn -0.9951847264480945 0.09801714260491001 -2.357802062661102e-9
vn -0.9951847264480945 -0.09801714260491001 2.3578010626610756e-9
vn -0.7071067811865474 0.7071067811865474 -1.7009449547442507e-8
vn -0.9238795391929063 -0.3826834162342326 9.205448390514413e-9
vn -0.3826834162342326 0.9238795391929063 -2.2223920942785302e-8
vn -0.7071067811865474 -0.7071067811865474 1.7009449547442507e-8
vn -0.09801714260490998 0.9951847264480943 -2.3939160636208698e-8
vn -0.3826834162342326 -0.9238795391929063 2.2223920942785302e-8
vn 0.09801723174024875 0.9951847176690255 -2.3939160425028267e-8
vn -0.09801714260490998 -0.9951847264480943 2.3939160636208698e-8
vn 0.3826835869449007 0.923879468482217 -2.2223919241839776e-8
vn 0.09801723174024875 -0.9951847176690255 2.3939160425028267e-8
vn 0.7071068811865378 0.7071066811865431 -1.7009449547442338e-8
vn 0.3826835869449007 -0.923879468482217 2.2223919241839776e-8
vn 0.9238795538375647 0.3826833808788962 -9.205446540041958e-9
vn 0.7071068811865378 -0.7071066811865431 1.7009449547442338e-8
vn 0.995184727423546 0.0980171327009833 -2.357802064972152e-9
vn 0.9238795538375647 -0.3826833808788962 9.205445540042009e-9
vn 0.995184727423546 -0.0980171327009833 2.3578010649721244e-9
usemtl material_0_0
f 1//1 2//2 3//3
f 2//2 1//1 4//2
f 5//4 3//3 6//4
f 3//3 5//4 1//1
f 4//2 7//5 2//2
f 7//5 4//2 8//5
f 9//6 6//4 10//6
f 6//4 9//6 5//4
f 11//7 8//5 12//7
f 8//5 11//7 7//5
f 13//8 10//6 14//8
f 10//6 13//8 9//6
f 15//9 12//7 16//9
f 12//7 15//9 11//7
f 14//8 17//10 13//8
f 17//10 14//8 18//10
f 19//11 16//9 20//11
f 16//9 19//11 15//9
f 18//10 21//12 17//10
f 21//12 18//10 22//12
f 23//13 20//11 24//13
f 20//11 23//13 19//11
f 22//12 25//14 21//12
f 25//14 22//12 26//14
f 27//15 24//13 28//15
f 24//13 27//15 23//13
f 26//14 29//16 25//14
f 29//16 26//14 30//16
f 27//15 31//17 32//17
f 31//17 27//15 28//15
f 30//16 33//18 29//16
f 33//18 30//16 34//18
f 32//17 35//19 36//19
f 35//19 32//17 31//17
f 37//20 33//18 34//18
f 33//18 37//20 38//20
f 36//19 39//21 40//21
f 39//21 36//19 35//19
f 40//21 38//20 37//20
f 38//20 40//21 39//21
