# SSTK version 0.8.0
# 2
mtllib original-2.mtl
o #ID40
v -0.842564 0.560295 -0.023764
v -0.842564 0.560295 0.016507
v -0.842564 0.565691 -0.003628
v -0.842564 0.545555 -0.038505
v -0.842564 0.545555 0.031248
v -0.842564 0.523631 -0.044379
v -0.842564 0.523631 0.037122
v -0.842564 -0.473897 -0.044379
v -0.842564 -0.473897 0.037122
v -0.842564 -0.495821 -0.038505
v -0.842564 -0.495821 0.031248
v -0.842564 -0.510562 -0.023764
v -0.842564 -0.510562 0.016507
v -0.842564 -0.515957 -0.003628
vt -0.8415355 -0.002964724
vt -0.8415355 0.002964724
vt -0.8407411 0
vt -0.8437058 -0.005135052
vt -0.8437058 0.005135052
vt -0.8469339 -0.006
vt -0.8469339 0.006
vt -0.9938072 -0.006
vt -0.9938072 0.006
vt -0.9970353 -0.005135052
vt -0.9970353 0.005135052
vt -0.9992056 -0.002964724
vt -0.9992056 0.002964724
vt -1 0
vn -1 0 0
usemtl material_0_0
f 1/1/1 2/2/1 3/3/1
f 2/2/1 1/1/1 4/4/1
f 2/2/1 4/4/1 5/5/1
f 5/5/1 4/4/1 6/6/1
f 5/5/1 6/6/1 7/7/1
f 7/7/1 6/6/1 8/8/1
f 7/7/1 8/8/1 9/9/1
f 9/9/1 8/8/1 10/10/1
f 9/9/1 10/10/1 11/11/1
f 11/11/1 10/10/1 12/12/1
f 11/11/1 12/12/1 13/13/1
f 13/13/1 12/12/1 14/14/1
