# SSTK version 0.8.0
# 9
mtllib original-9.mtl
o #ID96
v 0.064273 -0.341144 0.061572
v 0.038117 -0.407811 0.050706
v 0.069846 -0.369166 0.061572
v 0.033516 -0.384679 0.050706
v 0.051220 -0.427421 0.050706
v 0.085720 -0.392922 0.061572
v 0.606139 0.418916 0.061572
v 0.611712 -0.341144 0.061572
v 0.611713 0.390894 0.061572
v 0.606138 -0.369166 0.061572
v 0.590266 0.442671 0.061572
v 0.590266 -0.392922 0.061572
v 0.566510 0.458544 0.061572
v 0.566510 -0.408795 0.061572
v 0.538488 0.464118 0.061572
v 0.538488 -0.414369 0.061572
v 0.466256 0.092784 0.061572
v 0.461651 0.115935 0.061572
v 0.448537 0.135560 0.061572
v 0.137498 0.464119 0.061572
v 0.428911 0.148674 0.061572
v 0.405761 0.153279 0.061572
v 0.269926 0.153279 0.061572
v 0.246776 0.148674 0.061572
v 0.227150 0.135560 0.061572
v 0.214037 0.115935 0.061572
v 0.209432 0.092784 0.061572
v 0.209432 -0.043051 0.061572
v 0.448537 -0.085827 0.061572
v 0.137498 -0.414368 0.061572
v 0.461651 -0.066201 0.061572
v 0.466256 -0.043051 0.061572
v 0.428911 -0.098940 0.061572
v 0.405761 -0.103545 0.061572
v 0.269926 -0.103545 0.061572
v 0.246776 -0.098940 0.061572
v 0.227150 -0.085827 0.061572
v 0.214037 -0.066201 0.061572
v 0.109476 0.458545 0.061572
v 0.109476 -0.408794 0.061572
v 0.085721 0.442672 0.061572
v 0.085720 -0.392922 0.061572
v 0.069848 0.418916 0.061572
v 0.069846 -0.369166 0.061572
v 0.064274 0.390894 0.061572
v 0.064273 -0.341144 0.061572
v 0.033516 0.434429 0.050706
v 0.064274 0.390894 0.061572
v 0.070831 -0.440525 0.050706
v 0.109476 -0.408794 0.061572
v 0.051221 0.477172 0.050706
v 0.069848 0.418916 0.061572
v 0.085721 0.442672 0.061572
v 0.038117 0.457561 0.050706
v 0.093963 -0.445126 0.050706
v 0.137498 -0.414368 0.061572
v 0.538488 -0.414369 0.061572
v 0.582023 -0.445126 0.050706
v 0.566510 -0.408795 0.061572
v 0.605155 -0.440525 0.050706
v 0.590266 -0.392922 0.061572
v 0.624765 -0.427421 0.050706
v 0.606138 -0.369166 0.061572
v 0.637868 -0.407811 0.050706
v 0.611712 -0.341144 0.061572
v 0.642470 -0.384679 0.050706
v 0.611713 0.390894 0.061572
v 0.642470 0.434429 0.050706
v 0.637869 0.457561 0.050706
v 0.606139 0.418916 0.061572
v 0.624766 0.477172 0.050706
v 0.590266 0.442671 0.061572
v 0.605155 0.490275 0.050706
v 0.566510 0.458544 0.061572
v 0.582023 0.494876 0.050706
v 0.538488 0.464118 0.061572
v 0.093963 0.494876 0.050706
v 0.137498 0.464119 0.061572
v 0.109476 0.458545 0.061572
v 0.070831 0.490275 0.050706
vt -0.9203987 -0.946112
vt -0.9165477 -0.9362961
vt -0.9212194 -0.9419861
vt -0.9158702 -0.939702
vt -0.918477 -0.9334088
vt -0.9235566 -0.9384884
vt -1.000182 -1.058019
vt -1.001002 -0.9461096
vt -1.001002 -1.053893
vt -1.000182 -0.9419837
vt -0.9978445 -1.061516
vt -0.9978445 -0.9384859
vt -0.9943468 -1.063853
vt -0.9943468 -0.9361488
vt -0.9902209 -1.064674
vt -0.9902209 -0.9353281
vt -0.9795857 -1.01
vt -0.9789077 -1.013409
vt -0.9769769 -1.016298
vt -0.9311802 -1.064674
vt -0.9740872 -1.018229
vt -0.9706786 -1.018907
vt -0.9506786 -1.018907
vt -0.94727 -1.018229
vt -0.9443804 -1.016298
vt -0.9424496 -1.013409
vt -0.9417716 -1.01
vt -0.9417716 -0.99
vt -0.9769769 -0.9837018
vt -0.9311802 -0.9353283
vt -0.9789077 -0.9865914
vt -0.9795857 -0.99
vt -0.9740872 -0.981771
vt -0.9706786 -0.981093
vt -0.9506786 -0.981093
vt -0.94727 -0.981771
vt -0.9443804 -0.9837018
vt -0.9424496 -0.9865914
vt -0.9270544 -1.063854
vt -0.9270543 -0.9361489
vt -0.9235567 -1.061516
vt -0.9235566 -0.938486
vt -0.9212196 -1.058019
vt -0.9212194 -0.9419837
vt -0.920399 -1.053893
vt -0.9203987 -0.9461096
vt -0.9158703 -1.060303
vt -0.9158702 -0.9396996
vt -0.9213643 -0.9314795
vt -0.9270543 -0.9361513
vt -0.918477 -1.066596
vt -0.9165477 -1.063709
vt -0.9247702 -0.930802
vt -0.9311802 -0.9353307
vt -0.9902209 -0.9353305
vt -0.9966309 -0.930802
vt -0.9943468 -0.9361512
vt -1.000037 -0.9314795
vt -0.9978445 -0.9384884
vt -1.002924 -0.9334088
vt -1.000182 -0.9419861
vt -1.004853 -0.9362961
vt -1.001002 -0.946112
vt -1.005531 -0.939702
vt -1.005531 -0.9396996
vt -1.005531 -1.060303
vt -1.004853 -1.063709
vt -1.002924 -1.066596
vt -1.000037 -1.068525
vt -0.9966309 -1.069203
vt -0.9247702 -1.069203
vt -0.996631 -1.069203
vt -0.9213644 -1.068525
vn -0.3164657044023845 -0.013178010183320552 0.9485124131948462
vn -0.2109695095567787 -0.10020220453909334 0.9723432440465033
vn -0.2361153940263058 -0.07848986801421473 0.9685498754957917
vn -0.280332811381701 -0.041328941677982886 0.9590127389365635
vn -0.15372399260158878 -0.15372569260150695 0.9760826530232026
vn -0.15372409260160855 -0.15372559260153634 0.9760826530233586
vn 1.7194259999999722e-7 5.428136999999912e-8 1
vn -0.2803273052228371 0.04132733076997821 0.9590144178675997
vn -0.3164633927754253 0.013178449699147844 0.948513178346297
vn -0.10019900063636887 -0.21096890133987406 0.9723437061754037
vn -0.07848654033657887 -0.236113101012539 0.9685507041534983
vn -0.1537239026497166 0.1537222026496873 0.9760832168246049
vn -0.23610949948566423 0.07848757982902438 0.9685514978901286
vn -0.15372390028663818 0.15372230028663522 0.976083201820034
vn -0.21096598893182053 0.10019889474313677 0.9723443489866503
vn -0.041325889692701054 -0.2803299979154687 0.9590136928687828
vn -0.013177710241225276 -0.31646420579305234 0.9485129173630537
vn 0.01317812974776996 -0.3164651939428409 0.9485125818454234
vn 0.041328949526828945 -0.2803322967905032 0.9590128890203562
vn 0.0784898280715666 -0.2361149941988401 0.9685499762034881
vn 0.10020210214192317 -0.2109692045096841 0.9723433207848403
vn 0.1537254996909541 -0.15372389969095732 0.9760826980377078
vn 0.15372559969092778 -0.1537237996909314 0.9760826980375419
vn 0.2361131952522793 -0.07848654842180693 0.9685506805245611
vn 0.2109688057906581 -0.10019900275025573 0.9723437266888276
vn 0.3164645955417073 -0.013177759814354241 0.9485127866375334
vn 0.28033030076061816 -0.041325930112129344 0.9590136026020846
vn 0.3164645015530609 0.013178720064675041 0.9485128046548607
vn 0.2803296964718564 0.04133036947982864 0.959013587930149
vn 0.21096659714908392 0.10020209864590993 0.9723438868601434
vn 0.23611169751970995 0.07849093917547373 0.9685506898256349
vn 0.15372229792355535 0.1537239979235324 0.9760831868152978
vn 0.15372230028663522 0.15372390028663818 0.976083201820034
vn 0.1001988968569921 0.21096589338248736 0.9723443694998037
vn 0.07848760155898474 0.23610940468979746 0.9685515192381599
vn 0.04132738135529999 0.28032690919310743 0.959014531450151
vn 0.013178610089565643 0.31646300215077405 0.9485133064463706
vn -0.04133023921409502 0.2803293946694655 0.9590136817641116
vn -0.013178469693359805 0.3164639926364303 0.9485129779297438
vn -0.07849085762588158 0.23611139285832233 0.9685507707041777
vn -0.1002021028737673 0.21096640605045544 0.9723439278865423
usemtl material_0_0
f 1/1/1 2/2/2 3/3/3
f 2/2/2 1/1/1 4/4/4
f 3/3/3 5/5/5 6/6/6
f 5/5/5 3/3/3 2/2/2
f 7/7/7 8/8/7 9/9/7
f 8/8/7 7/7/7 10/10/7
f 10/10/7 7/7/7 11/11/7
f 10/10/7 11/11/7 12/12/7
f 12/12/7 11/11/7 13/13/7
f 12/12/7 13/13/7 14/14/7
f 14/14/7 13/13/7 15/15/7
f 14/14/7 15/15/7 16/16/7
f 16/16/7 15/15/7 17/17/7
f 17/17/7 15/15/7 18/18/7
f 18/18/7 15/15/7 19/19/7
f 19/19/7 15/15/7 20/20/7
f 19/19/7 20/20/7 21/21/7
f 21/21/7 20/20/7 22/22/7
f 22/22/7 20/20/7 23/23/7
f 23/23/7 20/20/7 24/24/7
f 24/24/7 20/20/7 25/25/7
f 25/25/7 20/20/7 26/26/7
f 26/26/7 20/20/7 27/27/7
f 27/27/7 20/20/7 28/28/7
f 16/16/7 29/29/7 30/30/7
f 29/29/7 16/16/7 31/31/7
f 31/31/7 16/16/7 32/32/7
f 32/32/7 16/16/7 17/17/7
f 30/30/7 29/29/7 33/33/7
f 30/30/7 33/33/7 34/34/7
f 30/30/7 34/34/7 35/35/7
f 30/30/7 35/35/7 36/36/7
f 30/30/7 36/36/7 37/37/7
f 30/30/7 37/37/7 38/38/7
f 30/30/7 38/38/7 28/28/7
f 30/30/7 28/28/7 20/20/7
f 30/30/7 20/20/7 39/39/7
f 30/30/7 39/39/7 40/40/7
f 40/40/7 39/39/7 41/41/7
f 40/40/7 41/41/7 42/42/7
f 42/42/7 41/41/7 43/43/7
f 42/42/7 43/43/7 44/44/7
f 44/44/7 43/43/7 45/45/7
f 44/44/7 45/45/7 46/46/7
f 47/47/8 1/46/1 48/45/9
f 1/46/1 47/47/8 4/48/4
f 6/6/6 49/49/10 50/50/11
f 49/49/10 6/6/6 5/5/5
f 51/51/12 52/43/13 53/41/14
f 52/43/13 51/51/12 54/52/15
f 54/52/15 48/45/9 52/43/13
f 48/45/9 54/52/15 47/47/8
f 50/50/11 55/53/16 56/54/17
f 55/53/16 50/50/11 49/49/10
f 57/55/18 55/53/16 58/56/19
f 55/53/16 57/55/18 56/54/17
f 59/57/20 58/56/19 60/58/21
f 58/56/19 59/57/20 57/55/18
f 61/59/22 60/58/21 62/60/23
f 60/58/21 61/59/22 59/57/20
f 63/61/24 62/60/23 64/62/25
f 62/60/23 63/61/24 61/59/22
f 65/63/26 64/62/25 66/64/27
f 64/62/25 65/63/26 63/61/24
f 67/9/28 66/65/27 68/66/29
f 66/65/27 67/9/28 65/8/26
f 69/67/30 67/9/28 68/66/29
f 67/9/28 69/67/30 70/7/31
f 71/68/32 70/7/31 69/67/30
f 70/7/31 71/68/32 72/11/33
f 73/69/34 72/11/33 71/68/32
f 72/11/33 73/69/34 74/13/35
f 75/70/36 74/13/35 73/69/34
f 74/13/35 75/70/36 76/15/37
f 77/71/38 76/15/37 75/72/36
f 76/15/37 77/71/38 78/20/39
f 77/71/38 79/39/40 78/20/39
f 79/39/40 77/71/38 80/73/41
f 80/73/41 53/41/14 79/39/40
f 53/41/14 80/73/41 51/51/12
