# SSTK version 0.8.0
# 6
mtllib original-6.mtl
o #ID72
v -0.184924 -0.350911 -0.033512
v -0.180319 -0.327761 0.061572
v -0.180319 -0.327761 -0.033512
v -0.184924 -0.350911 0.061572
v -0.180319 -0.191926 0.061572
v -0.180319 -0.191926 -0.033512
v -0.180319 -0.191926 -0.033512
v -0.184924 -0.350911 -0.033512
v -0.180319 -0.327761 -0.033512
v -0.184924 -0.168776 -0.033512
v -0.198038 -0.370537 -0.033512
v -0.198038 -0.149150 -0.033512
v -0.217664 -0.383651 -0.033512
v -0.217664 -0.136037 -0.033512
v -0.240814 -0.131432 -0.033512
v -0.240814 -0.388256 -0.033512
v -0.376649 -0.131432 -0.033512
v -0.376649 -0.388256 -0.033512
v -0.399799 -0.136037 -0.033512
v -0.399799 -0.383651 -0.033512
v -0.419425 -0.370537 -0.033512
v -0.419425 -0.149150 -0.033512
v -0.432539 -0.350911 -0.033512
v -0.432539 -0.168776 -0.033512
v -0.437144 -0.191926 -0.033512
v -0.437144 -0.327761 -0.033512
v -0.198038 -0.370537 -0.033512
v -0.198038 -0.370537 0.061572
v -0.184924 -0.168776 0.061572
v -0.184924 -0.168776 -0.033512
v -0.217664 -0.136037 0.061572
v -0.240814 -0.131432 -0.033512
v -0.217664 -0.136037 -0.033512
v -0.240814 -0.131432 0.061572
v -0.376649 -0.131432 -0.033512
v -0.376649 -0.131432 0.061572
v -0.399799 -0.136037 -0.033512
v -0.399799 -0.136037 0.061572
v -0.419425 -0.149150 -0.033512
v -0.419425 -0.149150 0.061572
v -0.432539 -0.168776 0.061572
v -0.432539 -0.168776 -0.033512
v -0.437144 -0.191926 0.061572
v -0.437144 -0.191926 -0.033512
v -0.437144 -0.327761 0.061572
v -0.437144 -0.327761 -0.033512
v -0.432539 -0.350911 0.061572
v -0.432539 -0.350911 -0.033512
v -0.419425 -0.370537 0.061572
v -0.419425 -0.370537 -0.033512
v -0.399799 -0.383651 -0.033512
v -0.399799 -0.383651 0.061572
v -0.376649 -0.388256 -0.033512
v -0.376649 -0.388256 0.061572
v -0.240814 -0.388256 -0.033512
v -0.240814 -0.388256 0.061572
v -0.217664 -0.383651 -0.033512
v -0.217664 -0.383651 0.061572
v -0.198038 -0.149150 0.061572
v -0.198038 -0.149150 -0.033512
vt -0.8837077 -0.9446714
vt -0.8843857 -0.94808
vt -0.8843857 -0.96808
vt -0.8837077 -0.9714886
vt -0.8817769 -0.9417818
vt -0.8817769 -0.9743782
vt -0.8788872 -0.939851
vt -0.8788872 -0.976309
vt -0.8754786 -0.976987
vt -0.8754786 -0.939173
vt -0.8554786 -0.976987
vt -0.8554786 -0.939173
vt -0.85207 -0.976309
vt -0.85207 -0.939851
vt -0.8491804 -0.9417818
vt -0.8491804 -0.9743782
vt -0.8472496 -0.9446714
vt -0.8472496 -0.9714886
vt -0.8465716 -0.96808
vt -0.8465716 -0.94808
vn -0.9238795391929066 0.38268341623423263 0
vn -0.9951847264480945 0.09801714260491001 0
vn -0.9951847264480945 -0.09801714260491001 0
vn 0 0 1
vn -0.7071067811865476 0.7071067811865476 0
vn -0.9238795391929066 -0.38268341623423263 0
vn -0.38268341623423263 -0.9238795391929066 0
vn -0.09801714260491001 -0.9951847264480945 0
vn 0.09801723174024876 -0.9951847176690256 0
vn 0.3826835869449008 -0.9238794684822172 0
vn 0.7071068811865378 -0.7071066811865431 0
vn 0.9238795538375647 -0.3826833808788962 0
vn 0.995184727423546 -0.0980171327009833 0
vn 0.995184727423546 0.0980171327009833 0
vn 0.9238795538375647 0.3826833808788962 0
vn 0.7071068811865378 0.7071066811865431 0
vn 0.3826835869449008 0.9238794684822172 0
vn 0.09801723174024876 0.9951847176690256 0
vn -0.09801714260491001 0.9951847264480945 0
vn -0.38268341623423263 0.9238795391929066 0
vn -0.7071067811865476 -0.7071067811865476 0
usemtl material_0_0
f 1/1/1 2/2/2 3/2/2
f 2/2/2 1/1/1 4/1/1
f 3/2/2 5/3/3 6/3/3
f 5/3/3 3/2/2 2/2/2
f 7/3/4 8/1/4 9/2/4
f 8/1/4 7/3/4 10/4/4
f 8/1/4 10/4/4 11/5/4
f 11/5/4 10/4/4 12/6/4
f 11/5/4 12/6/4 13/7/4
f 13/7/4 12/6/4 14/8/4
f 13/7/4 14/8/4 15/9/4
f 13/7/4 15/9/4 16/10/4
f 16/10/4 15/9/4 17/11/4
f 16/10/4 17/11/4 18/12/4
f 18/12/4 17/11/4 19/13/4
f 18/12/4 19/13/4 20/14/4
f 20/14/4 19/13/4 21/15/4
f 21/15/4 19/13/4 22/16/4
f 21/15/4 22/16/4 23/17/4
f 23/17/4 22/16/4 24/18/4
f 23/17/4 24/18/4 25/19/4
f 23/17/4 25/19/4 26/20/4
f 27/5/5 4/1/1 1/1/1
f 4/1/1 27/5/5 28/5/5
f 6/3/3 29/4/6 30/4/6
f 29/4/6 6/3/3 5/3/3
f 31/8/7 32/9/8 33/8/7
f 32/9/8 31/8/7 34/9/8
f 34/9/8 35/11/9 32/9/8
f 35/11/9 34/9/8 36/11/9
f 36/11/9 37/13/10 35/11/9
f 37/13/10 36/11/9 38/13/10
f 38/13/10 39/16/11 37/13/10
f 39/16/11 38/13/10 40/16/11
f 41/18/12 39/16/11 40/16/11
f 39/16/11 41/18/12 42/18/12
f 43/19/13 42/18/12 41/18/12
f 42/18/12 43/19/13 44/19/13
f 45/20/14 44/19/13 43/19/13
f 44/19/13 45/20/14 46/20/14
f 47/17/15 46/20/14 45/20/14
f 46/20/14 47/17/15 48/17/15
f 49/15/16 48/17/15 47/17/15
f 48/17/15 49/15/16 50/15/16
f 49/15/16 51/14/17 50/15/16
f 51/14/17 49/15/16 52/14/17
f 52/14/17 53/12/18 51/14/17
f 53/12/18 52/14/17 54/12/18
f 54/12/18 55/10/19 53/12/18
f 55/10/19 54/12/18 56/10/19
f 56/10/19 57/7/20 55/10/19
f 57/7/20 56/10/19 58/7/20
f 58/7/20 27/5/5 57/7/20
f 27/5/5 58/7/20 28/5/5
f 30/4/6 59/6/21 60/6/21
f 59/6/21 30/4/6 29/4/6
f 59/6/21 33/8/7 60/6/21
f 33/8/7 59/6/21 31/8/7
